<?xml version="1.0" standalone="no"?>
<!DOCTYPE svg PUBLIC "-//W3C//DTD SVG 1.1//EN" "http://www.w3.org/Graphics/SVG/1.1/DTD/svg11.dtd" >
<svg xmlns="http://www.w3.org/2000/svg" xmlns:xlink="http://www.w3.org/1999/xlink" version="1.1">
<metadata>
Created by FontForge 20170731 at Mon Dec 12 14:49:30 2011
 By Aleksey,,,
Copyright (c) 2006 by Lanston Type Co.- P22 type foundry. All rights reserved.
</metadata>
<defs>
<font id="LTCSquareFaceW00-SC" horiz-adv-x="709" >
  <font-face 
    font-family="LTCSquareFaceW00-SC"
    font-weight="400"
    font-stretch="normal"
    units-per-em="1000"
    panose-1="2 0 0 0 0 0 0 0 0 0"
    ascent="786"
    descent="-214"
    x-height="570"
    cap-height="700"
    bbox="-74 -183 1450 880"
    underline-thickness="50"
    underline-position="-200"
    unicode-range="U+000D-FB02"
  />
<missing-glyph horiz-adv-x="215" 
 />
    <glyph glyph-name=".notdef" horiz-adv-x="215" 
 />
    <glyph glyph-name="glyph1" horiz-adv-x="0" 
 />
    <glyph glyph-name="uni000D" unicode="&#xd;" horiz-adv-x="215" 
 />
    <glyph glyph-name="space" unicode=" " horiz-adv-x="215" 
 />
    <glyph glyph-name="space" unicode="&#xa0;" horiz-adv-x="215" 
 />
    <glyph glyph-name="exclam" unicode="!" horiz-adv-x="289" 
d="M45 559v139h199v-139l-43 -305h-116zM46 171h195v-171h-195v171z" />
    <glyph glyph-name="quotedbl" unicode="&#x22;" horiz-adv-x="494" 
d="M346 347h-121l96 346h174zM134 347h-121l96 346h174z" />
    <glyph glyph-name="numbersign" unicode="#" horiz-adv-x="556" 
d="M260 235h-103l-26 -130h-120l26 130h-99l23 118h100l23 113h-97l22 118h99l21 103h119l-21 -103h104l21 103h120l-21 -103h94l-22 -118h-96l-23 -113h92l-23 -118h-93l-26 -130h-120zM181 353h103l23 113h-104z" />
    <glyph glyph-name="dollar" unicode="$" horiz-adv-x="529" 
d="M194 0h-188v204h136l18 -72h34v91l-75 18q-38 9 -59 25.5t-31.5 36t-13 39.5t-2.5 35l1 68q1 60 38 91t96 31h46v59h105v-59h171l5 -193h-134l-15 71h-27v-87l84 -19q38 -8 60 -23.5t33 -34t14 -38t3 -34.5v-51q0 -47 -12 -77t-36 -48t-60.5 -25t-85.5 -8v-94h-105v94z
M299 199v-67h36q11 0 13.5 8.5t2.5 16.5q0 13 -3.5 22t-15.5 12zM152 415q0 -8 3 -16t23 -13l16 -4v63h-18q-11 0 -17.5 -4t-6.5 -26z" />
    <glyph glyph-name="percent" unicode="%" horiz-adv-x="1034" 
d="M36 576q0 23 9 44.5t24.5 37.5t37 25.5t46.5 9.5h149q57 0 89.5 -32.5t32.5 -89.5v-190q0 -26 -5.5 -51.5t-18.5 -45.5t-36 -32.5t-57 -12.5h-145q-68 0 -97 35t-29 93v209zM180 361q0 -10 12 -10h70q8 0 13 4t5 9v202q0 12 -7 16t-15 5h-48q-11 0 -20.5 -3.5t-9.5 -17.5
v-205zM577 693h109l-226 -691h-109zM626 337q0 23 9 44.5t24.5 37.5t37 25.5t46.5 9.5h149q57 0 89.5 -32.5t32.5 -89.5v-190q0 -26 -5.5 -51.5t-18.5 -45.5t-36 -32.5t-57 -12.5h-145q-68 0 -97 35t-29 93v209zM770 122q0 -10 12 -10h70q8 0 13 4t5 9v202q0 12 -7 16t-15 5
h-48q-11 0 -20.5 -3.5t-9.5 -17.5v-205z" />
    <glyph glyph-name="ampersand" unicode="&#x26;" horiz-adv-x="693" 
d="M19 153q0 32 9.5 62.5t35.5 48.5q21 11 48 25.5t48 26.5q-11 11 -22.5 28.5t-21 37t-16 38.5t-6.5 34q0 52 31 84.5t97 32.5h266v-172h-136l-6 42h-55l127 -151l49 59h135v-139h-70q-5 -5 -8.5 -11t-9.5 -13l42 -44h78v-142h-202l-38 38q-18 -16 -40.5 -27t-56.5 -11
h-144q-42 0 -68.5 9.5t-41 29t-19.5 48t-5 66.5zM216 177q0 -16 2.5 -26.5t13.5 -11.5h25q10 0 27 1.5t22 6.5l-68 69q-9 -5 -15.5 -17t-6.5 -22z" />
    <glyph glyph-name="quotesingle" unicode="'" horiz-adv-x="358" 
d="M13 352l141 348h192l-188 -348h-145z" />
    <glyph glyph-name="parenleft" unicode="(" horiz-adv-x="337" 
d="M330 712q-23 -48 -41 -102.5t-30.5 -110t-19.5 -110t-7 -103.5q0 -47 6.5 -101.5t19.5 -111t31.5 -111t42.5 -100.5h-130q-54 67 -86.5 125.5t-50.5 109.5t-24 94.5t-6 82.5q0 60 11.5 120t34 116t55 107.5t74.5 94.5h120z" />
    <glyph glyph-name="parenright" unicode=")" horiz-adv-x="332" 
d="M8 -143q48 100 71.5 205t23.5 213q0 111 -24.5 220.5t-73.5 214.5h123q85 -86 127 -196t42 -227q0 -116 -42 -227.5t-127 -202.5h-120v0z" />
    <glyph glyph-name="asterisk" unicode="*" horiz-adv-x="387" 
d="M237 395l-66 76q-17 -18 -30.5 -38.5t-29.5 -37.5h-91v99l80 62l-79 72v79h136l59 -73l56 73h88v-80l-86 -69l93 -64v-99h-130z" />
    <glyph glyph-name="plus" unicode="+" horiz-adv-x="532" 
d="M198 406v157h145v-157h156v-145h-156v-156h-145v156h-156v145h156z" />
    <glyph glyph-name="comma" unicode="," horiz-adv-x="298" 
d="M-54 -164l140 336h197l-187 -336h-150z" />
    <glyph glyph-name="hyphen" unicode="-" horiz-adv-x="410" 
d="M49 301h308v-155h-308v155z" />
    <glyph glyph-name="period" unicode="." horiz-adv-x="292" 
d="M45 175h202v-175h-202v175z" />
    <glyph glyph-name="slash" unicode="/" horiz-adv-x="343" 
d="M229 693h109l-226 -691h-109z" />
    <glyph glyph-name="zero" unicode="0" horiz-adv-x="613" 
d="M40 421q0 29 11.5 56t31 47.5t46.5 32.5t59 12h213q72 0 112.5 -42t40.5 -111v-239q0 -33 -7 -65t-24 -57t-45.5 -40t-71.5 -15h-209q-44 0 -74 11.5t-48.5 32.5t-26.5 50.5t-8 64.5v262zM251 158q0 -2 0.5 -5.5t5.5 -3.5h76q5 0 6 3.5t1 8.5v249q0 9 -5 12t-11 3h-52
q-9 0 -15 -2.5t-6 -12.5v-252z" />
    <glyph glyph-name="one" unicode="1" horiz-adv-x="437" 
d="M35 144h73v237h-71v143q37 6 73 12q30 5 63.5 11t56.5 13l57 16q3 1 8 1q11 0 17 -9t6 -16v-408h69v-144h-352v144z" />
    <glyph glyph-name="two" unicode="2" horiz-adv-x="606" 
d="M39 0v57q0 18 1.5 43t6.5 51t15 50t27 41q19 16 57 39t76 45q44 26 94 53q6 4 9.5 12t4.5 16q0 8 -4.5 11.5t-10.5 3.5h-78q-10 0 -15 -3t-5 -12v-58h-165v43q0 61 12 96.5t37 53.5t63 22.5t91 4.5h60q46 0 86.5 -4.5t70.5 -21.5t47 -50t17 -89q0 -12 -1 -28.5
t-6.5 -34.5t-16.5 -35t-31 -30q-46 -29 -80 -50.5t-59 -36.5t-41.5 -25.5l-27.5 -17.5h118q3 9 5 19t4 19l6 27h141l-7 -211h-501z" />
    <glyph glyph-name="three" unicode="3" horiz-adv-x="585" 
d="M213 0q-47 0 -80 9t-54 28.5t-30.5 51t-9.5 75.5v47h163v-34q0 -7 2.5 -17t16.5 -10q9 -1 26.5 -1h27.5q23 0 32 7t9 33v21q0 11 -9 15t-19 4h-85v97l81 92h-73l-7 -61h-147l5 210h461v-117l-113 -113q15 -2 33 -8q42 -15 63 -49.5t21 -71.5v-65q0 -42 -15.5 -69.5
t-41 -43.5t-58.5 -22.5t-67 -7.5h-132z" />
    <glyph glyph-name="four" unicode="4" horiz-adv-x="626" 
d="M229 134h65v35h-233l-43 83l265 317h199v-284h84v-116h-84v-35h64v-134h-317v134zM292 284v82l-68 -82h68z" />
    <glyph glyph-name="five" unicode="5" horiz-adv-x="582" 
d="M44 99q-1 5 -1.5 22.5t-1 36t-1 32.5l-0.5 14h166v-42q2 -13 17 -13h71q14 0 22 3t8 17v42q0 12 -10.5 15t-21.5 3h-244l20 338h428l19 -172h-151l-11 22h-138l-3 -49h194q51 0 83.5 -29.5t32.5 -75.5v-113q0 -51 -17.5 -81t-44 -45.5t-57 -20t-56.5 -4.5h-124
q-28 0 -58 3t-55.5 13.5t-43.5 30.5t-22 53z" />
    <glyph glyph-name="six" unicode="6" horiz-adv-x="614" 
d="M384 567q81 0 117 -30t36 -96v-60h-167v41q0 7 -5 10t-11 3h-77q-5 0 -14.5 -4t-9.5 -14v-56h156q31 0 57.5 -8.5t46 -25t30.5 -40.5t11 -55v-76q0 -26 -7 -53.5t-23.5 -50.5t-44.5 -37.5t-71 -14.5h-204q-36 0 -66 7t-51.5 24t-34 47t-12.5 77v252q0 31 7.5 60t25 51
t45 35.5t66.5 13.5h200zM339 225q0 5 -4.5 9t-14.5 4h-69v-83q0 -12 14 -12h58q6 0 11 2t5 5v75z" />
    <glyph glyph-name="seven" unicode="7" horiz-adv-x="604" 
d="M80 0q47 81 85 152.5t69 129.5l36 70t38 69h-108q-5 -20 -9 -42.5t-8 -42.5h-145l5 231h506v-104q-56 -111 -115 -222.5t-125 -240.5h-229z" />
    <glyph glyph-name="eight" unicode="8" horiz-adv-x="613" 
d="M189 -1q-34 0 -61.5 6.5t-47 22t-30 40.5t-10.5 62v55q0 36 13.5 64t45.5 45q-24 13 -34.5 36t-10.5 56v43q0 46 14 73.5t35.5 42t46.5 18.5t47 4h215q39 0 64.5 -12t40.5 -29.5t20.5 -37.5t5.5 -36v-72q0 -26 -11 -48t-34 -38q23 -11 39 -31t16 -54v-72
q0 -69 -39 -103.5t-131 -34.5h-194zM253 154q0 -8 4.5 -12t18.5 -4h44q21 1 21 17v53q0 10 -8.5 12t-13.5 2h-51q-7 0 -11 -4t-4 -9v-55zM275 428q-6 0 -11 -2t-5 -8v-53q0 -2 1.5 -5t6.5 -3h63q8 0 8 8v52q0 11 -9 11h-54z" />
    <glyph glyph-name="nine" unicode="9" horiz-adv-x="610" 
d="M214 0q-46 0 -76 7.5t-48.5 22.5t-28 39t-13.5 57l-9 73h172l5 -48q2 -2 15 -2h80q7 0 16 1.5t9 9.5v53h-158q-60 0 -97.5 34t-38.5 92q0 22 -0.5 44t-0.5 48q0 16 6.5 39.5t23.5 45t45 36.5t72 15h195q39 0 70 -6.5t52.5 -24.5t32.5 -49t11 -79v-248q0 -32 -7.5 -60.5
t-25 -51t-46.5 -35.5t-71 -13h-185zM255 350q0 -10 20 -10h61v72q0 11 -12 11h-55q-14 0 -14 -7v-66z" />
    <glyph glyph-name="colon" unicode=":" horiz-adv-x="262" 
d="M30 175h202v-175h-202v175zM30 455h202v-175h-202v175z" />
    <glyph glyph-name="semicolon" unicode=";" horiz-adv-x="383" 
d="M15 -169l140 340h192l-184 -340h-148z" />
    <glyph glyph-name="less" unicode="&#x3c;" horiz-adv-x="525" 
d="M37 339l260 258h199l-249 -258l249 -258h-199z" />
    <glyph glyph-name="equal" unicode="=" horiz-adv-x="644" 
d="M573 513v-145h-508v145h508zM573 298v-145h-508v145h508z" />
    <glyph glyph-name="greater" unicode="&#x3e;" horiz-adv-x="525" 
d="M233 81h-199l249 258l-249 258h199l260 -258z" />
    <glyph glyph-name="question" unicode="?" horiz-adv-x="544" 
d="M198 416h63q16 0 29.5 7t13.5 30v81q0 14 -10.5 19.5t-16.5 5.5h-60q-14 0 -22 -8.5t-9 -22.5v-38h-141v91q0 25 10.5 46t28.5 35t41.5 22t49.5 8h188q25 0 49 -8t43 -24t31 -39.5t12 -54.5v-124q0 -23 -7 -44.5t-21 -38t-36.5 -26.5t-53.5 -10h-36v-74h-146v167z
M166 171h195v-171h-195v171z" />
    <glyph glyph-name="at" unicode="@" horiz-adv-x="706" 
d="M525 302l48 21v276h-444v-496h263v33h133v-135h-498v700h648v-435l-150 -66h-132v41l-23 -24q-10 -10 -17 -13.5t-15 -3.5h-70q-38 0 -62.5 23.5t-24.5 58.5v149q0 38 22 59.5t61 21.5h79q7 0 12.5 -1.5t12.5 -7.5l25 -22v31h132v-210zM383 324v69l-13 11q-2 2 -5.5 3.5
t-5.5 3.5q-2 0 -6 2t-10 2q-24 0 -24 -18v-82q0 -6 4.5 -11t14.5 -5q19 1 24 8z" />
    <glyph glyph-name="A" unicode="A" horiz-adv-x="793" 
d="M27 144h65l197 560h225l191 -560h60v-144h-351v144h69l-28 83h-195l-28 -83h62v-144h-267v144zM303 343h113l-57 167z" />
    <glyph glyph-name="B" unicode="B" horiz-adv-x="729" 
d="M38 145h71v407h-71v148h509q24 0 47.5 -6.5t42 -20t30 -34.5t11.5 -50v-101q0 -21 -4.5 -41t-14.5 -37.5t-26 -30t-39 -18.5q-3 0 -3 -3q0 -4 3 -5q44 -8 69.5 -35.5t25.5 -75.5v-100q0 -47 -16 -75t-41 -43t-55.5 -19.5t-59.5 -4.5h-479v145zM441 144q17 0 28.5 10
t11.5 27v76q0 11 -9 20t-17 9h-130v-142h116zM434 411q14 0 24.5 9t10.5 23v77q0 26 -13.5 31.5t-36.5 5.5h-94v-146h109z" />
    <glyph glyph-name="C" unicode="C" horiz-adv-x="638" 
d="M597 423h-139l-17 130h-115q-24 0 -37 -9t-19.5 -23.5t-7.5 -32.5t-1 -37v-256q2 -17 8.5 -34t28.5 -17h118q24 0 30.5 15.5t6.5 35.5v100h149v-149q0 -33 -11.5 -60t-32 -46t-48.5 -29.5t-61 -10.5h-231q-42 0 -75 14t-56 39t-35 59.5t-12 75.5v365q0 31 10 58t27.5 47
t42 31.5t53.5 11.5h416z" />
    <glyph glyph-name="D" unicode="D" horiz-adv-x="763" 
d="M40 142h70v413h-72v145h524q41 0 71 -13.5t50 -36t30 -52.5t10 -63v-350q0 -30 -10 -62.5t-31.5 -59.5t-54 -44.5t-77.5 -17.5h-510v141zM324 144h124q31 0 44 13.5t13 39.5v319q0 12 -8 23t-20 14h-153v-409z" />
    <glyph glyph-name="E" unicode="E" horiz-adv-x="659" 
d="M38 145h69v413h-69v143h569l12 -274h-134l-20 131h-142v-131h110v-137h-110v-145h149l28 131h122l-13 -276h-571v145z" />
    <glyph glyph-name="F" unicode="F" horiz-adv-x="645" 
d="M394 0h-356v145h69v413h-69v143h569l12 -274h-134l-20 131h-142v-131h110v-137h-110v-145h71v-145z" />
    <glyph glyph-name="G" unicode="G" horiz-adv-x="667" 
d="M613 460h-139l-17 93h-131q-24 0 -37 -9t-19.5 -23.5t-7.5 -32.5t-1 -37v-256q2 -17 8.5 -34t28.5 -17h117l13 4v96h-84v130h286v-374h-408q-96 0 -139 43.5t-43 126.5v383q0 31 10 58t28.5 47t45 31.5t59.5 11.5h422z" />
    <glyph glyph-name="H" unicode="H" horiz-adv-x="825" 
d="M444 146h61v141h-177v-141h54v-144h-344v144h75v413h-75v141h344v-141h-52v-134h175v134h-61v141h343v-141h-67v-413h67v-144h-343v144z" />
    <glyph glyph-name="I" unicode="I" horiz-adv-x="436" 
d="M328 146h70v-144h-360v144h75v413h-75v141h360v-141h-68z" />
    <glyph glyph-name="J" unicode="J" horiz-adv-x="612" 
d="M29 289h156v-99q0 -27 10.5 -37.5t27.5 -10.5h31q17 0 28.5 10t11.5 30v377h-79v141h366v-141h-72v-348q0 -38 -6 -76t-23.5 -68t-49 -48.5t-82.5 -18.5h-163q-45 0 -75 13t-48.5 34.5t-26.5 49.5t-8 57z" />
    <glyph glyph-name="K" unicode="K" horiz-adv-x="819" 
d="M38 146h70v411h-70v143h344v-143h-59v-173l179 173h-49v143h298v-143h-61l-166 -155l199 -256h60v-145h-349v145h43l-154 188v-188h46v-145h-331v145z" />
    <glyph glyph-name="L" unicode="L" horiz-adv-x="622" 
d="M38 146h65v411h-65v149h362v-149h-81v-411h120l24 142h132l-14 -288h-543v146z" />
    <glyph glyph-name="M" unicode="M" horiz-adv-x="971" 
d="M38 146h72v409h-67v146h355l104 -269l105 269h326v-146h-69v-409h69v-146h-349v146h66v344l-157 -411h-86l-155 417v-350h58v-146h-272v146z" />
    <glyph glyph-name="N" unicode="N" horiz-adv-x="786" 
d="M38 146h65v409h-64v145h285l230 -396v251h-68v145h265v-145h-67v-555h-198l-239 399v-253h69v-146h-278v146z" />
    <glyph glyph-name="O" unicode="O" 
d="M40 557q0 29 9 55.5t27 47t45 32.5t63 12h334q71 0 111 -41t40 -122v-373q0 -32 -10 -62t-31.5 -53.5t-54.5 -38t-79 -14.5h-258q-72 0 -112 22t-58.5 52.5t-22 61.5t-3.5 49v372zM451 511q0 46 -38 46h-111q-20 0 -30.5 -13t-10.5 -33v-323q0 -23 15.5 -32.5t35.5 -9.5
h95q15 0 24 5.5t13.5 14.5t6 20.5t1.5 23.5v29z" />
    <glyph glyph-name="P" unicode="P" horiz-adv-x="724" 
d="M38 146h70v406h-70v147h499q71 0 109 -38t38 -109v-166q0 -29 -13 -51.5t-33.5 -38.5t-46 -24.5t-51.5 -8.5h-212v-117h70v-146h-360v146zM409 395q12 0 23.5 2t20.5 7.5t14 15.5t5 27v73q0 20 -13.5 27.5t-32.5 7.5h-98v-160h81z" />
    <glyph glyph-name="Q" unicode="Q" 
d="M40 557q0 29 9 55.5t27 47t45 32.5t63 12h334q71 0 111 -41t40 -122v-373q0 -32 -10 -62t-31.5 -53.5t-54.5 -38t-79 -14.5h-48v-154h-172v154h-38q-72 0 -112 22t-58.5 52.5t-22 61.5t-3.5 49v372zM451 511q0 46 -38 46h-111q-20 0 -30.5 -13t-10.5 -33v-323
q0 -23 15.5 -32.5t35.5 -9.5h95q15 0 24 5.5t13.5 14.5t6 20.5t1.5 23.5v29z" />
    <glyph glyph-name="R" unicode="R" horiz-adv-x="788" 
d="M38 146h71v409h-71v144h492q19 0 47 -3t54 -17.5t44 -44t18 -82.5v-99q0 -44 -25 -72.5t-73 -38.5l-1 -1q-1 -1 -1 -2q0 -4 4 -4l16 -4t25 -11.5t24 -24t14 -40.5q2 -20 3 -39t3 -31q2 -21 11 -30t29 -9h31v-146h-200q-25 0 -42 8.5t-27 21t-14.5 27.5t-4.5 29v132
q0 25 -11.5 45t-39.5 20h-88v-137h70v-146h-358v146zM328 402h107q16 0 25.5 11t9.5 25v67q0 6 -0.5 14t-4 16t-10.5 13.5t-20 5.5h-107v-152z" />
    <glyph glyph-name="S" unicode="S" horiz-adv-x="593" 
d="M41 0v218h128l20 -74h125q31 0 31 36v8q-2 26 -17 38t-36 20l-148 51q-33 11 -51.5 27.5t-28.5 35.5t-12.5 39t-2.5 38v127q0 32 11 57t30.5 42t46 26t56.5 9h346l6 -210h-127l-16 67h-91q-8 0 -17.5 -1.5t-17.5 -6t-13 -13.5t-5 -24q0 -32 19.5 -43.5t42.5 -18.5
l121 -41q40 -14 63 -33.5t35 -41.5t15 -44t3 -39v-67q0 -56 -14.5 -91t-43.5 -55.5t-72.5 -28t-101.5 -7.5h-284z" />
    <glyph glyph-name="T" unicode="T" horiz-adv-x="716" 
d="M184 146h71v411h-79l-14 -153h-132l23 296h632v-296h-122l-14 153h-83v-411h75v-146h-357v146z" />
    <glyph glyph-name="U" unicode="U" horiz-adv-x="766" 
d="M282 0q-93 0 -136.5 45.5t-43.5 124.5v382h-69v149h353v-149h-70v-362q0 -33 19 -42t48 -9h56q39 0 61.5 12t22.5 56q0 29 0.5 60t0.5 71t0.5 91.5t0.5 122.5h-71v147h280v-147h-72v-366q0 -53 -16.5 -88.5t-43 -57t-59 -31t-64.5 -9.5h-197z" />
    <glyph glyph-name="V" unicode="V" horiz-adv-x="765" 
d="M83 552h-56v147h334v-147h-57l116 -348l122 348h-64v147h260v-147h-53l-204 -552h-207z" />
    <glyph glyph-name="W" unicode="W" horiz-adv-x="1104" 
d="M551 346l-101 -346h-207l-159 552h-52v147h329v-147h-62l95 -325l84 325h-55v147h341v-147h-49l80 -295l76 295h-45v147h247v-147h-62l-149 -552h-213z" />
    <glyph glyph-name="X" unicode="X" horiz-adv-x="822" 
d="M37 146h61l193 207l-166 202h-56v144h372v-144h-49l79 -97l89 97h-53v144h267v-144h-45l-179 -197l175 -212h60v-146h-385v146h59l-91 105l-100 -105h66v-146h-297v146z" />
    <glyph glyph-name="Y" unicode="Y" horiz-adv-x="751" 
d="M91 555h-62v145h362v-145h-58l91 -135l82 135h-45v145h260v-145h-59l-180 -285v-124h70v-146h-351v146h76v123z" />
    <glyph glyph-name="Z" unicode="Z" horiz-adv-x="694" 
d="M37 118l345 434h-173l-18 -139h-137l10 287h585v-127l-334 -427h181l18 151h143l-19 -297h-601v118z" />
    <glyph glyph-name="bracketleft" unicode="[" horiz-adv-x="306" 
d="M45 693h246v-113h-65v-612h65v-118h-246v843z" />
    <glyph glyph-name="backslash" unicode="\" horiz-adv-x="343" 
d="M338 2h-109l-226 691h109z" />
    <glyph glyph-name="bracketright" unicode="]" horiz-adv-x="304" 
d="M259 -150h-244v118h65v612h-65v113h244v-843z" />
    <glyph glyph-name="asciicircum" unicode="^" horiz-adv-x="503" 
d="M251 712l202 -129v-108h-92l-110 77l-112 -77h-92v108z" />
    <glyph glyph-name="underscore" unicode="_" horiz-adv-x="561" 
d="M49 -20h463v-108h-463v108z" />
    <glyph glyph-name="grave" unicode="`" horiz-adv-x="448" 
d="M160 525l-142 176h174l84 -176h-116z" />
    <glyph glyph-name="a" unicode="a" horiz-adv-x="705" 
d="M25 128h56l171 447h197l167 -448h50v-127h-309v128h56l-21 56q-42 0 -79.5 -1t-79.5 -1q-5 -10 -9.5 -20t-7.5 -19q0 -7 -4 -15h54v-128h-241v128zM276 286h80q-6 16 -11 29t-10.5 26t-10.5 27t-11 31z" />
    <glyph glyph-name="b" unicode="b" horiz-adv-x="648" 
d="M34 128h58v312h-58v130h413q7 0 14.5 0.5t15.5 0.5q21 0 42 -5.5t37.5 -16.5t27 -29t10.5 -43v-83q0 -24 -15 -51t-50 -48q35 -17 55 -40.5t20 -53.5v-80q0 -40 -14.5 -64t-36.5 -36.5t-48.5 -16.5t-51.5 -4h-419v128zM384 128q12 0 20 6t8 17v62q0 5 -5.5 10t-10.5 5
h-107v-100h95zM377 343q25 0 25 17v63q0 15 -9.5 18t-25.5 3h-78v-101h88z" />
    <glyph glyph-name="c" unicode="c" horiz-adv-x="567" 
d="M521 337h-127l-16 104h-94q-18 0 -27.5 -7t-14 -18t-5.5 -24.5t-1 -25.5v-4v-202q2 -11 6 -21.5t19 -10.5h101q17 0 21 9.5t4 23.5v87h138v-123q0 -59 -38 -92t-97 -33h-200q-35 0 -64 12t-49.5 33t-32 49t-11.5 61v294q0 24 9.5 46.5t26 39.5t38.5 27t47 10h362z" />
    <glyph glyph-name="d" unicode="d" horiz-adv-x="678" 
d="M36 126h57v317h-59v128h455q37 0 64 -11.5t45 -30.5t26.5 -43.5t8.5 -51.5v-281q0 -25 -9 -52t-28 -49t-48 -36.5t-69 -14.5h-443v125zM290 128h101q41 0 41 33v258q0 7 -5.5 12.5t-11.5 9.5h-125v-313z" />
    <glyph glyph-name="e" unicode="e" horiz-adv-x="585" 
d="M32 128h62v317h-62v127h498q3 -56 5 -94t3 -64t2 -42.5t1 -29.5h-107q-2 0 -8 -0.5t-8 -0.5l-18 104h-114v-91h96v-123h-96v-103h120l11 47q4 13 8.5 29.5t7.5 30.5h110l-12 -235h-499v128z" />
    <glyph glyph-name="f" unicode="f" horiz-adv-x="573" 
d="M351 0h-319v128h61v317h-61v127h498q3 -56 5 -94t3 -64t2 -42.5t1 -29.5h-107q-2 0 -8 -0.5t-8 -0.5l-18 104h-114v-91h96v-123h-96v-103h65v-128z" />
    <glyph glyph-name="g" unicode="g" horiz-adv-x="593" 
d="M536 366h-129l-15 75h-108q-17 0 -26.5 -7.5t-14.5 -19.5t-6 -26t-1 -26v-201q2 -11 6 -22t19 -11h106v68h-74v117h258v-313h-358q-85 0 -122.5 35.5t-37.5 106.5v307q0 24 8.5 46.5t25 39.5t40.5 27t55 10h367z" />
    <glyph glyph-name="h" unicode="h" horiz-adv-x="733" 
d="M383 129h50v100h-139v-100h44v-127h-304v127h63v317h-63v125h304v-125h-42v-94h137v94h-50v125h304v-125h-57v-317h57v-127h-304v127z" />
    <glyph glyph-name="i" unicode="i" horiz-adv-x="388" 
d="M293 129h57v-127h-321v127h66v317h-66v125h321v-125h-56z" />
    <glyph glyph-name="j" unicode="j" horiz-adv-x="545" 
d="M24 244h144v-87q0 -31 29 -31h27q12 0 20 6t8 19v295h-71v125h328v-125h-61v-272q0 -28 -9 -56.5t-27 -52.5t-45 -41.5t-63 -23.5h-141q-41 0 -68 11t-43.5 29t-23 41t-6.5 47z" />
    <glyph glyph-name="k" unicode="k" horiz-adv-x="728" 
d="M34 129h57v315h-57v127h304v-127h-49v-113q34 31 63.5 56t66.5 57h-29v127h267v-127h-53q-35 -31 -68.5 -58.5t-69.5 -59.5l166 -198q11 0 25 0.5t25 0.5v-129h-307v129h24q-21 25 -48 56.5t-46 52.5l-16 18v-127h38v-129h-293v129z" />
    <glyph glyph-name="l" unicode="l" horiz-adv-x="553" 
d="M32 129h58v315h-58v132h321v-132h-70v-315h94q5 27 11 57.5t11 56.5h121l-11 -243h-477v129z" />
    <glyph glyph-name="m" unicode="m" horiz-adv-x="863" 
d="M33 129h63v314h-56v129h311l87 -208q22 51 45 104t44 104h286v-129h-56v-314h56v-129h-306v129h53v227h-6l-121 -291h-80l-118 293q-2 0 -2 -0.5t-4 -0.5v-228h50v-129h-246v129z" />
    <glyph glyph-name="n" unicode="n" horiz-adv-x="699" 
d="M34 129h53v314h-52v128h252l190 -307v179h-59v128h239v-128h-57v-443h-180l-199 307v-178h62v-129h-249v129z" />
    <glyph glyph-name="o" unicode="o" horiz-adv-x="631" 
d="M33 451q0 23 8 45.5t24.5 40t41 28t57.5 10.5h288q63 0 99 -33.5t36 -102.5v-299q0 -27 -9.5 -52t-29 -44.5t-49.5 -31.5t-71 -12h-222q-64 0 -99 18.5t-51.5 44t-19.5 51t-3 39.5v298zM387 415q0 29 -25 29h-96q-14 0 -22 -8t-8 -21v-260q0 -13 11.5 -19.5t26.5 -6.5h83
q22 0 26.5 17t4.5 37v17z" />
    <glyph glyph-name="p" unicode="p" horiz-adv-x="644" 
d="M33 129h58v311h-58v130h434q62 0 97 -31t35 -91v-132q0 -25 -11.5 -45t-30 -33.5t-41.5 -20.5t-46 -7h-178v-81h62v-129h-321v129zM358 330q16 0 31.5 5t15.5 28v60q0 11 -9.5 15.5t-23.5 4.5h-80v-113h66z" />
    <glyph glyph-name="q" unicode="q" horiz-adv-x="631" 
d="M39 459q0 23 8 45.5t24.5 40t41 28t57.5 10.5h288q63 0 99 -33.5t36 -102.5v-299q0 -27 -9.5 -52t-29 -44.5t-49.5 -31.5t-71 -12h-33v-132h-158v132h-31q-64 0 -99 18.5t-51.5 44t-19.5 51t-3 39.5v298zM393 423q0 29 -25 29h-96q-14 0 -22 -8t-8 -21v-260
q0 -13 11.5 -19.5t26.5 -6.5h83q22 0 26.5 17t4.5 37v17z" />
    <glyph glyph-name="r" unicode="r" horiz-adv-x="701" 
d="M34 129h58v314h-58v127h427q18 0 43 -2t48 -14t39.5 -36.5t16.5 -69.5v-80q0 -29 -20.5 -52t-53.5 -41q10 -7 21.5 -15.5t20.5 -19.5t15 -24.5t6 -29.5v-32q3 -25 30 -25h31v-129h-177q-24 0 -40 7t-25 18.5t-13 25t-4 26.5v105q0 18 -8 30.5t-28 12.5h-70v-96h60v-129
h-319v129zM294 335h88q9 0 15 6t6 15v55q0 8 -2.5 19.5t-18.5 11.5h-88v-107z" />
    <glyph glyph-name="s" unicode="s" horiz-adv-x="527" 
d="M34 0v190h120l18 -62h101q8 1 15 7t7 19q0 11 -4.5 18.5t-10.5 12.5t-13 8t-12 5l-129 38q-32 11 -49.5 26.5t-26 33t-10 35t-1.5 33.5v93q0 28 10.5 49t28.5 35t41.5 21.5t50.5 7.5h303v-20.5t1 -31t1.5 -51t2.5 -80.5h-118l-13 56h-69q-20 0 -33 -5.5t-13 -22.5
q0 -23 14 -31t29 -12q2 -1 14 -5q11 -3 32 -10t62 -19q31 -10 51.5 -27t32.5 -35.5t16.5 -37t4.5 -31.5v-56q0 -47 -13 -76.5t-38.5 -46t-64 -22.5t-89.5 -6h-249z" />
    <glyph glyph-name="t" unicode="t" horiz-adv-x="637" 
d="M158 129h63v315h-60l-12 -122h-123l20 249h554v-249h-115l-13 122h-61v-315h66v-129h-319v129z" />
    <glyph glyph-name="u" unicode="u" horiz-adv-x="681" 
d="M249 0q-83 0 -122.5 36.5t-39.5 105.5v298h-58v131h311v-131h-57v-283q2 -23 14.5 -27.5t35.5 -4.5h51q15 0 27 1t20.5 5.5t13 13.5t4.5 25v270h-60v131h252v-131h-60v-286q0 -44 -14.5 -73.5t-38 -47.5t-53 -25.5t-59.5 -7.5h-167z" />
    <glyph glyph-name="v" unicode="v" horiz-adv-x="680" 
d="M74 440h-49v130h295v-130h-44l93 -257l98 257h-57v130h235v-130h-46q-6 -13 -15 -33.5t-27.5 -66.5t-50.5 -126.5t-85 -213.5h-181z" />
    <glyph glyph-name="w" unicode="w" horiz-adv-x="981" 
d="M482 262q-20 -63 -40.5 -126.5t-43.5 -135.5h-184l-137 439h-48v131h295v-130h-52l74 -231q4 15 9.5 34.5t13 46.5t17.5 63.5t24 86.5h-43v130h304v-130h-42q8 -29 15.5 -53.5t15 -48.5t15 -48.5t16.5 -54.5l57 205h-36v130h223v-130h-50l-6.5 -19.5t-9 -28.5t-14 -47
t-22.5 -75t-33.5 -112t-46.5 -158h-191z" />
    <glyph glyph-name="x" unicode="x" horiz-adv-x="731" 
d="M34 129h52l162 158l-140 157h-14.5t-10 -0.5t-10 -0.5h-14.5v127h333v-127h-33l53 -61l62 61h-38v127h239v-127h-39l-147 -148l146 -167h50v-128h-343v129h44l-66 69q-19 -20 -32.5 -34t-33.5 -35h45v-129h-265v129z" />
    <glyph glyph-name="y" unicode="y" horiz-adv-x="667" 
d="M78 445q-15 0 -25 -1t-26 -1v128h322v-128h-47q18 -24 35 -46t37 -47q4 8 8.5 16t11 18.5t14.5 24.5t20 34h-32v128h234v-128h-51l-155 -221v-93h62v-129h-312v129h65v92z" />
    <glyph glyph-name="z" unicode="z" horiz-adv-x="616" 
d="M36 97l307 359h-162l-17 -115h-113l9 233h514v-103l-298 -356h164q7 45 11.5 70.5t6.5 37.5t2.5 14.5t0.5 3.5h121l-20 -241h-526v97z" />
    <glyph glyph-name="braceleft" unicode="{" horiz-adv-x="382" 
d="M121 47q0 43 -15.5 78t-33.5 60q-21 29 -48 51v92q27 19 48 45q18 23 33.5 55.5t15.5 76.5v188h246v-60h-65v-128q0 -48 -13.5 -81.5t-30.5 -54.5q-19 -26 -43 -41v-92q24 -20 43 -47q17 -23 30.5 -58.5t13.5 -83.5v-137h65v-60h-246v197z" />
    <glyph glyph-name="bar" unicode="|" horiz-adv-x="309" 
d="M209 2h-109v691h109v-691z" />
    <glyph glyph-name="braceright" unicode="}" horiz-adv-x="382" 
d="M270 -150h-246v60h65v137q0 48 13 83.5t30 58.5q19 27 44 47v92q-25 15 -44 41q-17 21 -30 54.5t-13 81.5v128h-65v60h246v-188q0 -44 15 -76.5t33 -55.5q21 -26 49 -45v-92q-28 -22 -49 -51q-18 -25 -33 -60t-15 -78v-197z" />
    <glyph glyph-name="asciitilde" unicode="~" horiz-adv-x="512" 
d="M222 386q17 39 57 39h128q18 0 35 -14.5t17 -40.5v-92h-110v39q0 15 -5.5 17.5t-10.5 2.5t-10.5 -1.5t-8.5 -7.5l-8 -16q-11 -21 -26 -32t-40 -11h-134q-34 0 -45.5 18.5t-11.5 44.5v86h122v-49q0 -18 6.5 -21.5t13.5 -3.5q3 0 8 2.5t9 7.5z" />
    <glyph glyph-name="exclamdown" unicode="&#xa1;" horiz-adv-x="289" 
d="M85 271h116l43 -305v-139h-199v139zM46 525h195v-171h-195v171z" />
    <glyph glyph-name="cent" unicode="&#xa2;" horiz-adv-x="483" 
d="M193 619h102v-74h14q132 0 132 -107v-99h-119v42q0 12 -2.5 20t-12.5 8h-12v-199h12q10 0 12.5 8.5t2.5 19.5v43h119v-100q0 -106 -132 -106h-14v-144h-102v144h-27q-44 0 -73 9t-46 28t-24.5 47t-7.5 66v170q0 37 7.5 65.5t24.5 47t46 28t73 9.5h27v74zM171 233
q0 -8 3 -15.5t11 -7.5h8v199h-8q-8 0 -11 -7t-3 -16v-153z" />
    <glyph glyph-name="sterling" unicode="&#xa3;" horiz-adv-x="566" 
d="M503 365h-161v67q0 13 -14 13h-80q-6 0 -7 -7.5t-1 -12.5v-86h154v-124h-154v-83h146q4 14 9.5 31t6.5 22h112v-185h-443v215h-31v124h31v98q0 66 31.5 99t91.5 33h189q24 0 45.5 -2.5t38 -11t26.5 -25.5t10 -45v-120z" />
    <glyph glyph-name="currency" unicode="&#xa4;" horiz-adv-x="506" 
d="M253 222q57 0 88 40.5t31 102.5q0 30 -8 56.5t-23 46t-37.5 30.5t-50.5 11q-29 0 -51 -11t-37.5 -30.5t-23.5 -46t-8 -56.5q0 -31 8 -57t23.5 -45t37.5 -30t51 -11zM19 168l69 71q-38 55 -38 126t38 124l-69 71l45 43l67 -69q24 18 54.5 29t67.5 11q36 0 67 -11t55 -29
l67 69l45 -43l-69 -71q37 -54 37 -124q0 -35 -10 -67t-28 -58l70 -72l-45 -43l-68 69q-49 -37 -121 -37t-121 37l-68 -69z" />
    <glyph glyph-name="yen" unicode="&#xa5;" horiz-adv-x="671" 
d="M118 369l-39 55h-59v147h332v-147h-29l38 -53l36 53h-21v147h247v-147h-57l-38 -55h96v-93h-160l-15 -22h175v-93h-197v-13h57v-148h-321v148h62v13h-205v93h181l-16 22h-165v93h98z" />
    <glyph glyph-name="section" unicode="&#xa7;" horiz-adv-x="467" 
d="M237 455q-1 0 -14.5 7t-32 16.5t-36.5 19t-28 13.5t-21 11.5t-20 17t-15 20.5t-6 23v84q0 15 5 31t18.5 30t37.5 23t62 9h252l5 -147h-103l-12 51h-80q-12 0 -17.5 -8t-5.5 -19q0 -8 2.5 -15t7.5 -9l128 -69q10 -6 22 -13.5t22 -18t17 -23.5t7 -30v-85q0 -15 -5.5 -27.5
t-18 -22.5t-34 -15.5t-53.5 -5.5h-64q-8 0 -12 -3.5t-5.5 -8t-2 -9t-0.5 -5.5q0 -5 2.5 -10t9.5 -8l133 -71q10 -4 21 -11.5t20 -17t15 -20.5t6 -23v-100q0 -15 -4 -31t-15.5 -30t-32 -23t-53.5 -9h-270l-5 147h103l12 -51h80q12 0 17.5 11.5t5.5 22.5q0 8 -2.5 15t-7.5 9
l-144 93l-18 9q-22 11 -34 32t-12 44v62q0 48 32.5 68t85.5 20h49q28 0 34 7.5t6 15.5t-5 11t-10 5z" />
    <glyph glyph-name="dieresis" unicode="&#xa8;" horiz-adv-x="833" 
d="M93 700h163v-159h-163v159zM332 700h163v-159h-163v159z" />
    <glyph glyph-name="copyright" unicode="&#xa9;" horiz-adv-x="820" 
d="M789 -1h-102v730h-566v-628h385v33h133v-135h-620v832h770v-832zM603 454h-109l-11 84h-75q-14 0 -21.5 -5t-11.5 -13t-4.5 -17.5t-0.5 -19.5v-167q1 -8 4 -16t14 -8h83q11 0 14 7t3 17v73h119v-105q0 -48 -32.5 -75.5t-80.5 -27.5h-161q-62 0 -97 36.5t-35 94.5v236
q0 44 28 74t73 30h295z" />
    <glyph glyph-name="ordfeminine" unicode="&#xaa;" horiz-adv-x="432" 
d="M25 330h384v-85h-384v85zM368 691v-210h41v-102h-173v41l-23 -24q-10 -10 -17 -13.5t-15 -3.5h-70q-38 0 -62.5 23.5t-24.5 58.5v149q0 38 22 59.5t61 21.5h79q7 0 12.5 -1.5t12.5 -7.5l25 -22v31h132zM226 503v69l-13 11q-2 2 -5.5 3.5t-5.5 3.5q-2 0 -6 2t-10 2
q-24 0 -24 -18v-82q0 -6 4.5 -11t14.5 -5q19 1 24 8z" />
    <glyph glyph-name="guillemotleft" unicode="&#xab;" horiz-adv-x="653" 
d="M37 229l129 229h184l-129 -229l129 -229h-184zM294 229l129 229h184l-129 -229l129 -229h-184z" />
    <glyph glyph-name="logicalnot" unicode="&#xac;" horiz-adv-x="793" 
d="M613 701v-144h-64l156 -413h60v-144h-351v144h69l-28 83h-195l-28 -83h62v-144h-267v144h65l152 413h-59v144h428zM303 343h113l-57 167z" />
    <glyph glyph-name="uni00AD" unicode="&#xad;" horiz-adv-x="410" 
d="M49 301h308v-155h-308v155z" />
    <glyph glyph-name="registered" unicode="&#xae;" horiz-adv-x="820" 
d="M652 260h-132q-19 0 -31 5.5t-19.5 14.5t-10.5 19.5t-3 19.5v76q0 12 -5.5 21.5t-19.5 9.5h-50v-64h44v-102h-239v102h45v223h-45v102h318q13 0 32 -2t36 -11.5t29.5 -28.5t12.5 -53v-58q0 -51 -45 -68q9 -5 20 -16.5t14 -30.5q0 -8 1 -13q0 -4 2 -12v-8.5t1 -7.5
q1 -16 19 -16h27l34 22v345h-566v-534h354v33h133v-135h-589v738h770v-495zM382 513h62q16 0 16 12v38q0 5 -2 13.5t-14 8.5h-62v-72z" />
    <glyph glyph-name="macron" unicode="&#xaf;" horiz-adv-x="500" 
d="M49 701h407v-155h-407v155z" />
    <glyph glyph-name="degree" unicode="&#xb0;" horiz-adv-x="339" 
d="M14 693q0 31 12 59t32 48t47.5 32t59.5 12q31 0 59 -12t48 -32t32 -48t12 -59q0 -32 -12 -59.5t-32 -47.5t-48 -32t-59 -12q-32 0 -59.5 12t-47.5 32t-32 47.5t-12 59.5zM76 693q0 -38 25.5 -63.5t63.5 -25.5t63.5 25.5t25.5 63.5t-25.5 63.5t-63.5 25.5t-63.5 -25.5
t-25.5 -63.5z" />
    <glyph glyph-name="plusminus" unicode="&#xb1;" horiz-adv-x="705" 
d="M25 128h55q3 9 8.5 22t18 45.5l35 91t60.5 157.5h-60v128h410v-128h-54l118 -316h50v-128h-309v128h55l-20 54h-159q-6 -14 -10.5 -27t-10.5 -27h54v-128h-241v128zM276 286h80l-38 121z" />
    <glyph glyph-name="uni00B2" unicode="&#xb2;" horiz-adv-x="509" 
d="M37 291v42q0 16 1 37t5 43t12 41.5t22 33.5q14 12 46 32t65 39q38 22 82 46q13 6 13 23q0 20 -11 23.5t-32 3.5h-39q-14 0 -20.5 -3.5t-6.5 -16.5v-43h-126v29q0 51 9.5 80t30 44t52 18.5t75.5 3.5h51q39 0 73 -3.5t58.5 -16.5t38.5 -39.5t14 -72.5v-5q0 -14 -1 -28
t-5.5 -28t-14 -28.5t-26.5 -29.5q-11 -9 -40 -26.5t-60 -34t-55 -28.5l-24 -12l-11 -13h126l14 58h106l-5 -169h-417z" />
    <glyph glyph-name="uni00B3" unicode="&#xb3;" horiz-adv-x="492" 
d="M178 291q-76 0 -108.5 30.5t-32.5 104.5v34h125v-25q0 -7 3 -18t19 -11h24q8 0 14 -0.5t11 -0.5q23 0 32.5 7t9.5 34v15q0 14 -9.5 19t-20.5 5h-68v77l86 90h-89q-2 -12 -4 -27t-6 -27h-111l4 167h382v-91l-106 -108h10q5 0 14 -0.5t17 -3.5q34 -12 51 -41t17 -58v-56
q0 -34 -13 -56t-34 -35t-48 -18.5t-55 -6.5h-114z" />
    <glyph glyph-name="acute" unicode="&#xb4;" horiz-adv-x="448" 
d="M84 525l84 176h174l-142 -176h-116z" />
    <glyph glyph-name="paragraph" unicode="&#xb6;" 
d="M472 559h-55v-559h-170v260h-5q-53 0 -91.5 18t-64.5 48.5t-38.5 70t-12.5 82.5t14 83.5t40.5 71.5t65 49.5t87.5 18.5h447v-143h-46v-559h-171v559z" />
    <glyph glyph-name="periodcentered" unicode="&#xb7;" horiz-adv-x="292" 
d="M45 440h202v-175h-202v175z" />
    <glyph glyph-name="cedilla" unicode="&#xb8;" horiz-adv-x="483" 
d="M295 19l-3 -47h4h-3h4h26q28 0 47.5 -17t19.5 -44v-21q0 -24 -9 -38.5t-22 -22t-28 -10t-27 -2.5h-112v60h92q9 0 14.5 3.5t5.5 16.5q0 11 -7 14t-12 4h-69l14 104h65z" />
    <glyph glyph-name="uni00B9" unicode="&#xb9;" horiz-adv-x="367" 
d="M34 401h63v218h-61v110q31 4 60 9q25 5 52 10t47 11l54 15q8 0 11.5 -4.5t3.5 -8.5v-360h59v-110h-289v110z" />
    <glyph glyph-name="ordmasculine" unicode="&#xba;" horiz-adv-x="388" 
d="M23 607q0 15 5 30.5t16.5 28t30.5 20t46 7.5h143q48 0 70.5 -22t22.5 -59v-143q0 -45 -31 -66.5t-77 -21.5h-125q-30 0 -50 7t-31 19.5t-15.5 30t-4.5 38.5v131zM174 596q-7 0 -14 -4.5t-7 -14.5v-83q0 -4 6 -10.5t18 -6.5h21q14 0 20.5 6.5t6.5 13.5v83q0 8 -6 12t-14 4
h-31zM25 330h332v-85h-332v85z" />
    <glyph glyph-name="guillemotright" unicode="&#xbb;" horiz-adv-x="649" 
d="M478 0h-184l129 229l-129 229h184l129 -229zM221 0h-184l129 229l-129 229h184l129 -229z" />
    <glyph glyph-name="onequarter" unicode="&#xbc;" horiz-adv-x="1105" 
d="M34 341h63v218h-61v110q31 5 60 10q25 5 52 10.5t47 10.5l6 1q17 5 26.5 7.5t14 4t6 1.5h1.5q8 0 11.5 -5t3.5 -8v-360h59v-110h-289v110zM547 693h109l-254 -693h-109zM781 102h55v30h-188l-39 77l232 267h142v-244h72v-100h-72v-30h55v-102h-257v102zM834 230v88
l-77 -88h77z" />
    <glyph glyph-name="onehalf" unicode="&#xbd;" horiz-adv-x="1088" 
d="M34 341h63v218h-61v110q31 5 60 10q25 5 52 10.5t47 10.5l54 14q8 0 11.5 -4.5t3.5 -8.5v-360h59v-110h-289v110zM547 693h109l-254 -693h-109zM616 0v42q0 16 1 37t5 43t12 41.5t22 33.5q14 12 46 32t65 39q38 22 82 46q13 6 13 23q0 20 -11 23.5t-32 3.5h-39
q-14 0 -20.5 -3.5t-6.5 -16.5v-43h-126v29q0 51 9.5 80t30 44t52 18.5t75.5 3.5h51q39 0 73 -3.5t58.5 -16.5t38.5 -39.5t14 -72.5v-5q0 -14 -1 -28t-5.5 -28t-14 -28.5t-26.5 -29.5q-11 -9 -40 -26.5t-60 -34t-55 -28.5l-24 -12l-11 -13h126l14 58h101v-169h-417z" />
    <glyph glyph-name="threequarters" unicode="&#xbe;" horiz-adv-x="1230" 
d="M178 231q-76 0 -108.5 30.5t-32.5 104.5v34h125v-25q0 -7 3 -18t19 -11h24q8 0 14 -0.5t11 -0.5q23 0 32.5 7t9.5 34v15q0 14 -9.5 19t-20.5 5h-68v77l86 90h-89q-2 -12 -4 -27t-6 -27h-111l4 167h382v-91l-106 -108h16q6 0 12.5 -0.5t12.5 -3.5q34 -12 51 -41t17 -58
v-56q0 -34 -13 -56t-34 -35t-48 -18.5t-55 -6.5h-114zM672 693h109l-254 -693h-109zM906 102h55v30h-188l-39 77l232 267h142v-244h72v-100h-72v-30h55v-102h-257v102zM959 230v88l-77 -88h77z" />
    <glyph glyph-name="questiondown" unicode="&#xbf;" horiz-adv-x="544" 
d="M350 100h-63q-16 0 -29.5 -7t-13.5 -30v-81q0 -14 10.5 -19.5t16.5 -5.5h60q14 0 22 8.5t9 22.5v38h141v-91q0 -26 -10.5 -46.5t-28.5 -34.5t-41.5 -22t-49.5 -8h-188q-25 0 -49 8t-43 24t-31 39.5t-12 54.5v124q0 23 7 44.5t21 38t36.5 26.5t53.5 10h36v74h146v-167z
M382 345h-195v171h195v-171z" />
    <glyph glyph-name="Agrave" unicode="&#xc0;" horiz-adv-x="793" 
d="M27 144h65l197 560h225l191 -560h60v-144h-351v144h69l-28 83h-195l-28 -83h62v-144h-267v144zM303 343h113l-57 167zM338 740l-151 129h196l93 -129h-138z" />
    <glyph glyph-name="Aacute" unicode="&#xc1;" horiz-adv-x="793" 
d="M27 144h65l197 560h225l191 -560h60v-144h-351v144h69l-28 83h-195l-28 -83h62v-144h-267v144zM303 343h113l-57 167zM327 740l93 129h196l-151 -129h-138z" />
    <glyph glyph-name="Acircumflex" unicode="&#xc2;" horiz-adv-x="793" 
d="M27 144h65l197 560h225l191 -560h60v-144h-351v144h69l-28 83h-195l-28 -83h62v-144h-267v144zM303 343h113l-57 167zM210 740l81 129h211l81 -129h-120l-67 64l-65 -64h-121z" />
    <glyph glyph-name="Atilde" unicode="&#xc3;" horiz-adv-x="793" 
d="M27 144h65l197 560h225l191 -560h60v-144h-351v144h69l-28 83h-195l-28 -83h62v-144h-267v144zM303 343h113l-57 167zM364 837q8 19 19.5 25.5t21.5 6.5h155q18 0 29.5 -14.5t11.5 -40.5v-74h-110v39q0 15 -5.5 17.5t-10.5 2.5q-2 0 -3.5 0.5t-3.5 0.5q-8 0 -10 -6
l-13 -38q-3 -6 -14 -15.5t-36 -9.5h-165q-20 0 -29.5 14.5t-9.5 40.5v76h122v-42q0 -18 6.5 -21.5t13.5 -3.5q3 0 8 2.5t9 7.5z" />
    <glyph glyph-name="Adieresis" unicode="&#xc4;" horiz-adv-x="793" 
d="M27 144h65l197 560h225l191 -560h60v-144h-351v144h69l-28 83h-195l-28 -83h62v-144h-267v144zM303 343h113l-57 167zM185 868h184v-128h-184v128zM424 868h184v-128h-184v128z" />
    <glyph glyph-name="Aring" unicode="&#xc5;" horiz-adv-x="793" 
d="M27 144h65l195 556q-11 14 -11 30v87q0 21 6.5 33t17.5 19t25 9t28 2h121q10 0 21.5 -3t21 -10.5t15.5 -19.5t6 -30v-82q0 -23 -21 -41l188 -550h60v-144h-351v144h69l-28 83h-195l-28 -83h62v-144h-267v144zM303 343h113l-57 167zM354 759q0 -5 1 -7.5t8 -2.5h82
q1 0 3 1t2 7v39q0 7 -6 7h-84q-4 0 -5 -2.5t-1 -4.5v-37z" />
    <glyph glyph-name="AE" unicode="&#xc6;" horiz-adv-x="1009" 
d="M388 145h69v82h-188l-37 -83h62v-144h-267v144h65l189 413h-59v144h735l12 -274h-134l-20 131h-142v-131h110v-137h-110v-145h149l28 131h122l-13 -276h-571v145zM417 558l-96 -215h136v215h-40z" />
    <glyph glyph-name="Ccedilla" unicode="&#xc7;" horiz-adv-x="638" 
d="M597 423h-139l-17 130h-115q-24 0 -37 -9t-19.5 -23.5t-7.5 -32.5t-1 -37v-256q2 -17 8.5 -34t28.5 -17h118q24 0 30.5 15.5t6.5 35.5v100h149v-149q0 -33 -11.5 -60t-32 -46t-48.5 -29.5t-61 -10.5h-98l-2 -28h31q28 0 47.5 -17t19.5 -44v-21q0 -24 -9 -38.5t-22 -22
t-28 -10t-27 -2.5h-112v60h92q9 0 14.5 3.5t5.5 16.5q0 11 -7 14t-12 4h-69l11 85h-66q-42 0 -75 14t-56 39t-35 59.5t-12 75.5v365q0 31 10 58t27.5 47t42 31.5t53.5 11.5h416z" />
    <glyph glyph-name="Egrave" unicode="&#xc8;" horiz-adv-x="659" 
d="M38 145h69v413h-69v143h569l12 -274h-134l-20 131h-142v-131h110v-137h-110v-145h149l28 131h122l-13 -276h-571v145zM271 740l-151 129h196l93 -129h-138z" />
    <glyph glyph-name="Eacute" unicode="&#xc9;" horiz-adv-x="659" 
d="M38 145h69v413h-69v143h569l12 -274h-134l-20 131h-142v-131h110v-137h-110v-145h149l28 131h122l-13 -276h-571v145zM241 740l93 129h196l-151 -129h-138z" />
    <glyph glyph-name="Ecircumflex" unicode="&#xca;" horiz-adv-x="659" 
d="M38 145h69v413h-69v143h569l12 -274h-134l-20 131h-142v-131h110v-137h-110v-145h149l28 131h122l-13 -276h-571v145zM116 740l93 129h241l93 -129h-138l-76 64l-75 -64h-138z" />
    <glyph glyph-name="Edieresis" unicode="&#xcb;" horiz-adv-x="659" 
d="M38 145h69v413h-69v143h569l12 -274h-134l-20 131h-142v-131h110v-137h-110v-145h149l28 131h122l-13 -276h-571v145zM118 868h184v-128h-184v128zM357 868h184v-128h-184v128z" />
    <glyph glyph-name="Igrave" unicode="&#xcc;" horiz-adv-x="436" 
d="M328 146h70v-144h-360v144h75v413h-75v141h360v-141h-68zM173 740l-151 129h196l93 -129h-138z" />
    <glyph glyph-name="Iacute" unicode="&#xcd;" horiz-adv-x="436" 
d="M328 146h70v-144h-360v144h75v413h-75v141h360v-141h-68zM139 740l93 129h196l-151 -129h-138z" />
    <glyph glyph-name="Icircumflex" unicode="&#xce;" horiz-adv-x="436" 
d="M328 146h70v-144h-360v144h75v413h-75v141h360v-141h-68zM20 740l85 129h221l84 -129h-126l-69 64l-68 -64h-127z" />
    <glyph glyph-name="Idieresis" unicode="&#xcf;" horiz-adv-x="436" 
d="M328 146h70v-144h-360v144h75v413h-75v141h360v-141h-68zM38 868h158v-128h-158v128zM243 868h159v-128h-159v128z" />
    <glyph glyph-name="Eth" unicode="&#xd0;" horiz-adv-x="763" 
d="M38 421h72v134h-72v145h524q41 0 71 -13.5t50 -36t30 -52.5t10 -63v-350q0 -30 -10 -62.5t-31.5 -59.5t-54 -44.5t-77.5 -17.5h-510v141h70v133h-72v146zM324 421h37v-146h-37v-131h124q57 0 57 48v324q0 12 -8 23t-20 14h-153v-132z" />
    <glyph glyph-name="Ntilde" unicode="&#xd1;" horiz-adv-x="786" 
d="M38 146h65v409h-64v145h285l230 -396v251h-68v145h265v-145h-67v-555h-198l-239 399v-253h69v-146h-278v146zM361 837q8 19 19.5 25.5t21.5 6.5h155q18 0 29.5 -14.5t11.5 -40.5v-74h-110v39q0 15 -5.5 17.5t-10.5 2.5q-2 0 -3.5 0.5t-3.5 0.5q-8 0 -10 -6l-13 -38
q-3 -6 -14 -15.5t-36 -9.5h-165q-20 0 -29.5 14.5t-9.5 40.5v76h122v-42q0 -18 6.5 -21.5t13.5 -3.5q3 0 8 2.5t9 7.5z" />
    <glyph glyph-name="Ograve" unicode="&#xd2;" 
d="M40 557q0 29 9 55.5t27 47t45 32.5t63 12h334q71 0 111 -41t40 -122v-373q0 -32 -10 -62t-31.5 -53.5t-54.5 -38t-79 -14.5h-258q-72 0 -112 22t-58.5 52.5t-22 61.5t-3.5 49v372zM451 511q0 46 -38 46h-111q-20 0 -30.5 -13t-10.5 -33v-323q0 -23 15.5 -32.5t35.5 -9.5
h95q15 0 24 5.5t13.5 14.5t6 20.5t1.5 23.5v29zM305 740l-151 129h196l93 -129h-138z" />
    <glyph glyph-name="Oacute" unicode="&#xd3;" 
d="M40 557q0 29 9 55.5t27 47t45 32.5t63 12h334q71 0 111 -41t40 -122v-373q0 -32 -10 -62t-31.5 -53.5t-54.5 -38t-79 -14.5h-258q-72 0 -112 22t-58.5 52.5t-22 61.5t-3.5 49v372zM451 511q0 46 -38 46h-111q-20 0 -30.5 -13t-10.5 -33v-323q0 -23 15.5 -32.5t35.5 -9.5
h95q15 0 24 5.5t13.5 14.5t6 20.5t1.5 23.5v29zM264 740l93 129h196l-151 -129h-138z" />
    <glyph glyph-name="Ocircumflex" unicode="&#xd4;" 
d="M40 557q0 29 9 55.5t27 47t45 32.5t63 12h334q71 0 111 -41t40 -122v-373q0 -32 -10 -62t-31.5 -53.5t-54.5 -38t-79 -14.5h-258q-72 0 -112 22t-58.5 52.5t-22 61.5t-3.5 49v372zM451 511q0 46 -38 46h-111q-20 0 -30.5 -13t-10.5 -33v-323q0 -23 15.5 -32.5t35.5 -9.5
h95q15 0 24 5.5t13.5 14.5t6 20.5t1.5 23.5v29zM141 740l93 129h241l93 -129h-138l-76 64l-75 -64h-138z" />
    <glyph glyph-name="Otilde" unicode="&#xd5;" 
d="M40 557q0 29 9 55.5t27 47t45 32.5t63 12h334q71 0 111 -41t40 -122v-373q0 -32 -10 -62t-31.5 -53.5t-54.5 -38t-79 -14.5h-258q-72 0 -112 22t-58.5 52.5t-22 61.5t-3.5 49v372zM451 511q0 46 -38 46h-111q-20 0 -30.5 -13t-10.5 -33v-323q0 -23 15.5 -32.5t35.5 -9.5
h95q15 0 24 5.5t13.5 14.5t6 20.5t1.5 23.5v29zM336 837q8 19 19.5 25.5t21.5 6.5h155q18 0 29.5 -14.5t11.5 -40.5v-74h-110v39q0 15 -5.5 17.5t-10.5 2.5q-2 0 -3.5 0.5t-3.5 0.5q-8 0 -10 -6l-13 -38q-3 -6 -14 -15.5t-36 -9.5h-165q-20 0 -29.5 14.5t-9.5 40.5v76h122
v-42q0 -18 6.5 -21.5t13.5 -3.5q3 0 8 2.5t9 7.5z" />
    <glyph glyph-name="Odieresis" unicode="&#xd6;" 
d="M40 557q0 29 9 55.5t27 47t45 32.5t63 12h334q71 0 111 -41t40 -122v-373q0 -32 -10 -62t-31.5 -53.5t-54.5 -38t-79 -14.5h-258q-72 0 -112 22t-58.5 52.5t-22 61.5t-3.5 49v372zM451 511q0 46 -38 46h-111q-20 0 -30.5 -13t-10.5 -33v-323q0 -23 15.5 -32.5t35.5 -9.5
h95q15 0 24 5.5t13.5 14.5t6 20.5t1.5 23.5v29zM143 868h184v-128h-184v128zM382 868h184v-128h-184v128z" />
    <glyph glyph-name="multiply" unicode="&#xd7;" horiz-adv-x="532" 
d="M168 333l-111 112l103 102l111 -111l110 110l103 -102l-111 -111l111 -110l-103 -102l-110 110l-110 -110l-103 102z" />
    <glyph glyph-name="Oslash" unicode="&#xd8;" 
d="M40 557q0 29 9 55.5t27 47t45 32.5t63 12h334q71 0 111 -41t40 -122v-373q0 -32 -10 -62t-31.5 -53.5t-54.5 -38t-79 -14.5h-258q-72 0 -112 22t-58.5 52.5t-22 61.5t-3.5 49v372zM261 390h190v121q0 46 -38 46h-111q-20 0 -30.5 -13t-10.5 -33v-121zM261 291v-103
q0 -23 15.5 -32.5t35.5 -9.5h95q15 0 24 5.5t13.5 14.5t6 20.5t1.5 23.5v81h-191z" />
    <glyph glyph-name="Ugrave" unicode="&#xd9;" horiz-adv-x="766" 
d="M282 0q-93 0 -136.5 45.5t-43.5 124.5v382h-69v149h353v-149h-70v-362q0 -33 19 -42t48 -9h56q39 0 61.5 12t22.5 56q0 29 0.5 60t0.5 71t0.5 91.5t0.5 122.5h-71v147h280v-147h-72v-366q0 -53 -16.5 -88.5t-43 -57t-59 -31t-64.5 -9.5h-197zM355 740l-151 129h196
l93 -129h-138z" />
    <glyph glyph-name="Uacute" unicode="&#xda;" horiz-adv-x="766" 
d="M282 0q-93 0 -136.5 45.5t-43.5 124.5v382h-69v149h353v-149h-70v-362q0 -33 19 -42t48 -9h56q39 0 61.5 12t22.5 56q0 29 0.5 60t0.5 71t0.5 91.5t0.5 122.5h-71v147h280v-147h-72v-366q0 -53 -16.5 -88.5t-43 -57t-59 -31t-64.5 -9.5h-197zM307 740l93 129h196
l-151 -129h-138z" />
    <glyph glyph-name="Ucircumflex" unicode="&#xdb;" horiz-adv-x="766" 
d="M282 0q-93 0 -136.5 45.5t-43.5 124.5v382h-69v149h353v-149h-70v-362q0 -33 19 -42t48 -9h56q39 0 61.5 12t22.5 56q0 29 0.5 60t0.5 71t0.5 91.5t0.5 122.5h-71v147h280v-147h-72v-366q0 -53 -16.5 -88.5t-43 -57t-59 -31t-64.5 -9.5h-197zM200 740l93 129h241l93 -129
h-138l-76 64l-75 -64h-138z" />
    <glyph glyph-name="Udieresis" unicode="&#xdc;" horiz-adv-x="766" 
d="M282 0q-93 0 -136.5 45.5t-43.5 124.5v382h-69v149h353v-149h-70v-362q0 -33 19 -42t48 -9h56q39 0 61.5 12t22.5 56q0 29 0.5 60t0.5 71t0.5 91.5t0.5 122.5h-71v147h280v-147h-72v-366q0 -53 -16.5 -88.5t-43 -57t-59 -31t-64.5 -9.5h-197zM205 868h184v-128h-184v128z
M444 868h184v-128h-184v128z" />
    <glyph glyph-name="Yacute" unicode="&#xdd;" horiz-adv-x="751" 
d="M91 555h-62v145h362v-145h-58l91 -135l82 135h-45v145h260v-145h-59l-180 -285v-124h70v-146h-351v146h76v123zM321 740l93 129h196l-151 -129h-138z" />
    <glyph glyph-name="Thorn" unicode="&#xde;" horiz-adv-x="697" 
d="M329 588h181q71 0 109 -38t38 -109v-201q0 -29 -13 -51.5t-33.5 -39t-46 -25t-51.5 -8.5h-185v-114h-290v144h75v413h-75v141h292zM408 249q12 0 23.5 2t20.5 7.5t14 15.5t5 27v108q0 20 -13.5 27.5t-32.5 7.5h-84v-195h67z" />
    <glyph glyph-name="germandbls" unicode="&#xdf;" horiz-adv-x="1054" 
d="M34 0v190h120l18 -62h101q8 1 15 7t7 19q0 11 -4.5 18.5t-10.5 12.5t-13 8t-12 5l-129 38q-32 11 -49.5 26.5t-26 33t-10 35t-1.5 33.5v93q0 28 10.5 49t28.5 35t41.5 21.5t50.5 7.5h303v-20.5t1 -31t1.5 -51t2.5 -80.5h-118l-13 56h-69q-20 0 -33 -5.5t-13 -22.5
q0 -23 14 -31t29 -12q2 -1 14 -5q11 -3 32 -10t62 -19q31 -10 51.5 -27t32.5 -35.5t16.5 -37t4.5 -31.5v-56q0 -47 -13 -76.5t-38.5 -46t-64 -22.5t-89.5 -6h-249zM561 0v190h120l18 -62h101q8 1 15 7t7 19q0 11 -4.5 18.5t-10.5 12.5t-13 8t-12 5l-129 38
q-32 11 -49.5 26.5t-26 33t-10 35t-1.5 33.5v93q0 28 10.5 49t28.5 35t41.5 21.5t50.5 7.5h303v-20.5t1 -31t1.5 -51t2.5 -80.5h-118l-13 56h-69q-20 0 -33 -5.5t-13 -22.5q0 -23 14 -31t29 -12q2 -1 14 -5q11 -3 32 -10t62 -19q31 -10 51.5 -27t32.5 -35.5t16.5 -37
t4.5 -31.5v-56q0 -47 -13 -76.5t-38.5 -46t-64 -22.5t-89.5 -6h-249z" />
    <glyph glyph-name="agrave" unicode="&#xe0;" horiz-adv-x="705" 
d="M25 128h56l171 447h197l167 -448h50v-127h-309v128h56l-21 56q-42 0 -79.5 -1t-79.5 -1q-5 -10 -9.5 -20t-7.5 -19q0 -7 -4 -15h54v-128h-241v128zM276 286h80q-6 16 -11 29t-10.5 26t-10.5 27t-11 31zM282 622l95 153h210l-180 -153h-125z" />
    <glyph glyph-name="aacute" unicode="&#xe1;" horiz-adv-x="705" 
d="M25 128h56l171 447h197l167 -448h50v-127h-309v128h56l-21 56q-42 0 -79.5 -1t-79.5 -1q-5 -10 -9.5 -20t-7.5 -19q0 -7 -4 -15h54v-128h-241v128zM276 286h80q-6 16 -11 29t-10.5 26t-10.5 27t-11 31zM313 622l-180 153h210l95 -153h-125z" />
    <glyph glyph-name="acircumflex" unicode="&#xe2;" horiz-adv-x="705" 
d="M25 128h56l171 447h197l167 -448h50v-127h-309v128h56l-21 56q-42 0 -79.5 -1t-79.5 -1q-5 -10 -9.5 -20t-7.5 -19q0 -7 -4 -15h54v-128h-241v128zM276 286h80q-6 16 -11 29t-10.5 26t-10.5 27t-11 31zM154 622l88 153h218l88 -153h-116l-81 74l-81 -74h-116z" />
    <glyph glyph-name="atilde" unicode="&#xe3;" horiz-adv-x="705" 
d="M25 128h56l171 447h197l167 -448h50v-127h-309v128h56l-21 56q-42 0 -79.5 -1t-79.5 -1q-5 -10 -9.5 -20t-7.5 -19q0 -7 -4 -15h54v-128h-241v128zM276 286h80q-6 16 -11 29t-10.5 26t-10.5 27t-11 31zM151 775h163v-159h-163v159zM390 775h163v-159h-163v159z" />
    <glyph glyph-name="adieresis" unicode="&#xe4;" horiz-adv-x="705" 
d="M25 128h56l171 447h197l167 -448h50v-127h-309v128h56l-21 56q-42 0 -79.5 -1t-79.5 -1q-5 -10 -9.5 -20t-7.5 -19q0 -7 -4 -15h54v-128h-241v128zM276 286h80q-6 16 -11 29t-10.5 26t-10.5 27t-11 31zM354 767q4 5 16.5 10t22.5 5h103q35 0 48.5 -14.5t13.5 -40.5v-106
h-110v57q0 15 -5.5 17.5t-10.5 2.5q-3 0 -7.5 -0.5t-9.5 -4.5q-14 -17 -27 -34.5t-29 -33.5q-5 -4 -15 -8.5t-33 -4.5h-106q-35 0 -46 14.5t-11 40.5v108h122v-54q0 -18 6.5 -21.5t13.5 -3.5q3 0 8 2.5t9 7.5z" />
    <glyph glyph-name="aring" unicode="&#xe5;" horiz-adv-x="705" 
d="M25 128h56l171 447v62q0 21 6.5 33t17.5 19t25 9t28 2h59q10 0 21.5 -3t21 -10.5t15.5 -19.5t6 -30v-70l164 -440h50v-127h-309v128h56l-21 56q-42 0 -79.5 -1t-79.5 -1q-5 -10 -9.5 -20t-7.5 -19q0 -7 -4 -15h54v-128h-241v128zM312 575h79q1 1 1 5v49q0 11 -10 11h-60
q-6 0 -8 -4t-2 -6v-55zM276 286h80q-6 16 -11 29t-10.5 26t-10.5 27t-11 31z" />
    <glyph glyph-name="ae" unicode="&#xe6;" horiz-adv-x="567" 
d="M313 128h62v46h-160l-30 -46h55v-128h-240v128h57l211 317h-47v127h564q3 -53 5 -90.5t3 -64.5t1.5 -44.5t0.5 -30.5h-49t-34 -0.5t-23 -0.5h-16l-18 104h-114v-91h95v-123h-95v-103h119q13 48 18.5 70.5t8.5 36.5h110l-11 -235h-473v128zM375 276v139l-92 -139h92z" />
    <glyph glyph-name="ccedilla" unicode="&#xe7;" horiz-adv-x="567" 
d="M521 337h-127l-16 104h-94q-18 0 -27.5 -7t-14 -18t-5.5 -24.5t-1 -25.5v-206q2 -11 6 -21.5t19 -10.5h101q17 0 21 9.5t4 23.5v87h138v-123q0 -59 -38 -92t-97 -33h-77l-2 -28h31q28 0 47.5 -17t19.5 -44v-21q0 -24 -9 -38.5t-22 -22t-28 -10t-27 -2.5h-112v60h92
q9 0 14.5 3.5t5.5 16.5q0 11 -7 14t-12 4h-69l11 85h-56q-35 0 -64 12t-49.5 33t-32 49t-11.5 61v294q0 24 9.5 46.5t26 39.5t38.5 27t47 10h362z" />
    <glyph glyph-name="egrave" unicode="&#xe8;" horiz-adv-x="585" 
d="M32 128h62v317h-62v127h498q3 -56 5 -94t3 -64t2 -42.5t1 -29.5h-107q-2 0 -8 -0.5t-8 -0.5l-18 104h-114v-91h96v-123h-96v-103h120l11 47q4 13 8.5 29.5t7.5 30.5h110l-12 -235h-499v128zM222 622l95 153h210l-180 -153h-125z" />
    <glyph glyph-name="eacute" unicode="&#xe9;" horiz-adv-x="585" 
d="M32 128h62v317h-62v127h498q3 -56 5 -94t3 -64t2 -42.5t1 -29.5h-107q-2 0 -8 -0.5t-8 -0.5l-18 104h-114v-91h96v-123h-96v-103h120l11 47q4 13 8.5 29.5t7.5 30.5h110l-12 -235h-499v128zM253 622l-180 153h210l95 -153h-125z" />
    <glyph glyph-name="ecircumflex" unicode="&#xea;" horiz-adv-x="585" 
d="M32 128h62v317h-62v127h498q3 -56 5 -94t3 -64t2 -42.5t1 -29.5h-107q-2 0 -8 -0.5t-8 -0.5l-18 104h-114v-91h96v-123h-96v-103h120l11 47q4 13 8.5 29.5t7.5 30.5h110l-12 -235h-499v128zM94 622l88 153h218l88 -153h-116l-81 74l-81 -74h-116z" />
    <glyph glyph-name="edieresis" unicode="&#xeb;" horiz-adv-x="585" 
d="M32 128h62v317h-62v127h498q3 -56 5 -94t3 -64t2 -42.5t1 -29.5h-107q-2 0 -8 -0.5t-8 -0.5l-18 104h-114v-91h96v-123h-96v-103h120l11 47q4 13 8.5 29.5t7.5 30.5h110l-12 -235h-499v128zM92 775h163v-159h-163v159zM331 775h163v-159h-163v159z" />
    <glyph glyph-name="igrave" unicode="&#xec;" horiz-adv-x="388" 
d="M293 129h57v-127h-321v127h66v317h-66v125h321v-125h-56zM124 622l95 153h210l-180 -153h-125z" />
    <glyph glyph-name="iacute" unicode="&#xed;" horiz-adv-x="388" 
d="M293 129h57v-127h-321v127h66v317h-66v125h321v-125h-56zM155 622l-180 153h210l95 -153h-125z" />
    <glyph glyph-name="icircumflex" unicode="&#xee;" horiz-adv-x="388" 
d="M293 129h57v-127h-321v127h66v317h-66v125h321v-125h-56zM-4 622l88 153h218l88 -153h-116l-81 74l-81 -74h-116z" />
    <glyph glyph-name="idieresis" unicode="&#xef;" horiz-adv-x="388" 
d="M293 129h57v-127h-321v127h66v317h-66v125h321v-125h-56zM-7 775h163v-159h-163v159zM232 775h163v-159h-163v159z" />
    <glyph glyph-name="eth" unicode="&#xf0;" horiz-adv-x="699" 
d="M38 372h55v71h-59v128h455q37 0 64 -11.5t45 -30.5t26.5 -43.5t8.5 -51.5v-281q0 -25 -9 -52t-28 -49t-48 -36.5t-69 -14.5h-443v125h57v100h-55v146zM290 372h71v-146h-71v-98h101q41 0 41 33v258q0 7 -5.5 12.5t-11.5 9.5h-125v-69z" />
    <glyph glyph-name="ntilde" unicode="&#xf1;" horiz-adv-x="699" 
d="M34 129h53v314h-52v128h252l190 -307v179h-59v128h239v-128h-57v-443h-180l-199 307v-178h62v-129h-249v129zM351 767q4 5 16.5 10t22.5 5h103q35 0 48.5 -14.5t13.5 -40.5v-106h-110v57q0 15 -5.5 17.5t-10.5 2.5q-3 0 -7.5 -0.5t-9.5 -4.5q-14 -17 -27 -34.5t-29 -33.5
q-5 -4 -15 -8.5t-33 -4.5h-106q-35 0 -46 14.5t-11 40.5v108h122v-54q0 -18 6.5 -21.5t13.5 -3.5q3 0 8 2.5t9 7.5z" />
    <glyph glyph-name="ograve" unicode="&#xf2;" horiz-adv-x="631" 
d="M33 451q0 23 8 45.5t24.5 40t41 28t57.5 10.5h288q63 0 99 -33.5t36 -102.5v-299q0 -27 -9.5 -52t-29 -44.5t-49.5 -31.5t-71 -12h-222q-64 0 -99 18.5t-51.5 44t-19.5 51t-3 39.5v298zM387 415q0 29 -25 29h-96q-14 0 -22 -8t-8 -21v-260q0 -13 11.5 -19.5t26.5 -6.5h83
q22 0 26.5 17t4.5 37v17zM245 622l95 153h210l-180 -153h-125z" />
    <glyph glyph-name="oacute" unicode="&#xf3;" horiz-adv-x="631" 
d="M33 451q0 23 8 45.5t24.5 40t41 28t57.5 10.5h288q63 0 99 -33.5t36 -102.5v-299q0 -27 -9.5 -52t-29 -44.5t-49.5 -31.5t-71 -12h-222q-64 0 -99 18.5t-51.5 44t-19.5 51t-3 39.5v298zM387 415q0 29 -25 29h-96q-14 0 -22 -8t-8 -21v-260q0 -13 11.5 -19.5t26.5 -6.5h83
q22 0 26.5 17t4.5 37v17zM276 622l-180 153h210l95 -153h-125z" />
    <glyph glyph-name="ocircumflex" unicode="&#xf4;" horiz-adv-x="631" 
d="M33 451q0 23 8 45.5t24.5 40t41 28t57.5 10.5h288q63 0 99 -33.5t36 -102.5v-299q0 -27 -9.5 -52t-29 -44.5t-49.5 -31.5t-71 -12h-222q-64 0 -99 18.5t-51.5 44t-19.5 51t-3 39.5v298zM387 415q0 29 -25 29h-96q-14 0 -22 -8t-8 -21v-260q0 -13 11.5 -19.5t26.5 -6.5h83
q22 0 26.5 17t4.5 37v17zM117 622l88 153h218l88 -153h-116l-81 74l-81 -74h-116z" />
    <glyph glyph-name="otilde" unicode="&#xf5;" horiz-adv-x="631" 
d="M33 451q0 23 8 45.5t24.5 40t41 28t57.5 10.5h288q63 0 99 -33.5t36 -102.5v-299q0 -27 -9.5 -52t-29 -44.5t-49.5 -31.5t-71 -12h-222q-64 0 -99 18.5t-51.5 44t-19.5 51t-3 39.5v298zM387 415q0 29 -25 29h-96q-14 0 -22 -8t-8 -21v-260q0 -13 11.5 -19.5t26.5 -6.5h83
q22 0 26.5 17t4.5 37v17zM114 775h163v-159h-163v159zM353 775h163v-159h-163v159z" />
    <glyph glyph-name="odieresis" unicode="&#xf6;" horiz-adv-x="631" 
d="M33 451q0 23 8 45.5t24.5 40t41 28t57.5 10.5h288q63 0 99 -33.5t36 -102.5v-299q0 -27 -9.5 -52t-29 -44.5t-49.5 -31.5t-71 -12h-222q-64 0 -99 18.5t-51.5 44t-19.5 51t-3 39.5v298zM387 415q0 29 -25 29h-96q-14 0 -22 -8t-8 -21v-260q0 -13 11.5 -19.5t26.5 -6.5h83
q22 0 26.5 17t4.5 37v17zM317 767q4 5 16.5 10t22.5 5h103q35 0 48.5 -14.5t13.5 -40.5v-106h-110v57q0 15 -5.5 17.5t-10.5 2.5q-3 0 -7.5 -0.5t-9.5 -4.5q-14 -17 -27 -34.5t-29 -33.5q-5 -4 -15 -8.5t-33 -4.5h-106q-35 0 -46 14.5t-11 40.5v108h122v-54q0 -18 6.5 -21.5
t13.5 -3.5q3 0 8 2.5t9 7.5z" />
    <glyph glyph-name="divide" unicode="&#xf7;" horiz-adv-x="557" 
d="M508 406v-145h-440v145h440zM191 614h186v-159h-186v159zM191 206h186v-159h-186v159z" />
    <glyph glyph-name="oslash" unicode="&#xf8;" horiz-adv-x="631" 
d="M33 451q0 23 8 45.5t24.5 40t41 28t57.5 10.5h288q63 0 99 -33.5t36 -102.5v-299q0 -27 -9.5 -52t-29 -44.5t-49.5 -31.5t-71 -12h-222q-64 0 -99 18.5t-51.5 44t-19.5 51t-3 39.5v298zM236 241v-86q0 -13 11.5 -19.5t26.5 -6.5h83q22 0 26.5 17t4.5 37v58h-152zM236 340
h151v75q0 29 -25 29h-96q-14 0 -22 -8t-8 -21v-75z" />
    <glyph glyph-name="ugrave" unicode="&#xf9;" horiz-adv-x="681" 
d="M249 0q-83 0 -122.5 36.5t-39.5 105.5v298h-58v131h311v-131h-57v-283q2 -23 14.5 -27.5t35.5 -4.5h51q15 0 27 1t20.5 5.5t13 13.5t4.5 25v270h-60v131h252v-131h-60v-286q0 -44 -14.5 -73.5t-38 -47.5t-53 -25.5t-59.5 -7.5h-167zM270 622l95 153h210l-180 -153h-125z
" />
    <glyph glyph-name="uacute" unicode="&#xfa;" horiz-adv-x="681" 
d="M249 0q-83 0 -122.5 36.5t-39.5 105.5v298h-58v131h311v-131h-57v-283q2 -23 14.5 -27.5t35.5 -4.5h51q15 0 27 1t20.5 5.5t13 13.5t4.5 25v270h-60v131h252v-131h-60v-286q0 -44 -14.5 -73.5t-38 -47.5t-53 -25.5t-59.5 -7.5h-167zM301 622l-180 153h210l95 -153h-125z
" />
    <glyph glyph-name="ucircumflex" unicode="&#xfb;" horiz-adv-x="681" 
d="M249 0q-83 0 -122.5 36.5t-39.5 105.5v298h-58v131h311v-131h-57v-283q2 -23 14.5 -27.5t35.5 -4.5h51q15 0 27 1t20.5 5.5t13 13.5t4.5 25v270h-60v131h252v-131h-60v-286q0 -44 -14.5 -73.5t-38 -47.5t-53 -25.5t-59.5 -7.5h-167zM142 622l88 153h218l88 -153h-116
l-81 74l-81 -74h-116z" />
    <glyph glyph-name="udieresis" unicode="&#xfc;" horiz-adv-x="681" 
d="M249 0q-83 0 -122.5 36.5t-39.5 105.5v298h-58v131h311v-131h-57v-283q2 -23 14.5 -27.5t35.5 -4.5h51q15 0 27 1t20.5 5.5t13 13.5t4.5 25v270h-60v131h252v-131h-60v-286q0 -44 -14.5 -73.5t-38 -47.5t-53 -25.5t-59.5 -7.5h-167zM139 775h163v-159h-163v159zM378 775
h163v-159h-163v159z" />
    <glyph glyph-name="yacute" unicode="&#xfd;" horiz-adv-x="667" 
d="M78 445q-15 0 -25 -1t-26 -1v128h322v-128h-47q18 -24 35 -46t37 -47q4 8 8.5 16t11 18.5t14.5 24.5t20 34h-32v128h234v-128h-51l-155 -221v-93h62v-129h-312v129h65v92zM293 622l95 153h210l-180 -153h-125z" />
    <glyph glyph-name="thorn" unicode="&#xfe;" horiz-adv-x="644" 
d="M292 461h188q60 0 94 -30t34 -88v-132q0 -24 -11 -42.5t-29 -31t-40.5 -19.5t-44.5 -7h-191v-109h-263v127h66v317h-66v125h263v-110zM292 347v-130h75q10 0 20.5 1t18.5 5.5t13.5 13t5.5 23.5v57q0 16 -12.5 23t-30.5 7h-90z" />
    <glyph glyph-name="ydieresis" unicode="&#xff;" horiz-adv-x="667" 
d="M78 445q-15 0 -25 -1t-26 -1v128h322v-128h-47q18 -24 35 -46t37 -47q4 8 8.5 16t11 18.5t14.5 24.5t20 34h-32v128h234v-128h-51l-155 -221v-93h62v-129h-312v129h65v92zM161 775h163v-159h-163v159zM400 775h163v-159h-163v159z" />
    <glyph glyph-name="dotlessi" unicode="&#x131;" horiz-adv-x="388" 
d="M293 129h57v-127h-321v127h66v317h-66v125h321v-125h-56z" />
    <glyph glyph-name="Lslash" unicode="&#x141;" horiz-adv-x="622" 
d="M80 326l23 9v222h-65v149h362v-149h-81v-139l136 53v-155l-136 -28v-142h120l24 142h132l-14 -288h-543v146h65v97l-23 -4v87z" />
    <glyph glyph-name="lslash" unicode="&#x142;" horiz-adv-x="553" 
d="M52 280l38 16v148h-58v132h321v-132h-70v-64l115 50v-155l-115 -28v-118h94q5 27 11 57.5t11 56.5h121l-11 -243h-477v129h58v73l-38 -9v87z" />
    <glyph glyph-name="OE" unicode="&#x152;" horiz-adv-x="1003" 
d="M40 553q0 29 9 56t27 47.5t45 32.5t63 12h767l12 -274h-134l-20 131h-141q1 -5 1 -8.5v-8.5v-114h108v-137h-108v-122q0 -6 -0.5 -12t-1.5 -11h149l28 131h122l-13 -276h-717q-72 0 -112 22t-58.5 52.5t-22 61.5t-3.5 49v368zM407 146q23 0 32.5 12t11.5 29v324
q0 46 -38 46h-111q-20 0 -30.5 -13t-10.5 -33v-323q0 -23 15.5 -32.5t35.5 -9.5h95z" />
    <glyph glyph-name="oe" unicode="&#x153;" horiz-adv-x="865" 
d="M201 0q-64 0 -99 18.5t-51.5 44t-19.5 51t-3 39.5v298q0 23 8 45.5t24 40t40.5 28t57.5 10.5h653l10 -234h-122l-18 104h-102v-91h83v-123h-81v-91q0 -8 -1 -12h106q13 48 18.5 70.5t8.5 36.5h110l-11 -235h-611zM381 415q0 29 -25 29h-95q-15 0 -22.5 -8t-7.5 -21v-260
q0 -13 11 -19.5t26 -6.5h83q22 0 26.5 17t4.5 37v5z" />
    <glyph glyph-name="Scaron" unicode="&#x160;" horiz-adv-x="593" 
d="M41 0v218h128l20 -74h125q31 0 31 36v8q-2 26 -17 38t-36 20l-148 51q-33 11 -51.5 27.5t-28.5 35.5t-12.5 39t-2.5 38v127q0 32 11 57t30.5 42t46 26t56.5 9h346l6 -210h-127l-16 67h-91q-8 0 -17.5 -1.5t-17.5 -6t-13 -13.5t-5 -24q0 -32 19.5 -43.5t42.5 -18.5
l121 -41q40 -14 63 -33.5t35 -41.5t15 -44t3 -39v-67q0 -56 -14.5 -91t-43.5 -55.5t-72.5 -28t-101.5 -7.5h-284zM228 869l75 -65l76 65h138l-93 -129h-241l-93 129h138z" />
    <glyph glyph-name="scaron" unicode="&#x161;" horiz-adv-x="527" 
d="M34 0v190h120l18 -62h101q8 1 15 7t7 19q0 11 -4.5 18.5t-10.5 12.5t-13 8t-12 5l-129 38q-32 11 -49.5 26.5t-26 33t-10 35t-1.5 33.5v93q0 28 10.5 49t28.5 35t41.5 21.5t50.5 7.5h303v-20.5t1 -31t1.5 -51t2.5 -80.5h-118l-13 56h-69q-20 0 -33 -5.5t-13 -22.5
q0 -23 14 -31t29 -12q2 -1 14 -5q11 -3 32 -10t62 -19q31 -10 51.5 -27t32.5 -35.5t16.5 -37t4.5 -31.5v-56q0 -47 -13 -76.5t-38.5 -46t-64 -22.5t-89.5 -6h-249zM181 775l81 -74l81 74h116l-88 -153h-218l-88 153h116z" />
    <glyph glyph-name="Ydieresis" unicode="&#x178;" horiz-adv-x="751" 
d="M91 555h-62v145h362v-145h-58l91 -135l82 135h-45v145h260v-145h-59l-180 -285v-124h70v-146h-351v146h76v123zM196 868h184v-128h-184v128zM435 868h184v-128h-184v128z" />
    <glyph glyph-name="Zcaron" unicode="&#x17d;" horiz-adv-x="694" 
d="M37 118l345 434h-173l-18 -139h-137l10 287h585v-127l-334 -427h181l18 151h143l-19 -297h-601v118zM287 869l75 -65l76 65h138l-93 -129h-241l-93 129h138z" />
    <glyph glyph-name="zcaron" unicode="&#x17e;" horiz-adv-x="616" 
d="M36 97l307 359h-162l-17 -115h-113l9 233h514v-103l-298 -356h164q7 45 11.5 70.5t6.5 37.5t2.5 14.5t0.5 3.5h121l-20 -241h-526v97zM226 775l81 -74l81 74h116l-88 -153h-218l-88 153h116z" />
    <glyph glyph-name="florin" unicode="&#x192;" horiz-adv-x="396" 
d="M33 423h106l25 173q8 58 37 89q27 29 70.5 38t103.5 1v-76q-61 5 -87.5 -8t-32.5 -56l-23 -161h118v-70h-128l-54 -385q-9 -63 -40 -94q-23 -23 -58.5 -29t-84.5 0v74q37 -3 60 6.5t29 49.5l55 378h-96v70z" />
    <glyph glyph-name="circumflex" unicode="&#x2c6;" horiz-adv-x="448" 
d="M52 525l84 176h220l84 -176h-116l-78 96l-78 -96h-116z" />
    <glyph glyph-name="caron" unicode="&#x2c7;" horiz-adv-x="448" 
d="M168 701l78 -97l78 97h116l-84 -176h-220l-84 176h116z" />
    <glyph glyph-name="breve" unicode="&#x2d8;" horiz-adv-x="448" 
d="M168 701q2 -9 6 -19q3 -8 6.5 -18t8.5 -19q10 -17 23.5 -29t33.5 -12q17 0 33.5 16t27.5 36q4 8 7.5 15.5t5.5 14.5q3 8 4 15h116q-7 -24 -19.5 -58t-34 -66t-55 -54.5t-83.5 -22.5t-85.5 22t-58.5 53t-35.5 65.5t-16.5 60.5h116z" />
    <glyph glyph-name="dotaccent" unicode="&#x2d9;" horiz-adv-x="331" 
d="M71 700h186v-159h-186v159z" />
    <glyph glyph-name="ring" unicode="&#x2da;" horiz-adv-x="570" 
d="M241 583q0 -7 2 -11t11 -4h59q1 0 4.5 2t3.5 10v49q0 11 -10 11h-60q-6 0 -8 -4t-2 -6v-47zM181 637q0 21 6.5 33t17.5 19t25 9t28 2h59q10 0 21.5 -3t21 -10.5t15.5 -19.5t6 -30v-74q0 -18 -16.5 -36.5t-41.5 -18.5h-83q-16 0 -27.5 5.5t-18.5 13t-10 16t-3 15.5v79z
" />
    <glyph glyph-name="ogonek" unicode="&#x2db;" horiz-adv-x="483" 
d="M443 16l-124 -95q-14 -10 -14 -23q3 -20 23 -20h128l-24 -61h-156q-18 0 -35.5 14.5t-20.5 46.5v7q0 47 58 84l123 78z" />
    <glyph glyph-name="tilde" unicode="&#x2dc;" horiz-adv-x="833" 
d="M369 689q4 5 16.5 10t22.5 5h103q35 0 48.5 -14.5t13.5 -40.5v-106h-110v57q0 15 -5.5 17.5t-10.5 2.5q-3 0 -7.5 -0.5t-9.5 -4.5q-19 -23 -29.5 -36t-15.5 -19.5t-7 -8.5l-4 -4q-5 -4 -15 -8.5t-33 -4.5h-106q-35 0 -46 14.5t-11 40.5v108h122v-54q0 -18 6.5 -21.5
t13.5 -3.5q3 0 8 2.5t9 7.5z" />
    <glyph glyph-name="hungarumlaut" unicode="&#x2dd;" horiz-adv-x="896" 
d="M84 525l84 176h153l-142 -176h-95zM306 525l102 176h153l-160 -176h-95z" />
    <glyph glyph-name="endash" unicode="&#x2013;" horiz-adv-x="500" 
d="M49 301h407v-155h-407v155z" />
    <glyph glyph-name="emdash" unicode="&#x2014;" horiz-adv-x="1000" 
d="M49 301h911v-155h-911v155z" />
    <glyph glyph-name="quoteleft" unicode="&#x2018;" horiz-adv-x="361" 
d="M13 693h194l141 -346h-152z" />
    <glyph glyph-name="quoteright" unicode="&#x2019;" horiz-adv-x="358" 
d="M13 352l141 348h192l-188 -348h-145z" />
    <glyph glyph-name="quotesinglbase" unicode="&#x201a;" horiz-adv-x="358" 
d="M13 -176l141 348h192l-188 -348h-145z" />
    <glyph glyph-name="quotedblleft" unicode="&#x201c;" horiz-adv-x="511" 
d="M13 693h174l96 -346h-121zM225 693h174l96 -346h-121z" />
    <glyph glyph-name="quotedblright" unicode="&#x201d;" horiz-adv-x="494" 
d="M346 347h-121l96 346h174zM134 347h-121l96 346h174z" />
    <glyph glyph-name="quotedblbase" unicode="&#x201e;" horiz-adv-x="496" 
d="M346 -175h-121l96 346h174zM134 -175h-121l96 346h174z" />
    <glyph glyph-name="dagger" unicode="&#x2020;" horiz-adv-x="276" 
d="M95 604v103h88v-103h92v-88h-92v-267h-88v267h-87v88h87z" />
    <glyph glyph-name="daggerdbl" unicode="&#x2021;" horiz-adv-x="276" 
d="M95 604v103h88v-103h92v-88h-92v-83h92v-88h-92v-96h-88v96h-87v88h87v83h-87v88h87z" />
    <glyph glyph-name="bullet" unicode="&#x2022;" horiz-adv-x="492" 
d="M36 346q0 44 16.5 83t45.5 68t68 45.5t83 16.5t83 -16.5t68 -45.5t45.5 -68t16.5 -83t-16.5 -83t-45.5 -68t-68 -45.5t-83 -16.5t-83 16.5t-68 45.5t-45.5 68t-16.5 83z" />
    <glyph glyph-name="ellipsis" unicode="&#x2026;" horiz-adv-x="876" 
d="M45 175h202v-175h-202v175zM337 175h202v-175h-202v175zM629 175h202v-175h-202v175z" />
    <glyph glyph-name="perthousand" unicode="&#x2030;" horiz-adv-x="1470" 
d="M36 576q0 23 9 44.5t24.5 37.5t37 25.5t46.5 9.5h149q57 0 89.5 -32.5t32.5 -89.5v-190q0 -26 -5.5 -51.5t-18.5 -45.5t-36 -32.5t-57 -12.5h-145q-68 0 -97 35t-29 93v209zM180 361q0 -10 12 -10h70q8 0 13 4t5 9v202q0 12 -7 16t-15 5h-48q-11 0 -20.5 -3.5t-9.5 -17.5
v-205zM577 693h109l-226 -691h-109zM626 337q0 23 9 44.5t24.5 37.5t37 25.5t46.5 9.5h149q57 0 89.5 -32.5t32.5 -89.5v-190q0 -26 -5.5 -51.5t-18.5 -45.5t-36 -32.5t-57 -12.5h-145q-68 0 -97 35t-29 93v209zM770 122q0 -10 12 -10h70q8 0 13 4t5 9v202q0 12 -7 16t-15 5
h-48q-11 0 -20.5 -3.5t-9.5 -17.5v-205zM1062 337q0 23 9 44.5t24.5 37.5t37 25.5t46.5 9.5h149q57 0 89.5 -32.5t32.5 -89.5v-190q0 -26 -5.5 -51.5t-18.5 -45.5t-36 -32.5t-57 -12.5h-145q-68 0 -97 35t-29 93v209zM1206 122q0 -10 12 -10h70q8 0 13 4t5 9v202q0 12 -7 16
t-15 5h-48q-11 0 -20.5 -3.5t-9.5 -17.5v-205z" />
    <glyph glyph-name="guilsinglleft" unicode="&#x2039;" horiz-adv-x="396" 
d="M37 229l129 229h184l-129 -229l129 -229h-184z" />
    <glyph glyph-name="guilsinglright" unicode="&#x203a;" horiz-adv-x="392" 
d="M221 0h-184l129 229l-129 229h184l129 -229z" />
    <glyph glyph-name="fraction" unicode="&#x2044;" horiz-adv-x="212" 
d="M180 693h109l-254 -693h-109z" />
    <glyph glyph-name="Euro" unicode="&#x20ac;" horiz-adv-x="571" 
d="M437 401v-105h-237v-21h237v-105h-237q0 -12 5 -15.5t14 -3.5h218v-151h-276q-35 0 -59.5 10.5t-40 28t-23 41.5t-7.5 51v39h-43v105h43v21h-43v105h43v5q0 36 10.5 65.5t30.5 51.5t49 34t67 12h250v-147h-217q-8 0 -14.5 -5t-6.5 -16h237z" />
    <glyph glyph-name="trademark" unicode="&#x2122;" horiz-adv-x="1032" 
d="M135 399h40v207h-32q-2 -20 -5 -40t-5 -43h-87l14 177h373v-177h-81l-8 83h-37v-207h44v-94h-216v94zM461 399h42v206h-39v95h212l56 -137q15 32 29 67.5t27 69.5h196v-95h-40v-206h40v-94h-210v94h36v149l-79 -200h-57l-78 201v-150h32v-94h-167v94z" />
    <glyph glyph-name="product" unicode="&#x220f;" horiz-adv-x="820" 
d="M789 -1h-102v730h-566v-628h385v33h133v-135h-620v832h770v-832zM180 285h48v257h-48v107h348q51 0 80 -25.5t29 -75.5v-108q0 -21 -9.5 -37.5t-24.5 -27.5t-34 -17t-38 -6h-137v-67h51v-106h-265v106zM428 451q14 0 26.5 4.5t12.5 22.5v50q0 8 -7.5 12t-19.5 4h-46v-93
h34z" />
    <glyph glyph-name="minus" unicode="&#x2212;" horiz-adv-x="557" 
d="M508 406v-145h-440v145h440z" />
    <glyph glyph-name="lessequal" unicode="&#x2264;" horiz-adv-x="567" 
d="M40 85h459v-85h-459v85zM37 386l260 258h199l-249 -258l249 -258h-199z" />
    <glyph glyph-name="greaterequal" unicode="&#x2265;" horiz-adv-x="547" 
d="M515 0h-459v85h459v-85zM258 128h-199l249 258l-249 258h199l260 -258z" />
    <glyph glyph-name="uniFB01" unicode="&#xfb01;" horiz-adv-x="961" 
d="M351 0h-319v128h61v317h-61v127h498q3 -56 5 -94t3 -64t2 -42.5t1 -29.5h-107q-2 0 -8 -0.5t-8 -0.5l-18 104h-114v-91h96v-123h-96v-103h65v-128zM866 129h57v-127h-321v127h66v317h-66v125h321v-125h-56z" />
    <glyph glyph-name="uniFB02" unicode="&#xfb02;" horiz-adv-x="1126" 
d="M351 0h-319v128h61v317h-61v127h498q3 -56 5 -94t3 -64t2 -42.5t1 -29.5h-107q-2 0 -8 -0.5t-8 -0.5l-18 104h-114v-91h96v-123h-96v-103h65v-128zM605 129h58v315h-58v132h321v-132h-70v-315h94q5 27 11 57.5t11 56.5h121l-11 -243h-477v129z" />
    <glyph glyph-name="glyph148" horiz-adv-x="448" 
d="M169 740l-151 129h196l93 -129h-138z" />
    <glyph glyph-name="glyph149" horiz-adv-x="448" 
d="M130 740l93 129h196l-151 -129h-138z" />
    <glyph glyph-name="glyph150" horiz-adv-x="833" 
d="M131 868h184v-128h-184v128zM370 868h184v-128h-184v128z" />
    <glyph glyph-name="glyph151" horiz-adv-x="448" 
d="M6 740l93 129h241l93 -129h-138l-76 64l-75 -64h-138z" />
    <glyph glyph-name="glyph152" horiz-adv-x="833" 
d="M336 837q8 19 19.5 25.5t21.5 6.5h155q18 0 29.5 -14.5t11.5 -40.5v-74h-110v39q0 15 -5.5 17.5t-10.5 2.5q-2 0 -3.5 0.5t-3.5 0.5q-8 0 -10 -6l-13 -38q-3 -6 -14 -15.5t-36 -9.5h-165q-20 0 -29.5 14.5t-9.5 40.5v76h122v-42q0 -18 6.5 -21.5t13.5 -3.5q3 0 8 2.5
t9 7.5z" />
    <glyph glyph-name="glyph153" horiz-adv-x="570" 
d="M241 583q0 -7 2 -11t11 -4h59q1 0 4.5 2t3.5 10v49q0 11 -10 11h-60q-6 0 -8 -4t-2 -6v-47zM181 637q0 21 6.5 33t17.5 19t25 9t28 2h59q10 0 21.5 -3t21 -10.5t15.5 -19.5t6 -30v-74q0 -18 -16.5 -36.5t-41.5 -18.5h-83q-16 0 -27.5 5.5t-18.5 13t-10 16t-3 15.5v79z
" />
    <glyph glyph-name="glyph154" horiz-adv-x="448" 
d="M144 869l75 -65l76 65h138l-93 -129h-241l-93 129h138z" />
    </font>
</defs>
</svg>
