<?xml version="1.0" standalone="no"?>
<!DOCTYPE svg PUBLIC "-//W3C//DTD SVG 1.1//EN" "http://www.w3.org/Graphics/SVG/1.1/DTD/svg11.dtd" >
<svg xmlns="http://www.w3.org/2000/svg" xmlns:xlink="http://www.w3.org/1999/xlink" version="1.1">
<metadata>
Created by FontForge 20200314 at Wed Apr 26 19:29:36 2006
 By User Azfonts
Copyright 2004 Process Type Foundry. All rights reserved.
</metadata>
<defs>
<font id="StratumNo1-Regular" horiz-adv-x="510" >
  <font-face 
    font-family="StratumNo1"
    font-weight="400"
    font-stretch="normal"
    units-per-em="1000"
    panose-1="2 0 5 6 3 0 0 2 0 3"
    ascent="800"
    descent="-200"
    x-height="474"
    cap-height="666"
    bbox="-23 -213 1288 865"
    underline-thickness="50"
    underline-position="-100"
    unicode-range="U+0005-2122"
  />
<missing-glyph horiz-adv-x="636" 
d="M85 666h466v-666h-466v666zM162 616l340 -527v527h-340zM134 49h339l-339 527v-527z" />
    <glyph glyph-name=".notdef" horiz-adv-x="636" 
d="M85 666h466v-666h-466v666zM162 616l340 -527v527h-340zM134 49h339l-339 527v-527z" />
    <glyph glyph-name=".null" horiz-adv-x="0" 
 />
    <glyph glyph-name="nonmarkingreturn" horiz-adv-x="218" 
 />
    <glyph glyph-name="space" unicode=" " horiz-adv-x="218" 
 />
    <glyph glyph-name="ring" horiz-adv-x="351" 
d="M136 523q-12 0 -19 8t-7 20v75q0 11 7 19t19 8h78q12 0 19.5 -8t7.5 -19v-75q0 -12 -7.5 -20t-19.5 -8h-78v0zM208 614q0 8 -8 8h-49q-8 0 -8 -8v-51q0 -8 8 -8h49q8 0 8 8v51z" />
    <glyph glyph-name="hungarumlaut" unicode="&#xa;" horiz-adv-x="524" 
d="M143 541l-33 38l117 105l34 -39zM296 541l-33 38l117 105l34 -39z" />
    <glyph glyph-name="ogonek" horiz-adv-x="326" 
d="M110 -65l23 65h64l-26 -62l45 -52l-39 -32z" />
    <glyph glyph-name="caron" horiz-adv-x="464" 
d="M110 633l30 34l91 -86l92 86l31 -34l-123 -114z" />
    <glyph glyph-name="dotlessi" unicode="&#xd;" horiz-adv-x="228" 
d="M80 474h68v-474h-68v474z" />
    <glyph glyph-name="fraction" horiz-adv-x="372" 
d="M42 -117h-47l336 793h46z" />
    <glyph glyph-name="fi" horiz-adv-x="563" 
d="M314 610h-80q-25 0 -42 -16.5t-17 -41.5v-78h135l-8 -57h-127v-417h-68v417h-72v57h72v88q0 22 8.5 42t22.5 34.5t33.5 23t42.5 8.5h100v-60zM414 474h69v-474h-69v474zM414 670h69v-109h-69v109z" />
    <glyph glyph-name="fl" horiz-adv-x="567" 
d="M314 607h-80q-25 0 -42 -17t-17 -42v-74h135l-8 -57h-127v-417h-68v417h-72v57h72v85q0 22 8.5 42t22.5 34t33.5 22.5t42.5 8.5h100v-59zM419 666l68 12v-678h-68v666z" />
    <glyph glyph-name="Lslash" horiz-adv-x="525" 
d="M25 286l89 45v335h70v-299l92 48l22 -42l-114 -59v-249h296v-65h-366v278l-67 -35z" />
    <glyph glyph-name="lslash" horiz-adv-x="322" 
d="M40 286l86 44v336l68 12v-313l87 44l21 -42l-108 -56v-311h-68v276l-64 -33z" />
    <glyph glyph-name="Zcaron" horiz-adv-x="562" 
d="M492 0h-422v63l343 541h-338v62h415v-62l-345 -541h347v-63zM158 823l30 34l91 -86l92 86l31 -34l-123 -114z" />
    <glyph glyph-name="zcaron" horiz-adv-x="467" 
d="M74 474h325v-61l-253 -351h256v-62h-332v62l251 351h-247v61zM112 633l30 34l91 -86l92 86l31 -34l-123 -114z" />
    <glyph glyph-name="exclam" unicode="!" horiz-adv-x="246" 
d="M145 192h-44l-12 168v306h68v-306zM85 0v109h76v-109h-76z" />
    <glyph glyph-name="quotedbl" unicode="&#x22;" horiz-adv-x="336" 
d="M60 416v250h55v-250h-55zM221 416v250h55v-250h-55z" />
    <glyph glyph-name="numbersign" unicode="#" horiz-adv-x="712" 
d="M431 201h-192l-33 -201h-53l33 201h-136l8 49h136l27 169h-138l8 48h138l34 199h53l-34 -199h192l33 199h53l-33 -199h145l-8 -48h-145l-27 -169h147l-8 -49h-147l-33 -201h-53zM247 250h192l27 169h-191z" />
    <glyph glyph-name="dollar" unicode="$" horiz-adv-x="539" 
d="M246 0h-55q-48 0 -79.5 31.5t-31.5 79.5v67l70 11v-66q0 -27 15.5 -43t42.5 -16h124q27 0 42.5 16t15.5 43v101q0 25 -16 38t-40 21q-26 9 -42 14.5t-31 10.5l-31.5 10.5t-41.5 14.5q-22 7 -41 16.5t-33.5 22.5t-22.5 30t-8 40v113q0 49 31 80t79 31h53v96h51v-96h49
q48 0 79.5 -31t31.5 -80v-63l-70 -12v64q0 27 -15.5 42.5t-42.5 15.5h-119q-26 0 -41.5 -15.5t-15.5 -42.5v-88q0 -25 16.5 -39t39.5 -22l45 -15l33 -11t30.5 -10.5t38.5 -13.5q43 -15 73 -39t30 -70v-125q0 -48 -31 -79.5t-79 -31.5h-52v-96h-51v96z" />
    <glyph glyph-name="percent" unicode="%" horiz-adv-x="971" 
d="M622 666h59l-329 -666h-59zM80 567q0 21 8 39t22.5 31.5t33 21t39.5 7.5h104q21 0 39.5 -7.5t33 -21t22.5 -31.5t8 -39v-179q0 -21 -8 -39t-22.5 -31.5t-33 -21t-39.5 -7.5h-104q-21 0 -39.5 7.5t-33 21t-22.5 31.5t-8 39v179zM138 402q0 -59 59 -59h76q59 0 59 59v151
q0 59 -59 59h-76q-59 0 -59 -59v-151zM581 278q0 21 8 39t22.5 31.5t33 21t39.5 7.5h104q21 0 39.5 -7.5t33 -21t22.5 -31.5t8 -39v-179q0 -21 -8 -39t-22.5 -31.5t-33 -21t-39.5 -7.5h-104q-21 0 -39.5 7.5t-33 21t-22.5 31.5t-8 39v179zM639 113q0 -59 59 -59h76
q59 0 59 59v151q0 59 -59 59h-76q-59 0 -59 -59v-151z" />
    <glyph glyph-name="ampersand" unicode="&#x26;" horiz-adv-x="596" 
d="M478 314v-205q0 -48 -30.5 -78.5t-78.5 -30.5h-181q-47 0 -77.5 30.5t-30.5 78.5v151q0 35 15.5 56.5t38.5 30.5q-26 16 -36.5 38t-10.5 58v114q0 48 30.5 78.5t77.5 30.5h147q49 0 81 -29t32 -80v-45l-67 -11v45q0 27 -15 42.5t-42 15.5h-119q-27 0 -42.5 -15.5
t-15.5 -42.5v-114q0 -26 13.5 -41.5t39.5 -15.5h384v-61h-113zM353 62q27 0 42.5 15.5t15.5 42.5v194h-205q-58 0 -58 -57v-137q0 -27 15.5 -42.5t42.5 -15.5h147v0z" />
    <glyph glyph-name="quotesingle" unicode="'" horiz-adv-x="175" 
d="M60 416v250h55v-250h-55z" />
    <glyph glyph-name="parenleft" unicode="(" horiz-adv-x="247" 
d="M148 -49q0 -15 4.5 -25t13.5 -19q22 -21 37.5 -35.5t38.5 -35.5l-47 -49q-23 20 -42 37t-39 35q-16 15 -25 35t-9 46v690q0 26 9 46t25 35q20 18 39 35t42 37l47 -49q-23 -21 -38.5 -35.5t-37.5 -35.5q-9 -9 -13.5 -19t-4.5 -25v-668z" />
    <glyph glyph-name="parenright" unicode=")" horiz-adv-x="247" 
d="M99 619q0 15 -4.5 25t-13.5 19q-22 21 -37.5 35.5t-38.5 35.5l47 49q23 -20 42 -37t39 -35q16 -15 25 -35t9 -46v-690q0 -26 -9 -46t-25 -35q-20 -18 -39 -35t-42 -37l-47 49q23 21 38.5 35.5t37.5 35.5q9 9 13.5 19t4.5 25v668z" />
    <glyph glyph-name="asterisk" unicode="*" horiz-adv-x="453" 
d="M261 527h147v-38h-147l82 -121l-33 -21l-84 127l-84 -127l-32 21l80 121h-145v38h146l-82 123l32 21l85 -128l85 128l32 -21z" />
    <glyph glyph-name="plus" unicode="+" horiz-adv-x="519" 
d="M228 287v182h63v-182h178v-56h-178v-182h-63v182h-178v56h178z" />
    <glyph glyph-name="comma" unicode="," horiz-adv-x="222" 
d="M65 -88l41 88h-30v109h76v-109l-51 -106z" />
    <glyph glyph-name="hyphen" unicode="-" horiz-adv-x="365" 
d="M60 260v58h245v-58h-245z" />
    <glyph glyph-name="period" unicode="." horiz-adv-x="236" 
d="M80 0v109h76v-109h-76z" />
    <glyph glyph-name="slash" unicode="/" horiz-adv-x="427" 
d="M99 -117h-59l289 793h58z" />
    <glyph glyph-name="zero" unicode="0" horiz-adv-x="547" 
d="M467 109q0 -48 -30.5 -78.5t-78.5 -30.5h-170q-47 0 -77.5 30.5t-30.5 78.5v448q0 48 30.5 78.5t77.5 30.5h170q48 0 78.5 -30.5t30.5 -78.5v-448zM399 546q0 27 -15 42.5t-42 15.5h-136q-27 0 -42.5 -15.5t-15.5 -42.5v-426q0 -27 15.5 -42.5t42.5 -15.5h136
q27 0 42 15.5t15 42.5v426v0z" />
    <glyph glyph-name="one" unicode="1" horiz-adv-x="339" 
d="M254 666v-666h-68v598l-186 -61v68l186 61h68z" />
    <glyph glyph-name="two" unicode="2" horiz-adv-x="519" 
d="M378 546q0 27 -15 42.5t-43 15.5h-119q-27 0 -42 -15.5t-15 -42.5v-54l-68 11v54q0 48 30.5 78.5t77.5 30.5h153q48 0 78.5 -30.5t30.5 -78.5v-132q0 -41 -22 -63t-67 -40q-24 -9 -41 -16t-33.5 -13.5t-36 -14t-47.5 -18.5t-42 -22.5t-14 -37.5v-137h306v-63h-374v214
q0 22 7 38t19.5 28t30 21t38.5 17q26 10 45 17.5t35.5 13.5t33.5 12.5t40 15.5q32 12 43 22.5t11 35.5v111v0z" />
    <glyph glyph-name="three" unicode="3" horiz-adv-x="525" 
d="M158 372h160q25 0 39 16t14 42v116q0 27 -15.5 42.5t-42.5 15.5h-118q-27 0 -42.5 -15.5t-15.5 -42.5v-49l-68 12v48q0 48 30.5 78.5t78.5 30.5h152q48 0 78.5 -30.5t30.5 -78.5v-131q0 -29 -12.5 -49t-34.5 -33q23 -10 38 -31.5t15 -55.5v-148q0 -48 -31 -78.5
t-78 -30.5h-163q-48 0 -78 30.5t-30 78.5v50l67 11v-50q0 -27 15.5 -42.5t42.5 -15.5h129q27 0 42.5 15.5t15.5 42.5v132q0 27 -15.5 42.5t-42.5 15.5h-161v62z" />
    <glyph glyph-name="four" unicode="4" horiz-adv-x="514" 
d="M17 243l300 423h68v-423h114l-5 -59h-109v-184h-68v184h-300v59zM317 243v321l-226 -321h226z" />
    <glyph glyph-name="five" unicode="5" horiz-adv-x="525" 
d="M152 373q43 20 93.5 28t100.5 8q53 0 81 -30t28 -79v-191q0 -48 -31 -78.5t-78 -30.5h-158q-47 0 -77.5 30.5t-30.5 78.5v25l68 11v-25q0 -27 15.5 -42.5t42.5 -15.5h123q27 0 42.5 15.5t15.5 42.5v153q0 33 -11.5 52.5t-46.5 19.5q-10 0 -25 -0.5t-31.5 -2t-33 -4.5
t-29.5 -8q-26 -9 -42 -22t-16 -38v-25l-68 9v412h356v-62h-288v-231z" />
    <glyph glyph-name="six" unicode="6" horiz-adv-x="521" 
d="M188 0q-47 0 -77.5 30.5t-30.5 78.5v448q0 48 30.5 78.5t77.5 30.5h153q48 0 78.5 -30.5t30.5 -78.5v-46l-68 -12v47q0 27 -15.5 42.5t-42.5 15.5h-118q-27 0 -42.5 -15.5t-15.5 -42.5v-204q45 22 100 31t99 9q53 0 81 -30t28 -79v-164q0 -48 -31 -78.5t-78 -30.5h-159v0
zM388 246q0 33 -11.5 52.5t-46.5 19.5q-10 0 -25.5 -1t-33 -3.5t-35 -6t-30.5 -8.5q-26 -9 -42 -22t-16 -38v-119q0 -27 15.5 -42.5t42.5 -15.5h124q27 0 42.5 15.5t15.5 42.5v126v0z" />
    <glyph glyph-name="seven" unicode="7" horiz-adv-x="414" 
d="M10 666h379v-58l-221 -608h-67l220 604h-311v62z" />
    <glyph glyph-name="eight" unicode="8" horiz-adv-x="550" 
d="M188 0q-47 0 -77.5 30.5t-30.5 78.5v148q0 35 15 56t38 31q-21 14 -33.5 33.5t-12.5 48.5v131q0 48 30 78.5t78 30.5h160q47 0 78 -30.5t31 -78.5v-131q0 -29 -13 -48.5t-34 -33.5q22 -10 37.5 -31t15.5 -56v-148q0 -48 -30.5 -78.5t-78.5 -30.5h-173zM206 310
q-27 0 -42.5 -15.5t-15.5 -42.5v-132q0 -27 15.5 -42.5t42.5 -15.5h138q27 0 42.5 15.5t15.5 42.5v132q0 27 -15.5 42.5t-42.5 15.5h-138zM212 604q-27 0 -42.5 -15.5t-15.5 -42.5v-116q0 -26 14.5 -42t39.5 -16h135q25 0 39 16t14 42v116q0 27 -15.5 42.5t-42.5 15.5h-126z
" />
    <glyph glyph-name="nine" unicode="9" horiz-adv-x="522" 
d="M334 666q47 0 77.5 -30.5t30.5 -78.5v-448q0 -48 -30.5 -78.5t-77.5 -30.5h-160q-48 0 -78.5 30.5t-30.5 78.5v46l68 12v-47q0 -27 15.5 -42.5t42.5 -15.5h125q27 0 42.5 15.5t15.5 42.5v204q-45 -22 -100 -31t-99 -9q-53 0 -81 30t-28 79v164q0 48 31 78.5t78 30.5h159
v0zM134 420q0 -33 11.5 -52.5t46.5 -19.5q10 0 25.5 1t33 3.5t34.5 6t31 8.5q26 9 42 22t16 38v119q0 27 -15.5 42.5t-42.5 15.5h-124q-27 0 -42.5 -15.5t-15.5 -42.5v-126v0z" />
    <glyph glyph-name="colon" unicode=":" horiz-adv-x="236" 
d="M80 0v109h76v-109h-76zM80 325v109h76v-109h-76z" />
    <glyph glyph-name="semicolon" unicode=";" horiz-adv-x="232" 
d="M75 325v109h77v-109h-77zM65 -88l41 88h-30v109h76v-109l-51 -106z" />
    <glyph glyph-name="less" unicode="&#x3c;" horiz-adv-x="583" 
d="M489 494l24 -47l-410 -205l410 -205l-24 -47l-459 233v39z" />
    <glyph glyph-name="equal" unicode="=" horiz-adv-x="467" 
d="M75 314v55h317v-55h-317zM75 146v56h317v-56h-317z" />
    <glyph glyph-name="greater" unicode="&#x3e;" horiz-adv-x="583" 
d="M553 262v-39l-459 -233l-24 47l410 205l-410 205l24 47z" />
    <glyph glyph-name="question" unicode="?" horiz-adv-x="497" 
d="M442 444q0 -22 -3.5 -35.5t-12 -24t-22 -19.5t-32.5 -21q-23 -14 -39 -23t-37 -21q-20 -11 -26.5 -22t-6.5 -36v-58h-68v73q0 41 14 60.5t46 36.5q24 13 38.5 20.5t35.5 19.5q15 8 23.5 14.5t13.5 13.5t6.5 15.5t1.5 22.5v86q0 27 -15 42.5t-42 15.5h-121
q-27 0 -42.5 -15.5t-15.5 -42.5v-65l-68 12v64q0 48 30.5 78.5t77.5 30.5h155q48 0 78.5 -30.5t30.5 -78.5v-113v0zM191 0v109h76v-109h-76z" />
    <glyph glyph-name="at" unicode="@" horiz-adv-x="595" 
d="M467 549q0 34 -19 51.5t-51 17.5h-193q-32 0 -51 -17.5t-19 -51.5v-432q0 -32 18.5 -50t51.5 -18h290v-49h-306q-48 0 -78 30t-30 74v459q0 44 30 73.5t78 29.5h223q48 0 78.5 -29.5t30.5 -73.5v-316h-53v25q-14 -8 -32.5 -14t-39 -10t-40 -6.5t-35.5 -2.5
q-38 0 -60 22.5t-22 59.5v78q0 37 22 59t60 22q16 0 36 -1t40 -4t38.5 -8t32.5 -12v94v0zM466 377q0 23 -14 34.5t-35 16.5q-20 5 -42.5 6t-43.5 1q-42 0 -42 -43v-55q0 -26 9.5 -38.5t32.5 -12.5q16 0 40 2t46 9q20 6 34.5 17t14.5 30v33z" />
    <glyph glyph-name="A" unicode="A" horiz-adv-x="598" 
d="M562 0h-71l-60 172h-266l-58 -172h-71l230 666h66zM187 236h223l-111 343z" />
    <glyph glyph-name="B" unicode="B" horiz-adv-x="576" 
d="M85 666h301q48 0 78.5 -30.5t30.5 -78.5v-126q0 -28 -13.5 -50.5t-37.5 -34.5q25 -8 41 -30t16 -56v-151q0 -48 -30.5 -78.5t-78.5 -30.5h-307v666zM155 64h218q29 0 43.5 15.5t14.5 42.5v132q0 26 -14.5 42t-40.5 16h-221v-248zM372 375q26 0 39.5 16t13.5 42v111
q0 27 -15.5 42.5t-42.5 15.5h-212v-227h217z" />
    <glyph glyph-name="C" unicode="C" horiz-adv-x="579" 
d="M504 201v-90q0 -24 -8.5 -44.5t-23 -35t-34.5 -23t-44 -8.5h-204q-24 0 -44 8.5t-34.5 23t-23 35t-8.5 44.5v444q0 49 31 80t79 31h204q48 0 79 -31t31 -80v-86l-70 -11v85q0 27 -15.5 42.5t-42.5 15.5h-168q-27 0 -42.5 -15.5t-15.5 -42.5v-420q0 -27 15.5 -42.5
t42.5 -15.5h168q27 0 42.5 15.5t15.5 42.5v90z" />
    <glyph glyph-name="D" unicode="D" horiz-adv-x="576" 
d="M85 666h300q48 0 79.5 -31t31.5 -80v-444q0 -48 -31.5 -79.5t-79.5 -31.5h-300v666zM155 65h213q27 0 42.5 15.5t15.5 42.5v420q0 27 -15.5 42.5t-42.5 15.5h-213v-536z" />
    <glyph glyph-name="E" unicode="E" horiz-adv-x="532" 
d="M85 666h380v-65h-310v-224h282v-65h-282v-247h312v-65h-382v666z" />
    <glyph glyph-name="F" unicode="F" horiz-adv-x="499" 
d="M85 0v666h384v-65h-314v-224h286v-65h-286v-312h-70z" />
    <glyph glyph-name="G" unicode="G" horiz-adv-x="572" 
d="M293 330h209v-219q0 -48 -31.5 -79.5t-79.5 -31.5h-201q-24 0 -44 8.5t-34.5 23t-23 35t-8.5 44.5v444q0 49 31 80t79 31h201q48 0 79.5 -31t31.5 -80v-70l-70 -11v69q0 27 -15.5 42.5t-42.5 15.5h-166q-27 0 -42.5 -15.5t-15.5 -42.5v-420q0 -27 15.5 -42.5t42.5 -15.5
h166q27 0 42.5 15.5t15.5 42.5v143h-139v64z" />
    <glyph glyph-name="H" unicode="H" horiz-adv-x="610" 
d="M455 312h-300v-312h-70v666h70v-289h300v289h70v-666h-70v312z" />
    <glyph glyph-name="I" unicode="I" horiz-adv-x="250" 
d="M160 0h-70v666h70v-666z" />
    <glyph glyph-name="J" unicode="J" horiz-adv-x="505" 
d="M425 666v-555q0 -48 -31 -79.5t-79 -31.5h-164q-48 0 -79.5 31.5t-31.5 79.5v75l70 12v-75q0 -27 15.5 -42.5t42.5 -15.5h129q27 0 42.5 15.5t15.5 42.5v543h70z" />
    <glyph glyph-name="K" unicode="K" horiz-adv-x="540" 
d="M85 666h70v-316l266 316h86l-277 -327l290 -339h-87l-278 326v-326h-70v666z" />
    <glyph glyph-name="L" unicode="L" horiz-adv-x="501" 
d="M85 666h70v-601h301v-65h-371v666z" />
    <glyph glyph-name="M" unicode="M" horiz-adv-x="706" 
d="M153 511v-511h-68v666h68l200 -451l200 451h68v-666h-68v511l-169 -374h-62z" />
    <glyph glyph-name="N" unicode="N" horiz-adv-x="618" 
d="M533 0h-68l-312 539v-539h-68v666h68l312 -540v540h68v-666z" />
    <glyph glyph-name="O" unicode="O" horiz-adv-x="592" 
d="M512 111q0 -48 -31.5 -79.5t-79.5 -31.5h-211q-24 0 -44 8.5t-34.5 23t-23 35t-8.5 44.5v444q0 49 31 80t79 31h211q48 0 79.5 -31t31.5 -80v-444zM442 543q0 27 -15.5 42.5t-42.5 15.5h-176q-27 0 -42.5 -15.5t-15.5 -42.5v-420q0 -27 15.5 -42.5t42.5 -15.5h176
q27 0 42.5 15.5t15.5 42.5v420v0z" />
    <glyph glyph-name="P" unicode="P" horiz-adv-x="532" 
d="M85 666h302q48 0 79 -31t31 -80v-166q0 -24 -8.5 -44.5t-23 -35t-34.5 -23t-44 -8.5h-232v-278h-70v666zM155 343h214q28 0 43 15.5t15 42.5v142q0 27 -15 42.5t-43 15.5h-214v-258z" />
    <glyph glyph-name="Q" unicode="Q" horiz-adv-x="592" 
d="M262 0h-72q-24 0 -44 8.5t-34.5 23t-23 35t-8.5 44.5v444q0 49 31 80t79 31h211q48 0 79.5 -31t31.5 -80v-444q0 -48 -31.5 -79.5t-79.5 -31.5h-70v-146h-69v146zM442 543q0 27 -15.5 42.5t-42.5 15.5h-176q-27 0 -42.5 -15.5t-15.5 -42.5v-420q0 -27 15.5 -42.5
t42.5 -15.5h176q27 0 42.5 15.5t15.5 42.5v420v0z" />
    <glyph glyph-name="R" unicode="R" horiz-adv-x="588" 
d="M85 666h309q48 0 79 -31t31 -80v-163q0 -45 -25 -74t-68 -36l137 -282h-75l-137 281h-181v-281h-70v666zM155 345h221q28 0 43 15.5t15 42.5v140q0 27 -15 42.5t-43 15.5h-221v-256z" />
    <glyph glyph-name="S" unicode="S" horiz-adv-x="553" 
d="M184 331q-45 13 -75 37.5t-30 70.5v116q0 49 31.5 80t79.5 31h185q48 0 79 -31t31 -80v-72l-70 -12v72q0 27 -14.5 43t-43.5 16h-150q-29 0 -43.5 -16t-14.5 -43v-91q0 -26 15.5 -39t40.5 -20q31 -9 51.5 -14.5t39 -11t38.5 -11t50 -14.5q22 -6 41 -15t33 -22t22 -30.5
t8 -41.5v-122q0 -48 -31 -79.5t-79 -31.5h-191q-48 0 -79.5 31.5t-31.5 79.5v73l70 12v-73q0 -27 14.5 -42.5t43.5 -15.5h156q29 0 43.5 15.5t14.5 42.5v99q0 25 -13.5 38t-42.5 21t-50 14t-40 11.5t-39.5 11t-48.5 13.5z" />
    <glyph glyph-name="T" unicode="T" horiz-adv-x="517" 
d="M25 666h467v-65h-198v-601h-70v601h-199v65z" />
    <glyph glyph-name="U" unicode="U" horiz-adv-x="578" 
d="M498 666v-555q0 -48 -31.5 -79.5t-79.5 -31.5h-197q-24 0 -44 8.5t-34.5 23t-23 35t-8.5 44.5v555h70v-543q0 -27 15.5 -42.5t42.5 -15.5h162q27 0 42.5 15.5t15.5 42.5v543h70z" />
    <glyph glyph-name="V" unicode="V" horiz-adv-x="553" 
d="M313 0h-72l-213 666h71l178 -569l177 569h71z" />
    <glyph glyph-name="W" unicode="W" horiz-adv-x="796" 
d="M367 666h63l146 -552l112 552h68l-142 -666h-70l-146 556l-145 -556h-71l-142 666h68l112 -552z" />
    <glyph glyph-name="X" unicode="X" horiz-adv-x="595" 
d="M297 398l159 268h74l-194 -328l199 -338h-73l-165 278l-164 -278h-73l199 338l-194 328h74z" />
    <glyph glyph-name="Y" unicode="Y" horiz-adv-x="519" 
d="M259 331l171 335h74l-209 -412v-254h-71v254l-209 412h74z" />
    <glyph glyph-name="Z" unicode="Z" horiz-adv-x="562" 
d="M492 0h-422v63l343 541h-338v62h415v-62l-345 -541h347v-63z" />
    <glyph glyph-name="bracketleft" unicode="[" horiz-adv-x="276" 
d="M152 -71h119v-55h-186v922h186v-55h-119v-812z" />
    <glyph glyph-name="backslash" unicode="\" horiz-adv-x="422" 
d="M35 677h59l288 -794h-58z" />
    <glyph glyph-name="bracketright" unicode="]" horiz-adv-x="276" 
d="M124 741h-119v55h186v-922h-186v55h119v812z" />
    <glyph glyph-name="asciicircum" unicode="^" horiz-adv-x="451" 
d="M358 337l-133 267l-132 -267l-48 24l157 305h47l157 -305z" />
    <glyph glyph-name="underscore" unicode="_" horiz-adv-x="409" 
d="M-2 -35v29h413v-29h-413z" />
    <glyph glyph-name="grave" unicode="`" horiz-adv-x="360" 
d="M70 640l34 39l116 -105l-32 -38z" />
    <glyph glyph-name="a" unicode="a" horiz-adv-x="494" 
d="M60 160q0 51 29.5 80t79.5 29q46 0 93.5 -6.5t88.5 -26.5v119q0 27 -15.5 42.5t-42.5 15.5h-99q-27 0 -42.5 -15.5t-15.5 -42.5v-18l-65 8v21q0 48 30 78t78 30h132q47 0 77.5 -30.5t30.5 -78.5v-365h-67v33q-19 -11 -42.5 -19t-48 -13.5t-48.5 -8t-44 -2.5
q-50 0 -79.5 29t-29.5 80v61zM351 142q0 27 -19 40t-46 20q-26 6 -53.5 7.5t-47.5 1.5q-58 0 -58 -58v-45q0 -58 58 -58q19 0 47 3.5t54 11.5q27 9 46 23t19 40v14z" />
    <glyph glyph-name="b" unicode="b" 
d="M148 678v-243q19 10 43 19t49 16t48.5 10.5t42.5 3.5q53 0 81 -30t28 -79v-276q0 -49 -28 -79t-81 -30q-19 0 -43 3.5t-48.5 10.5t-49 15.5t-43.5 19.5v-39h-67v666zM148 139q0 -25 16 -38t42 -22q27 -10 57.5 -17.5t50.5 -7.5q35 0 46.5 19.5t11.5 52.5v222
q0 33 -11.5 52.5t-46.5 19.5q-20 0 -50.5 -7.5t-57.5 -17.5q-26 -9 -42 -22t-16 -38v-196z" />
    <glyph glyph-name="c" unicode="c" horiz-adv-x="482" 
d="M359 321v33q0 27 -15.5 42.5t-42.5 15.5h-105q-27 0 -42.5 -15.5t-15.5 -42.5v-234q0 -27 15.5 -42.5t42.5 -15.5h105q27 0 42.5 15.5t15.5 42.5v40l68 -11v-40q0 -48 -30.5 -78.5t-78.5 -30.5h-140q-47 0 -77.5 30.5t-30.5 78.5v256q0 48 30.5 78.5t77.5 30.5h140
q48 0 78.5 -30.5t30.5 -78.5v-33z" />
    <glyph glyph-name="d" unicode="d" 
d="M430 678v-678h-67v39q-20 -11 -44 -19.5t-48.5 -15.5t-48.5 -10.5t-43 -3.5q-53 0 -81 30t-28 79v276q0 49 28 79t81 30q19 0 42.5 -3.5t48.5 -10.5t48.5 -16t43.5 -19v231zM362 335q0 25 -16 38t-42 22q-27 10 -57.5 17.5t-50.5 7.5q-35 0 -46.5 -19.5t-11.5 -52.5v-222
q0 -33 11.5 -52.5t46.5 -19.5q20 0 50.5 7.5t57.5 17.5q26 9 42 22t16 38v196z" />
    <glyph glyph-name="e" unicode="e" horiz-adv-x="488" 
d="M138 224v-105q0 -27 15.5 -42.5t42.5 -15.5h109q27 0 42 15.5t15 42.5v26l66 -11v-25q0 -48 -30 -78.5t-78 -30.5h-142q-47 0 -77.5 30.5t-30.5 78.5v256q0 48 30.5 78.5t77.5 30.5h141q48 0 78.5 -30.5t30.5 -78.5v-141h-290zM138 283h224v74q0 27 -15.5 42.5
t-42.5 15.5h-108q-27 0 -42.5 -15.5t-15.5 -42.5v-74z" />
    <glyph glyph-name="f" unicode="f" horiz-adv-x="326" 
d="M35 474h72v83q0 48 30.5 78.5t77.5 30.5h101v-60h-83q-27 0 -42.5 -15.5t-15.5 -42.5v-74h135l-8 -58h-127v-416h-68v416h-72v58z" />
    <glyph glyph-name="g" unicode="g" horiz-adv-x="505" 
d="M305 -130q27 0 42 15.5t15 42.5v121q-20 -11 -43.5 -19.5t-48.5 -15.5t-48.5 -10.5t-42.5 -3.5q-53 0 -81 30t-28 79v266q0 49 28 79t81 30q19 0 43 -3.5t48.5 -10.5t48.5 -16t44 -19v39h67v-555q0 -29 -10 -50t-27.5 -34t-41.5 -19t-51 -6h-188v60h193v0zM362 335
q0 25 -16 38t-42 22q-27 10 -57.5 17.5t-50.5 7.5q-35 0 -46.5 -19.5t-11.5 -52.5v-212q0 -33 11.5 -52.5t46.5 -19.5q20 0 50.5 7.5t57.5 17.5q26 9 42 22t16 38v186z" />
    <glyph glyph-name="h" unicode="h" horiz-adv-x="515" 
d="M80 0v666l68 12v-243q21 10 45 19t48.5 16t47.5 10.5t42 3.5q51 0 80 -30t29 -79v-375h-68v360q0 58 -58 58q-20 0 -50.5 -7.5t-57.5 -17.5q-25 -8 -41.5 -20t-16.5 -35v-338h-68z" />
    <glyph glyph-name="i" unicode="i" horiz-adv-x="228" 
d="M80 474h68v-474h-68v474zM80 666h68v-109h-68v109z" />
    <glyph glyph-name="j" unicode="j" horiz-adv-x="242" 
d="M162 474v-555q0 -48 -30.5 -78.5t-77.5 -30.5h-77v60h59q30 0 44 15.5t14 42.5v546h68zM94 666h68v-109h-68v109z" />
    <glyph glyph-name="k" unicode="k" horiz-adv-x="448" 
d="M222 238l210 -238h-83l-201 230v-230h-68v666l68 12v-430l197 226h82z" />
    <glyph glyph-name="l" unicode="l" horiz-adv-x="228" 
d="M80 666l68 12v-678h-68v666z" />
    <glyph glyph-name="m" unicode="m" horiz-adv-x="807" 
d="M498 393q-24 -8 -41 -21.5t-17 -38.5v-333h-68v360q0 58 -58 58q-20 0 -50.5 -7.5t-57.5 -17.5q-26 -8 -42 -21.5t-16 -38.5v-333h-68v474h67v-39q21 10 45.5 19t49 16t47.5 10.5t42 3.5q32 0 56.5 -14.5t38.5 -37.5q21 10 47.5 19.5t53.5 17t52.5 11.5t43.5 4
q51 0 80 -30t29 -79v-375h-68v360q0 58 -58 58q-20 0 -50.5 -7.5t-57.5 -17.5z" />
    <glyph glyph-name="n" unicode="n" horiz-adv-x="515" 
d="M80 0v474h67v-39q21 10 45.5 19t49 16t47.5 10.5t42 3.5q51 0 80 -30t29 -79v-375h-68v360q0 58 -58 58q-20 0 -50.5 -7.5t-57.5 -17.5q-26 -8 -42 -21.5t-16 -38.5v-333h-68z" />
    <glyph glyph-name="o" unicode="o" 
d="M440 109q0 -48 -30.5 -78.5t-78.5 -30.5h-153q-48 0 -78 30.5t-30 78.5v256q0 48 30 78.5t78 30.5h153q48 0 78.5 -30.5t30.5 -78.5v-256v0zM138 120q0 -27 15 -42.5t42 -15.5h119q27 0 42.5 15.5t15.5 42.5v234q0 27 -15.5 42.5t-42.5 15.5h-119q-27 0 -42 -15.5
t-15 -42.5v-234z" />
    <glyph glyph-name="p" unicode="p" 
d="M80 -202v676h67v-39q19 10 43.5 19t49 16t48.5 10.5t43 3.5q53 0 81 -30t28 -79v-276q0 -49 -28 -79t-81 -30q-19 0 -42.5 3.5t-48.5 10.5t-49 15.5t-43 19.5v-229zM148 139q0 -25 16 -38t42 -22q27 -10 57.5 -17.5t50.5 -7.5q35 0 46.5 19.5t11.5 52.5v222
q0 33 -11.5 52.5t-46.5 19.5q-20 0 -50.5 -7.5t-57.5 -17.5q-26 -9 -42 -22t-16 -38v-196z" />
    <glyph glyph-name="q" unicode="q" 
d="M362 -202v241q-20 -11 -43.5 -19.5t-48.5 -15.5t-48.5 -10.5t-42.5 -3.5q-53 0 -81 30t-28 79v276q0 49 28 79t81 30q19 0 43 -3.5t48.5 -10.5t48.5 -16t44 -19v39h67v-664zM362 335q0 25 -16 38t-42 22q-27 10 -57.5 17.5t-50.5 7.5q-35 0 -46.5 -19.5t-11.5 -52.5v-222
q0 -33 11.5 -52.5t46.5 -19.5q20 0 50.5 7.5t57.5 17.5q26 9 42 22t16 38v196z" />
    <glyph glyph-name="r" unicode="r" horiz-adv-x="307" 
d="M302 419q-25 -12 -50.5 -25.5t-45.5 -25.5q-23 -14 -40.5 -31t-17.5 -49v-288h-68v474h67v-71q12 9 30 20t38.5 22t41.5 21t39 18z" />
    <glyph glyph-name="s" unicode="s" horiz-adv-x="459" 
d="M338 137q0 20 -9 32t-38 21q-21 7 -37 12t-30.5 9.5t-30 9.5t-35.5 11q-39 12 -66 34.5t-27 63.5v36q0 48 30.5 78t78.5 30h118q48 0 78.5 -30.5t30.5 -78.5v-24l-67 -11v26q0 27 -15.5 42.5t-42.5 15.5h-84q-28 0 -43.5 -13.5t-15.5 -43.5v-16q0 -23 11 -33.5t37 -18.5
q21 -7 36.5 -11.5t29.5 -9t29.5 -9.5t38.5 -12q43 -14 67 -37.5t24 -63.5v-38q0 -48 -30.5 -78t-78.5 -30h-126q-48 0 -78 30.5t-30 78.5v23l67 11v-25q0 -26 15 -42t42 -16h94q29 0 43 15t14 42v20v0z" />
    <glyph glyph-name="t" unicode="t" horiz-adv-x="313" 
d="M15 474h77v118l68 11v-129h133l-12 -59h-121v-296q0 -27 15.5 -43t42.5 -16h62v-60h-80q-47 0 -77.5 30.5t-30.5 78.5v306h-77v59z" />
    <glyph glyph-name="u" unicode="u" horiz-adv-x="515" 
d="M435 474v-474h-67v39q-21 -11 -45.5 -19.5t-49 -15.5t-47.5 -10.5t-42 -3.5q-51 0 -80 30t-29 79v375h68v-360q0 -58 58 -58q20 0 50.5 7.5t57.5 17.5q26 8 42 21.5t16 38.5v333h68z" />
    <glyph glyph-name="v" unicode="v" horiz-adv-x="434" 
d="M15 474h69l133 -392l132 392h70l-165 -474h-74z" />
    <glyph glyph-name="w" unicode="w" horiz-adv-x="631" 
d="M35 474h64l69 -376l116 376h64l115 -376l68 376h65l-91 -474h-71l-118 384l-119 -384h-70z" />
    <glyph glyph-name="x" unicode="x" horiz-adv-x="476" 
d="M201 238l-154 236h77l114 -178l114 178h77l-154 -236l156 -238h-78l-115 182l-115 -182h-78z" />
    <glyph glyph-name="y" unicode="y" horiz-adv-x="437" 
d="M181 1l-166 473h72l130 -386l131 386h71l-231 -664h-68l61 191v0z" />
    <glyph glyph-name="z" unicode="z" horiz-adv-x="453" 
d="M67 474h325v-61l-253 -351h256v-62h-332v62l251 351h-247v61z" />
    <glyph glyph-name="braceleft" unicode="{" horiz-adv-x="317" 
d="M147 392l-33 261q-5 48 20.5 75.5t73.5 37.5q26 5 50.5 9t49.5 8l9 -52q-17 -3 -39 -7t-45 -9q-26 -6 -40.5 -21t-10.5 -43q6 -49 10 -77.5t7 -53t7 -53.5t10 -78q1 -13 -10 -21l-65 -53l65 -53q11 -8 10 -21q-4 -33 -7 -56t-5.5 -41.5t-4.5 -34t-4.5 -33.5t-5.5 -41
t-7 -56q-4 -28 10.5 -43t40.5 -21q23 -5 45 -9t39 -7l-9 -52q-25 4 -49.5 8t-50.5 9q-48 10 -73.5 37.5t-20.5 75.5l33 261l-67 55v44z" />
    <glyph glyph-name="bar" unicode="|" horiz-adv-x="236" 
d="M95 -200v1000h46v-1000h-46z" />
    <glyph glyph-name="braceright" unicode="}" horiz-adv-x="317" 
d="M237 337v-44l-67 -55l33 -261q5 -48 -20.5 -75.5t-73.5 -37.5q-26 -5 -50.5 -9t-49.5 -8l-9 52q17 3 39 7t45 9q26 6 40.5 21t10.5 43q-4 33 -7 56t-5.5 41t-4.5 33.5t-4.5 34t-5.5 41.5t-7 56q-1 13 10 21l65 53l-65 53q-11 8 -10 21q6 49 10 78t7 53.5t7 53t10 77.5
q4 28 -10.5 43t-40.5 21q-23 5 -45 9t-39 7l9 52q25 -4 49.5 -8t50.5 -9q48 -10 73.5 -37.5t20.5 -75.5l-33 -261z" />
    <glyph glyph-name="asciitilde" unicode="~" horiz-adv-x="440" 
d="M35 217l30 56q17 33 49 43.5t66 -7.5l98 -51q19 -10 34.5 -4.5t25.5 24.5l23 44l44 -23l-30 -56q-17 -33 -49 -43.5t-65 6.5l-99 52q-19 10 -34.5 4.5t-25.5 -24.5l-23 -44z" />
    <glyph glyph-name="Euro" unicode="&#x20ac;" horiz-adv-x="617" 
d="M542 201v-90q0 -24 -8.5 -44.5t-23 -35t-34.5 -23t-44 -8.5h-204q-24 0 -44 8.5t-34.5 23t-23 35t-8.5 44.5v126h-93l5 47h88v102h-85l5 47h80v122q0 49 31 80t79 31h204q48 0 79 -31t31 -80v-86l-70 -11v85q0 27 -15.5 42.5t-42.5 15.5h-168q-27 0 -42.5 -15.5
t-15.5 -42.5v-110h153l-6 -47h-147v-102h148l-5 -47h-143v-114q0 -27 15.5 -42.5t42.5 -15.5h168q27 0 42.5 15.5t15.5 42.5v90z" />
    <glyph glyph-name="quotesinglbase" unicode="&#x201a;" horiz-adv-x="222" 
d="M65 -88l41 88h-30v109h76v-109l-51 -106z" />
    <glyph glyph-name="florin" unicode="&#x192;" horiz-adv-x="421" 
d="M94 406h72l14 151q4 48 36.5 78.5t80.5 30.5h94l-9 -60h-73q-27 0 -43.5 -15.5t-18.5 -42.5l-13 -142h125l-9 -58h-121l-37 -429q-5 -48 -37 -78.5t-81 -30.5h-79l7 60h59q31 0 46 15.5t18 42.5l37 420h-73z" />
    <glyph glyph-name="quotedblbase" unicode="&#x201e;" horiz-adv-x="387" 
d="M65 -88l41 88h-30v109h76v-109l-51 -106zM230 -88l41 88h-30v109h76v-109l-51 -106z" />
    <glyph glyph-name="ellipsis" unicode="&#x2026;" horiz-adv-x="708" 
d="M80 0v109h76v-109h-76zM316 0v109h76v-109h-76zM552 0v109h76v-109h-76z" />
    <glyph glyph-name="dagger" unicode="&#x2020;" horiz-adv-x="562" 
d="M312 339v-409h-65v409h65zM312 666v-167h-65v167h65zM201 399l-146 -11v63l146 -11v-41zM361 440l146 11v-63l-146 11v41z" />
    <glyph glyph-name="daggerdbl" unicode="&#x2021;" horiz-adv-x="562" 
d="M312 666v-137h-65v137h65zM201 429l-146 -11v63l146 -11v-41zM361 470l146 11v-63l-146 11v41zM247 220v157h65v-157h-65zM247 -70v137h65v-137h-65zM201 127l-146 -11v63l146 -11v-41zM361 168l146 11v-63l-146 11v41z" />
    <glyph glyph-name="circumflex" unicode="&#x2c6;" horiz-adv-x="464" 
d="M231 676l123 -114l-31 -34l-92 86l-91 -86l-30 34z" />
    <glyph glyph-name="perthousand" unicode="&#x2030;" horiz-adv-x="1368" 
d="M622 666h59l-329 -666h-59zM80 567q0 21 8 39t22.5 31.5t33 21t39.5 7.5h104q21 0 39.5 -7.5t33 -21t22.5 -31.5t8 -39v-179q0 -21 -8 -39t-22.5 -31.5t-33 -21t-39.5 -7.5h-104q-21 0 -39.5 7.5t-33 21t-22.5 31.5t-8 39v179zM138 402q0 -59 59 -59h76q59 0 59 59v151
q0 59 -59 59h-76q-59 0 -59 -59v-151zM581 278q0 21 8 39t22.5 31.5t33 21t39.5 7.5h104q21 0 39.5 -7.5t33 -21t22.5 -31.5t8 -39v-179q0 -21 -8 -39t-22.5 -31.5t-33 -21t-39.5 -7.5h-104q-21 0 -39.5 7.5t-33 21t-22.5 31.5t-8 39v179zM639 113q0 -59 59 -59h76
q59 0 59 59v151q0 59 -59 59h-76q-59 0 -59 -59v-151zM978 278q0 21 8 39t22.5 31.5t33 21t39.5 7.5h104q21 0 39.5 -7.5t33 -21t22.5 -31.5t8 -39v-179q0 -21 -8 -39t-22.5 -31.5t-33 -21t-39.5 -7.5h-104q-21 0 -39.5 7.5t-33 21t-22.5 31.5t-8 39v179zM1036 113
q0 -59 59 -59h76q59 0 59 59v151q0 59 -59 59h-76q-59 0 -59 -59v-151z" />
    <glyph glyph-name="Scaron" unicode="&#x160;" horiz-adv-x="562" 
d="M184 331q-45 13 -75 37.5t-30 70.5v116q0 49 31.5 80t79.5 31h185q48 0 79 -31t31 -80v-72l-70 -12v72q0 27 -14.5 43t-43.5 16h-150q-29 0 -43.5 -16t-14.5 -43v-91q0 -26 15.5 -39t40.5 -20q31 -9 51.5 -14.5t39 -11t38.5 -11t50 -14.5q22 -6 41 -15t33 -22t22 -30.5
t8 -41.5v-122q0 -48 -31 -79.5t-79 -31.5h-191q-48 0 -79.5 31.5t-31.5 79.5v73l70 12v-73q0 -27 14.5 -42.5t43.5 -15.5h156q29 0 43.5 15.5t14.5 42.5v99q0 25 -13.5 38t-42.5 21t-50 14t-40 11.5t-39.5 11t-48.5 13.5zM161 823l30 34l91 -86l92 86l31 -34l-123 -114z" />
    <glyph glyph-name="guilsinglleft" unicode="&#x2039;" horiz-adv-x="305" 
d="M50 238l146 200l44 -32l-122 -168l122 -166l-44 -32z" />
    <glyph glyph-name="OE" unicode="&#x152;" horiz-adv-x="889" 
d="M190 0q-24 0 -44 8.5t-34.5 23t-23 35t-8.5 44.5v444q0 49 31 80t79 31h632v-65h-310v-224h281v-65h-281v-247h312v-65h-634zM442 601h-234q-27 0 -42.5 -15.5t-15.5 -42.5v-420q0 -27 15.5 -42.5t42.5 -15.5h234v536z" />
    <glyph glyph-name="quoteleft" unicode="&#x2018;" horiz-adv-x="197" 
d="M157 656l-41 -88h30v-109h-76v109l51 106z" />
    <glyph glyph-name="quoteright" unicode="&#x2019;" horiz-adv-x="177" 
d="M40 469l41 88h-30v109h76v-109l-51 -106z" />
    <glyph glyph-name="quotedblleft" unicode="&#x201c;" horiz-adv-x="362" 
d="M322 656l-41 -88h30v-109h-76v109l51 106zM157 656l-41 -88h30v-109h-76v109l51 106z" />
    <glyph glyph-name="quotedblright" unicode="&#x201d;" horiz-adv-x="362" 
d="M40 469l41 88h-30v109h76v-109l-51 -106zM205 469l41 88h-30v109h76v-109l-51 -106z" />
    <glyph glyph-name="bullet" unicode="&#x2022;" horiz-adv-x="354" 
d="M75 324q0 21 8 39.5t22 32t32.5 21.5t39.5 8t39.5 -8t32.5 -21.5t22 -32t8 -39.5t-8 -40t-22 -32.5t-32.5 -21.5t-39.5 -8t-39.5 8t-32.5 21.5t-22 32.5t-8 40z" />
    <glyph glyph-name="endash" unicode="&#x2013;" horiz-adv-x="481" 
d="M60 260v58h361v-58h-361z" />
    <glyph glyph-name="emdash" unicode="&#x2014;" horiz-adv-x="610" 
d="M60 260v58h490v-58h-490z" />
    <glyph glyph-name="tilde" unicode="&#x2dc;" horiz-adv-x="455" 
d="M176 582q-11 3 -15 -7l-13 -34l-38 14l18 48q6 17 22 24t33 0l94 -35q14 -5 17 5l13 35l38 -14l-18 -48q-7 -17 -22 -24t-32 -1z" />
    <glyph glyph-name="trademark" unicode="&#x2122;" horiz-adv-x="664" 
d="M373 587v-219h-36v298h36l90 -193l91 193h35v-298h-36v219l-74 -160h-31zM65 666h220v-34h-91v-264h-37v264h-92v34z" />
    <glyph glyph-name="scaron" unicode="&#x161;" horiz-adv-x="467" 
d="M338 137q0 20 -9 32t-38 21q-21 7 -37 12t-30.5 9.5t-30 9.5t-35.5 11q-39 12 -66 34.5t-27 63.5v36q0 48 30.5 78t78.5 30h118q48 0 78.5 -30.5t30.5 -78.5v-24l-67 -11v26q0 27 -15.5 42.5t-42.5 15.5h-84q-28 0 -43.5 -13.5t-15.5 -43.5v-16q0 -23 11 -33.5t37 -18.5
q21 -7 36.5 -11.5t29.5 -9t29.5 -9.5t38.5 -12q43 -14 67 -37.5t24 -63.5v-38q0 -48 -30.5 -78t-78.5 -30h-126q-48 0 -78 30.5t-30 78.5v23l67 11v-25q0 -26 15 -42t42 -16h94q29 0 43 15t14 42v20v0zM112 633l30 34l91 -86l92 86l31 -34l-123 -114z" />
    <glyph glyph-name="guilsinglright" unicode="&#x203a;" horiz-adv-x="305" 
d="M109 40l-44 32l122 166l-122 168l44 32l146 -200z" />
    <glyph glyph-name="oe" unicode="&#x153;" horiz-adv-x="790" 
d="M440 225v-110q1 -25 16.5 -39.5t41.5 -14.5h109q27 0 42 15.5t15 42.5v26l66 -11v-25q0 -48 -30 -78.5t-78 -30.5h-142q-24 0 -43 10.5t-31 25.5q-13 -16 -32 -26t-43 -10h-153q-48 0 -78 30.5t-30 78.5v256q0 48 30 78.5t78 30.5h153q24 0 43.5 -10t31.5 -27
q11 17 31 27t43 10h141q48 0 78.5 -30.5t30.5 -78.5v-140h-290zM372 355q-1 27 -16 42t-42 15h-119q-27 0 -42 -15.5t-15 -42.5v-233q0 -27 15 -42.5t42 -15.5h119q27 0 42.5 15.5t15.5 42.5v234v0zM440 283h224v74q0 27 -15.5 42.5t-42.5 15.5h-108q-27 0 -42 -15t-16 -41
v-76z" />
    <glyph glyph-name="Ydieresis" unicode="&#x178;" horiz-adv-x="519" 
d="M259 331l171 335h74l-209 -412v-254h-71v254l-209 412h74zM151 738v82h62v-82h-62zM307 738v82h62v-82h-62z" />
    <glyph glyph-name="uni00A0" unicode="&#xa0;" horiz-adv-x="218" 
 />
    <glyph glyph-name="exclamdown" unicode="&#xa1;" horiz-adv-x="246" 
d="M157 114v-304h-68v304l12 168h44zM161 474v-109h-76v109h76z" />
    <glyph glyph-name="cent" unicode="&#xa2;" horiz-adv-x="482" 
d="M359 416v33q0 27 -15.5 42.5t-42.5 15.5h-105q-27 0 -42.5 -15.5t-15.5 -42.5v-234q0 -27 15.5 -42.5t42.5 -15.5h105q27 0 42.5 15.5t15.5 42.5v40l68 -11v-40q0 -48 -30.5 -78.5t-78.5 -30.5h-45v-95h-52v95h-43q-47 0 -77.5 30.5t-30.5 78.5v256q0 48 30.5 78.5
t77.5 30.5h43v97h52v-97h45q48 0 78.5 -30.5t30.5 -78.5v-33z" />
    <glyph glyph-name="sterling" unicode="&#xa3;" horiz-adv-x="568" 
d="M493 154v-45q0 -48 -30.5 -78.5t-78.5 -30.5h-359l7 58h124v499q0 48 30.5 78.5t77.5 30.5h175v-59h-157q-27 0 -42.5 -15.5t-15.5 -42.5v-139h177l-6 -59h-171v-293h150q27 0 42.5 15.5t15.5 42.5v50z" />
    <glyph glyph-name="currency" unicode="&#xa4;" horiz-adv-x="617" 
d="M542 201v-90q0 -24 -8.5 -44.5t-23 -35t-34.5 -23t-44 -8.5h-204q-24 0 -44 8.5t-34.5 23t-23 35t-8.5 44.5v126h-93l5 47h88v102h-85l5 47h80v122q0 49 31 80t79 31h204q48 0 79 -31t31 -80v-86l-70 -11v85q0 27 -15.5 42.5t-42.5 15.5h-168q-27 0 -42.5 -15.5
t-15.5 -42.5v-110h153l-6 -47h-147v-102h148l-5 -47h-143v-114q0 -27 15.5 -42.5t42.5 -15.5h168q27 0 42.5 15.5t15.5 42.5v90z" />
    <glyph glyph-name="yen" unicode="&#xa5;" horiz-adv-x="519" 
d="M259 331l171 335h74l-158 -311h110v-51h-136l-25 -50v-47h161v-50h-161v-157h-71v157h-160v50h160v47l-26 50h-134v51h108l-157 311h74z" />
    <glyph glyph-name="brokenbar" unicode="&#xa6;" horiz-adv-x="236" 
d="M95 -200v417h46v-417h-46zM141 383h-46v417h46v-417z" />
    <glyph glyph-name="section" unicode="&#xa7;" horiz-adv-x="521" 
d="M424 245q-42 12 -72.5 20t-56.5 15.5t-52 15.5t-60 18q-40 11 -66 34t-26 65v150q0 45 30.5 74t75.5 29h129q23 0 42.5 -8.5t34 -22.5t23 -34t8.5 -42v-46l-65 -12v48q0 24 -16.5 41t-41.5 17h-94q-26 0 -42.5 -14.5t-16.5 -39.5v-128q0 -24 15.5 -36.5t41.5 -19.5
q31 -9 57 -16t51.5 -14.5t53.5 -15.5t64 -18zM97 232q39 -11 66.5 -19t53 -15.5t54 -15.5t67.5 -19q40 -11 66.5 -34t26.5 -65v-151q0 -45 -30.5 -74t-77.5 -29h-129q-23 0 -42.5 8.5t-33.5 22.5t-22.5 33.5t-8.5 42.5v46l65 12v-48q0 -24 16.5 -41t42.5 -17h93
q26 0 42.5 14.5t16.5 39.5v129q0 24 -15.5 36t-41.5 20q-36 10 -61.5 17t-49.5 14t-50.5 14.5t-64.5 18.5z" />
    <glyph glyph-name="dieresis" unicode="&#xa8;" horiz-adv-x="438" 
d="M110 552v82h62v-82h-62zM266 552v82h62v-82h-62z" />
    <glyph glyph-name="copyright" unicode="&#xa9;" horiz-adv-x="660" 
d="M174 0q-20 0 -37 7.5t-30 20.5t-20 30t-7 37v477q0 19 7 36t20 30t30 20.5t37 7.5h312q20 0 37 -7.5t30 -20.5t20 -30t7 -36v-477q0 -20 -7 -37t-20 -30t-30 -20.5t-37 -7.5h-312v0zM479 38q26 0 43.5 17.5t17.5 43.5v468q0 26 -17.5 43.5t-43.5 17.5h-297
q-26 0 -44 -17.5t-18 -43.5v-468q0 -26 18 -43.5t44 -17.5h297v0zM410 274l41 -7v-44q0 -32 -21 -53.5t-53 -21.5h-89q-32 0 -53.5 21.5t-21.5 53.5v221q0 32 21.5 53.5t53.5 21.5h89q32 0 53 -21.5t21 -53.5v-42l-41 -7v43q0 18 -12.5 30.5t-30.5 12.5h-69q-19 0 -31 -12.5
t-12 -30.5v-208q0 -19 12 -31.5t31 -12.5h69q18 0 30.5 12.5t12.5 31.5v44z" />
    <glyph glyph-name="ordfeminine" unicode="&#xaa;" horiz-adv-x="329" 
d="M60 488q0 29 16.5 45.5t45.5 16.5q26 0 53 -4t50 -15v67q0 33 -33 33h-56q-15 0 -24 -8.5t-9 -24.5v-10l-37 5v12q0 26 17.5 43.5t44.5 17.5h74q27 0 44.5 -17.5t17.5 -44.5v-207h-38v19q-22 -13 -51.5 -19t-52.5 -6q-29 0 -45.5 16.5t-16.5 45.5v35zM225 476
q0 16 -10.5 23t-26.5 12q-14 3 -29.5 4t-26.5 1q-33 0 -33 -33v-24q0 -32 33 -32q11 0 26 1.5t30 6.5q16 5 26.5 13t10.5 23v5z" />
    <glyph glyph-name="guillemotleft" unicode="&#xab;" horiz-adv-x="494" 
d="M50 238l146 200l44 -32l-122 -168l122 -166l-44 -32zM239 238l146 200l44 -32l-122 -168l122 -166l-44 -32z" />
    <glyph glyph-name="logicalnot" unicode="&#xac;" horiz-adv-x="523" 
d="M383 313h-328v56h388v-257h-60v201z" />
    <glyph glyph-name="minus" unicode="&#xad;" horiz-adv-x="403" 
d="M60 260v58h283v-58h-283z" />
    <glyph glyph-name="registered" unicode="&#xae;" horiz-adv-x="492" 
d="M142 267q-36 0 -59 24.5t-23 59.5v232q0 35 23 59t59 24h206q37 0 60.5 -24t23.5 -59v-232q0 -35 -23.5 -59.5t-60.5 -24.5h-206v0zM347 296q23 0 38.5 15t15.5 38v236q0 22 -15.5 37t-38.5 15h-203q-23 0 -38.5 -15t-15.5 -37v-236q0 -23 15.5 -38t38.5 -15h203v0z
M260 451h-52v-86h-25v207h95q15 0 25 -10.5t10 -25.5v-50q0 -14 -8 -23.5t-19 -11.5l43 -86h-26zM289 533q0 7 -4.5 12t-12.5 5h-64v-77h64q17 0 17 16v44z" />
    <glyph glyph-name="macron" unicode="&#xaf;" horiz-adv-x="454" 
d="M110 568v49h234v-49h-234z" />
    <glyph glyph-name="degree" unicode="&#xb0;" horiz-adv-x="287" 
d="M97 495q-12 0 -19.5 8.5t-7.5 19.5v116q0 11 7.5 19t19.5 8h92q12 0 20 -8t8 -19v-116q0 -11 -8 -19.5t-20 -8.5h-92v0zM188 632q0 8 -8 8h-73q-8 0 -8 -8v-103q0 -8 8 -8h73q8 0 8 8v103z" />
    <glyph glyph-name="plusminus" unicode="&#xb1;" horiz-adv-x="550" 
d="M65 50h178v181h-178v56h178v182h63v-182h179v-56h-179v-181h179v-50h-420v50z" />
    <glyph glyph-name="twosuperior" unicode="&#xb2;" horiz-adv-x="736" 
d="M368 -10l-338 676h676z" />
    <glyph glyph-name="threesuperior" unicode="&#xb3;" horiz-adv-x="736" 
d="M706 0h-676l338 676z" />
    <glyph glyph-name="acute" unicode="&#xb4;" horiz-adv-x="361" 
d="M173 536l-33 38l117 105l34 -39z" />
    <glyph glyph-name="mu" unicode="&#xb5;" horiz-adv-x="515" 
d="M75 474h68v-360q0 -58 58 -58q20 0 50.5 7.5t57.5 17.5q26 8 42 21.5t16 38.5v333h68v-474h-67v39q-21 -11 -45.5 -19.5t-49 -15.5t-47.5 -10.5t-42 -3.5q-11 0 -21.5 2t-19.5 5v-187h-68v664z" />
    <glyph glyph-name="paragraph" unicode="&#xb6;" horiz-adv-x="533" 
d="M272 314h-177q-18 0 -29 12t-11 29v271q0 17 11 28.5t29 11.5h353v-666h-49v620h-78v-770q0 -17 -11 -28.5t-28 -11.5h-102v43h80q12 0 12 11v450z" />
    <glyph glyph-name="periodcentered" unicode="&#xb7;" horiz-adv-x="235" 
d="M80 272v109h75v-109h-75z" />
    <glyph glyph-name="periodcentered" unicode="&#x2219;" horiz-adv-x="235" 
d="M80 272v109h75v-109h-75z" />
    <glyph glyph-name="cedilla" unicode="&#xb8;" horiz-adv-x="337" 
d="M161 -140l-51 22l58 140l59 -8z" />
    <glyph glyph-name="onesuperior" unicode="&#xb9;" horiz-adv-x="806" 
d="M771 333l-686 -343v686z" />
    <glyph glyph-name="ordmasculine" unicode="&#xba;" horiz-adv-x="330" 
d="M270 459q0 -27 -17.5 -44.5t-44.5 -17.5h-87q-26 0 -43.5 17.5t-17.5 44.5v145q0 27 17.5 44.5t43.5 17.5h87q27 0 44.5 -17.5t17.5 -44.5v-145v0zM99 465q0 -15 8.5 -24t23.5 -9h67q16 0 24.5 9t8.5 24v133q0 15 -8.5 24t-24.5 9h-67q-15 0 -23.5 -9t-8.5 -24v-133z" />
    <glyph glyph-name="guillemotright" unicode="&#xbb;" horiz-adv-x="494" 
d="M298 40l-44 32l122 166l-122 168l44 32l146 -200zM109 40l-44 32l122 166l-122 168l44 32l146 -200z" />
    <glyph glyph-name="onequarter" unicode="&#xbc;" horiz-adv-x="634" 
d="M80 474h474v-474h-474v474z" />
    <glyph glyph-name="onehalf" unicode="&#xbd;" horiz-adv-x="836" 
d="M85 666h666v-666h-666v666z" />
    <glyph glyph-name="threequarters" unicode="&#xbe;" horiz-adv-x="604" 
d="M80 484l494 -247l-494 -247v494z" />
    <glyph glyph-name="questiondown" unicode="&#xbf;" horiz-adv-x="497" 
d="M55 30q0 22 3.5 35.5t12 24t21.5 19.5t33 21q23 14 39 23t37 21q10 6 16 11t10 11t5.5 14.5t1.5 21.5v58h68v-73q0 -41 -14 -60.5t-46 -36.5q-24 -13 -38.5 -20.5t-35.5 -19.5q-15 -8 -23.5 -14.5t-13.5 -13.5t-6.5 -16t-1.5 -22v-84q0 -27 15 -42.5t42 -15.5h121
q27 0 42.5 15.5t15.5 42.5v65l68 -12v-64q0 -48 -30.5 -78.5t-77.5 -30.5h-155q-48 0 -78.5 30.5t-30.5 78.5v111v0zM306 474v-109h-76v109h76z" />
    <glyph glyph-name="Agrave" unicode="&#xc0;" horiz-adv-x="598" 
d="M562 0h-71l-60 172h-266l-58 -172h-71l230 666h66zM187 236h223l-111 343zM168 826l34 39l116 -105l-32 -38z" />
    <glyph glyph-name="Aacute" unicode="&#xc1;" horiz-adv-x="598" 
d="M562 0h-71l-60 172h-266l-58 -172h-71l230 666h66zM187 236h223l-111 343zM305 722l-33 38l117 105l34 -39z" />
    <glyph glyph-name="Acircumflex" unicode="&#xc2;" horiz-adv-x="598" 
d="M562 0h-71l-60 172h-266l-58 -172h-71l230 666h66zM187 236h223l-111 343zM298 856l123 -114l-31 -34l-92 86l-91 -86l-30 34z" />
    <glyph glyph-name="Atilde" unicode="&#xc3;" horiz-adv-x="598" 
d="M562 0h-71l-60 172h-266l-58 -172h-71l230 666h66zM187 236h223l-111 343zM248 763q-11 3 -15 -7l-13 -34l-38 14l18 48q6 17 22 24t33 0l94 -35q14 -5 17 5l13 35l38 -14l-18 -48q-7 -17 -22 -24t-32 -1z" />
    <glyph glyph-name="Adieresis" unicode="&#xc4;" horiz-adv-x="598" 
d="M562 0h-71l-60 172h-266l-58 -172h-71l230 666h66zM187 236h223l-111 343zM190 738v82h62v-82h-62zM346 738v82h62v-82h-62z" />
    <glyph glyph-name="Aring" unicode="&#xc5;" horiz-adv-x="598" 
d="M562 0h-71l-60 172h-266l-58 -172h-71l230 666h66zM187 236h223l-111 343zM260 693q-12 0 -19 8t-7 20v75q0 11 7 19t19 8h78q12 0 19.5 -8t7.5 -19v-75q0 -12 -7.5 -20t-19.5 -8h-78v0zM332 784q0 8 -8 8h-49q-8 0 -8 -8v-51q0 -8 8 -8h49q8 0 8 8v51z" />
    <glyph glyph-name="AE" unicode="&#xc6;" horiz-adv-x="820" 
d="M751 601h-399l76 -219h285v-65h-263l88 -252h217v-65h-265l-60 173h-264l-60 -173h-70l230 666h485v-65zM186 236h223l-111 333z" />
    <glyph glyph-name="Ccedilla" unicode="&#xc7;" horiz-adv-x="579" 
d="M504 201v-90q0 -24 -8.5 -44.5t-23 -35t-34.5 -23t-44 -8.5h-72l-60 -140l-51 22l49 118h-70q-24 0 -44 8.5t-34.5 23t-23 35t-8.5 44.5v444q0 49 31 80t79 31h204q48 0 79 -31t31 -80v-86l-70 -11v85q0 27 -15.5 42.5t-42.5 15.5h-168q-27 0 -42.5 -15.5t-15.5 -42.5
v-420q0 -27 15.5 -42.5t42.5 -15.5h168q27 0 42.5 15.5t15.5 42.5v90z" />
    <glyph glyph-name="Egrave" unicode="&#xc8;" horiz-adv-x="532" 
d="M85 666h380v-65h-310v-224h282v-65h-282v-247h312v-65h-382v666zM145 826l34 39l116 -105l-32 -38z" />
    <glyph glyph-name="Eacute" unicode="&#xc9;" horiz-adv-x="532" 
d="M85 666h380v-65h-310v-224h282v-65h-282v-247h312v-65h-382v666zM255 722l-33 38l117 105l34 -39z" />
    <glyph glyph-name="Ecircumflex" unicode="&#xca;" horiz-adv-x="532" 
d="M85 666h380v-65h-310v-224h282v-65h-282v-247h312v-65h-382v666zM268 856l123 -114l-31 -34l-92 86l-91 -86l-30 34z" />
    <glyph glyph-name="Edieresis" unicode="&#xcb;" horiz-adv-x="532" 
d="M85 666h380v-65h-310v-224h282v-65h-282v-247h312v-65h-382v666zM165 738v82h62v-82h-62zM321 738v82h62v-82h-62z" />
    <glyph glyph-name="Igrave" unicode="&#xcc;" horiz-adv-x="250" 
d="M159 0h-70v666h70v-666zM-6 826l34 39l116 -105l-32 -38z" />
    <glyph glyph-name="Iacute" unicode="&#xcd;" horiz-adv-x="250" 
d="M155 0h-70v666h70v-666zM126 722l-33 38l117 105l34 -39z" />
    <glyph glyph-name="Icircumflex" unicode="&#xce;" horiz-adv-x="250" 
d="M159 0h-70v666h70v-666zM123 856l123 -114l-31 -34l-92 86l-91 -86l-30 34z" />
    <glyph glyph-name="Idieresis" unicode="&#xcf;" horiz-adv-x="250" 
d="M159 0h-70v666h70v-666zM15 738v82h62v-82h-62zM171 738v82h62v-82h-62z" />
    <glyph glyph-name="Eth" unicode="&#xd0;" horiz-adv-x="604" 
d="M114 305h-79v57h79v304h300q48 0 79 -31t31 -80v-444q0 -24 -8.5 -44.5t-23 -35t-34.5 -23t-44 -8.5h-300v305zM184 362h124v-57h-124v-240h212q27 0 42.5 15.5t15.5 42.5v420q0 27 -15.5 42.5t-42.5 15.5h-212v-239z" />
    <glyph glyph-name="Ntilde" unicode="&#xd1;" horiz-adv-x="618" 
d="M533 0h-68l-312 539v-539h-68v666h68l312 -540v540h68v-666zM267 763q-11 3 -15 -7l-13 -34l-38 14l18 48q6 17 22 24t33 0l94 -35q14 -5 17 5l13 35l38 -14l-18 -48q-7 -17 -22 -24t-32 -1z" />
    <glyph glyph-name="Ograve" unicode="&#xd2;" horiz-adv-x="592" 
d="M512 111q0 -48 -31.5 -79.5t-79.5 -31.5h-211q-24 0 -44 8.5t-34.5 23t-23 35t-8.5 44.5v444q0 49 31 80t79 31h211q48 0 79.5 -31t31.5 -80v-444zM442 543q0 27 -15.5 42.5t-42.5 15.5h-176q-27 0 -42.5 -15.5t-15.5 -42.5v-420q0 -27 15.5 -42.5t42.5 -15.5h176
q27 0 42.5 15.5t15.5 42.5v420v0zM170 826l34 39l116 -105l-32 -38z" />
    <glyph glyph-name="Oacute" unicode="&#xd3;" horiz-adv-x="592" 
d="M512 111q0 -48 -31.5 -79.5t-79.5 -31.5h-211q-24 0 -44 8.5t-34.5 23t-23 35t-8.5 44.5v444q0 49 31 80t79 31h211q48 0 79.5 -31t31.5 -80v-444zM442 543q0 27 -15.5 42.5t-42.5 15.5h-176q-27 0 -42.5 -15.5t-15.5 -42.5v-420q0 -27 15.5 -42.5t42.5 -15.5h176
q27 0 42.5 15.5t15.5 42.5v420v0zM300 722l-33 38l117 105l34 -39z" />
    <glyph glyph-name="Ocircumflex" unicode="&#xd4;" horiz-adv-x="592" 
d="M512 111q0 -48 -31.5 -79.5t-79.5 -31.5h-211q-24 0 -44 8.5t-34.5 23t-23 35t-8.5 44.5v444q0 49 31 80t79 31h211q48 0 79.5 -31t31.5 -80v-444zM442 543q0 27 -15.5 42.5t-42.5 15.5h-176q-27 0 -42.5 -15.5t-15.5 -42.5v-420q0 -27 15.5 -42.5t42.5 -15.5h176
q27 0 42.5 15.5t15.5 42.5v420v0zM295 856l123 -114l-31 -34l-92 86l-91 -86l-30 34z" />
    <glyph glyph-name="Otilde" unicode="&#xd5;" horiz-adv-x="592" 
d="M512 111q0 -48 -31.5 -79.5t-79.5 -31.5h-211q-24 0 -44 8.5t-34.5 23t-23 35t-8.5 44.5v444q0 49 31 80t79 31h211q48 0 79.5 -31t31.5 -80v-444zM442 543q0 27 -15.5 42.5t-42.5 15.5h-176q-27 0 -42.5 -15.5t-15.5 -42.5v-420q0 -27 15.5 -42.5t42.5 -15.5h176
q27 0 42.5 15.5t15.5 42.5v420v0zM242 763q-11 3 -15 -7l-13 -34l-38 14l18 48q6 17 22 24t33 0l94 -35q14 -5 17 5l13 35l38 -14l-18 -48q-7 -17 -22 -24t-32 -1z" />
    <glyph glyph-name="Odieresis" unicode="&#xd6;" horiz-adv-x="592" 
d="M512 111q0 -48 -31.5 -79.5t-79.5 -31.5h-211q-24 0 -44 8.5t-34.5 23t-23 35t-8.5 44.5v444q0 49 31 80t79 31h211q48 0 79.5 -31t31.5 -80v-444zM442 543q0 27 -15.5 42.5t-42.5 15.5h-176q-27 0 -42.5 -15.5t-15.5 -42.5v-420q0 -27 15.5 -42.5t42.5 -15.5h176
q27 0 42.5 15.5t15.5 42.5v420v0zM187 738v82h62v-82h-62zM343 738v82h62v-82h-62z" />
    <glyph glyph-name="multiply" unicode="&#xd7;" horiz-adv-x="440" 
d="M220 298l127 128l43 -43l-127 -128l127 -126l-43 -43l-127 127l-127 -128l-43 43l128 128l-127 126l43 43z" />
    <glyph glyph-name="Oslash" unicode="&#xd8;" horiz-adv-x="592" 
d="M112 30q-15 15 -23.5 35.5t-8.5 45.5v444q0 49 31 80t79 31h211q23 0 44 -8l31 57l36 -19l-32 -61q32 -30 32 -80v-444q0 -48 -31.5 -79.5t-79.5 -31.5h-211q-22 0 -43 8l-30 -58l-37 19zM150 123q0 -13 2 -18l260 490q-12 6 -28 6h-176q-27 0 -42.5 -15.5t-15.5 -42.5
v-420v0zM442 543q0 7 -2 17l-260 -490q10 -5 28 -5h176q27 0 42.5 15.5t15.5 42.5v420v0z" />
    <glyph glyph-name="Ugrave" unicode="&#xd9;" horiz-adv-x="578" 
d="M498 666v-555q0 -48 -31.5 -79.5t-79.5 -31.5h-197q-24 0 -44 8.5t-34.5 23t-23 35t-8.5 44.5v555h70v-543q0 -27 15.5 -42.5t42.5 -15.5h162q27 0 42.5 15.5t15.5 42.5v543h70zM156 826l34 39l116 -105l-32 -38z" />
    <glyph glyph-name="Uacute" unicode="&#xda;" horiz-adv-x="578" 
d="M498 666v-555q0 -48 -31.5 -79.5t-79.5 -31.5h-197q-24 0 -44 8.5t-34.5 23t-23 35t-8.5 44.5v555h70v-543q0 -27 15.5 -42.5t42.5 -15.5h162q27 0 42.5 15.5t15.5 42.5v543h70zM294 722l-33 38l117 105l34 -39z" />
    <glyph glyph-name="Ucircumflex" unicode="&#xdb;" horiz-adv-x="578" 
d="M498 666v-555q0 -48 -31.5 -79.5t-79.5 -31.5h-197q-24 0 -44 8.5t-34.5 23t-23 35t-8.5 44.5v555h70v-543q0 -27 15.5 -42.5t42.5 -15.5h162q27 0 42.5 15.5t15.5 42.5v543h70zM289 856l123 -114l-31 -34l-92 86l-91 -86l-30 34z" />
    <glyph glyph-name="Udieresis" unicode="&#xdc;" horiz-adv-x="578" 
d="M498 666v-555q0 -48 -31.5 -79.5t-79.5 -31.5h-197q-24 0 -44 8.5t-34.5 23t-23 35t-8.5 44.5v555h70v-543q0 -27 15.5 -42.5t42.5 -15.5h162q27 0 42.5 15.5t15.5 42.5v543h70zM182 738v82h62v-82h-62zM338 738v82h62v-82h-62z" />
    <glyph glyph-name="Yacute" unicode="&#xdd;" horiz-adv-x="519" 
d="M259 331l171 335h74l-209 -412v-254h-71v254l-209 412h74zM271 722l-33 38l117 105l34 -39z" />
    <glyph glyph-name="Thorn" unicode="&#xde;" horiz-adv-x="532" 
d="M85 666h70v-130h232q24 0 44 -8.5t34.5 -23t23 -35t8.5 -44.5v-166q0 -49 -31 -80t-79 -31h-232v-148h-70v666zM155 213h214q27 0 42.5 15.5t15.5 42.5v142q0 27 -15.5 42.5t-42.5 15.5h-214v-258z" />
    <glyph glyph-name="germandbls" unicode="&#xdf;" horiz-adv-x="608" 
d="M493 136q0 10 -3 17.5t-8 14.5t-12.5 14t-17.5 17q-16 16 -26.5 26t-19.5 19l-19 19t-25 26q-12 13 -20 22.5t-12 19.5t-5.5 21.5t-1.5 27.5v168q0 27 -15.5 42.5t-42.5 15.5h-59q-27 0 -42.5 -15.5t-15.5 -42.5v-548h-68v557q0 48 30 78.5t78 30.5h94q48 0 78.5 -30.5
t30.5 -78.5v-169q0 -27 3 -37.5t17 -23.5l25.5 -25.5l20 -20t20.5 -20t27 -26.5q14 -14 24.5 -25t17 -22t9.5 -24t3 -31v-25q0 -48 -30.5 -78t-78.5 -30h-99q-47 0 -77.5 30.5t-30.5 78.5v24l62 12v-29q0 -27 14.5 -42.5t43.5 -15.5h73q29 0 43.5 15t14.5 42v21v0z" />
    <glyph glyph-name="agrave" unicode="&#xe0;" horiz-adv-x="504" 
d="M70 160q0 51 29.5 80t79.5 29q46 0 93.5 -6.5t88.5 -26.5v119q0 27 -15.5 42.5t-42.5 15.5h-99q-27 0 -42.5 -15.5t-15.5 -42.5v-18l-65 8v21q0 48 30 78t78 30h132q47 0 77.5 -30.5t30.5 -78.5v-365h-67v33q-19 -11 -42.5 -19t-48 -13.5t-48.5 -8t-44 -2.5
q-50 0 -79.5 29t-29.5 80v61zM361 142q0 27 -19 40t-46 20q-26 6 -53.5 7.5t-47.5 1.5q-58 0 -58 -58v-45q0 -58 58 -58q19 0 47 3.5t54 11.5q27 9 46 23t19 40v14zM125 640l34 39l116 -105l-32 -38z" />
    <glyph glyph-name="aacute" unicode="&#xe1;" horiz-adv-x="504" 
d="M70 160q0 51 29.5 80t79.5 29q46 0 93.5 -6.5t88.5 -26.5v119q0 27 -15.5 42.5t-42.5 15.5h-99q-27 0 -42.5 -15.5t-15.5 -42.5v-18l-65 8v21q0 48 30 78t78 30h132q47 0 77.5 -30.5t30.5 -78.5v-365h-67v33q-19 -11 -42.5 -19t-48 -13.5t-48.5 -8t-44 -2.5
q-50 0 -79.5 29t-29.5 80v61zM361 142q0 27 -19 40t-46 20q-26 6 -53.5 7.5t-47.5 1.5q-58 0 -58 -58v-45q0 -58 58 -58q19 0 47 3.5t54 11.5q27 9 46 23t19 40v14zM259 536l-33 38l117 105l34 -39z" />
    <glyph glyph-name="acircumflex" unicode="&#xe2;" horiz-adv-x="504" 
d="M70 160q0 51 29.5 80t79.5 29q46 0 93.5 -6.5t88.5 -26.5v119q0 27 -15.5 42.5t-42.5 15.5h-99q-27 0 -42.5 -15.5t-15.5 -42.5v-18l-65 8v21q0 48 30 78t78 30h132q47 0 77.5 -30.5t30.5 -78.5v-365h-67v33q-19 -11 -42.5 -19t-48 -13.5t-48.5 -8t-44 -2.5
q-50 0 -79.5 29t-29.5 80v61zM361 142q0 27 -19 40t-46 20q-26 6 -53.5 7.5t-47.5 1.5q-58 0 -58 -58v-45q0 -58 58 -58q19 0 47 3.5t54 11.5q27 9 46 23t19 40v14zM260 676l123 -114l-31 -34l-92 86l-91 -86l-30 34z" />
    <glyph glyph-name="atilde" unicode="&#xe3;" horiz-adv-x="504" 
d="M70 160q0 51 29.5 80t79.5 29q46 0 93.5 -6.5t88.5 -26.5v119q0 27 -15.5 42.5t-42.5 15.5h-99q-27 0 -42.5 -15.5t-15.5 -42.5v-18l-65 8v21q0 48 30 78t78 30h132q47 0 77.5 -30.5t30.5 -78.5v-365h-67v33q-19 -11 -42.5 -19t-48 -13.5t-48.5 -8t-44 -2.5
q-50 0 -79.5 29t-29.5 80v61zM361 142q0 27 -19 40t-46 20q-26 6 -53.5 7.5t-47.5 1.5q-58 0 -58 -58v-45q0 -58 58 -58q19 0 47 3.5t54 11.5q27 9 46 23t19 40v14zM201 582q-11 3 -15 -7l-13 -34l-38 14l18 48q6 17 22 24t33 0l94 -35q14 -5 17 5l13 35l38 -14l-18 -48
q-7 -17 -22 -24t-32 -1z" />
    <glyph glyph-name="adieresis" unicode="&#xe4;" horiz-adv-x="504" 
d="M70 160q0 51 29.5 80t79.5 29q46 0 93.5 -6.5t88.5 -26.5v119q0 27 -15.5 42.5t-42.5 15.5h-99q-27 0 -42.5 -15.5t-15.5 -42.5v-18l-65 8v21q0 48 30 78t78 30h132q47 0 77.5 -30.5t30.5 -78.5v-365h-67v33q-19 -11 -42.5 -19t-48 -13.5t-48.5 -8t-44 -2.5
q-50 0 -79.5 29t-29.5 80v61zM361 142q0 27 -19 40t-46 20q-26 6 -53.5 7.5t-47.5 1.5q-58 0 -58 -58v-45q0 -58 58 -58q19 0 47 3.5t54 11.5q27 9 46 23t19 40v14zM150 552v82h62v-82h-62zM306 552v82h62v-82h-62z" />
    <glyph glyph-name="aring" unicode="&#xe5;" horiz-adv-x="504" 
d="M70 160q0 51 29.5 80t79.5 29q46 0 93.5 -6.5t88.5 -26.5v119q0 27 -15.5 42.5t-42.5 15.5h-99q-27 0 -42.5 -15.5t-15.5 -42.5v-18l-65 8v21q0 48 30 78t78 30h132q47 0 77.5 -30.5t30.5 -78.5v-365h-67v33q-19 -11 -42.5 -19t-48 -13.5t-48.5 -8t-44 -2.5
q-50 0 -79.5 29t-29.5 80v61zM361 142q0 27 -19 40t-46 20q-26 6 -53.5 7.5t-47.5 1.5q-58 0 -58 -58v-45q0 -58 58 -58q19 0 47 3.5t54 11.5q27 9 46 23t19 40v14zM216 530q-12 0 -19 8t-7 20v75q0 11 7 19t19 8h78q12 0 19.5 -8t7.5 -19v-75q0 -12 -7.5 -20t-19.5 -8h-78
v0zM288 621q0 8 -8 8h-49q-8 0 -8 -8v-51q0 -8 8 -8h49q8 0 8 8v51z" />
    <glyph glyph-name="ae" unicode="&#xe6;" horiz-adv-x="779" 
d="M429 224v-108q1 -26 16 -40.5t41 -14.5h109q27 0 42.5 15.5t15.5 42.5v26l66 -11v-25q0 -48 -30.5 -78.5t-77.5 -30.5h-142q-29 0 -51 11.5t-36 31.5q-48 -30 -100 -41.5t-103 -11.5t-80 30t-29 79v61q0 49 29 79t80 30q40 0 90 -6.5t92 -27.5v122q-1 26 -16.5 41
t-41.5 15h-99q-27 0 -42.5 -15.5t-15.5 -42.5v-18l-66 8v21q0 48 30 78t78 30h117q29 0 50.5 -6.5t39.5 -22.5q17 17 39 23t51 6h126q47 0 77.5 -30.5t30.5 -78.5v-141h-290zM303 199q-23 7 -51.5 8.5t-48.5 1.5q-32 0 -49 -13t-17 -45v-41q0 -32 17 -45t49 -13q19 0 46 4
t52 13t42.5 24t17.5 36v12q0 23 -16.5 36.5t-41.5 21.5zM429 283h224v74q0 27 -15.5 42.5t-42.5 15.5h-109q-27 0 -42 -15.5t-15 -42.5v-74z" />
    <glyph glyph-name="ccedilla" unicode="&#xe7;" horiz-adv-x="482" 
d="M359 321v33q0 27 -15.5 42.5t-42.5 15.5h-105q-27 0 -42.5 -15.5t-15.5 -42.5v-234q0 -27 15.5 -42.5t42.5 -15.5h105q27 0 42.5 15.5t15.5 42.5v40l68 -11v-40q0 -48 -30.5 -78.5t-78.5 -30.5h-36l-58 -134l-49 21l45 113h-42q-47 0 -77.5 30.5t-30.5 78.5v256
q0 48 30.5 78.5t77.5 30.5h140q48 0 78.5 -30.5t30.5 -78.5v-33z" />
    <glyph glyph-name="egrave" unicode="&#xe8;" horiz-adv-x="488" 
d="M138 224v-105q0 -27 15.5 -42.5t42.5 -15.5h109q27 0 42 15.5t15 42.5v26l66 -11v-25q0 -48 -30 -78.5t-78 -30.5h-142q-47 0 -77.5 30.5t-30.5 78.5v256q0 48 30.5 78.5t77.5 30.5h141q48 0 78.5 -30.5t30.5 -78.5v-141h-290zM138 283h224v74q0 27 -15.5 42.5
t-42.5 15.5h-108q-27 0 -42.5 -15.5t-15.5 -42.5v-74zM118 640l34 39l116 -105l-32 -38z" />
    <glyph glyph-name="eacute" unicode="&#xe9;" horiz-adv-x="488" 
d="M138 224v-105q0 -27 15.5 -42.5t42.5 -15.5h109q27 0 42 15.5t15 42.5v26l66 -11v-25q0 -48 -30 -78.5t-78 -30.5h-142q-47 0 -77.5 30.5t-30.5 78.5v256q0 48 30.5 78.5t77.5 30.5h141q48 0 78.5 -30.5t30.5 -78.5v-141h-290zM138 283h224v74q0 27 -15.5 42.5
t-42.5 15.5h-108q-27 0 -42.5 -15.5t-15.5 -42.5v-74zM251 536l-33 38l117 105l34 -39z" />
    <glyph glyph-name="ecircumflex" unicode="&#xea;" horiz-adv-x="488" 
d="M138 224v-105q0 -27 15.5 -42.5t42.5 -15.5h109q27 0 42 15.5t15 42.5v26l66 -11v-25q0 -48 -30 -78.5t-78 -30.5h-142q-47 0 -77.5 30.5t-30.5 78.5v256q0 48 30.5 78.5t77.5 30.5h141q48 0 78.5 -30.5t30.5 -78.5v-141h-290zM138 283h224v74q0 27 -15.5 42.5
t-42.5 15.5h-108q-27 0 -42.5 -15.5t-15.5 -42.5v-74zM252 676l123 -114l-31 -34l-92 86l-91 -86l-30 34z" />
    <glyph glyph-name="edieresis" unicode="&#xeb;" horiz-adv-x="488" 
d="M138 224v-105q0 -27 15.5 -42.5t42.5 -15.5h109q27 0 42 15.5t15 42.5v26l66 -11v-25q0 -48 -30 -78.5t-78 -30.5h-142q-47 0 -77.5 30.5t-30.5 78.5v256q0 48 30.5 78.5t77.5 30.5h141q48 0 78.5 -30.5t30.5 -78.5v-141h-290zM138 283h224v74q0 27 -15.5 42.5
t-42.5 15.5h-108q-27 0 -42.5 -15.5t-15.5 -42.5v-74zM142 552v82h62v-82h-62zM298 552v82h62v-82h-62z" />
    <glyph glyph-name="igrave" unicode="&#xec;" horiz-adv-x="228" 
d="M81 474h68v-474h-68v474zM-16 640l34 39l116 -105l-32 -38z" />
    <glyph glyph-name="iacute" unicode="&#xed;" horiz-adv-x="228" 
d="M82 474h68v-474h-68v474zM119 536l-33 38l117 105l34 -39z" />
    <glyph glyph-name="icircumflex" unicode="&#xee;" horiz-adv-x="228" 
d="M81 474h68v-474h-68v474zM114 676l123 -114l-31 -34l-92 86l-91 -86l-30 34z" />
    <glyph glyph-name="idieresis" unicode="&#xef;" horiz-adv-x="228" 
d="M80 474h68v-474h-68v474zM6 552v82h62v-82h-62zM162 552v82h62v-82h-62z" />
    <glyph glyph-name="eth" unicode="&#xf0;" horiz-adv-x="499" 
d="M378 546q0 12 -5 24l-73 -83l-32 28l74 84q-10 5 -21 5h-207v62h224q28 0 52 -13l47 54l32 -28l-46 -52q23 -29 23 -70v-448q0 -48 -30.5 -78.5t-77.5 -30.5h-159q-47 0 -78 30.5t-31 78.5v168q0 49 28 79t81 30q44 0 99 -9t100 -31v200v0zM138 120q0 -27 15.5 -42.5
t42.5 -15.5h124q27 0 42.5 15.5t15.5 42.5v123q0 25 -16 38t-42 22q-14 5 -31 8.5t-34.5 6t-33 3.5t-25.5 1q-35 0 -46.5 -19.5t-11.5 -52.5v-130z" />
    <glyph glyph-name="ntilde" unicode="&#xf1;" horiz-adv-x="515" 
d="M80 0v474h67v-39q21 10 45.5 19t49 16t47.5 10.5t42 3.5q51 0 80 -30t29 -79v-375h-68v360q0 58 -58 58q-20 0 -50.5 -7.5t-57.5 -17.5q-26 -8 -42 -21.5t-16 -38.5v-333h-68zM206 582q-11 3 -15 -7l-13 -34l-38 14l18 48q6 17 22 24t33 0l94 -35q14 -5 17 5l13 35
l38 -14l-18 -48q-7 -17 -22 -24t-32 -1z" />
    <glyph glyph-name="ograve" unicode="&#xf2;" 
d="M440 109q0 -48 -30.5 -78.5t-78.5 -30.5h-153q-48 0 -78 30.5t-30 78.5v256q0 48 30 78.5t78 30.5h153q48 0 78.5 -30.5t30.5 -78.5v-256v0zM138 120q0 -27 15 -42.5t42 -15.5h119q27 0 42.5 15.5t15.5 42.5v234q0 27 -15.5 42.5t-42.5 15.5h-119q-27 0 -42 -15.5
t-15 -42.5v-234zM117 640l34 39l116 -105l-32 -38z" />
    <glyph glyph-name="oacute" unicode="&#xf3;" 
d="M440 109q0 -48 -30.5 -78.5t-78.5 -30.5h-153q-48 0 -78 30.5t-30 78.5v256q0 48 30 78.5t78 30.5h153q48 0 78.5 -30.5t30.5 -78.5v-256v0zM138 120q0 -27 15 -42.5t42 -15.5h119q27 0 42.5 15.5t15.5 42.5v234q0 27 -15.5 42.5t-42.5 15.5h-119q-27 0 -42 -15.5
t-15 -42.5v-234zM259 536l-33 38l117 105l34 -39z" />
    <glyph glyph-name="ocircumflex" unicode="&#xf4;" 
d="M440 109q0 -48 -30.5 -78.5t-78.5 -30.5h-153q-48 0 -78 30.5t-30 78.5v256q0 48 30 78.5t78 30.5h153q48 0 78.5 -30.5t30.5 -78.5v-256v0zM138 120q0 -27 15 -42.5t42 -15.5h119q27 0 42.5 15.5t15.5 42.5v234q0 27 -15.5 42.5t-42.5 15.5h-119q-27 0 -42 -15.5
t-15 -42.5v-234zM254 676l123 -114l-31 -34l-92 86l-91 -86l-30 34z" />
    <glyph glyph-name="otilde" unicode="&#xf5;" 
d="M440 109q0 -48 -30.5 -78.5t-78.5 -30.5h-153q-48 0 -78 30.5t-30 78.5v256q0 48 30 78.5t78 30.5h153q48 0 78.5 -30.5t30.5 -78.5v-256v0zM138 120q0 -27 15 -42.5t42 -15.5h119q27 0 42.5 15.5t15.5 42.5v234q0 27 -15.5 42.5t-42.5 15.5h-119q-27 0 -42 -15.5
t-15 -42.5v-234zM198 582q-11 3 -15 -7l-13 -34l-38 14l18 48q6 17 22 24t33 0l94 -35q14 -5 17 5l13 35l38 -14l-18 -48q-7 -17 -22 -24t-32 -1z" />
    <glyph glyph-name="odieresis" unicode="&#xf6;" 
d="M440 109q0 -48 -30.5 -78.5t-78.5 -30.5h-153q-48 0 -78 30.5t-30 78.5v256q0 48 30 78.5t78 30.5h153q48 0 78.5 -30.5t30.5 -78.5v-256v0zM138 120q0 -27 15 -42.5t42 -15.5h119q27 0 42.5 15.5t15.5 42.5v234q0 27 -15.5 42.5t-42.5 15.5h-119q-27 0 -42 -15.5
t-15 -42.5v-234zM146 552v82h62v-82h-62zM302 552v82h62v-82h-62z" />
    <glyph glyph-name="divide" unicode="&#xf7;" horiz-adv-x="524" 
d="M224 28v98h76v-98h-76zM60 223v53h404v-53h-404zM224 355v98h76v-98h-76z" />
    <glyph glyph-name="oslash" unicode="&#xf8;" 
d="M104 26q-16 15 -25 36t-9 47v256q0 48 30 78.5t78 30.5h153q22 0 43 -8l36 58l30 -19l-35 -58q35 -30 35 -82v-256q0 -48 -30.5 -78.5t-78.5 -30.5h-153q-25 0 -43 7l-35 -57l-30 20zM372 354q0 16 -6 30l-195 -318q9 -4 24 -4h119q27 0 42.5 15.5t15.5 42.5v234v0z
M138 120q0 -17 6 -30l195 318q-5 2 -11.5 3t-13.5 1h-119q-27 0 -42 -15.5t-15 -42.5v-234z" />
    <glyph glyph-name="ugrave" unicode="&#xf9;" horiz-adv-x="515" 
d="M435 474v-474h-67v39q-21 -11 -45.5 -19.5t-49 -15.5t-47.5 -10.5t-42 -3.5q-51 0 -80 30t-29 79v375h68v-360q0 -58 58 -58q20 0 50.5 7.5t57.5 17.5q26 8 42 21.5t16 38.5v333h68zM119 640l34 39l116 -105l-32 -38z" />
    <glyph glyph-name="uacute" unicode="&#xfa;" horiz-adv-x="515" 
d="M435 474v-474h-67v39q-21 -11 -45.5 -19.5t-49 -15.5t-47.5 -10.5t-42 -3.5q-51 0 -80 30t-29 79v375h68v-360q0 -58 58 -58q20 0 50.5 7.5t57.5 17.5q26 8 42 21.5t16 38.5v333h68zM256 536l-33 38l117 105l34 -39z" />
    <glyph glyph-name="ucircumflex" unicode="&#xfb;" horiz-adv-x="515" 
d="M435 474v-474h-67v39q-21 -11 -45.5 -19.5t-49 -15.5t-47.5 -10.5t-42 -3.5q-51 0 -80 30t-29 79v375h68v-360q0 -58 58 -58q20 0 50.5 7.5t57.5 17.5q26 8 42 21.5t16 38.5v333h68zM259 676l123 -114l-31 -34l-92 86l-91 -86l-30 34z" />
    <glyph glyph-name="udieresis" unicode="&#xfc;" horiz-adv-x="515" 
d="M435 474v-474h-67v39q-21 -11 -45.5 -19.5t-49 -15.5t-47.5 -10.5t-42 -3.5q-51 0 -80 30t-29 79v375h68v-360q0 -58 58 -58q20 0 50.5 7.5t57.5 17.5q26 8 42 21.5t16 38.5v333h68zM150 552v82h62v-82h-62zM306 552v82h62v-82h-62z" />
    <glyph glyph-name="yacute" unicode="&#xfd;" horiz-adv-x="437" 
d="M181 1l-166 473h72l130 -386l131 386h71l-231 -664h-68l61 191v0zM228 536l-33 38l117 105l34 -39z" />
    <glyph glyph-name="thorn" unicode="&#xfe;" 
d="M80 -202v868l67 12v-243q19 10 43.5 19t49 16t48.5 10.5t43 3.5q53 0 81 -30t28 -79v-276q0 -49 -28 -79t-81 -30q-19 0 -42.5 3.5t-48.5 10.5t-49 15.5t-43 19.5v-229zM148 139q0 -25 16 -38t42 -22q27 -10 57.5 -17.5t50.5 -7.5q35 0 46.5 19.5t11.5 52.5v222
q0 33 -11.5 52.5t-46.5 19.5q-20 0 -50.5 -7.5t-57.5 -17.5q-26 -9 -42 -22t-16 -38v-196z" />
    <glyph glyph-name="ydieresis" unicode="&#xff;" horiz-adv-x="437" 
d="M181 1l-166 473h72l130 -386l131 386h71l-231 -664h-68l61 191v0zM108 552v82h62v-82h-62zM264 552v82h62v-82h-62z" />
    <glyph glyph-name="Delta" horiz-adv-x="806" 
d="M560 529l-272 -273v220h-52v-308h308l1 50l-219 1l272 271zM60 333q0 71 27 133.5t73.5 109t109 73.5t133.5 27t133.5 -27t109 -73.5t73.5 -109t27 -133.5t-27 -133.5t-73.5 -109t-109 -73.5t-133.5 -27t-133.5 27t-109 73.5t-73.5 109t-27 133.5z" />
    <glyph glyph-name="Omega" horiz-adv-x="806" 
d="M430 91v384l155 -155l36 37l-218 218l-218 -218l37 -37l154 156v-385h54zM403 676q71 0 133.5 -27t109 -73.5t73.5 -109t27 -133.5t-27 -133.5t-73.5 -109t-109 -73.5t-133.5 -27t-133.5 27t-109 73.5t-73.5 109t-27 133.5t27 133.5t73.5 109t109 73.5t133.5 27z" />
    <glyph glyph-name="apple" horiz-adv-x="826" 
d="M433 333v-333h-333v666h666v-333h-333z" />
    <glyph glyph-name="approxequal" horiz-adv-x="806" 
d="M249 139l272 272v-219h52v309h-309v-52h219l-272 -271zM746 333q0 -71 -27 -133.5t-73.5 -109t-109 -73.5t-133.5 -27t-133.5 27t-109 73.5t-73.5 109t-27 133.5t27 133.5t73.5 109t109 73.5t133.5 27t133.5 -27t109 -73.5t73.5 -109t27 -133.5z" />
    <glyph glyph-name="greaterequal" horiz-adv-x="608" 
d="M50 322h403l-157 156l35 35l217 -218l-217 -217l-35 35l158 157h-404v52z" />
    <glyph glyph-name="infinity" horiz-adv-x="806" 
d="M155 307h386l-156 -155l36 -36l218 217l-218 218l-36 -36l155 -154h-385v-54zM746 333q0 -71 -27 -133.5t-73.5 -109t-109 -73.5t-133.5 -27t-133.5 27t-109 73.5t-73.5 109t-27 133.5t27 133.5t73.5 109t109 73.5t133.5 27t133.5 -27t109 -73.5t73.5 -109t27 -133.5z
" />
    <glyph glyph-name="integral" horiz-adv-x="521" 
d="M65 332l286 286h-222v48h307v-306h-49v221l-285 -286z" />
    <glyph glyph-name="lessequal" horiz-adv-x="608" 
d="M558 270h-404l158 -157l-35 -35l-217 217l217 218l35 -35l-158 -156h404v-52z" />
    <glyph glyph-name="lozenge" horiz-adv-x="806" 
d="M210 491l272 -272h-219l1 -51h308v309h-52v-220l-272 272zM746 333q0 -71 -27 -133.5t-73.5 -109t-109 -73.5t-133.5 -27t-133.5 27t-109 73.5t-73.5 109t-27 133.5t27 133.5t73.5 109t109 73.5t133.5 27t133.5 -27t109 -73.5t73.5 -109t27 -133.5z" />
    <glyph glyph-name="notequal" horiz-adv-x="806" 
d="M651 361h-385l155 154l-36 36l-218 -218l218 -217l36 36l-156 155h386v54zM60 333q0 71 27 133.5t73.5 109t109 73.5t133.5 27t133.5 -27t109 -73.5t73.5 -109t27 -133.5t-27 -133.5t-73.5 -109t-109 -73.5t-133.5 -27t-133.5 27t-109 73.5t-73.5 109t-27 133.5z" />
    <glyph glyph-name="partialdiff" horiz-adv-x="534" 
d="M242 178v404l-157 -158l-35 35l218 217l216 -217l-34 -35l-156 157v-403h-52z" />
    <glyph glyph-name="pi" horiz-adv-x="521" 
d="M419 295l-285 286v-221h-49v306h307v-48h-223l287 -286z" />
    <glyph glyph-name="product" horiz-adv-x="511" 
d="M92 371l285 -285v221h49v-307h-307v49h222l-286 285z" />
    <glyph glyph-name="radical" horiz-adv-x="806" 
d="M595 178l-272 271h219v52h-309v-309h52v219l272 -272zM60 333q0 71 27 133.5t73.5 109t109 73.5t133.5 27t133.5 -27t109 -73.5t73.5 -109t27 -133.5t-27 -133.5t-73.5 -109t-109 -73.5t-133.5 -27t-133.5 27t-109 73.5t-73.5 109t-27 133.5z" />
    <glyph glyph-name="summation" horiz-adv-x="511" 
d="M456 334l-287 -285h223v-49h-307v307h49v-221l285 285z" />
    <glyph glyph-name="dotaccent" horiz-adv-x="296" 
d="M110 551v91h76v-91h-76z" />
    <glyph glyph-name="breve" horiz-adv-x="453" 
d="M343 644v-62q0 -19 -13.5 -32.5t-32.5 -13.5h-142q-20 0 -32.5 13.5t-12.5 32.5v62h47v-53q0 -12 13 -12h113q5 0 9 3.5t4 8.5v53h47z" />
    </font>
</defs>
</svg>
