<?xml version="1.0" standalone="no"?>
<!DOCTYPE svg PUBLIC "-//W3C//DTD SVG 1.1//EN" "http://www.w3.org/Graphics/SVG/1.1/DTD/svg11.dtd" >
<svg xmlns="http://www.w3.org/2000/svg" xmlns:xlink="http://www.w3.org/1999/xlink" version="1.1">
<metadata>
Created by FontForge 20200314 at Wed Apr 26 19:30:16 2006
 By User Azfonts
Copyright 2004 Process Type Foundry. All rights reserved.
</metadata>
<defs>
<font id="StratumNo1-Bold" horiz-adv-x="520" >
  <font-face 
    font-family="StratumNo1"
    font-weight="700"
    font-stretch="normal"
    units-per-em="1000"
    panose-1="2 0 8 6 3 0 0 2 0 3"
    ascent="800"
    descent="-200"
    x-height="474"
    cap-height="666"
    bbox="-30 -213 1321 892"
    underline-thickness="50"
    underline-position="-100"
    unicode-range="U+0005-2122"
  />
<missing-glyph horiz-adv-x="626" 
d="M80 666h466v-666h-466v666zM157 616l340 -527v527h-340zM129 49h339l-339 527v-527z" />
    <glyph glyph-name=".notdef" horiz-adv-x="626" 
d="M80 666h466v-666h-466v666zM157 616l340 -527v527h-340zM129 49h339l-339 527v-527z" />
    <glyph glyph-name=".null" horiz-adv-x="0" 
 />
    <glyph glyph-name="nonmarkingreturn" horiz-adv-x="215" 
 />
    <glyph glyph-name="space" unicode=" " horiz-adv-x="215" 
 />
    <glyph glyph-name="ring" horiz-adv-x="356" 
d="M132 532q-14 0 -23 9.5t-9 23.5v88q0 14 9 23.5t23 9.5h91q14 0 23.5 -9.5t9.5 -23.5v-88q0 -14 -9.5 -23.5t-23.5 -9.5h-91v0zM213 638q0 8 -8 8h-54q-8 0 -8 -8v-58q0 -8 8 -8h54q8 0 8 8v58z" />
    <glyph glyph-name="hungarumlaut" unicode="&#xa;" horiz-adv-x="554" 
d="M152 531l-52 61l126 110l53 -62zM327 531l-52 61l126 110l53 -62z" />
    <glyph glyph-name="ogonek" horiz-adv-x="357" 
d="M114 -71l23 71h105l-39 -63l50 -57l-58 -46z" />
    <glyph glyph-name="caron" horiz-adv-x="494" 
d="M100 637l46 55l101 -83l101 83l46 -55l-147 -121z" />
    <glyph glyph-name="dotlessi" unicode="&#xd;" horiz-adv-x="265" 
d="M75 474h115v-474h-115v474z" />
    <glyph glyph-name="fraction" horiz-adv-x="424" 
d="M80 -117h-75l339 793h75z" />
    <glyph glyph-name="fi" horiz-adv-x="616" 
d="M331 573h-93q-11 0 -19 -7.5t-8 -18.5v-73h115l-13 -96h-102v-378h-115v378h-66v96h66v94q0 22 8 41t22 33t33 22.5t41 8.5h131v-100zM426 474h115v-474h-115v474zM426 673h115v-128h-115v128z" />
    <glyph glyph-name="fl" horiz-adv-x="611" 
d="M331 566h-93q-11 0 -19 -7.5t-8 -18.5v-66h115l-13 -96h-102v-378h-115v378h-66v96h66v87q0 22 8 41t22 33t33 22.5t41 8.5h131v-100zM426 666l115 20v-686h-115v666z" />
    <glyph glyph-name="Lslash" horiz-adv-x="537" 
d="M15 293l95 48v325h120v-263l90 46l36 -70l-126 -65v-204h272v-110h-392v253l-59 -30z" />
    <glyph glyph-name="lslash" horiz-adv-x="381" 
d="M30 293l100 51v322l115 20v-283l90 46l36 -70l-126 -65v-314h-115v255l-64 -32z" />
    <glyph glyph-name="Zcaron" horiz-adv-x="570" 
d="M510 0h-450v110l303 446h-295v110h438v-110l-305 -446h309v-110zM132 827l46 55l101 -83l101 83l46 -55l-147 -121z" />
    <glyph glyph-name="zcaron" horiz-adv-x="470" 
d="M63 474h347v-105l-207 -264h212v-105h-355v105l206 264h-203v105zM93 637l46 55l101 -83l101 83l46 -55l-147 -121z" />
    <glyph glyph-name="exclam" unicode="!" horiz-adv-x="280" 
d="M177 208h-74l-20 208v250h115v-250zM75 0v137h130v-137h-130z" />
    <glyph glyph-name="quotedbl" unicode="&#x22;" horiz-adv-x="376" 
d="M235 386v280h91v-280h-91zM50 386v280h91v-280h-91z" />
    <glyph glyph-name="numbersign" unicode="#" horiz-adv-x="689" 
d="M636 399h-125l-20 -129h124l-12 -77h-125l-33 -193h-83l33 193h-157l-33 -193h-83l33 193h-125l12 77h125l21 129h-125l12 76h126l32 191h83l-32 -191h157l32 191h83l-32 -191h125zM271 399l-21 -129h158l20 129h-157z" />
    <glyph glyph-name="dollar" unicode="$" horiz-adv-x="535" 
d="M225 0h-45q-23 0 -43 8.5t-35 23.5t-23.5 35t-8.5 43v64l120 20v-58q0 -11 8 -18.5t19 -7.5h101q11 0 19 7.5t8 18.5v96q0 11 -7.5 17t-19.5 11q-23 8 -39.5 14t-32 11.5t-31 11.5t-36.5 14q-22 9 -41.5 18t-34 21.5t-23 29t-8.5 39.5v137q0 23 8.5 43t23 35t34.5 23.5
t43 8.5h44v91h84v-91h44q23 0 43 -8.5t35 -23.5t23.5 -35t8.5 -43v-62l-120 -20v56q0 11 -8 18.5t-19 7.5h-97q-11 0 -19 -7.5t-8 -18.5v-83q0 -11 8 -17.5t19 -11.5q21 -8 37 -14t31 -11t32.5 -11t41.5 -15q21 -8 40 -17t33 -21.5t22.5 -29.5t8.5 -40v-149q0 -23 -8.5 -43
t-23 -35t-34.5 -23.5t-43 -8.5h-47v-91h-84v91z" />
    <glyph glyph-name="percent" unicode="%" horiz-adv-x="980" 
d="M682 0q-20 0 -38.5 7.5t-32 21t-21.5 31.5t-8 38v182q0 20 8 37.5t21.5 31t32 21t38.5 7.5h131q20 0 38.5 -7.5t32.5 -21t22.5 -31t8.5 -37.5v-182q0 -20 -8.5 -38t-22.5 -31.5t-32.5 -21t-38.5 -7.5h-131v0zM817 250q0 16 -10 25.5t-26 9.5h-65q-17 0 -26.5 -9.5
t-9.5 -25.5v-122q0 -17 9.5 -26.5t26.5 -9.5h65q16 0 26 9.5t10 26.5v122zM165 289q-20 0 -38.5 7.5t-32 21t-21.5 31.5t-8 38v182q0 20 8 37.5t21.5 31t32 21t38.5 7.5h131q20 0 38.5 -7.5t32.5 -21t22.5 -31t8.5 -37.5v-182q0 -20 -8.5 -38t-22.5 -31.5t-32.5 -21
t-38.5 -7.5h-131v0zM300 539q0 16 -10 25.5t-26 9.5h-65q-17 0 -26.5 -9.5t-9.5 -25.5v-122q0 -17 9.5 -26.5t26.5 -9.5h65q16 0 26 9.5t10 26.5v122zM604 666h105l-333 -666h-105z" />
    <glyph glyph-name="ampersand" unicode="&#x26;" horiz-adv-x="595" 
d="M185 422q0 -11 6.5 -18.5t17.5 -7.5h401v-105h-126v-186q0 -22 -8 -41t-22 -33.5t-33 -22.5t-41 -8h-209q-22 0 -41.5 8t-33.5 22.5t-22.5 33.5t-8.5 41v170q0 29 13.5 46t33.5 26q-17 10 -29.5 26.5t-12.5 39.5v148q0 22 8.5 41t22.5 33t33.5 22.5t41.5 8.5h137
q22 0 41 -8.5t33 -22.5t22 -33t8 -41v-49l-113 -20v43q0 11 -8 18.5t-19 7.5h-65q-11 0 -19 -7.5t-8 -18.5v-113zM180 131q0 -11 8 -18.5t19 -7.5h137q11 0 19 7.5t8 18.5v160h-158q-11 0 -22 -7.5t-11 -18.5v-134z" />
    <glyph glyph-name="quotesingle" unicode="'" horiz-adv-x="191" 
d="M50 386v280h91v-280h-91z" />
    <glyph glyph-name="parenleft" unicode="(" horiz-adv-x="264" 
d="M70 626q0 45 30 77l85 80l84 -88l-77 -77q-7 -7 -7 -18v-630q0 -11 7 -18l77 -77l-84 -88l-85 80q-30 32 -30 77v682v0z" />
    <glyph glyph-name="parenright" unicode=")" horiz-adv-x="264" 
d="M194 -56q0 -45 -30 -77l-85 -80l-84 88l77 77q7 7 7 18v630q0 11 -7 18l-77 77l84 88l85 -80q30 -32 30 -77v-682z" />
    <glyph glyph-name="asterisk" unicode="*" horiz-adv-x="439" 
d="M274 524h135v-61h-133l72 -109l-51 -33l-78 118l-78 -118l-51 33l71 109h-131v61h133l-74 113l51 34l79 -121l79 121l51 -34z" />
    <glyph glyph-name="plus" unicode="+" horiz-adv-x="504" 
d="M199 309v165h106v-165h159v-95h-159v-165h-106v165h-159v95h159z" />
    <glyph glyph-name="comma" unicode="," horiz-adv-x="246" 
d="M112 0h-56v137h130v-137l-75 -124l-53 34z" />
    <glyph glyph-name="hyphen" unicode="-" horiz-adv-x="328" 
d="M40 238v100h248v-100h-248z" />
    <glyph glyph-name="period" unicode="." horiz-adv-x="270" 
d="M70 0v137h130v-137h-130z" />
    <glyph glyph-name="slash" unicode="/" horiz-adv-x="449" 
d="M125 -117h-95l289 793h95z" />
    <glyph glyph-name="zero" unicode="0" horiz-adv-x="543" 
d="M174 0q-22 0 -41 8t-33 22.5t-22 33.5t-8 41v456q0 22 8 41t22 33t33 22.5t41 8.5h193q22 0 41.5 -8.5t33.5 -22.5t22.5 -33t8.5 -41v-456q0 -22 -8.5 -41t-22.5 -33.5t-33.5 -22.5t-41.5 -8h-193v0zM358 535q0 11 -8 18.5t-19 7.5h-119q-11 0 -19 -7.5t-8 -18.5v-404
q0 -11 8 -18.5t19 -7.5h119q11 0 19 7.5t8 18.5v404z" />
    <glyph glyph-name="one" unicode="1" horiz-adv-x="370" 
d="M295 666v-666h-115v551l-170 -55v115l170 55h115z" />
    <glyph glyph-name="two" unicode="2" horiz-adv-x="514" 
d="M61 228q0 22 6.5 36.5t17.5 25t27 18.5t36 17q24 10 42.5 18t36 15.5t36 15t42.5 18.5q11 5 17 11.5t6 17.5v114q0 11 -8 18.5t-19 7.5h-99q-11 0 -19 -7.5t-8 -18.5v-59l-115 20v65q0 22 8 41t22 33t33 22.5t41 8.5h173q22 0 41.5 -8.5t33.5 -22.5t22.5 -33t8.5 -41
v-165q0 -34 -16 -52t-51 -35t-78 -36.5t-99 -45.5q-11 -5 -17 -10.5t-6 -16.5v-95h273v-105h-388v228z" />
    <glyph glyph-name="three" unicode="3" horiz-adv-x="503" 
d="M318 535q0 11 -8 18.5t-19 7.5h-99q-11 0 -19 -7.5t-8 -18.5v-53l-113 20v59q0 22 8 41t22 33t33 22.5t41 8.5h171q22 0 41.5 -8.5t33.5 -22.5t22.5 -33t8.5 -41v-153q0 -23 -12.5 -39.5t-29.5 -26.5q20 -9 33.5 -26t13.5 -46v-165q0 -22 -8.5 -41t-22.5 -33.5
t-33.5 -22.5t-41.5 -8h-178q-22 0 -41 8t-33 22.5t-22 33.5t-8 41v59l113 20v-53q0 -11 8 -18.5t19 -7.5h106q11 0 19 7.5t8 18.5v129q0 11 -8 18.5t-19 7.5h-143v105h141q11 1 17.5 8t6.5 18v118z" />
    <glyph glyph-name="four" unicode="4" horiz-adv-x="513" 
d="M15 262l271 404h115v-404h107l-8 -100h-99v-162h-115v162h-271v100zM286 262v229l-146 -229h146z" />
    <glyph glyph-name="five" unicode="5" horiz-adv-x="516" 
d="M439 666v-105h-255v-168q44 8 86.5 12t79.5 4q51 0 78.5 -30.5t27.5 -74.5v-199q0 -22 -8.5 -41t-22.5 -33.5t-33.5 -22.5t-41.5 -8h-181q-22 0 -41 8t-33 22.5t-22 33.5t-8 41v33l115 20v-27q0 -11 8 -18.5t19 -7.5h107q11 0 19 7.5t8 18.5v143q0 26 -27 26
q-9 0 -23 -0.5t-28.5 -1.5t-28 -2.5t-23.5 -3.5q-15 -3 -21 -12.5t-6 -20.5v-27l-115 12v422h370z" />
    <glyph glyph-name="six" unicode="6" horiz-adv-x="529" 
d="M70 561q0 22 8.5 41t22.5 33t33.5 22.5t41.5 8.5h178q22 0 41 -8.5t33 -22.5t22 -33t8 -41v-55l-115 -20v49q0 11 -8 18.5t-19 7.5h-104q-11 0 -19 -7.5t-8 -18.5v-182q41 13 88.5 21t84.5 8q51 0 78.5 -30.5t27.5 -74.5v-172q0 -22 -8.5 -41t-22.5 -33.5t-33.5 -22.5
t-41.5 -8h-184q-22 0 -41 8t-33 22.5t-22 33.5t-8 41v456v0zM185 131q0 -11 8 -18.5t19 -7.5h110q11 0 19 7.5t8 18.5v116q0 11 -7 18.5t-20 7.5q-9 0 -24 -2t-31 -5t-31 -6.5t-24 -6.5q-27 -9 -27 -33v-89z" />
    <glyph glyph-name="seven" unicode="7" horiz-adv-x="441" 
d="M15 666h396v-97l-211 -569h-114l210 561h-281v105z" />
    <glyph glyph-name="eight" unicode="8" horiz-adv-x="543" 
d="M174 0q-22 0 -41 8t-33 22.5t-22 33.5t-8 41v164q0 29 13 46t33 27q-17 9 -29 25.5t-12 39.5v154q0 22 8 41t22 33t33 22.5t41 8.5h183q22 0 41.5 -8.5t33.5 -22.5t22.5 -33t8.5 -41v-154q0 -23 -12.5 -39.5t-29.5 -26.5q20 -9 33.5 -26t13.5 -46v-164q0 -22 -8.5 -41
t-22.5 -33.5t-33.5 -22.5t-41.5 -8h-193v0zM358 259q0 11 -8 18.5t-19 7.5h-119q-11 0 -19 -7.5t-8 -18.5v-128q0 -11 8 -18.5t19 -7.5h119q11 0 19 7.5t8 18.5v128zM353 535q0 11 -8 18.5t-19 7.5h-109q-11 0 -19 -7.5t-8 -18.5v-119q0 -11 8 -18.5t19 -7.5h112
q11 1 17.5 8t6.5 18v119z" />
    <glyph glyph-name="nine" unicode="9" horiz-adv-x="529" 
d="M459 105q0 -22 -8.5 -41t-22.5 -33.5t-33.5 -22.5t-41.5 -8h-183q-22 0 -41 8t-33 22.5t-22 33.5t-8 41v55l115 20v-49q0 -11 8 -18.5t19 -7.5h109q11 0 19 7.5t8 18.5v181q-41 -13 -88.5 -21t-84.5 -8q-51 0 -78.5 30.5t-27.5 74.5v173q0 22 8.5 41t22.5 33t33.5 22.5
t41.5 8.5h184q22 0 41 -8.5t33 -22.5t22 -33t8 -41v-456v0zM344 535q0 11 -8 18.5t-19 7.5h-110q-11 0 -19 -7.5t-8 -18.5v-117q0 -11 7 -18.5t20 -7.5q9 0 24 2t31 5t31 6.5t24 6.5q27 9 27 33v90z" />
    <glyph glyph-name="colon" unicode=":" horiz-adv-x="270" 
d="M70 0v137h130v-137h-130zM70 311v137h130v-137h-130z" />
    <glyph glyph-name="semicolon" unicode=";" horiz-adv-x="266" 
d="M66 311v137h130v-137h-130zM122 0h-56v137h130v-137l-75 -124l-53 34z" />
    <glyph glyph-name="less" unicode="&#x3c;" horiz-adv-x="558" 
d="M469 494l39 -79l-357 -173l357 -173l-39 -79l-444 220v64z" />
    <glyph glyph-name="equal" unicode="=" horiz-adv-x="413" 
d="M40 306v93h333v-93h-333zM40 119v93h333v-93h-333z" />
    <glyph glyph-name="greater" unicode="&#x3e;" horiz-adv-x="558" 
d="M533 274v-64l-444 -220l-39 79l357 173l-357 173l39 79z" />
    <glyph glyph-name="question" unicode="?" horiz-adv-x="486" 
d="M159 210v67q0 18 2.5 30.5t9 23t18.5 19.5t30 18q17 9 36.5 18.5t37.5 19.5q12 7 17.5 13.5t5.5 18.5v97q0 11 -8 18.5t-19 7.5h-97q-11 0 -19 -7.5t-8 -18.5v-58l-115 20v64q0 22 8 41t22 33t33 22.5t41 8.5h171q22 0 41.5 -8.5t33.5 -22.5t22.5 -33t8.5 -41v-155
q0 -20 -5 -33t-13.5 -22.5t-20 -16.5t-25.5 -15q-17 -10 -38.5 -21.5t-32.5 -18.5q-10 -6 -16.5 -13t-6.5 -18v-38h-114zM154 0v137h130v-137h-130z" />
    <glyph glyph-name="at" unicode="@" horiz-adv-x="581" 
d="M427 542q0 22 -14 35.5t-35 13.5h-173q-21 0 -35.5 -13.5t-14.5 -35.5v-418q0 -22 14.5 -35.5t35.5 -13.5h285v-75h-326q-20 0 -37 7.5t-29.5 20.5t-20 30.5t-7.5 37.5v474q0 20 7.5 37.5t20 30.5t29.5 20.5t37 7.5h253q40 0 67 -28t27 -68v-345h-84v22
q-28 -9 -59.5 -17.5t-57.5 -8.5q-38 0 -57.5 22t-19.5 54v85q0 31 19.5 53.5t57.5 22.5q13 0 29 -1t32 -3t30.5 -5t25.5 -6v99v0zM315 313q0 -19 20 -19q6 0 15.5 2t19.5 4.5t20 5.5t17 6q11 3 15.5 6.5t4.5 11.5v35q0 12 -20 16q-14 2 -36.5 4t-35.5 2q-20 0 -20 -18v-56z
" />
    <glyph glyph-name="A" unicode="A" horiz-adv-x="597" 
d="M579 0h-121l-48 145h-225l-46 -145h-121l225 666h111zM221 252h154l-77 254z" />
    <glyph glyph-name="B" unicode="B" horiz-adv-x="580" 
d="M75 666h329q22 0 41.5 -8.5t33.5 -22.5t22.5 -33t8.5 -41v-143q0 -23 -15 -44t-38 -29q21 -4 39.5 -23.5t18.5 -48.5v-168q0 -22 -8.5 -41t-22.5 -33.5t-33.5 -22.5t-41.5 -8h-334v666zM195 109h173q11 0 19 7.5t8 18.5v126q0 11 -8 18.5t-19 7.5h-173v-178zM366 395
q11 1 17.5 8t6.5 18v110q0 11 -8 18.5t-19 7.5h-168v-162h171z" />
    <glyph glyph-name="C" unicode="C" horiz-adv-x="579" 
d="M394 231l120 -20v-101q0 -23 -8.5 -43t-23.5 -35t-35 -23.5t-43 -8.5h-225q-23 0 -43 8.5t-34.5 23.5t-23 35t-8.5 43v446q0 23 8.5 43t23 35t34.5 23.5t43 8.5h225q23 0 43 -8.5t35 -23.5t23.5 -35t8.5 -43v-95l-120 -20v89q0 11 -8 18.5t-19 7.5h-150q-11 0 -19 -7.5
t-8 -18.5v-394q0 -11 8 -18.5t19 -7.5h150q11 0 19 7.5t8 18.5v95z" />
    <glyph glyph-name="D" unicode="D" horiz-adv-x="580" 
d="M75 666h325q23 0 43 -8.5t35 -23.5t23.5 -35t8.5 -43v-446q0 -23 -8.5 -43t-23.5 -35t-35 -23.5t-43 -8.5h-325v666zM390 530q0 11 -8 18.5t-19 7.5h-168v-446h168q11 0 19 7.5t8 18.5v394z" />
    <glyph glyph-name="E" unicode="E" horiz-adv-x="534" 
d="M75 666h404v-110h-284v-165h259v-110h-259v-171h284v-110h-404v666z" />
    <glyph glyph-name="F" unicode="F" horiz-adv-x="502" 
d="M75 0v666h409v-110h-289v-165h264v-110h-264v-281h-120z" />
    <glyph glyph-name="G" unicode="G" horiz-adv-x="574" 
d="M278 354h236v-244q0 -23 -8.5 -43t-23.5 -35t-35 -23.5t-43 -8.5h-225q-23 0 -43 8.5t-34.5 23.5t-23 35t-8.5 43v446q0 23 8.5 43t23 35t34.5 23.5t43 8.5h225q23 0 43 -8.5t35 -23.5t23.5 -35t8.5 -43v-74l-120 -20v68q0 11 -8 18.5t-19 7.5h-150q-11 0 -19 -7.5
t-8 -18.5v-394q0 -11 8 -18.5t19 -7.5h150q11 0 19 7.5t8 18.5v112h-116v106z" />
    <glyph glyph-name="H" unicode="H" horiz-adv-x="616" 
d="M421 285h-226v-285h-120v666h120v-271h226v271h120v-666h-120v285z" />
    <glyph glyph-name="I" unicode="I" horiz-adv-x="270" 
d="M195 0h-120v666h120v-666z" />
    <glyph glyph-name="J" unicode="J" horiz-adv-x="506" 
d="M436 666v-556q0 -23 -8.5 -43t-23 -35t-34.5 -23.5t-43 -8.5h-187q-23 0 -43 8.5t-35 23.5t-23.5 35t-8.5 43v86l120 20v-80q0 -11 8 -18.5t19 -7.5h112q11 0 19 7.5t8 18.5v530h120z" />
    <glyph glyph-name="K" unicode="K" horiz-adv-x="561" 
d="M75 666h120v-312l208 312h139l-224 -331l233 -335h-139l-217 315v-315h-120v666z" />
    <glyph glyph-name="L" unicode="L" horiz-adv-x="502" 
d="M75 666h120v-556h272v-110h-392v666z" />
    <glyph glyph-name="M" unicode="M" horiz-adv-x="738" 
d="M191 398v-398h-116v666h116l178 -408l178 408h116v-666h-116v398l-127 -284h-102z" />
    <glyph glyph-name="N" unicode="N" horiz-adv-x="634" 
d="M559 0h-116l-252 431v-431h-116v666h116l252 -433v433h116v-666z" />
    <glyph glyph-name="O" unicode="O" horiz-adv-x="594" 
d="M179 0q-23 0 -43 8.5t-34.5 23.5t-23 35t-8.5 43v446q0 23 8.5 43t23 35t34.5 23.5t43 8.5h235q23 0 43 -8.5t35 -23.5t23.5 -35t8.5 -43v-446q0 -23 -8.5 -43t-23.5 -35t-35 -23.5t-43 -8.5h-235v0zM404 530q0 11 -8 18.5t-19 7.5h-160q-11 0 -19 -7.5t-8 -18.5v-394
q0 -11 8 -18.5t19 -7.5h160q11 0 19 7.5t8 18.5v394z" />
    <glyph glyph-name="P" unicode="P" horiz-adv-x="554" 
d="M75 666h339q23 0 43 -8.5t35 -23.5t23.5 -35t8.5 -43v-189q0 -23 -8.5 -43t-23.5 -35t-35 -23.5t-43 -8.5h-219v-257h-120v666zM404 530q0 11 -8 18.5t-19 7.5h-182v-189h182q11 0 19 7.5t8 18.5v137z" />
    <glyph glyph-name="Q" unicode="Q" horiz-adv-x="594" 
d="M179 0q-23 0 -43 8.5t-34.5 23.5t-23 35t-8.5 43v446q0 23 8.5 43t23 35t34.5 23.5t43 8.5h235q23 0 43 -8.5t35 -23.5t23.5 -35t8.5 -43v-446q0 -23 -8.5 -43t-23.5 -35t-35 -23.5t-43 -8.5h-59v-161h-116v161h-60v0zM404 530q0 11 -8 18.5t-19 7.5h-160q-11 0 -19 -7.5
t-8 -18.5v-394q0 -11 8 -18.5t19 -7.5h160q11 0 19 7.5t8 18.5v394z" />
    <glyph glyph-name="R" unicode="R" horiz-adv-x="614" 
d="M321 257h-126v-257h-120v666h349q23 0 43 -8.5t35 -23.5t23.5 -35t8.5 -43v-189q0 -39 -23.5 -68.5t-59.5 -38.5l128 -260h-132zM414 530q0 11 -8 18.5t-19 7.5h-192v-189h192q11 0 19 7.5t8 18.5v137z" />
    <glyph glyph-name="S" unicode="S" horiz-adv-x="565" 
d="M358 260q-29 8 -50 14t-40.5 11.5t-40 11.5t-48.5 14q-22 7 -41.5 16t-34 22t-23 30t-8.5 40v137q0 23 8.5 43t23 35t34.5 23.5t43 8.5h212q23 0 43 -8.5t35 -23.5t23.5 -35t8.5 -43v-78l-120 -20v72q0 11 -8 18.5t-19 7.5h-137q-11 0 -19 -7.5t-8 -18.5v-83
q0 -11 8 -18.5t19 -10.5q44 -13 85.5 -24t96.5 -27q43 -12 73.5 -37t30.5 -71v-149q0 -23 -8.5 -43t-23 -35t-34.5 -23.5t-43 -8.5h-216q-23 0 -43 8.5t-35 23.5t-23.5 35t-8.5 43v76l120 20v-70q0 -11 8 -18.5t19 -7.5h141q11 0 19 7.5t8 18.5v96q0 11 -7.5 18t-19.5 10z
" />
    <glyph glyph-name="T" unicode="T" horiz-adv-x="522" 
d="M20 666h482v-110h-181v-556h-120v556h-181v110z" />
    <glyph glyph-name="U" unicode="U" horiz-adv-x="584" 
d="M394 666h120v-556q0 -23 -8.5 -43t-23.5 -35t-35 -23.5t-43 -8.5h-225q-23 0 -43 8.5t-34.5 23.5t-23 35t-8.5 43v556h120v-530q0 -11 8 -18.5t19 -7.5h150q11 0 19 7.5t8 18.5v530z" />
    <glyph glyph-name="V" unicode="V" horiz-adv-x="565" 
d="M341 0h-117l-204 666h119l143 -484l144 484h119z" />
    <glyph glyph-name="W" unicode="W" horiz-adv-x="785" 
d="M340 666h105l122 -454l70 454h118l-117 -666h-120l-126 479l-125 -479h-120l-117 666h118l70 -454z" />
    <glyph glyph-name="X" unicode="X" horiz-adv-x="569" 
d="M284 447l124 219h126l-184 -328l189 -338h-126l-129 229l-128 -229h-126l188 338l-183 328h126z" />
    <glyph glyph-name="Y" unicode="Y" horiz-adv-x="516" 
d="M258 401l131 265h127l-198 -398v-268h-120v268l-198 398h127z" />
    <glyph glyph-name="Z" unicode="Z" horiz-adv-x="570" 
d="M510 0h-450v110l303 446h-295v110h438v-110l-305 -446h309v-110z" />
    <glyph glyph-name="bracketleft" unicode="[" horiz-adv-x="280" 
d="M190 -34h95v-92h-210v922h210v-92h-95v-738z" />
    <glyph glyph-name="backslash" unicode="\" horiz-adv-x="449" 
d="M419 -116h-95l-289 793h95z" />
    <glyph glyph-name="bracketright" unicode="]" horiz-adv-x="280" 
d="M90 704h-95v92h210v-922h-210v92h95v738z" />
    <glyph glyph-name="asciicircum" unicode="^" horiz-adv-x="460" 
d="M353 327l-123 241l-123 -241l-77 38l162 301h76l162 -301z" />
    <glyph glyph-name="underscore" unicode="_" horiz-adv-x="404" 
d="M-2 -49v43h408v-43h-408z" />
    <glyph glyph-name="grave" unicode="`" horiz-adv-x="369" 
d="M60 640l53 62l126 -110l-52 -61z" />
    <glyph glyph-name="a" unicode="a" horiz-adv-x="509" 
d="M60 175q0 44 27.5 74.5t78.5 30.5q18 0 40.5 -1.5t44.5 -4.5t42.5 -7t35.5 -8v88q0 11 -8 18.5t-19 7.5h-89q-11 0 -19 -7.5t-8 -18.5v-16l-111 12v28q0 44 29.5 73.5t74.5 29.5h161q22 0 41 -8.5t33 -22.5t22 -33t8 -41v-369h-115v23q-37 -13 -81.5 -23t-81.5 -10
q-51 0 -78.5 30.5t-27.5 74.5v80zM172 115q0 -11 7 -18.5t20 -7.5q9 0 22.5 2t27.5 5t28 7t25 7q14 5 20.5 10t6.5 14v20q0 16 -27 22q-10 2 -24 3.5t-28.5 3t-28 2t-22.5 0.5q-13 0 -20 -7.5t-7 -18.5v-44z" />
    <glyph glyph-name="b" unicode="b" 
d="M460 95q0 -44 -27.5 -74.5t-78.5 -30.5q-18 0 -40.5 4t-45 10.5t-44.5 14t-39 13.5v-32h-115v666l115 20v-244q17 6 39 13.5t44.5 14t45 10.5t40.5 4q51 0 78.5 -30.5t27.5 -74.5v-284zM345 349q0 11 -7 18.5t-20 7.5q-9 0 -23.5 -3.5t-30 -8t-29.5 -10t-23 -8.5
q-27 -10 -27 -33v-150q0 -23 27 -33q9 -3 23 -8.5t29.5 -10t30 -8t23.5 -3.5q13 0 20 7.5t7 18.5v224v0z" />
    <glyph glyph-name="c" unicode="c" horiz-adv-x="484" 
d="M328 174l111 -20v-49q0 -44 -29.5 -74.5t-74.5 -30.5h-171q-22 0 -41 8t-33 22.5t-22 33.5t-8 41v264q0 22 8 41t22 33t33 22.5t41 8.5h171q45 0 74.5 -30.5t29.5 -74.5v-43l-111 -20v37q0 11 -8 18.5t-19 7.5h-99q-11 0 -19 -7.5t-8 -18.5v-212q0 -11 8 -18.5t19 -7.5
h99q11 0 19 7.5t8 18.5v43z" />
    <glyph glyph-name="d" unicode="d" 
d="M60 379q0 44 27.5 74.5t78.5 30.5q18 0 40.5 -4t45 -10.5t44.5 -14t39 -13.5v224l115 20v-686h-115v32q-17 -6 -39 -13.5t-44.5 -14t-45 -10.5t-40.5 -4q-51 0 -78.5 30.5t-27.5 74.5v284zM175 125q0 -11 7 -18.5t20 -7.5q9 0 23.5 3.5t30 8t29.5 10t23 8.5q27 10 27 33
v150q0 23 -27 33q-9 3 -23 8.5t-29.5 10t-30 8t-23.5 3.5q-13 0 -20 -7.5t-7 -18.5v-224z" />
    <glyph glyph-name="e" unicode="e" horiz-adv-x="496" 
d="M175 127q0 -11 8 -18.5t19 -7.5h100q11 0 19 7.5t8 18.5v22l111 -20v-26q0 -44 -29.5 -73.5t-74.5 -29.5h-172q-22 0 -41 8t-33 22.5t-22 33.5t-8 41v264q0 22 8 41t22 33t33 22.5t41 8.5h173q22 0 41 -8.5t33 -22.5t22 -33t8 -41v-164h-266v-78v0zM175 300h155v48
q0 11 -8 18.5t-19 7.5h-101q-11 0 -19 -7.5t-8 -18.5v-48z" />
    <glyph glyph-name="f" unicode="f" horiz-adv-x="351" 
d="M331 566h-93q-11 0 -19 -7.5t-8 -18.5v-66h115l-13 -96h-102v-378h-115v378h-66v96h66v87q0 22 8 41t22 33t33 22.5t41 8.5h131v-100z" />
    <glyph glyph-name="g" unicode="g" horiz-adv-x="515" 
d="M60 379q0 44 27.5 74.5t78.5 30.5q18 0 40.5 -4t45 -10.5t44.5 -14t39 -13.5v32h115v-559q0 -22 -8 -41t-22 -33.5t-33 -22.5t-41 -8h-240v98h202q11 0 19 7.5t8 18.5v121q-17 -6 -39 -13.5t-44.5 -14t-45 -10.5t-40.5 -4q-51 0 -78.5 30.5t-27.5 74.5v261zM175 148
q0 -11 7 -18.5t20 -7.5q9 0 23.5 3.5t30 8t29.5 10t23 8.5q27 10 27 33v127q0 23 -27 33q-9 3 -23 8.5t-29.5 10t-30 8t-23.5 3.5q-13 0 -20 -7.5t-7 -18.5v-201z" />
    <glyph glyph-name="h" unicode="h" horiz-adv-x="525" 
d="M185 0h-115v666l115 20v-248q15 7 36.5 15t44.5 15t46.5 11.5t41.5 4.5q51 0 78.5 -30.5t27.5 -74.5v-379h-115v345q0 11 -7 18.5t-20 7.5q-9 0 -23.5 -3.5t-30 -8t-29.5 -10t-23 -8.5q-14 -5 -20.5 -16t-6.5 -24v-301z" />
    <glyph glyph-name="i" unicode="i" horiz-adv-x="255" 
d="M70 474h115v-474h-115v474zM70 673h115v-128h-115v128z" />
    <glyph glyph-name="j" unicode="j" horiz-adv-x="246" 
d="M181 474v-559q0 -22 -8 -41t-22 -33.5t-33 -22.5t-41 -8h-107v100h69q11 0 19 7.5t8 18.5v538h115zM66 673h115v-128h-115v128z" />
    <glyph glyph-name="k" unicode="k" horiz-adv-x="481" 
d="M304 238l157 -238h-130l-146 225v-225h-115v666l115 20v-434l140 222h125z" />
    <glyph glyph-name="l" unicode="l" horiz-adv-x="255" 
d="M70 666l115 20v-686h-115v666z" />
    <glyph glyph-name="m" unicode="m" horiz-adv-x="800" 
d="M185 0h-115v474h110v-36q16 6 38.5 14t46.5 15t47.5 12t41.5 5q31 0 53 -11.5t36 -31.5q18 7 42.5 14.5t50.5 14t50.5 10.5t42.5 4q51 0 78.5 -30.5t27.5 -74.5v-379h-115v345q0 11 -7 18.5t-20 7.5q-9 0 -23.5 -3.5t-30 -8.5t-29.5 -10t-23 -8q-27 -11 -27 -35v-306
h-115v345q0 11 -7 18.5t-20 7.5q-9 0 -23.5 -3.5t-30 -8.5t-29.5 -10t-23 -8q-14 -5 -20.5 -16t-6.5 -24v-301z" />
    <glyph glyph-name="n" unicode="n" horiz-adv-x="525" 
d="M185 0h-115v474h110v-36q16 7 38.5 15t46.5 15t47.5 11.5t41.5 4.5q51 0 78.5 -30.5t27.5 -74.5v-379h-115v345q0 11 -7 18.5t-20 7.5q-9 0 -23.5 -3.5t-30 -8.5t-29.5 -10t-23 -8q-14 -5 -20.5 -16t-6.5 -24v-301z" />
    <glyph glyph-name="o" unicode="o" 
d="M164 0q-22 0 -41 8t-33 22.5t-22 33.5t-8 41v264q0 22 8 41t22 33t33 22.5t41 8.5h190q22 0 41.5 -8.5t33.5 -22.5t22.5 -33t8.5 -41v-264q0 -22 -8.5 -41t-22.5 -33.5t-33.5 -22.5t-41.5 -8h-190v0zM345 343q0 11 -8 18.5t-19 7.5h-116q-11 0 -19 -7.5t-8 -18.5v-212
q0 -11 8 -18.5t19 -7.5h116q11 0 19 7.5t8 18.5v212z" />
    <glyph glyph-name="p" unicode="p" 
d="M460 95q0 -44 -27.5 -74.5t-78.5 -30.5q-18 0 -40.5 4t-45 10.5t-44.5 14t-39 13.5v-222l-115 -20v684h115v-32q17 6 39 13.5t44.5 14t45 10.5t40.5 4q51 0 78.5 -30.5t27.5 -74.5v-284zM345 349q0 11 -7 18.5t-20 7.5q-9 0 -23.5 -3.5t-30 -8t-29.5 -10t-23 -8.5
q-27 -10 -27 -33v-150q0 -23 27 -33q9 -3 23 -8.5t29.5 -10t30 -8t23.5 -3.5q13 0 20 7.5t7 18.5v224z" />
    <glyph glyph-name="q" unicode="q" 
d="M60 379q0 44 27.5 74.5t78.5 30.5q18 0 40.5 -4t45 -10.5t44.5 -14t39 -13.5v32h115v-664l-115 -20v242q-17 -6 -39 -13.5t-44.5 -14t-45 -10.5t-40.5 -4q-51 0 -78.5 30.5t-27.5 74.5v284zM175 125q0 -11 7 -18.5t20 -7.5q9 0 23.5 3.5t30 8t29.5 10t23 8.5q27 10 27 33
v150q0 23 -27 33q-9 3 -23 8.5t-29.5 10t-30 8t-23.5 3.5q-13 0 -20 -7.5t-7 -18.5v-224v0z" />
    <glyph glyph-name="r" unicode="r" horiz-adv-x="344" 
d="M329 371q-30 -12 -60.5 -26t-56.5 -28q-27 -14 -27 -40v-277h-115v474h115v-52l66 32t71 30z" />
    <glyph glyph-name="s" unicode="s" horiz-adv-x="477" 
d="M319 140q0 7 -2 12t-6 9.5t-13 7.5q-40 11 -84.5 24.5t-82.5 26.5q-32 11 -53.5 36t-21.5 60v53q0 22 8 41t22 33t33 22.5t41 8.5h159q22 0 41.5 -8.5t33.5 -22.5t22.5 -33t8.5 -41v-26l-110 -20v26q0 11 -8 18.5t-19 7.5h-90q-11 0 -20 -7.5t-9 -18.5v-13q0 -11 6 -18
t15 -10q14 -5 35 -11t44.5 -13t46.5 -14t41 -13q38 -13 56.5 -37.5t18.5 -59.5v-55q0 -22 -8.5 -41t-22.5 -33.5t-33.5 -22.5t-41.5 -8h-167q-22 0 -41 8t-33 22.5t-22 33.5t-8 41v27l110 20v-27q0 -11 8 -18.5t19 -7.5h100q11 0 19 7.5t8 18.5v15z" />
    <glyph glyph-name="t" unicode="t" horiz-adv-x="356" 
d="M316 0h-125q-22 0 -41 8t-33 22.5t-22 33.5t-8 41v269h-72v100h72v110l115 20v-130h129l-20 -100h-109v-248q0 -11 8 -18.5t19 -7.5h87v-100z" />
    <glyph glyph-name="u" unicode="u" horiz-adv-x="525" 
d="M340 474h115v-474h-110v36q-17 -7 -39 -15t-46 -15t-47.5 -11.5t-41.5 -4.5q-51 0 -78.5 30.5t-27.5 74.5v379h115v-345q0 -11 7 -18.5t20 -7.5q9 0 23.5 3.5t30 8.5t29.5 10t23 8q14 5 20.5 16t6.5 24v301z" />
    <glyph glyph-name="v" unicode="v" horiz-adv-x="464" 
d="M15 474h119l98 -334l97 334h120l-156 -474h-123z" />
    <glyph glyph-name="w" unicode="w" horiz-adv-x="643" 
d="M30 474h111l44 -290l84 290h105l83 -290l45 290h111l-85 -474h-117l-90 312l-89 -312h-117z" />
    <glyph glyph-name="x" unicode="x" horiz-adv-x="484" 
d="M180 238l-153 236h132l83 -136l83 136h132l-153 -236l155 -238h-132l-85 139l-85 -139h-132z" />
    <glyph glyph-name="y" unicode="y" horiz-adv-x="445" 
d="M113 -190l54 191l-157 473h119l95 -326l96 326h120l-216 -664h-111z" />
    <glyph glyph-name="z" unicode="z" horiz-adv-x="470" 
d="M63 474h347v-105l-207 -264h212v-105h-355v105l206 264h-203v105z" />
    <glyph glyph-name="braceleft" unicode="{" horiz-adv-x="298" 
d="M50 277v75l55 41l-32 265q-4 44 20 68.5t72 33.5q14 3 35.5 6.5t42 6.5t36.5 5.5t19 3.5l14 -87l-97 -17q-11 -2 -20 -8.5t-7 -17.5q6 -51 10 -80.5t7 -55t7 -55.5t10 -81q1 -9 -2.5 -13.5t-10.5 -9.5l-57 -42l57 -42q14 -11 13 -25q-6 -50 -10 -79.5t-7.5 -55t-7 -55
t-9.5 -80.5q-1 -12 7.5 -18t19.5 -8l98 -18l-14 -86q-2 0 -18 2.5t-37 6t-43 7t-36 6.5q-48 9 -72 33.5t-20 68.5l32 264z" />
    <glyph glyph-name="bar" unicode="|" horiz-adv-x="239" 
d="M85 -200v1000h69v-1000h-69z" />
    <glyph glyph-name="braceright" unicode="}" horiz-adv-x="298" 
d="M193 236l32 -264q4 -44 -20 -68.5t-72 -33.5q-14 -3 -36 -6.5t-43 -7t-37 -6t-18 -2.5l-14 86l98 18q12 2 20 7t7 19q-6 51 -9.5 80.5t-7 55t-7.5 55t-10 79.5q-1 15 13 25l57 42l-57 42q-7 5 -10.5 9.5t-2.5 13.5q6 51 10 81t7 55.5t7 55t10 80.5q2 11 -6.5 17.5
t-20.5 8.5l-97 17l14 87q3 -1 19 -3.5t36.5 -5.5t42 -6.5t35.5 -6.5q48 -9 72 -33.5t20 -68.5l-32 -265l55 -41v-75z" />
    <glyph glyph-name="asciitilde" unicode="~" horiz-adv-x="481" 
d="M313 276q10 -5 20.5 -2t15.5 13l39 66l78 -45l-50 -86q-11 -19 -27.5 -31t-36 -17.5t-40 -3t-39.5 13.5l-106 62q-10 5 -20.5 2t-15.5 -13l-39 -67l-77 46l49 86q11 19 27.5 31t36 17.5t40 3t39.5 -13.5z" />
    <glyph glyph-name="Euro" unicode="&#x20ac;" horiz-adv-x="626" 
d="M237 215v-79q0 -11 8 -18.5t19 -7.5h150q11 0 19 7.5t8 18.5v90l120 -20v-96q0 -23 -8.5 -43t-23.5 -35t-35 -23.5t-43 -8.5h-225q-23 0 -43 8.5t-34.5 23.5t-23 35t-8.5 43v105h-87l10 77h77v82h-77l10 77h67v105q0 23 8.5 43t23 35t34.5 23.5t43 8.5h225q23 0 43 -8.5
t35 -23.5t23.5 -35t8.5 -43v-95l-120 -20v89q0 11 -8 18.5t-19 7.5h-150q-11 0 -19 -7.5t-8 -18.5v-79h126l-10 -77h-116v-82h116l-10 -77h-106z" />
    <glyph glyph-name="quotesinglbase" unicode="&#x201a;" horiz-adv-x="241" 
d="M112 0h-56v137h130v-137l-75 -124l-53 34z" />
    <glyph glyph-name="florin" unicode="&#x192;" horiz-adv-x="406" 
d="M263 310l-35 -395q-4 -44 -34 -74.5t-79 -30.5h-105l13 100h63q13 0 20 7.5t9 18.5l33 374h-66l8 96h66l14 155q4 44 34.5 74.5t78.5 30.5h123l-16 -100h-78q-11 0 -19.5 -7.5t-9.5 -18.5l-12 -134h105l-13 -96h-100z" />
    <glyph glyph-name="quotedblbase" unicode="&#x201e;" horiz-adv-x="440" 
d="M112 0h-56v137h130v-137l-75 -124l-53 34zM311 0h-56v137h130v-137l-75 -124l-53 34z" />
    <glyph glyph-name="ellipsis" unicode="&#x2026;" horiz-adv-x="810" 
d="M70 0v137h130v-137h-130zM340 0v137h130v-137h-130zM610 0v137h130v-137h-130z" />
    <glyph glyph-name="dagger" unicode="&#x2020;" horiz-adv-x="572" 
d="M341 339v-409h-110v409h110zM341 666v-167h-110v167h110zM206 386l-146 -20v106l146 -20v-66zM366 452l146 20v-106l-146 20v66z" />
    <glyph glyph-name="daggerdbl" unicode="&#x2021;" horiz-adv-x="574" 
d="M343 666v-137h-110v137h110zM208 416l-146 -20v106l146 -20v-66zM368 482l146 20v-106l-146 20v66zM233 227v142h110v-142h-110zM233 -70v137h110v-137h-110zM208 114l-146 -20v106l146 -20v-66zM368 180l146 20v-106l-146 20v66z" />
    <glyph glyph-name="circumflex" unicode="&#x2c6;" horiz-adv-x="494" 
d="M247 705l147 -121l-46 -55l-101 83l-101 -83l-46 55z" />
    <glyph glyph-name="perthousand" unicode="&#x2030;" horiz-adv-x="1386" 
d="M682 0q-20 0 -38.5 7.5t-32 21t-21.5 31.5t-8 38v182q0 20 8 37.5t21.5 31t32 21t38.5 7.5h131q20 0 38.5 -7.5t32.5 -21t22.5 -31t8.5 -37.5v-182q0 -20 -8.5 -38t-22.5 -31.5t-32.5 -21t-38.5 -7.5h-131v0zM817 250q0 16 -10 25.5t-26 9.5h-65q-17 0 -26.5 -9.5
t-9.5 -25.5v-122q0 -17 9.5 -26.5t26.5 -9.5h65q16 0 26 9.5t10 26.5v122zM165 289q-20 0 -38.5 7.5t-32 21t-21.5 31.5t-8 38v182q0 20 8 37.5t21.5 31t32 21t38.5 7.5h131q20 0 38.5 -7.5t32.5 -21t22.5 -31t8.5 -37.5v-182q0 -20 -8.5 -38t-22.5 -31.5t-32.5 -21
t-38.5 -7.5h-131v0zM300 539q0 16 -10 25.5t-26 9.5h-65q-17 0 -26.5 -9.5t-9.5 -25.5v-122q0 -17 9.5 -26.5t26.5 -9.5h65q16 0 26 9.5t10 26.5v122zM604 666h105l-333 -666h-105zM1088 0q-20 0 -38.5 7.5t-32 21t-21.5 31.5t-8 38v182q0 20 8 37.5t21.5 31t32 21t38.5 7.5
h131q20 0 38.5 -7.5t32.5 -21t22.5 -31t8.5 -37.5v-182q0 -20 -8.5 -38t-22.5 -31.5t-32.5 -21t-38.5 -7.5h-131v0zM1223 250q0 16 -10 25.5t-26 9.5h-65q-17 0 -26.5 -9.5t-9.5 -25.5v-122q0 -17 9.5 -26.5t26.5 -9.5h65q16 0 26 9.5t10 26.5v122z" />
    <glyph glyph-name="Scaron" unicode="&#x160;" horiz-adv-x="575" 
d="M358 260q-29 8 -50 14t-40.5 11.5t-40 11.5t-48.5 14q-22 7 -41.5 16t-34 22t-23 30t-8.5 40v137q0 23 8.5 43t23 35t34.5 23.5t43 8.5h212q23 0 43 -8.5t35 -23.5t23.5 -35t8.5 -43v-78l-120 -20v72q0 11 -8 18.5t-19 7.5h-137q-11 0 -19 -7.5t-8 -18.5v-83
q0 -11 8 -18.5t19 -10.5q44 -13 85.5 -24t96.5 -27q43 -12 73.5 -37t30.5 -71v-149q0 -23 -8.5 -43t-23 -35t-34.5 -23.5t-43 -8.5h-216q-23 0 -43 8.5t-35 23.5t-23.5 35t-8.5 43v76l120 20v-70q0 -11 8 -18.5t19 -7.5h141q11 0 19 7.5t8 18.5v96q0 11 -7.5 18t-19.5 10z
M139 827l46 55l101 -83l101 83l46 -55l-147 -121z" />
    <glyph glyph-name="guilsinglleft" unicode="&#x2039;" horiz-adv-x="314" 
d="M40 238l132 200l77 -48l-101 -152l101 -151l-77 -47z" />
    <glyph glyph-name="OE" unicode="&#x152;" horiz-adv-x="865" 
d="M179 0q-23 0 -43 8.5t-34.5 23.5t-23 35t-8.5 43v446q0 23 8.5 43t23 35t34.5 23.5t43 8.5h631v-110h-284v-165h259v-110h-259v-171h284v-110h-631v0zM406 556h-189q-11 0 -19 -7.5t-8 -18.5v-394q0 -11 8 -18.5t19 -7.5h189v446z" />
    <glyph glyph-name="quoteleft" unicode="&#x2018;" horiz-adv-x="236" 
d="M129 552h56v-137h-130v137l75 124l53 -34z" />
    <glyph glyph-name="quoteright" unicode="&#x2019;" horiz-adv-x="235" 
d="M106 529h-56v137h130v-137l-75 -124l-53 34z" />
    <glyph glyph-name="quotedblleft" unicode="&#x201c;" horiz-adv-x="435" 
d="M328 552h56v-137h-130v137l75 124l53 -34zM129 552h56v-137h-130v137l75 124l53 -34z" />
    <glyph glyph-name="quotedblright" unicode="&#x201d;" horiz-adv-x="435" 
d="M107 529h-56v137h130v-137l-75 -124l-53 34zM306 529h-56v137h130v-137l-75 -124l-53 34z" />
    <glyph glyph-name="bullet" unicode="&#x2022;" horiz-adv-x="360" 
d="M65 320q0 24 9 44.5t25 36.5t36.5 25t44.5 9t44.5 -9t36.5 -25t25 -36.5t9 -44.5t-9 -44.5t-25 -36.5t-36.5 -25t-44.5 -9t-44.5 9t-36.5 25t-25 36.5t-9 44.5z" />
    <glyph glyph-name="endash" unicode="&#x2013;" horiz-adv-x="452" 
d="M40 238v100h372v-100h-372z" />
    <glyph glyph-name="emdash" unicode="&#x2014;" horiz-adv-x="582" 
d="M40 238v100h502v-100h-502z" />
    <glyph glyph-name="tilde" unicode="&#x2dc;" horiz-adv-x="505" 
d="M289 623q7 -7 17 -7q8 0 17 9q3 3 7.5 8t9.5 10q5 6 12 13l53 -48q-9 -9 -17 -18q-8 -8 -15.5 -16t-13.5 -14q-12 -12 -26.5 -19t-31.5 -7q-28 0 -52 19l-32 26q-8 6 -16 6t-16 -8l-10.5 -10.5l-10.5 -10.5q-6 -6 -11 -12l-53 49q7 9 16 18q7 8 15.5 16.5l16.5 16.5
q25 27 57 27q29 0 51 -20z" />
    <glyph glyph-name="trademark" unicode="&#x2122;" horiz-adv-x="674" 
d="M389 540v-172h-59v298h58l81 -173l82 173h58v-298h-59v172l-55 -123h-51zM55 666h228v-56h-84v-242h-60v242h-84v56z" />
    <glyph glyph-name="scaron" unicode="&#x161;" horiz-adv-x="492" 
d="M324 140q0 7 -2 12t-6 9.5t-13 7.5q-40 11 -84.5 24.5t-82.5 26.5q-32 11 -53.5 36t-21.5 60v53q0 22 8 41t22 33t33 22.5t41 8.5h159q22 0 41.5 -8.5t33.5 -22.5t22.5 -33t8.5 -41v-26l-110 -20v26q0 11 -8 18.5t-19 7.5h-90q-11 0 -20 -7.5t-9 -18.5v-13q0 -11 6 -18
t15 -10q14 -5 35 -11t44.5 -13t46.5 -14t41 -13q38 -13 56.5 -37.5t18.5 -59.5v-55q0 -22 -8.5 -41t-22.5 -33.5t-33.5 -22.5t-41.5 -8h-167q-22 0 -41 8t-33 22.5t-22 33.5t-8 41v27l110 20v-27q0 -11 8 -18.5t19 -7.5h100q11 0 19 7.5t8 18.5v15zM99 637l46 55l101 -83
l101 83l46 -55l-147 -121z" />
    <glyph glyph-name="guilsinglright" unicode="&#x203a;" horiz-adv-x="314" 
d="M142 40l-77 47l101 151l-101 152l77 48l132 -200z" />
    <glyph glyph-name="oe" unicode="&#x153;" horiz-adv-x="781" 
d="M460 127q0 -11 8 -18.5t19 -7.5h100q11 0 19 7.5t8 18.5v22l111 -20v-26q0 -44 -29.5 -73.5t-74.5 -29.5h-172q-14 0 -26.5 7t-20.5 14q-9 -8 -21.5 -14.5t-26.5 -6.5h-190q-22 0 -41 8t-33 22.5t-22 33.5t-8 41v264q0 22 8 41t22 33t33 22.5t41 8.5h190q14 0 27 -7
t21 -16q7 8 20 15.5t27 7.5h173q22 0 41 -8.5t33 -22.5t22 -33t8 -41v-164h-266v-78v0zM345 346q-2 11 -9 17t-18 6h-116q-11 0 -19 -7.5t-8 -18.5v-212q0 -11 8 -18.5t19 -7.5h116q11 0 19 7.5t8 18.5v215zM460 300h155v48q0 11 -8 18.5t-19 7.5h-101q-11 0 -18.5 -6
t-8.5 -17v-51z" />
    <glyph glyph-name="Ydieresis" unicode="&#x178;" horiz-adv-x="526" 
d="M263 401l131 265h127l-198 -398v-268h-120v268l-198 398h127zM119 733v115h97v-115h-97zM311 733v115h97v-115h-97z" />
    <glyph glyph-name="uni00A0" unicode="&#xa0;" horiz-adv-x="215" 
 />
    <glyph glyph-name="exclamdown" unicode="&#xa1;" horiz-adv-x="280" 
d="M198 58v-248h-115v248l20 208h74zM205 474v-137h-130v137h130z" />
    <glyph glyph-name="cent" unicode="&#xa2;" horiz-adv-x="484" 
d="M204 95h-40q-22 0 -41 8t-33 22.5t-22 33.5t-8 41v264q0 22 8 41t22 33t33 22.5t41 8.5h40v97h83v-97h48q45 0 74.5 -30.5t29.5 -74.5v-43l-111 -20v37q0 11 -8 18.5t-19 7.5h-99q-11 0 -19 -7.5t-8 -18.5v-212q0 -11 8 -18.5t19 -7.5h99q11 0 19 7.5t8 18.5v43l111 -20
v-49q0 -44 -29.5 -74.5t-74.5 -30.5h-48v-95h-83v95z" />
    <glyph glyph-name="sterling" unicode="&#xa3;" horiz-adv-x="581" 
d="M445 570h-161q-11 0 -19 -7.5t-8 -18.5v-126h152l-10 -96h-142v-229h133q11 0 19 7.5t8 18.5v70l99 -20v-64q0 -22 -8.5 -41t-22.5 -33.5t-33.5 -22.5t-41.5 -8h-385l10 93h107v468q0 22 8 41t22 33t33 22.5t41 8.5h199v-96z" />
    <glyph glyph-name="currency" unicode="&#xa4;" horiz-adv-x="628" 
d="M237 215v-79q0 -11 8 -18.5t19 -7.5h150q11 0 19 7.5t8 18.5v90l120 -20v-96q0 -23 -8.5 -43t-23.5 -35t-35 -23.5t-43 -8.5h-225q-23 0 -43 8.5t-34.5 23.5t-23 35t-8.5 43v105h-87l10 77h77v82h-77l10 77h67v105q0 23 8.5 43t23 35t34.5 23.5t43 8.5h225q23 0 43 -8.5
t35 -23.5t23.5 -35t8.5 -43v-95l-120 -20v89q0 11 -8 18.5t-19 7.5h-150q-11 0 -19 -7.5t-8 -18.5v-79h126l-10 -77h-116v-82h116l-10 -77h-106z" />
    <glyph glyph-name="yen" unicode="&#xa5;" horiz-adv-x="526" 
d="M323 149v-149h-120v149h-136v83h136v36l-19 38h-117v83h75l-137 277h127l131 -265l131 265h127l-138 -277h77v-83h-118l-19 -38v-36h137v-83h-137z" />
    <glyph glyph-name="brokenbar" unicode="&#xa6;" horiz-adv-x="239" 
d="M85 -200v417h69v-417h-69zM154 383h-69v417h69v-417z" />
    <glyph glyph-name="section" unicode="&#xa7;" horiz-adv-x="534" 
d="M439 222q-50 14 -85 24.5l-65 19.5t-60 18.5t-70 22.5q-32 11 -53.5 36t-21.5 60v158q0 22 8 41t22 33t33 22.5t41 8.5h159q22 0 41.5 -8.5t33.5 -22.5t22.5 -33t8.5 -41v-46l-110 -20v46q0 11 -8 18.5t-19 7.5h-90q-11 0 -20 -7.5t-9 -18.5v-114q0 -11 6 -18t15 -10
q31 -9 60 -18t59 -18t62 -19t70 -21zM95 254q45 -14 75.5 -23t60 -18t62.5 -19t82 -25q32 -10 53.5 -35.5t21.5 -60.5v-158q0 -22 -8 -41t-22 -33.5t-33 -22.5t-41 -8h-159q-22 0 -41.5 8t-33.5 22.5t-22.5 33.5t-8.5 41v46l110 20v-46q0 -11 8 -18.5t19 -7.5h90
q11 0 20 7.5t9 18.5v114q0 11 -6 18t-15 10q-41 12 -70 20.5t-55 16.5t-55 17t-71 22z" />
    <glyph glyph-name="dieresis" unicode="&#xa8;" horiz-adv-x="489" 
d="M100 547v115h97v-115h-97zM292 547v115h97v-115h-97z" />
    <glyph glyph-name="copyright" unicode="&#xa9;" horiz-adv-x="658" 
d="M170 0q-21 0 -39 8t-31.5 22t-21.5 32t-8 38v466q0 20 8 38t21.5 32t31.5 22t39 8h318q21 0 39 -8t31.5 -22t21.5 -32t8 -38v-466q0 -20 -8 -38t-21.5 -32t-31.5 -22t-39 -8h-318v0zM473 62q21 0 35.5 13.5t14.5 35.5v444q0 22 -14.5 35.5t-35.5 13.5h-288
q-21 0 -35.5 -13.5t-14.5 -35.5v-444q0 -22 14.5 -35.5t35.5 -13.5h288v0zM389 273l66 -12v-53q0 -26 -17.5 -43t-43.5 -17h-127q-26 0 -43 17t-17 43v250q0 26 17 43.5t43 17.5h127q26 0 43.5 -17.5t17.5 -43.5v-52l-66 -11v49q0 14 -14 14h-88q-14 0 -14 -14v-221
q0 -15 14 -15h88q14 0 14 15v50z" />
    <glyph glyph-name="ordfeminine" unicode="&#xaa;" horiz-adv-x="323" 
d="M50 497q0 24 15.5 41.5t44.5 17.5q21 0 48 -3.5t44 -8.5v50q0 15 -15 15h-50q-16 0 -16 -15v-9l-63 7v16q0 25 17 41.5t42 16.5h92q25 0 42 -17.5t17 -41.5v-210h-66v15q-21 -7 -46 -13.5t-46 -6.5q-29 0 -44.5 17t-15.5 42v46zM115 464q0 -15 15 -15q10 0 27.5 4t29.5 8
q15 4 15 13v10q0 9 -15 12q-11 2 -29 3.5t-28 1.5q-15 0 -15 -15v-22z" />
    <glyph glyph-name="guillemotleft" unicode="&#xab;" horiz-adv-x="513" 
d="M40 238l132 200l77 -48l-101 -152l101 -151l-77 -47zM239 238l132 200l77 -48l-101 -152l101 -151l-77 -47z" />
    <glyph glyph-name="logicalnot" unicode="&#xac;" horiz-adv-x="534" 
d="M354 288h-309v100h419v-284h-110v184z" />
    <glyph glyph-name="minus" unicode="&#xad;" horiz-adv-x="328" 
d="M40 238v100h248v-100h-248z" />
    <glyph glyph-name="registered" unicode="&#xae;" horiz-adv-x="485" 
d="M133 267q-35 0 -56.5 23.5t-21.5 55.5v242q0 32 21.5 55t56.5 23h217q37 0 58.5 -23t21.5 -55v-242q0 -32 -21.5 -55.5t-58.5 -23.5h-217v0zM349 312q14 0 23.5 9t9.5 23v245q0 14 -9.5 22.5t-23.5 8.5h-214q-14 0 -23 -8.5t-9 -22.5v-245q0 -14 9 -23t23 -9h214v0z
M245 443h-34v-76h-36v198h101q14 0 23 -9.5t9 -23.5v-56q0 -11 -6.5 -20t-17.5 -12l44 -77h-39zM273 525q0 7 -8 7h-54v-56h54q8 0 8 8v41z" />
    <glyph glyph-name="macron" unicode="&#xaf;" horiz-adv-x="486" 
d="M100 559v83h286v-83h-286z" />
    <glyph glyph-name="degree" unicode="&#xb0;" horiz-adv-x="279" 
d="M92 495q-14 0 -23 9.5t-9 23.5v105q0 14 9 23.5t23 9.5h94q14 0 23.5 -9.5t9.5 -23.5v-105q0 -14 -9.5 -23.5t-23.5 -9.5h-94v0zM183 625q0 8 -8 8h-71q-8 0 -8 -8v-89q0 -8 8 -8h71q8 0 8 8v89z" />
    <glyph glyph-name="plusminus" unicode="&#xb1;" horiz-adv-x="534" 
d="M55 95h159v119h-159v95h159v165h106v-165h159v-95h-159v-119h159v-95h-424v95z" />
    <glyph glyph-name="twosuperior" unicode="&#xb2;" horiz-adv-x="716" 
d="M358 -10l-338 676h676z" />
    <glyph glyph-name="threesuperior" unicode="&#xb3;" horiz-adv-x="716" 
d="M696 0h-676l338 676z" />
    <glyph glyph-name="acute" unicode="&#xb4;" horiz-adv-x="369" 
d="M182 531l-52 61l126 110l53 -62z" />
    <glyph glyph-name="mu" unicode="&#xb5;" horiz-adv-x="525" 
d="M65 474h115v-349q2 -22 27 -22q9 0 23.5 3.5t30 8.5t29.5 10t23 8q14 5 20.5 16t6.5 24v301h115v-474h-110v36q-16 -6 -36.5 -14t-43 -14.5t-45 -11.5t-40.5 -6v-180h-115v664z" />
    <glyph glyph-name="paragraph" unicode="&#xb6;" horiz-adv-x="555" 
d="M228 -117q14 0 14 14v417h-150q-24 0 -40.5 17t-16.5 41v236q0 24 16.5 41t40.5 17h388v-666h-84v588h-70v-720q0 -24 -16.5 -41t-40.5 -17h-109v73h68v0z" />
    <glyph glyph-name="periodcentered" unicode="&#xb7;" horiz-adv-x="270" 
d="M70 253v137h130v-137h-130z" />
    <glyph glyph-name="periodcentered" unicode="&#x2219;" horiz-adv-x="270" 
d="M70 253v137h130v-137h-130z" />
    <glyph glyph-name="cedilla" unicode="&#xb8;" horiz-adv-x="357" 
d="M183 -148l-83 35l64 154l93 -19z" />
    <glyph glyph-name="onesuperior" unicode="&#xb9;" horiz-adv-x="786" 
d="M761 333l-686 -343v686z" />
    <glyph glyph-name="ordmasculine" unicode="&#xba;" horiz-adv-x="327" 
d="M109 397q-24 0 -41.5 17.5t-17.5 42.5v149q0 25 17.5 42.5t41.5 17.5h108q26 0 43 -17.5t17 -42.5v-149q0 -25 -17 -42.5t-43 -17.5h-108v0zM212 591q0 7 -4.5 11t-10.5 4h-66q-16 0 -16 -15v-120q0 -14 16 -14h66q6 0 10.5 3.5t4.5 10.5v120z" />
    <glyph glyph-name="guillemotright" unicode="&#xbb;" horiz-adv-x="513" 
d="M341 40l-77 47l101 151l-101 152l77 48l132 -200zM142 40l-77 47l101 151l-101 152l77 48l132 -200z" />
    <glyph glyph-name="onequarter" unicode="&#xbc;" horiz-adv-x="614" 
d="M70 474h474v-474h-474v474z" />
    <glyph glyph-name="onehalf" unicode="&#xbd;" horiz-adv-x="816" 
d="M75 666h666v-666h-666v666z" />
    <glyph glyph-name="threequarters" unicode="&#xbe;" horiz-adv-x="584" 
d="M70 484l494 -247l-494 -247v494z" />
    <glyph glyph-name="questiondown" unicode="&#xbf;" horiz-adv-x="486" 
d="M327 264v-67q0 -18 -2.5 -30.5t-9 -23t-18.5 -19.5t-30 -18q-17 -9 -36.5 -18.5t-37.5 -19.5q-12 -7 -17.5 -13.5t-5.5 -18.5v-95q0 -11 8 -18.5t19 -7.5h97q11 0 19 7.5t8 18.5v58l115 -20v-64q0 -22 -8 -41t-22 -33.5t-33 -22.5t-41 -8h-171q-22 0 -41.5 8t-33.5 22.5
t-22.5 33.5t-8.5 41v153q0 19 5 32.5t13.5 23t20 16.5t25.5 15q17 10 38.5 21.5t32.5 18.5q10 6 16.5 13t6.5 18v38h114zM332 474v-137h-130v137h130z" />
    <glyph glyph-name="Agrave" unicode="&#xc0;" horiz-adv-x="597" 
d="M579 0h-121l-48 145h-225l-46 -145h-121l225 666h111zM221 252h154l-77 254zM160 830l53 62l126 -110l-52 -61z" />
    <glyph glyph-name="Aacute" unicode="&#xc1;" horiz-adv-x="597" 
d="M579 0h-121l-48 145h-225l-46 -145h-121l225 666h111zM221 252h154l-77 254zM300 721l-52 61l126 110l53 -62z" />
    <glyph glyph-name="Acircumflex" unicode="&#xc2;" horiz-adv-x="597" 
d="M579 0h-121l-48 145h-225l-46 -145h-121l225 666h111zM221 252h154l-77 254zM298 885l147 -121l-46 -55l-101 83l-101 -83l-46 55z" />
    <glyph glyph-name="Atilde" unicode="&#xc3;" horiz-adv-x="597" 
d="M579 0h-121l-48 145h-225l-46 -145h-121l225 666h111zM221 252h154l-77 254zM339 808q7 -7 17 -7q8 0 17 9q3 3 7.5 8t9.5 10q5 6 12 13l53 -48q-9 -9 -17 -18q-8 -8 -15.5 -16t-13.5 -14q-12 -12 -26.5 -19t-31.5 -7q-28 0 -52 19l-32 26q-8 6 -16 6t-16 -8l-10.5 -10.5
l-10.5 -10.5q-6 -6 -11 -12l-53 49q7 9 16 18q7 8 15.5 16.5l16.5 16.5q25 27 57 27q29 0 51 -20z" />
    <glyph glyph-name="Adieresis" unicode="&#xc4;" horiz-adv-x="597" 
d="M579 0h-121l-48 145h-225l-46 -145h-121l225 666h111zM221 252h154l-77 254zM154 733v115h97v-115h-97zM346 733v115h97v-115h-97z" />
    <glyph glyph-name="Aring" unicode="&#xc5;" horiz-adv-x="597" 
d="M579 0h-121l-48 145h-225l-46 -145h-121l225 666h111zM221 252h154l-77 254zM252 712q-14 0 -23 9.5t-9 23.5v88q0 14 9 23.5t23 9.5h91q14 0 23.5 -9.5t9.5 -23.5v-88q0 -14 -9.5 -23.5t-23.5 -9.5h-91v0zM333 818q0 8 -8 8h-54q-8 0 -8 -8v-58q0 -8 8 -8h54q8 0 8 8v58
z" />
    <glyph glyph-name="AE" unicode="&#xc6;" horiz-adv-x="824" 
d="M767 556h-379l52 -155h283v-110h-246l61 -181h231v-110h-313l-48 147h-223l-48 -147h-119l224 666h525v-110zM219 252h154l-77 246z" />
    <glyph glyph-name="Ccedilla" unicode="&#xc7;" horiz-adv-x="579" 
d="M394 231l120 -20v-101q0 -23 -8.5 -43t-23.5 -35t-35 -23.5t-43 -8.5h-61l-64 -148l-83 35l47 113h-64q-23 0 -43 8.5t-34.5 23.5t-23 35t-8.5 43v446q0 23 8.5 43t23 35t34.5 23.5t43 8.5h225q23 0 43 -8.5t35 -23.5t23.5 -35t8.5 -43v-95l-120 -20v89q0 11 -8 18.5
t-19 7.5h-150q-11 0 -19 -7.5t-8 -18.5v-394q0 -11 8 -18.5t19 -7.5h150q11 0 19 7.5t8 18.5v95z" />
    <glyph glyph-name="Egrave" unicode="&#xc8;" horiz-adv-x="534" 
d="M75 666h404v-110h-284v-165h259v-110h-259v-171h284v-110h-404v666zM140 830l53 62l126 -110l-52 -61z" />
    <glyph glyph-name="Eacute" unicode="&#xc9;" horiz-adv-x="534" 
d="M75 666h404v-110h-284v-165h259v-110h-259v-171h284v-110h-404v666zM252 721l-52 61l126 110l53 -62z" />
    <glyph glyph-name="Ecircumflex" unicode="&#xca;" horiz-adv-x="534" 
d="M75 666h404v-110h-284v-165h259v-110h-259v-171h284v-110h-404v666zM269 885l147 -121l-46 -55l-101 83l-101 -83l-46 55z" />
    <glyph glyph-name="Edieresis" unicode="&#xcb;" horiz-adv-x="534" 
d="M75 666h404v-110h-284v-165h259v-110h-259v-171h284v-110h-404v666zM135 733v115h97v-115h-97zM327 733v115h97v-115h-97z" />
    <glyph glyph-name="Igrave" unicode="&#xcc;" horiz-adv-x="270" 
d="M195 0h-120v666h120v-666zM1 830l53 62l126 -110l-52 -61z" />
    <glyph glyph-name="Iacute" unicode="&#xcd;" horiz-adv-x="270" 
d="M195 0h-120v666h120v-666zM147 721l-52 61l126 110l53 -62z" />
    <glyph glyph-name="Icircumflex" unicode="&#xce;" horiz-adv-x="270" 
d="M195 0h-120v666h120v-666zM136 885l147 -121l-46 -55l-101 83l-101 -83l-46 55z" />
    <glyph glyph-name="Idieresis" unicode="&#xcf;" horiz-adv-x="270" 
d="M195 0h-120v666h120v-666zM-8 733v115h97v-115h-97zM184 733v115h97v-115h-97z" />
    <glyph glyph-name="Eth" unicode="&#xd0;" horiz-adv-x="603" 
d="M25 379h73v287h325q23 0 43 -8.5t35 -23.5t23.5 -35t8.5 -43v-446q0 -23 -8.5 -43t-23.5 -35t-35 -23.5t-43 -8.5h-325v284h-73v95zM413 530q0 11 -8 18.5t-19 7.5h-168v-177h101v-95h-101v-174h168q11 0 19 7.5t8 18.5v394z" />
    <glyph glyph-name="Ntilde" unicode="&#xd1;" horiz-adv-x="634" 
d="M559 0h-116l-252 431v-431h-116v666h116l252 -433v433h116v-666zM353 808q7 -7 17 -7q8 0 17 9q3 3 7.5 8t9.5 10q5 6 12 13l53 -48q-9 -9 -17 -18q-8 -8 -15.5 -16t-13.5 -14q-12 -12 -26.5 -19t-31.5 -7q-28 0 -52 19l-32 26q-8 6 -16 6t-16 -8l-10.5 -10.5
l-10.5 -10.5q-6 -6 -11 -12l-53 49q7 9 16 18q7 8 15.5 16.5l16.5 16.5q25 27 57 27q29 0 51 -20z" />
    <glyph glyph-name="Ograve" unicode="&#xd2;" horiz-adv-x="594" 
d="M179 0q-23 0 -43 8.5t-34.5 23.5t-23 35t-8.5 43v446q0 23 8.5 43t23 35t34.5 23.5t43 8.5h235q23 0 43 -8.5t35 -23.5t23.5 -35t8.5 -43v-446q0 -23 -8.5 -43t-23.5 -35t-35 -23.5t-43 -8.5h-235v0zM404 530q0 11 -8 18.5t-19 7.5h-160q-11 0 -19 -7.5t-8 -18.5v-394
q0 -11 8 -18.5t19 -7.5h160q11 0 19 7.5t8 18.5v394zM160 830l53 62l126 -110l-52 -61z" />
    <glyph glyph-name="Oacute" unicode="&#xd3;" horiz-adv-x="594" 
d="M179 0q-23 0 -43 8.5t-34.5 23.5t-23 35t-8.5 43v446q0 23 8.5 43t23 35t34.5 23.5t43 8.5h235q23 0 43 -8.5t35 -23.5t23.5 -35t8.5 -43v-446q0 -23 -8.5 -43t-23.5 -35t-35 -23.5t-43 -8.5h-235v0zM404 530q0 11 -8 18.5t-19 7.5h-160q-11 0 -19 -7.5t-8 -18.5v-394
q0 -11 8 -18.5t19 -7.5h160q11 0 19 7.5t8 18.5v394zM305 721l-52 61l126 110l53 -62z" />
    <glyph glyph-name="Ocircumflex" unicode="&#xd4;" horiz-adv-x="594" 
d="M179 0q-23 0 -43 8.5t-34.5 23.5t-23 35t-8.5 43v446q0 23 8.5 43t23 35t34.5 23.5t43 8.5h235q23 0 43 -8.5t35 -23.5t23.5 -35t8.5 -43v-446q0 -23 -8.5 -43t-23.5 -35t-35 -23.5t-43 -8.5h-235v0zM404 530q0 11 -8 18.5t-19 7.5h-160q-11 0 -19 -7.5t-8 -18.5v-394
q0 -11 8 -18.5t19 -7.5h160q11 0 19 7.5t8 18.5v394zM297 885l147 -121l-46 -55l-101 83l-101 -83l-46 55z" />
    <glyph glyph-name="Otilde" unicode="&#xd5;" horiz-adv-x="594" 
d="M179 0q-23 0 -43 8.5t-34.5 23.5t-23 35t-8.5 43v446q0 23 8.5 43t23 35t34.5 23.5t43 8.5h235q23 0 43 -8.5t35 -23.5t23.5 -35t8.5 -43v-446q0 -23 -8.5 -43t-23.5 -35t-35 -23.5t-43 -8.5h-235v0zM404 530q0 11 -8 18.5t-19 7.5h-160q-11 0 -19 -7.5t-8 -18.5v-394
q0 -11 8 -18.5t19 -7.5h160q11 0 19 7.5t8 18.5v394zM336 808q7 -7 17 -7q8 0 17 9q3 3 7.5 8t9.5 10q5 6 12 13l53 -48q-9 -9 -17 -18q-8 -8 -15.5 -16t-13.5 -14q-12 -12 -26.5 -19t-31.5 -7q-28 0 -52 19l-32 26q-8 6 -16 6t-16 -8l-10.5 -10.5l-10.5 -10.5
q-6 -6 -11 -12l-53 49q7 9 16 18q7 8 15.5 16.5l16.5 16.5q25 27 57 27q29 0 51 -20z" />
    <glyph glyph-name="Odieresis" unicode="&#xd6;" horiz-adv-x="594" 
d="M179 0q-23 0 -43 8.5t-34.5 23.5t-23 35t-8.5 43v446q0 23 8.5 43t23 35t34.5 23.5t43 8.5h235q23 0 43 -8.5t35 -23.5t23.5 -35t8.5 -43v-446q0 -23 -8.5 -43t-23.5 -35t-35 -23.5t-43 -8.5h-235v0zM404 530q0 11 -8 18.5t-19 7.5h-160q-11 0 -19 -7.5t-8 -18.5v-394
q0 -11 8 -18.5t19 -7.5h160q11 0 19 7.5t8 18.5v394zM153 733v115h97v-115h-97zM345 733v115h97v-115h-97z" />
    <glyph glyph-name="multiply" unicode="&#xd7;" horiz-adv-x="452" 
d="M154 266l-114 114l72 72l114 -114l114 114l72 -72l-114 -114l114 -114l-72 -72l-114 114l-114 -114l-72 72z" />
    <glyph glyph-name="Oslash" unicode="&#xd8;" horiz-adv-x="595" 
d="M100 33q-30 32 -30 77v446q0 23 8.5 43t23 35t34.5 23.5t43 8.5h235q15 0 33 -5l30 55l48 -27l-31 -57q14 -15 22 -34.5t8 -41.5v-446q0 -23 -8.5 -43t-23.5 -35t-35 -23.5t-43 -8.5h-235q-19 0 -32 4l-29 -54l-48 27zM190 197l198 356q-5 3 -11 3h-160q-11 0 -19 -7.5
t-8 -18.5v-333zM404 467l-198 -355q3 -2 11 -2h160q11 0 19 7.5t8 18.5v331z" />
    <glyph glyph-name="Ugrave" unicode="&#xd9;" horiz-adv-x="584" 
d="M394 666h120v-556q0 -23 -8.5 -43t-23.5 -35t-35 -23.5t-43 -8.5h-225q-23 0 -43 8.5t-34.5 23.5t-23 35t-8.5 43v556h120v-530q0 -11 8 -18.5t19 -7.5h150q11 0 19 7.5t8 18.5v530zM154 830l53 62l126 -110l-52 -61z" />
    <glyph glyph-name="Uacute" unicode="&#xda;" horiz-adv-x="584" 
d="M394 666h120v-556q0 -23 -8.5 -43t-23.5 -35t-35 -23.5t-43 -8.5h-225q-23 0 -43 8.5t-34.5 23.5t-23 35t-8.5 43v556h120v-530q0 -11 8 -18.5t19 -7.5h150q11 0 19 7.5t8 18.5v530zM296 721l-52 61l126 110l53 -62z" />
    <glyph glyph-name="Ucircumflex" unicode="&#xdb;" horiz-adv-x="584" 
d="M394 666h120v-556q0 -23 -8.5 -43t-23.5 -35t-35 -23.5t-43 -8.5h-225q-23 0 -43 8.5t-34.5 23.5t-23 35t-8.5 43v556h120v-530q0 -11 8 -18.5t19 -7.5h150q11 0 19 7.5t8 18.5v530zM293 885l147 -121l-46 -55l-101 83l-101 -83l-46 55z" />
    <glyph glyph-name="Udieresis" unicode="&#xdc;" horiz-adv-x="584" 
d="M394 666h120v-556q0 -23 -8.5 -43t-23.5 -35t-35 -23.5t-43 -8.5h-225q-23 0 -43 8.5t-34.5 23.5t-23 35t-8.5 43v556h120v-530q0 -11 8 -18.5t19 -7.5h150q11 0 19 7.5t8 18.5v530zM148 733v115h97v-115h-97zM340 733v115h97v-115h-97z" />
    <glyph glyph-name="Yacute" unicode="&#xdd;" horiz-adv-x="526" 
d="M263 401l131 265h127l-198 -398v-268h-120v268l-198 398h127zM274 721l-52 61l126 110l53 -62z" />
    <glyph glyph-name="Thorn" unicode="&#xde;" horiz-adv-x="554" 
d="M75 666h120v-118h219q23 0 43 -8.5t35 -23.5t23.5 -35t8.5 -43v-189q0 -23 -8.5 -43t-23.5 -35t-35 -23.5t-43 -8.5h-219v-139h-120v666zM404 412q0 11 -8 18.5t-19 7.5h-182v-189h182q11 0 19 7.5t8 18.5v137z" />
    <glyph glyph-name="germandbls" unicode="&#xdf;" horiz-adv-x="600" 
d="M437 340q15 -18 27.5 -31.5t23.5 -26.5t23.5 -26t27.5 -30q19 -21 25 -38.5t6 -48.5v-34q0 -44 -29.5 -74.5t-74.5 -30.5h-107q-22 0 -41 8t-33 22.5t-22 33.5t-8 41v32l102 20v-36q0 -11 8 -18.5t19 -7.5h50q13 0 20 7.5t7 18.5v22q0 9 -4 15t-12 14q-17 18 -28.5 30
t-22 24t-22.5 26l-30 35q-23 28 -30.5 43t-7.5 33v177q0 11 -8 18.5t-19 7.5h-60q-11 0 -19 -7.5t-8 -18.5v-540h-115v561q0 22 8 41t22 33t33 22.5t41 8.5h136q22 0 41 -8.5t33 -22.5t22 -33t8 -41v-181q0 -14 6 -23t12 -17z" />
    <glyph glyph-name="agrave" unicode="&#xe0;" horiz-adv-x="509" 
d="M60 175q0 44 27.5 74.5t78.5 30.5q18 0 40.5 -1.5t44.5 -4.5t42.5 -7t35.5 -8v88q0 11 -8 18.5t-19 7.5h-89q-11 0 -19 -7.5t-8 -18.5v-16l-111 12v28q0 44 29.5 73.5t74.5 29.5h161q22 0 41 -8.5t33 -22.5t22 -33t8 -41v-369h-115v23q-37 -13 -81.5 -23t-81.5 -10
q-51 0 -78.5 30.5t-27.5 74.5v80zM172 115q0 -11 7 -18.5t20 -7.5q9 0 22.5 2t27.5 5t28 7t25 7q14 5 20.5 10t6.5 14v20q0 16 -27 22q-10 2 -24 3.5t-28.5 3t-28 2t-22.5 0.5q-13 0 -20 -7.5t-7 -18.5v-44zM131 640l53 62l126 -110l-52 -61z" />
    <glyph glyph-name="aacute" unicode="&#xe1;" horiz-adv-x="509" 
d="M60 175q0 44 27.5 74.5t78.5 30.5q18 0 40.5 -1.5t44.5 -4.5t42.5 -7t35.5 -8v88q0 11 -8 18.5t-19 7.5h-89q-11 0 -19 -7.5t-8 -18.5v-16l-111 12v28q0 44 29.5 73.5t74.5 29.5h161q22 0 41 -8.5t33 -22.5t22 -33t8 -41v-369h-115v23q-37 -13 -81.5 -23t-81.5 -10
q-51 0 -78.5 30.5t-27.5 74.5v80zM172 115q0 -11 7 -18.5t20 -7.5q9 0 22.5 2t27.5 5t28 7t25 7q14 5 20.5 10t6.5 14v20q0 16 -27 22q-10 2 -24 3.5t-28.5 3t-28 2t-22.5 0.5q-13 0 -20 -7.5t-7 -18.5v-44zM257 531l-52 61l126 110l53 -62z" />
    <glyph glyph-name="acircumflex" unicode="&#xe2;" horiz-adv-x="509" 
d="M60 175q0 44 27.5 74.5t78.5 30.5q18 0 40.5 -1.5t44.5 -4.5t42.5 -7t35.5 -8v88q0 11 -8 18.5t-19 7.5h-89q-11 0 -19 -7.5t-8 -18.5v-16l-111 12v28q0 44 29.5 73.5t74.5 29.5h161q22 0 41 -8.5t33 -22.5t22 -33t8 -41v-369h-115v23q-37 -13 -81.5 -23t-81.5 -10
q-51 0 -78.5 30.5t-27.5 74.5v80zM172 115q0 -11 7 -18.5t20 -7.5q9 0 22.5 2t27.5 5t28 7t25 7q14 5 20.5 10t6.5 14v20q0 16 -27 22q-10 2 -24 3.5t-28.5 3t-28 2t-22.5 0.5q-13 0 -20 -7.5t-7 -18.5v-44zM265 705l147 -121l-46 -55l-101 83l-101 -83l-46 55z" />
    <glyph glyph-name="atilde" unicode="&#xe3;" horiz-adv-x="509" 
d="M60 175q0 44 27.5 74.5t78.5 30.5q18 0 40.5 -1.5t44.5 -4.5t42.5 -7t35.5 -8v88q0 11 -8 18.5t-19 7.5h-89q-11 0 -19 -7.5t-8 -18.5v-16l-111 12v28q0 44 29.5 73.5t74.5 29.5h161q22 0 41 -8.5t33 -22.5t22 -33t8 -41v-369h-115v23q-37 -13 -81.5 -23t-81.5 -10
q-51 0 -78.5 30.5t-27.5 74.5v80zM172 115q0 -11 7 -18.5t20 -7.5q9 0 22.5 2t27.5 5t28 7t25 7q14 5 20.5 10t6.5 14v20q0 16 -27 22q-10 2 -24 3.5t-28.5 3t-28 2t-22.5 0.5q-13 0 -20 -7.5t-7 -18.5v-44zM298 623q7 -7 17 -7q8 0 17 9q3 3 7.5 8t9.5 10q5 6 12 13l53 -48
q-9 -9 -17 -18q-8 -8 -15.5 -16t-13.5 -14q-12 -12 -26.5 -19t-31.5 -7q-28 0 -52 19l-32 26q-8 6 -16 6t-16 -8l-10.5 -10.5l-10.5 -10.5q-6 -6 -11 -12l-53 49q7 9 16 18q7 8 15.5 16.5l16.5 16.5q25 27 57 27q29 0 51 -20z" />
    <glyph glyph-name="adieresis" unicode="&#xe4;" horiz-adv-x="509" 
d="M60 175q0 44 27.5 74.5t78.5 30.5q18 0 40.5 -1.5t44.5 -4.5t42.5 -7t35.5 -8v88q0 11 -8 18.5t-19 7.5h-89q-11 0 -19 -7.5t-8 -18.5v-16l-111 12v28q0 44 29.5 73.5t74.5 29.5h161q22 0 41 -8.5t33 -22.5t22 -33t8 -41v-369h-115v23q-37 -13 -81.5 -23t-81.5 -10
q-51 0 -78.5 30.5t-27.5 74.5v80zM172 115q0 -11 7 -18.5t20 -7.5q9 0 22.5 2t27.5 5t28 7t25 7q14 5 20.5 10t6.5 14v20q0 16 -27 22q-10 2 -24 3.5t-28.5 3t-28 2t-22.5 0.5q-13 0 -20 -7.5t-7 -18.5v-44zM115 547v115h97v-115h-97zM307 547v115h97v-115h-97z" />
    <glyph glyph-name="aring" unicode="&#xe5;" horiz-adv-x="509" 
d="M60 175q0 44 27.5 74.5t78.5 30.5q18 0 40.5 -1.5t44.5 -4.5t42.5 -7t35.5 -8v88q0 11 -8 18.5t-19 7.5h-89q-11 0 -19 -7.5t-8 -18.5v-16l-111 12v28q0 44 29.5 73.5t74.5 29.5h161q22 0 41 -8.5t33 -22.5t22 -33t8 -41v-369h-115v23q-37 -13 -81.5 -23t-81.5 -10
q-51 0 -78.5 30.5t-27.5 74.5v80zM172 115q0 -11 7 -18.5t20 -7.5q9 0 22.5 2t27.5 5t28 7t25 7q14 5 20.5 10t6.5 14v20q0 16 -27 22q-10 2 -24 3.5t-28.5 3t-28 2t-22.5 0.5q-13 0 -20 -7.5t-7 -18.5v-44zM214 539q-14 0 -23 9.5t-9 23.5v88q0 14 9 23.5t23 9.5h91
q14 0 23.5 -9.5t9.5 -23.5v-88q0 -14 -9.5 -23.5t-23.5 -9.5h-91v0zM295 645q0 8 -8 8h-54q-8 0 -8 -8v-58q0 -8 8 -8h54q8 0 8 8v58z" />
    <glyph glyph-name="ae" unicode="&#xe6;" horiz-adv-x="765" 
d="M60 175q0 44 27.5 74.5t78.5 30.5q18 0 40.5 -1.5t44.5 -4.5t42.5 -7t35.5 -8v91q-2 11 -9 17t-18 6h-89q-11 0 -19 -7.5t-8 -18.5v-16l-111 12v28q0 44 29.5 73.5t74.5 29.5h161q28 0 46 -21q7 8 20 14.5t27 6.5h173q22 0 41 -8.5t33 -22.5t22 -33t8 -41v-164h-266v-82
q1 -10 8.5 -16t18.5 -6h100q11 0 19 7.5t8 18.5v23l111 -20v-27q0 -44 -29.5 -73.5t-74.5 -29.5h-172q-21 0 -39.5 5.5t-32.5 19.5q-48 -17 -99 -26t-96 -9q-51 0 -78.5 30.5t-27.5 74.5v80zM174 117q0 -11 7 -18.5t20 -7.5q9 0 22 2t27 5t27.5 7t24.5 7q14 5 20.5 10
t6.5 14v16q0 16 -27 22q-10 2 -23.5 3.5t-28 3t-27.5 2t-22 0.5q-13 0 -20 -7.5t-7 -18.5v-40zM444 300h155v48q0 11 -8 18.5t-19 7.5h-101q-11 0 -19 -7.5t-8 -18.5v-48z" />
    <glyph glyph-name="ccedilla" unicode="&#xe7;" horiz-adv-x="484" 
d="M328 174l111 -20v-49q0 -44 -29.5 -74.5t-74.5 -30.5h-32l-64 -148l-83 35l47 113h-39q-22 0 -41 8t-33 22.5t-22 33.5t-8 41v264q0 22 8 41t22 33t33 22.5t41 8.5h171q45 0 74.5 -30.5t29.5 -74.5v-43l-111 -20v37q0 11 -8 18.5t-19 7.5h-99q-11 0 -19 -7.5t-8 -18.5
v-212q0 -11 8 -18.5t19 -7.5h99q11 0 19 7.5t8 18.5v43z" />
    <glyph glyph-name="egrave" unicode="&#xe8;" horiz-adv-x="496" 
d="M175 127q0 -11 8 -18.5t19 -7.5h100q11 0 19 7.5t8 18.5v22l111 -20v-26q0 -44 -29.5 -73.5t-74.5 -29.5h-172q-22 0 -41 8t-33 22.5t-22 33.5t-8 41v264q0 22 8 41t22 33t33 22.5t41 8.5h173q22 0 41 -8.5t33 -22.5t22 -33t8 -41v-164h-266v-78v0zM175 300h155v48
q0 11 -8 18.5t-19 7.5h-101q-11 0 -19 -7.5t-8 -18.5v-48zM129 640l53 62l126 -110l-52 -61z" />
    <glyph glyph-name="eacute" unicode="&#xe9;" horiz-adv-x="496" 
d="M175 127q0 -11 8 -18.5t19 -7.5h100q11 0 19 7.5t8 18.5v22l111 -20v-26q0 -44 -29.5 -73.5t-74.5 -29.5h-172q-22 0 -41 8t-33 22.5t-22 33.5t-8 41v264q0 22 8 41t22 33t33 22.5t41 8.5h173q22 0 41 -8.5t33 -22.5t22 -33t8 -41v-164h-266v-78v0zM175 300h155v48
q0 11 -8 18.5t-19 7.5h-101q-11 0 -19 -7.5t-8 -18.5v-48zM249 531l-52 61l126 110l53 -62z" />
    <glyph glyph-name="ecircumflex" unicode="&#xea;" horiz-adv-x="496" 
d="M175 127q0 -11 8 -18.5t19 -7.5h100q11 0 19 7.5t8 18.5v22l111 -20v-26q0 -44 -29.5 -73.5t-74.5 -29.5h-172q-22 0 -41 8t-33 22.5t-22 33.5t-8 41v264q0 22 8 41t22 33t33 22.5t41 8.5h173q22 0 41 -8.5t33 -22.5t22 -33t8 -41v-164h-266v-78v0zM175 300h155v48
q0 11 -8 18.5t-19 7.5h-101q-11 0 -19 -7.5t-8 -18.5v-48zM254 705l147 -121l-46 -55l-101 83l-101 -83l-46 55z" />
    <glyph glyph-name="edieresis" unicode="&#xeb;" horiz-adv-x="496" 
d="M175 127q0 -11 8 -18.5t19 -7.5h100q11 0 19 7.5t8 18.5v22l111 -20v-26q0 -44 -29.5 -73.5t-74.5 -29.5h-172q-22 0 -41 8t-33 22.5t-22 33.5t-8 41v264q0 22 8 41t22 33t33 22.5t41 8.5h173q22 0 41 -8.5t33 -22.5t22 -33t8 -41v-164h-266v-78v0zM175 300h155v48
q0 11 -8 18.5t-19 7.5h-101q-11 0 -19 -7.5t-8 -18.5v-48zM109 547v115h97v-115h-97zM301 547v115h97v-115h-97z" />
    <glyph glyph-name="igrave" unicode="&#xec;" horiz-adv-x="265" 
d="M82 474h115v-474h-115v474zM7 640l53 62l126 -110l-52 -61z" />
    <glyph glyph-name="iacute" unicode="&#xed;" horiz-adv-x="265" 
d="M69 474h115v-474h-115v474zM131 531l-52 61l126 110l53 -62z" />
    <glyph glyph-name="icircumflex" unicode="&#xee;" horiz-adv-x="265" 
d="M76 474h115v-474h-115v474zM133 705l147 -121l-46 -55l-101 83l-101 -83l-46 55z" />
    <glyph glyph-name="idieresis" unicode="&#xef;" horiz-adv-x="265" 
d="M77 474h115v-474h-115v474zM-10 547v115h97v-115h-97zM182 547v115h97v-115h-97z" />
    <glyph glyph-name="eth" unicode="&#xf0;" horiz-adv-x="504" 
d="M434 723l50 -43l-51 -57q21 -29 21 -62v-456q0 -22 -8 -41t-22 -33.5t-33 -22.5t-41 -8h-184q-22 0 -41.5 8t-33.5 22.5t-22.5 33.5t-8.5 41v182q0 44 27.5 74.5t78.5 30.5q18 0 41 -4t46.5 -10t45.5 -13.5t40 -14.5v166l-59 -67l-51 44l60 68h-195v105h254q14 0 31 -5z
M339 220q0 23 -27 33q-9 3 -23.5 8.5t-30.5 10t-31.5 8t-24.5 3.5q-13 0 -20 -7.5t-7 -18.5v-126q0 -11 8 -18.5t19 -7.5h110q11 0 19 7.5t8 18.5v89z" />
    <glyph glyph-name="ntilde" unicode="&#xf1;" horiz-adv-x="525" 
d="M185 0h-115v474h110v-36q16 7 38.5 15t46.5 15t47.5 11.5t41.5 4.5q51 0 78.5 -30.5t27.5 -74.5v-379h-115v345q0 11 -7 18.5t-20 7.5q-9 0 -23.5 -3.5t-30 -8.5t-29.5 -10t-23 -8q-14 -5 -20.5 -16t-6.5 -24v-301zM303 623q7 -7 17 -7q8 0 17 9q3 3 7.5 8t9.5 10
q5 6 12 13l53 -48q-9 -9 -17 -18q-8 -8 -15.5 -16t-13.5 -14q-12 -12 -26.5 -19t-31.5 -7q-28 0 -52 19l-32 26q-8 6 -16 6t-16 -8l-10.5 -10.5l-10.5 -10.5q-6 -6 -11 -12l-53 49q7 9 16 18q7 8 15.5 16.5l16.5 16.5q25 27 57 27q29 0 51 -20z" />
    <glyph glyph-name="ograve" unicode="&#xf2;" 
d="M164 0q-22 0 -41 8t-33 22.5t-22 33.5t-8 41v264q0 22 8 41t22 33t33 22.5t41 8.5h190q22 0 41.5 -8.5t33.5 -22.5t22.5 -33t8.5 -41v-264q0 -22 -8.5 -41t-22.5 -33.5t-33.5 -22.5t-41.5 -8h-190v0zM345 343q0 11 -8 18.5t-19 7.5h-116q-11 0 -19 -7.5t-8 -18.5v-212
q0 -11 8 -18.5t19 -7.5h116q11 0 19 7.5t8 18.5v212zM124 640l53 62l126 -110l-52 -61z" />
    <glyph glyph-name="oacute" unicode="&#xf3;" 
d="M164 0q-22 0 -41 8t-33 22.5t-22 33.5t-8 41v264q0 22 8 41t22 33t33 22.5t41 8.5h190q22 0 41.5 -8.5t33.5 -22.5t22.5 -33t8.5 -41v-264q0 -22 -8.5 -41t-22.5 -33.5t-33.5 -22.5t-41.5 -8h-190v0zM345 343q0 11 -8 18.5t-19 7.5h-116q-11 0 -19 -7.5t-8 -18.5v-212
q0 -11 8 -18.5t19 -7.5h116q11 0 19 7.5t8 18.5v212zM267 531l-52 61l126 110l53 -62z" />
    <glyph glyph-name="ocircumflex" unicode="&#xf4;" 
d="M164 0q-22 0 -41 8t-33 22.5t-22 33.5t-8 41v264q0 22 8 41t22 33t33 22.5t41 8.5h190q22 0 41.5 -8.5t33.5 -22.5t22.5 -33t8.5 -41v-264q0 -22 -8.5 -41t-22.5 -33.5t-33.5 -22.5t-41.5 -8h-190v0zM345 343q0 11 -8 18.5t-19 7.5h-116q-11 0 -19 -7.5t-8 -18.5v-212
q0 -11 8 -18.5t19 -7.5h116q11 0 19 7.5t8 18.5v212zM260 705l147 -121l-46 -55l-101 83l-101 -83l-46 55z" />
    <glyph glyph-name="otilde" unicode="&#xf5;" 
d="M164 0q-22 0 -41 8t-33 22.5t-22 33.5t-8 41v264q0 22 8 41t22 33t33 22.5t41 8.5h190q22 0 41.5 -8.5t33.5 -22.5t22.5 -33t8.5 -41v-264q0 -22 -8.5 -41t-22.5 -33.5t-33.5 -22.5t-41.5 -8h-190v0zM345 343q0 11 -8 18.5t-19 7.5h-116q-11 0 -19 -7.5t-8 -18.5v-212
q0 -11 8 -18.5t19 -7.5h116q11 0 19 7.5t8 18.5v212zM296 623q7 -7 17 -7q8 0 17 9q3 3 7.5 8t9.5 10q5 6 12 13l53 -48q-9 -9 -17 -18q-8 -8 -15.5 -16t-13.5 -14q-12 -12 -26.5 -19t-31.5 -7q-28 0 -52 19l-32 26q-8 6 -16 6t-16 -8l-10.5 -10.5l-10.5 -10.5
q-6 -6 -11 -12l-53 49q7 9 16 18q7 8 15.5 16.5l16.5 16.5q25 27 57 27q29 0 51 -20z" />
    <glyph glyph-name="odieresis" unicode="&#xf6;" 
d="M164 0q-22 0 -41 8t-33 22.5t-22 33.5t-8 41v264q0 22 8 41t22 33t33 22.5t41 8.5h190q22 0 41.5 -8.5t33.5 -22.5t22.5 -33t8.5 -41v-264q0 -22 -8.5 -41t-22.5 -33.5t-33.5 -22.5t-41.5 -8h-190v0zM345 343q0 11 -8 18.5t-19 7.5h-116q-11 0 -19 -7.5t-8 -18.5v-212
q0 -11 8 -18.5t19 -7.5h116q11 0 19 7.5t8 18.5v212zM116 547v115h97v-115h-97zM308 547v115h97v-115h-97z" />
    <glyph glyph-name="divide" unicode="&#xf7;" horiz-adv-x="532" 
d="M201 0v136h130v-136h-130zM50 192v90h432v-90h-432zM201 338v136h130v-136h-130z" />
    <glyph glyph-name="oslash" unicode="&#xf8;" 
d="M93 27q-15 14 -24 34.5t-9 43.5v264q0 22 8 41t22 33t33 22.5t41 8.5h190q8 0 15 -1t14 -3l36 54l41 -27l-34 -51q16 -14 25 -34t9 -43v-264q0 -22 -8.5 -41t-22.5 -33.5t-33.5 -22.5t-41.5 -8h-190q-15 0 -28 3l-35 -53l-41 27zM175 152l142 217h-115q-11 0 -19 -7.5
t-8 -18.5v-191zM345 322l-143 -217h116q11 0 19 7.5t8 18.5v191z" />
    <glyph glyph-name="ugrave" unicode="&#xf9;" horiz-adv-x="525" 
d="M340 474h115v-474h-110v36q-17 -7 -39 -15t-46 -15t-47.5 -11.5t-41.5 -4.5q-51 0 -78.5 30.5t-27.5 74.5v379h115v-345q0 -11 7 -18.5t20 -7.5q9 0 23.5 3.5t30 8.5t29.5 10t23 8q14 5 20.5 16t6.5 24v301zM120 640l53 62l126 -110l-52 -61z" />
    <glyph glyph-name="uacute" unicode="&#xfa;" horiz-adv-x="525" 
d="M340 474h115v-474h-110v36q-17 -7 -39 -15t-46 -15t-47.5 -11.5t-41.5 -4.5q-51 0 -78.5 30.5t-27.5 74.5v379h115v-345q0 -11 7 -18.5t20 -7.5q9 0 23.5 3.5t30 8.5t29.5 10t23 8q14 5 20.5 16t6.5 24v301zM270 531l-52 61l126 110l53 -62z" />
    <glyph glyph-name="ucircumflex" unicode="&#xfb;" horiz-adv-x="525" 
d="M340 474h115v-474h-110v36q-17 -7 -39 -15t-46 -15t-47.5 -11.5t-41.5 -4.5q-51 0 -78.5 30.5t-27.5 74.5v379h115v-345q0 -11 7 -18.5t20 -7.5q9 0 23.5 3.5t30 8.5t29.5 10t23 8q14 5 20.5 16t6.5 24v301zM262 705l147 -121l-46 -55l-101 83l-101 -83l-46 55z" />
    <glyph glyph-name="udieresis" unicode="&#xfc;" horiz-adv-x="525" 
d="M340 474h115v-474h-110v36q-17 -7 -39 -15t-46 -15t-47.5 -11.5t-41.5 -4.5q-51 0 -78.5 30.5t-27.5 74.5v379h115v-345q0 -11 7 -18.5t20 -7.5q9 0 23.5 3.5t30 8.5t29.5 10t23 8q14 5 20.5 16t6.5 24v301zM117 547v115h97v-115h-97zM309 547v115h97v-115h-97z" />
    <glyph glyph-name="yacute" unicode="&#xfd;" horiz-adv-x="448" 
d="M113 -190l54 191l-157 473h119l95 -326l96 326h120l-216 -664h-111zM229 531l-52 61l126 110l53 -62z" />
    <glyph glyph-name="thorn" unicode="&#xfe;" 
d="M460 95q0 -44 -27.5 -74.5t-78.5 -30.5q-18 0 -40.5 4t-45 10.5t-44.5 14t-39 13.5v-222l-115 -20v876l115 20v-244q17 6 39 13.5t44.5 14t45 10.5t40.5 4q51 0 78.5 -30.5t27.5 -74.5v-284zM345 349q0 11 -7 18.5t-20 7.5q-9 0 -23.5 -3.5t-30 -8t-29.5 -10t-23 -8.5
q-27 -10 -27 -33v-150q0 -23 27 -33q9 -3 23 -8.5t29.5 -10t30 -8t23.5 -3.5q13 0 20 7.5t7 18.5v224z" />
    <glyph glyph-name="ydieresis" unicode="&#xff;" horiz-adv-x="448" 
d="M113 -190l54 191l-157 473h119l95 -326l96 326h120l-216 -664h-111zM86 547v115h97v-115h-97zM278 547v115h97v-115h-97z" />
    <glyph glyph-name="Delta" horiz-adv-x="786" 
d="M529 537l-229 -229v169h-82v-312h312l1 81l-168 1l228 227zM50 333q0 71 27 133.5t73.5 109t109 73.5t133.5 27t133.5 -27t109 -73.5t73.5 -109t27 -133.5t-27 -133.5t-73.5 -109t-109 -73.5t-133.5 -27t-133.5 27t-109 73.5t-73.5 109t-27 133.5z" />
    <glyph glyph-name="Omega" horiz-adv-x="786" 
d="M438 95v322l119 -118l56 58l-220 220l-220 -220l57 -58l120 120v-324h88zM393 676q71 0 133.5 -27t109 -73.5t73.5 -109t27 -133.5t-27 -133.5t-73.5 -109t-109 -73.5t-133.5 -27t-133.5 27t-109 73.5t-73.5 109t-27 133.5t27 133.5t73.5 109t109 73.5t133.5 27z" />
    <glyph glyph-name="apple" horiz-adv-x="816" 
d="M423 333v-333h-333v666h666v-333h-333z" />
    <glyph glyph-name="approxequal" horiz-adv-x="786" 
d="M257 129l229 229v-169h82v312h-312l-1 -81l168 -1l-228 -227zM736 333q0 -71 -27 -133.5t-73.5 -109t-109 -73.5t-133.5 -27t-133.5 27t-109 73.5t-73.5 109t-27 133.5t27 133.5t73.5 109t109 73.5t133.5 27t133.5 -27t109 -73.5t73.5 -109t27 -133.5z" />
    <glyph glyph-name="greaterequal" horiz-adv-x="592" 
d="M60 340h342l-118 119l58 56l220 -220l-220 -220l-58 57l120 120h-344v88z" />
    <glyph glyph-name="infinity" horiz-adv-x="786" 
d="M155 290h324l-120 -120l58 -57l220 220l-220 220l-58 -56l118 -119h-322v-88zM736 333q0 -71 -27 -133.5t-73.5 -109t-109 -73.5t-133.5 -27t-133.5 27t-109 73.5t-73.5 109t-27 133.5t27 133.5t73.5 109t109 73.5t133.5 27t133.5 -27t109 -73.5t73.5 -109t27 -133.5z
" />
    <glyph glyph-name="integral" horiz-adv-x="505" 
d="M45 342l243 243h-169v81h311v-311h-81v167l-242 -242z" />
    <glyph glyph-name="lessequal" horiz-adv-x="592" 
d="M532 252h-344l120 -120l-58 -57l-220 220l220 220l58 -56l-118 -119h342v-88z" />
    <glyph glyph-name="lozenge" horiz-adv-x="786" 
d="M195 474l228 -227l-168 -1l1 -81h312v312h-82v-169l-229 229zM736 333q0 -71 -27 -133.5t-73.5 -109t-109 -73.5t-133.5 -27t-133.5 27t-109 73.5t-73.5 109t-27 133.5t27 133.5t73.5 109t109 73.5t133.5 27t133.5 -27t109 -73.5t73.5 -109t27 -133.5z" />
    <glyph glyph-name="notequal" horiz-adv-x="786" 
d="M631 378h-322l118 119l-58 56l-220 -220l220 -220l58 57l-120 120h324v88zM50 333q0 71 27 133.5t73.5 109t109 73.5t133.5 27t133.5 -27t109 -73.5t73.5 -109t27 -133.5t-27 -133.5t-73.5 -109t-109 -73.5t-133.5 -27t-133.5 27t-109 73.5t-73.5 109t-27 133.5z" />
    <glyph glyph-name="partialdiff" horiz-adv-x="560" 
d="M237 174v344l-120 -120l-57 58l220 220l220 -220l-56 -58l-119 118v-342h-88z" />
    <glyph glyph-name="pi" horiz-adv-x="505" 
d="M398 280l-242 242v-167h-81v311h311v-81h-169l243 -243z" />
    <glyph glyph-name="product" horiz-adv-x="485" 
d="M87 386l242 -242v167h81v-311h-311v81h169l-243 243z" />
    <glyph glyph-name="radical" horiz-adv-x="786" 
d="M591 192l-228 227l168 1l-1 81h-312v-312h82v169l229 -229zM50 333q0 71 27 133.5t73.5 109t109 73.5t133.5 27t133.5 -27t109 -73.5t73.5 -109t27 -133.5t-27 -133.5t-73.5 -109t-109 -73.5t-133.5 -27t-133.5 27t-109 73.5t-73.5 109t-27 133.5z" />
    <glyph glyph-name="summation" horiz-adv-x="485" 
d="M460 324l-243 -243h169v-81h-311v311h81v-167l242 242z" />
    <glyph glyph-name="dotaccent" horiz-adv-x="324" 
d="M100 543v126h124v-126h-124z" />
    <glyph glyph-name="breve" horiz-adv-x="483" 
d="M383 673v-42q0 -20 -8 -38t-21.5 -31.5t-31.5 -21t-38 -7.5h-87q-41 0 -69 28.5t-28 69.5v42h78v-34q0 -17 10.5 -27.5t27.5 -10.5h51q16 0 27 10.5t11 27.5v34h78z" />
    </font>
</defs>
</svg>
