<?xml version="1.0" standalone="no"?>
<!DOCTYPE svg PUBLIC "-//W3C//DTD SVG 1.1//EN" "http://www.w3.org/Graphics/SVG/1.1/DTD/svg11.dtd" >
<svg xmlns="http://www.w3.org/2000/svg" xmlns:xlink="http://www.w3.org/1999/xlink" version="1.1">
<metadata>
Created by FontForge 20170731 at Wed Jun 30 12:47:18 2021
 By Aleksey,,,
Copyright (c) Mark Simonson, 2005. All rights reserved.
</metadata>
<defs>
<font id="ProximaNovaExCn-Regular" horiz-adv-x="774" >
  <font-face 
    font-family="Proxima Nova ExCn Rg"
    font-weight="400"
    font-stretch="normal"
    units-per-em="2048"
    panose-1="2 0 5 6 3 0 0 2 0 4"
    ascent="1618"
    descent="-430"
    x-height="989"
    cap-height="1366"
    bbox="-205 -553 1661 1815"
    underline-thickness="40"
    underline-position="-312"
    unicode-range="U+0020-FB04"
  />
<missing-glyph horiz-adv-x="976" 
d="M848 -184h-719v1724h719v-1724zM782 -123v1602h-589v-1602h589z" />
    <glyph glyph-name="f_f_j" unicode="ffj" horiz-adv-x="1286" 
d="M285 0h-142v866h-96v123h96v164q0 109 55 171t156 62q90 0 142 -55l-50 -110q-30 41 -71 41q-90 0 -90 -109v-164h133v-123h-133v-866zM743 0h-141v866h-96v123h96v164q0 107 54 170t141 63q63 0 106 -28l-35 -111q-15 15 -43 15q-37 0 -59.5 -29.5t-22.5 -79.5v-164h134
v-123h-134v-866zM1102 1135q-39 0 -67.5 28.5t-28.5 67.5t28.5 67.5t67.5 28.5q40 0 69 -28t29 -68t-29 -68t-69 -28zM973 -401q-81 0 -121 63l55 100q18 -38 58 -38q33 0 50 29t17 102v1134h139v-1134q0 -135 -49 -195.5t-149 -60.5z" />
    <glyph glyph-name="f_j" unicode="fj" horiz-adv-x="827" 
d="M285 0h-142v866h-96v123h96v164q0 107 54 170t141 63q63 0 106 -28l-34 -111q-15 15 -43 15q-37 0 -59.5 -29.5t-22.5 -79.5v-164h133v-123h-133v-866zM643 1135q-39 0 -67.5 28.5t-28.5 67.5t28.5 67.5t67.5 28.5q40 0 69 -28t29 -68t-29 -68t-69 -28zM514 -401
q-81 0 -121 63l56 100q18 -38 57 -38q33 0 50 29t17 102v1134h140v-1134q0 -135 -49 -195.5t-150 -60.5z" />
    <glyph glyph-name="f_f" unicode="ff" horiz-adv-x="917" 
d="M285 0h-142v866h-96v123h96v164q0 109 55 171t156 62q90 0 142 -55l-50 -110q-30 41 -71 41q-90 0 -90 -109v-164h133v-123h-133v-866zM743 0h-141v866h-96v123h96v164q0 109 55 171t156 62q89 0 141 -55l-49 -110q-30 41 -71 41q-45 0 -68 -28.5t-23 -80.5v-164h134
v-123h-134v-866z" />
    <glyph glyph-name="fi" unicode="fi" horiz-adv-x="827" 
d="M285 0h-142v866h-96v123h96v164q0 107 54 170t141 63q63 0 106 -28l-34 -111q-15 15 -43 15q-37 0 -59.5 -29.5t-22.5 -79.5v-164h133v-123h-133v-866zM643 1135q-39 0 -67.5 28.5t-28.5 67.5t28.5 67.5t67.5 28.5q40 0 69 -28t29 -68t-29 -68t-69 -28zM713 0h-140v989
h140v-989z" />
    <glyph glyph-name="fl" unicode="fl" horiz-adv-x="827" 
d="M285 0h-142v866h-96v123h96v164q0 107 54 170t141 63q63 0 106 -28l-34 -111q-15 15 -43 15q-37 0 -59.5 -29.5t-22.5 -79.5v-164h133v-123h-133v-866zM713 0h-140v1366h140v-1366z" />
    <glyph glyph-name="f_f_i" unicode="ffi" horiz-adv-x="1286" 
d="M285 0h-142v866h-96v123h96v164q0 109 55 171t156 62q90 0 142 -55l-50 -110q-30 41 -71 41q-90 0 -90 -109v-164h133v-123h-133v-866zM743 0h-141v866h-96v123h96v164q0 107 54 170t141 63q63 0 106 -28l-35 -111q-15 15 -43 15q-37 0 -59.5 -29.5t-22.5 -79.5v-164h134
v-123h-134v-866zM1102 1135q-39 0 -67.5 28.5t-28.5 67.5t28.5 67.5t67.5 28.5q40 0 69 -28t29 -68t-29 -68t-69 -28zM1171 0h-139v989h139v-989z" />
    <glyph glyph-name="f_f_l" unicode="ffl" horiz-adv-x="1286" 
d="M285 0h-142v866h-96v123h96v164q0 109 55 171t156 62q90 0 142 -55l-50 -110q-30 41 -71 41q-90 0 -90 -109v-164h133v-123h-133v-866zM743 0h-141v866h-96v123h96v164q0 107 54 170t141 63q63 0 106 -28l-35 -111q-15 15 -43 15q-37 0 -59.5 -29.5t-22.5 -79.5v-164h134
v-123h-134v-866zM1171 0h-139v1366h139v-1366z" />
    <glyph glyph-name="f_b" unicode="fb" horiz-adv-x="1245" 
d="M285 0h-142v866h-96v123h96v164q0 107 54 170t141 63q63 0 106 -28l-34 -111q-15 15 -43 15q-37 0 -59.5 -29.5t-22.5 -79.5v-164h133v-123h-133v-866zM713 264q19 -67 62 -115.5t89 -48.5q158 0 158 394q0 395 -158 395q-46 0 -89 -49.5t-62 -118.5v-457zM713 0h-140
v1366h140v-514q29 80 80 121t106 41q90 0 152 -68.5t90 -183.5t28 -268q0 -238 -68 -378.5t-202 -140.5q-52 0 -103 42.5t-83 115.5v-133z" />
    <glyph glyph-name="f_h" unicode="fh" horiz-adv-x="1232" 
d="M285 0h-142v866h-96v123h96v164q0 107 54 170t141 63q63 0 106 -28l-34 -111q-15 15 -43 15q-37 0 -59.5 -29.5t-22.5 -79.5v-164h133v-123h-133v-866zM1118 0h-139v762q0 127 -94 127q-54 0 -100.5 -47.5t-71.5 -114.5v-727h-140v1366h140v-516q34 69 95 116.5t126 47.5
q97 0 140.5 -52.5t43.5 -162.5v-799z" />
    <glyph glyph-name="f_k" unicode="fk" horiz-adv-x="1198" 
d="M285 0h-142v866h-96v123h96v164q0 107 54 170t141 63q63 0 106 -28l-34 -111q-15 15 -43 15q-37 0 -59.5 -29.5t-22.5 -79.5v-164h133v-123h-133v-866zM1167 0h-153l-187 449l-114 -197v-252h-140v1366h140v-924l303 547h151l-249 -442z" />
    <glyph glyph-name=".notdef" horiz-adv-x="976" 
d="M848 -184h-719v1724h719v-1724zM782 -123v1602h-589v-1602h589z" />
    <glyph glyph-name=".null" horiz-adv-x="0" 
 />
    <glyph glyph-name="nonmarkingreturn" horiz-adv-x="682" 
 />
    <glyph glyph-name="space" unicode=" " horiz-adv-x="350" 
 />
    <glyph glyph-name="exclam" unicode="!" horiz-adv-x="464" 
d="M291 375h-117l-31 991h176zM231 -20q-43 0 -74.5 31.5t-31.5 74.5t31.5 73.5t74.5 30.5q44 0 75.5 -30.5t31.5 -73.5t-31.5 -74.5t-75.5 -31.5z" />
    <glyph glyph-name="quotedbl" unicode="&#x22;" horiz-adv-x="688" 
d="M236 852h-72q-51 417 -51 446q0 36 26 62t62 26t62 -26t26 -62q0 -13 -13.5 -124.5t-26.5 -216.5zM524 852h-71q-54 417 -54 446q0 37 25.5 62.5t62.5 25.5t62.5 -25.5t25.5 -62.5z" />
    <glyph glyph-name="numbersign" unicode="#" horiz-adv-x="866" 
d="M461 0h-117l90 375h-145l-86 -375h-117l88 375h-139l22 100h142l96 416h-141l20 100h143l86 375h117l-86 -375h144l86 375h114l-86 -375h139l-20 -100h-143l-97 -416h146l-23 -100h-147zM455 475l98 416h-143l-97 -416h142z" />
    <glyph glyph-name="dollar" unicode="$" horiz-adv-x="702" 
d="M317 -205v180q-169 6 -276 125l78 123q35 -49 88 -77.5t110 -30.5v520q-40 35 -58.5 52t-53.5 52.5t-52 63.5t-37.5 68t-29 85t-8.5 97q0 123 66 212.5t173 114.5v193h115v-187q120 -12 205 -94l-68 -118q-58 61 -137 73v-485q41 -37 67 -63t60 -68.5t53 -83t33 -96
t14 -117.5q0 -127 -61.5 -220t-165.5 -124v-195h-115zM236 1059q0 -101 81 -189v357q-81 -51 -81 -168zM504 326q0 105 -72 194v-368q72 62 72 174z" />
    <glyph glyph-name="percent" unicode="%" horiz-adv-x="1167" 
d="M307 713q-112 0 -180 95.5t-68 240.5q0 147 68 242t180 95t179 -94.5t67 -242.5q0 -146 -67 -241t-179 -95zM344 0h-82l559 1366h86zM860 -25q-112 0 -179 94.5t-67 239.5q0 148 67 244t179 96t180 -96t68 -244q0 -145 -68 -239.5t-180 -94.5zM307 811q64 0 101.5 67.5
t37.5 170.5q0 104 -37.5 172.5t-101.5 68.5t-102.5 -68.5t-38.5 -172.5q0 -103 38.5 -170.5t102.5 -67.5zM860 72q65 0 102 67.5t37 169.5q0 106 -36.5 174t-102.5 68q-64 0 -101.5 -68t-37.5 -174q0 -102 37.5 -169.5t101.5 -67.5z" />
    <glyph glyph-name="ampersand" unicode="&#x26;" horiz-adv-x="817" 
d="M807 0h-158q-25 39 -71 121q-102 -146 -240 -146q-116 0 -188 96t-72 261q0 97 28.5 179t65 132.5t92.5 106.5q-71 190 -71 303q0 152 59 242.5t160 90.5q84 0 143 -75t59 -189q0 -66 -15 -121.5t-45 -102t-58.5 -79.5t-70.5 -77q-6 -5 -9.5 -9t-7.5 -8q39 -101 84 -186
q75 -147 81 -158q36 115 70 283l119 -52q-49 -222 -115 -362q69 -114 160 -250zM358 94q83 0 156 139q-73 129 -111 209q-37 71 -86 181q-96 -126 -96 -285q0 -115 39 -179.5t98 -64.5zM326 1053q0 -92 36 -205q63 64 96.5 127t33.5 145q0 77 -23 116.5t-57 39.5
q-45 0 -65.5 -52.5t-20.5 -170.5z" />
    <glyph glyph-name="quotesingle" unicode="'" horiz-adv-x="399" 
d="M236 852h-72q-51 417 -51 446q0 36 26 62t62 26t62 -26t26 -62q0 -13 -13.5 -124.5t-26.5 -216.5z" />
    <glyph glyph-name="parenleft" unicode="(" horiz-adv-x="428" 
d="M389 -365l-98 -43q-195 428 -195 906q0 477 195 905l98 -41q-68 -210 -102.5 -414t-34.5 -450q0 -245 34.5 -450t102.5 -413z" />
    <glyph glyph-name="parenright" unicode=")" horiz-adv-x="428" 
d="M39 -365l96 -43q197 426 197 906q0 479 -197 905l-96 -41q68 -210 102.5 -414t34.5 -450q0 -245 -34.5 -450t-102.5 -413z" />
    <glyph glyph-name="asterisk" unicode="*" horiz-adv-x="620" 
d="M354 803h-88l13 237l-199 -129l-45 76l211 109l-211 106l45 76l199 -127l-13 235h88l-12 -235l199 127l45 -76l-211 -106l211 -109l-45 -76l-199 129z" />
    <glyph glyph-name="plus" unicode="+" 
d="M715 641h-273v-317h-110v317h-273v100h273v303h110v-303h273v-100z" />
    <glyph glyph-name="comma" unicode="," horiz-adv-x="466" 
d="M348 43q0 -89 -45 -169t-115 -130l-71 57q50 34 86.5 88t40.5 103l-9 -2q-9 -2 -14 -2q-41 0 -67.5 28.5t-26.5 71.5q0 42 29 72t73 30q50 0 84.5 -39.5t34.5 -107.5z" />
    <glyph glyph-name="hyphen" unicode="-" horiz-adv-x="481" 
d="M420 434h-359v123h359v-123z" />
    <glyph glyph-name="period" unicode="." horiz-adv-x="464" 
d="M231 -20q-43 0 -73.5 31.5t-30.5 74.5t30.5 73.5t73.5 30.5q44 0 75.5 -30.5t31.5 -73.5t-31.5 -74.5t-75.5 -31.5z" />
    <glyph glyph-name="slash" unicode="/" horiz-adv-x="409" 
d="M109 -41h-109l301 1448h109z" />
    <glyph glyph-name="zero" unicode="0" horiz-adv-x="843" 
d="M424 -25q-77 0 -137 43t-96.5 112.5t-60.5 164.5t-33 189.5t-9 197.5q0 104 9 198.5t33 189t60.5 163t96.5 111t137 42.5q76 0 135.5 -42.5t96 -111t60.5 -163t33 -189t9 -198.5q0 -85 -6.5 -164.5t-21 -161.5t-40 -149t-61.5 -120t-88.5 -82.5t-116.5 -29.5zM424 115
q46 0 79.5 35t51 86.5t28 133.5t13 150.5t2.5 161.5q0 77 -2 135t-7.5 128.5t-17.5 120t-30.5 93t-48 66t-68.5 22.5t-68.5 -22.5t-48.5 -66t-31 -93.5t-18 -119.5t-8 -128.5t-2 -135q0 -57 1 -100.5t3.5 -98.5t8 -96.5t14 -86t22 -76t31 -57.5t42 -39t54.5 -13z" />
    <glyph glyph-name="one" unicode="1" horiz-adv-x="598" 
d="M469 0h-154v1161l-204 -217l-93 96l314 326h137v-1366z" />
    <glyph glyph-name="two" unicode="2" horiz-adv-x="800" 
d="M711 0h-607v129q206 329 296.5 491t119.5 246.5t29 173.5q0 90 -43.5 148.5t-112.5 58.5q-131 0 -205 -170l-110 86q61 113 134.5 168t186.5 55q141 0 225.5 -95t84.5 -249q0 -93 -31.5 -191.5t-117 -261.5t-259.5 -452h410v-137z" />
    <glyph glyph-name="three" unicode="3" horiz-adv-x="798" 
d="M383 -25q-110 0 -195 65t-129 165l115 84q76 -174 205 -174q176 0 176 264q0 72 -17 124.5t-45.5 79t-58.5 38.5t-63 12q-60 0 -76 -2v141q16 -2 72 -2q79 0 126.5 60t47.5 174q0 243 -162 243q-125 0 -193 -160l-112 78q46 106 129.5 163.5t181.5 57.5
q142 0 226.5 -89.5t84.5 -272.5q0 -110 -52 -200t-140 -117q88 -21 147.5 -115.5t59.5 -222.5q0 -178 -84 -286t-244 -108z" />
    <glyph glyph-name="four" unicode="4" horiz-adv-x="749" 
d="M612 0h-153v354h-430v142l399 870h184v-874h109v-138h-109v-354zM459 492v679l-299 -679h299z" />
    <glyph glyph-name="five" unicode="5" horiz-adv-x="804" 
d="M397 -25q-119 0 -192 58t-127 172l112 82q34 -87 81 -129.5t120 -42.5q54 0 94.5 44t60 112t19.5 147q0 305 -157 305q-55 0 -95 -28.5t-84 -100.5l-118 41v731h559v-137h-404v-484q30 52 79 83.5t108 31.5q125 0 198.5 -114.5t73.5 -325.5q0 -120 -38.5 -220.5
t-114.5 -162.5t-175 -62z" />
    <glyph glyph-name="six" unicode="6" horiz-adv-x="802" 
d="M424 -25q-96 0 -164.5 59t-104.5 163.5t-51.5 222.5t-15.5 262q0 94 8 178.5t25.5 164.5t46.5 145t69 114t95.5 75.5t122.5 26.5q84 0 152.5 -47t105.5 -129l-92 -102q-28 69 -66 104t-96 35q-61 0 -104.5 -50.5t-66 -135.5t-32.5 -176t-10 -193v-28q30 83 86 136.5
t131 53.5q118 0 193 -113t75 -323q0 -118 -32.5 -216t-104 -162.5t-170.5 -64.5zM418 115q42 0 73 25t48 69t24.5 94.5t7.5 110.5q0 305 -151 305q-109 0 -172 -213q6 -391 170 -391z" />
    <glyph glyph-name="seven" unicode="7" horiz-adv-x="675" 
d="M319 0h-163l309 1229h-422v137h590v-106z" />
    <glyph glyph-name="eight" unicode="8" horiz-adv-x="800" 
d="M399 -25q-154 0 -236.5 94t-82.5 259q0 123 66.5 227.5t148.5 149.5q-78 42 -139.5 133t-61.5 209q0 164 86.5 251.5t218.5 87.5q134 0 221 -87.5t87 -251.5q0 -117 -62 -208.5t-139 -133.5q81 -46 148 -149.5t67 -225.5q0 -166 -83.5 -260.5t-238.5 -94.5zM399 760
q13 5 34.5 22.5t49 48.5t47 82.5t19.5 110.5q0 105 -38 164t-112 59q-72 0 -110.5 -59t-38.5 -164q0 -59 19.5 -110.5t47 -82.5t48.5 -48t34 -23zM399 115q73 0 118.5 60.5t45.5 172.5q0 63 -21 121.5t-50 94t-54 57t-39 24.5q-14 -3 -39 -24.5t-53 -57.5t-48.5 -94.5
t-20.5 -122.5q0 -111 44 -171t117 -60z" />
    <glyph glyph-name="nine" unicode="9" horiz-adv-x="802" 
d="M348 -23q-84 0 -152.5 47.5t-105.5 129.5l94 102q26 -69 64.5 -104t97.5 -35t102 49.5t65.5 133.5t33 176t10.5 194v30q-28 -83 -84 -136.5t-131 -53.5q-119 0 -194.5 113t-75.5 323q0 118 32.5 216t104 162.5t170.5 64.5q78 0 138 -40t97 -106t61 -160t33 -191t9 -210
q0 -143 -19.5 -264t-61 -223t-115 -160t-173.5 -58zM383 645q109 0 172 213q-6 391 -168 391q-43 0 -74.5 -25t-48.5 -69t-25 -94.5t-8 -110.5q0 -305 152 -305z" />
    <glyph glyph-name="colon" unicode=":" horiz-adv-x="462" 
d="M231 793q-42 0 -73 31t-31 73q0 43 31 75t73 32q44 0 75.5 -32t31.5 -75q0 -42 -31.5 -73t-75.5 -31zM231 -20q-43 0 -73.5 31.5t-30.5 74.5t30.5 73.5t73.5 30.5q44 0 75.5 -30.5t31.5 -73.5t-31.5 -74.5t-75.5 -31.5z" />
    <glyph glyph-name="semicolon" unicode=";" horiz-adv-x="464" 
d="M231 793q-42 0 -73 31t-31 73q0 44 30.5 75.5t73.5 31.5q44 0 75.5 -31.5t31.5 -75.5q0 -42 -31.5 -73t-75.5 -31zM348 45q0 -89 -45 -169t-115 -130l-71 59q50 32 86.5 87t40.5 104q-4 -4 -23 -4q-41 0 -67.5 27.5t-26.5 70.5t29 74t73 31q49 0 84 -41t35 -109z" />
    <glyph glyph-name="less" unicode="&#x3c;" 
d="M715 330l-656 305v100l656 305v-120l-531 -236l531 -233v-121z" />
    <glyph glyph-name="equal" unicode="=" 
d="M715 834h-656v100h656v-100zM715 434h-656v101h656v-101z" />
    <glyph glyph-name="greater" unicode="&#x3e;" 
d="M715 635l-656 -305v121l531 233l-531 236v120l656 -305v-100z" />
    <glyph glyph-name="question" unicode="?" horiz-adv-x="641" 
d="M274 375q-53 71 -53 172q0 67 22.5 125t54.5 101.5t63.5 86t54 97.5t22.5 118q0 68 -43 123t-110 55q-42 0 -73.5 -16.5t-64.5 -52.5l-69 102q93 103 235 103q121 0 200 -83.5t79 -205.5q0 -75 -24.5 -141t-59.5 -114.5t-70 -93.5t-59.5 -99t-24.5 -111q0 -60 41 -111z
M328 -20q-44 0 -75.5 31.5t-31.5 74.5t31.5 73.5t75.5 30.5q43 0 73.5 -30.5t30.5 -73.5t-30.5 -74.5t-73.5 -31.5z" />
    <glyph glyph-name="at" unicode="@" horiz-adv-x="1226" 
d="M539 -143q-213 0 -340 157.5t-127 425.5q0 130 35 259.5t98.5 238t146.5 192.5t186 131.5t210 47.5q184 0 295.5 -134t111.5 -368q0 -174 -44 -321.5t-113.5 -229.5t-145.5 -82q-66 0 -106.5 39.5t-45.5 103.5l-2 15q-97 -158 -221 -158q-35 0 -66.5 13t-59 40.5
t-44 78.5t-16.5 120q0 104 27 209.5t74.5 192t119.5 140.5t154 54q58 0 95 -41t52 -107l23 115h129l-121 -569q-6 -30 -6 -47q0 -54 14 -75.5t47 -21.5q23 0 54 36t61 99.5t50.5 169t20.5 226.5q0 208 -93 320t-247 112q-158 0 -298 -117t-221 -301t-81 -379
q0 -237 109 -377.5t293 -140.5q145 0 280 115l35 -53q-154 -129 -323 -129zM526 281q32 0 60.5 13.5t53.5 41t40.5 49.5t38.5 59l72 332q-11 60 -37.5 101t-73.5 41q-58 0 -107.5 -48t-80 -121t-47.5 -154t-17 -153q0 -161 98 -161z" />
    <glyph glyph-name="A" unicode="A" horiz-adv-x="745" 
d="M731 0h-160l-53 313h-293l-53 -313h-158l269 1366h178zM500 451l-127 731l-127 -731h254z" />
    <glyph glyph-name="B" unicode="B" horiz-adv-x="825" 
d="M436 0h-307v1366h295q142 0 218.5 -94t76.5 -254q0 -250 -178 -313q87 -15 141.5 -112t54.5 -224q0 -172 -74.5 -270.5t-226.5 -98.5zM393 768q166 0 166 229q0 232 -166 232h-110v-461h110zM401 137q177 0 177 248q0 105 -44.5 175.5t-132.5 70.5h-118v-494h118z" />
    <glyph glyph-name="C" unicode="C" horiz-adv-x="798" 
d="M444 -25q-93 0 -163 54t-111.5 151.5t-61.5 223t-20 278.5t20 278.5t61.5 223t111.5 151.5t163 54q62 0 111 -22t82 -63t53 -82.5t37 -95.5l-127 -49q-27 88 -61.5 130t-94.5 42q-52 0 -90.5 -42.5t-61 -121t-33.5 -178.5t-11 -225t11 -225t33.5 -178.5t61 -121
t90.5 -42.5q67 0 103 54t57 153l129 -48q-71 -299 -289 -299z" />
    <glyph glyph-name="D" unicode="D" horiz-adv-x="874" 
d="M389 0h-260v1366h258q104 0 182.5 -51t125.5 -144.5t70 -215.5t23 -273q0 -153 -22.5 -275t-69.5 -214.5t-125 -142.5t-182 -50zM389 137q123 0 180.5 144.5t57.5 400.5q0 257 -57.5 402t-180.5 145h-106v-1092h106z" />
    <glyph glyph-name="E" unicode="E" horiz-adv-x="720" 
d="M637 0h-508v1366h508v-137h-354v-461h340v-137h-340v-494h354v-137z" />
    <glyph glyph-name="F" unicode="F" horiz-adv-x="718" 
d="M283 0h-154v1366h508v-137h-354v-461h340v-137h-340v-631z" />
    <glyph glyph-name="G" unicode="G" horiz-adv-x="841" 
d="M444 -25q-121 0 -202 91t-117.5 246.5t-36.5 369.5q0 215 36.5 370.5t117.5 246t202 90.5q112 0 181 -72.5t102 -190.5l-127 -49q-26 86 -60.5 129t-95.5 43q-99 0 -147.5 -150t-48.5 -417q0 -266 48.5 -416.5t147.5 -150.5t148 84v358h-182v137h321v-555
q-105 -164 -287 -164z" />
    <glyph glyph-name="H" unicode="H" horiz-adv-x="892" 
d="M764 0h-154v633h-327v-633h-154v1366h154v-594h327v594h154v-1366z" />
    <glyph glyph-name="I" unicode="I" horiz-adv-x="411" 
d="M283 0h-154v1366h154v-1366z" />
    <glyph glyph-name="J" unicode="J" horiz-adv-x="657" 
d="M231 -25q-131 0 -217 95l60 123q56 -78 143 -78q160 0 160 182v1069h153v-1075q0 -160 -80 -238t-219 -78z" />
    <glyph glyph-name="K" unicode="K" horiz-adv-x="856" 
d="M834 0h-179l-280 592l-92 -176v-416h-154v1366h154v-711l350 711h174l-346 -649z" />
    <glyph glyph-name="L" unicode="L" horiz-adv-x="681" 
d="M637 0h-508v1366h154v-1229h354v-137z" />
    <glyph glyph-name="M" unicode="M" horiz-adv-x="1142" 
d="M1014 0h-152v1071l-260 -1071h-61l-258 1071v-1071h-154v1366h209l233 -963l238 963h205v-1366z" />
    <glyph glyph-name="N" unicode="N" horiz-adv-x="892" 
d="M764 0h-148l-333 995v-995h-154v1366h154l327 -975v975h154v-1366z" />
    <glyph glyph-name="O" unicode="O" horiz-adv-x="888" 
d="M444 -25q-95 0 -165 55t-111 153.5t-60.5 223t-19.5 275.5t19.5 275.5t60.5 223t111 153.5t165 55t165 -55t111.5 -153.5t61 -223t19.5 -275.5t-19.5 -275.5t-61 -223t-111.5 -153.5t-165 -55zM444 115q53 0 92 45t61.5 125t33 179t10.5 218q0 121 -10.5 220t-33 178.5
t-61.5 124t-92 44.5t-92 -44t-61 -124.5t-32.5 -179t-10.5 -219.5q0 -120 10.5 -218.5t32.5 -178.5t61 -125t92 -45z" />
    <glyph glyph-name="P" unicode="P" horiz-adv-x="792" 
d="M283 0h-154v1366h281q82 0 145.5 -33t102 -90t58 -129.5t19.5 -155.5q0 -84 -19.5 -156.5t-58 -129t-102 -89t-145.5 -32.5h-127v-551zM395 688q88 0 134 73.5t46 196.5t-46 197t-134 74h-112v-541h112z" />
    <glyph glyph-name="Q" unicode="Q" horiz-adv-x="888" 
d="M444 -25q-95 0 -165 55t-111 153.5t-60.5 223t-19.5 275.5t19.5 275.5t60.5 223t111 153.5t165 55t165 -55t111.5 -153.5t61 -223t19.5 -275.5q0 -442 -154 -616l35 -93l-115 -45l-24 66q-49 -19 -99 -19zM444 115q30 0 48 10l-117 303l117 45l90 -235q59 143 59 444
q0 121 -10.5 220t-33 178.5t-61.5 124t-92 44.5t-92 -44t-61 -124.5t-32.5 -179t-10.5 -219.5q0 -120 10.5 -218.5t32.5 -178.5t61 -125t92 -45z" />
    <glyph glyph-name="R" unicode="R" horiz-adv-x="837" 
d="M748 0h-168l-177 551h-120v-551h-154v1366h285q143 0 232 -109t89 -294q0 -86 -17 -155.5t-46 -113t-60 -70t-65 -40.5zM395 688q88 0 134 73.5t46 196.5t-46 197t-134 74h-112v-541h112z" />
    <glyph glyph-name="S" unicode="S" horiz-adv-x="724" 
d="M334 -25q-177 0 -293 125l78 123q36 -50 93 -79t116 -29q75 0 125.5 58.5t50.5 152.5q0 63 -23.5 117t-61 95t-83 80.5t-91 82t-83 90.5t-61 115t-23.5 147q0 145 88.5 240.5t224.5 95.5q149 0 246 -97l-68 -118q-69 75 -174 75q-67 0 -113 -52.5t-46 -137.5
q0 -54 23.5 -102.5t60.5 -88t82 -79t90.5 -84.5t82.5 -96t60.5 -122t23.5 -153q0 -157 -89.5 -258t-235.5 -101z" />
    <glyph glyph-name="T" unicode="T" horiz-adv-x="661" 
d="M408 0h-156v1229h-215v137h588v-137h-217v-1229z" />
    <glyph glyph-name="U" unicode="U" horiz-adv-x="894" 
d="M446 -25q-143 0 -230 94t-87 283v1014h154v-1020q0 -233 163 -233q166 0 166 233v1020h154v-1014q0 -189 -87.5 -283t-232.5 -94z" />
    <glyph glyph-name="V" unicode="V" horiz-adv-x="745" 
d="M461 0h-178l-269 1366h158l201 -1161l198 1161h160z" />
    <glyph glyph-name="W" unicode="W" horiz-adv-x="1122" 
d="M868 0h-163l-144 1055l-143 -1055h-162l-219 1366h160l145 -1087l154 1087h131l155 -1087l144 1087h159z" />
    <glyph glyph-name="X" unicode="X" horiz-adv-x="753" 
d="M748 0h-173l-198 551l-199 -551h-170l281 694l-266 672h172l182 -528l182 528h172l-266 -670z" />
    <glyph glyph-name="Y" unicode="Y" horiz-adv-x="761" 
d="M459 0h-156v580l-305 786h166l217 -629l219 629h164l-305 -786v-580z" />
    <glyph glyph-name="Z" unicode="Z" horiz-adv-x="696" 
d="M629 0h-561v135l376 1094h-376v137h546v-129l-381 -1100h396v-137z" />
    <glyph glyph-name="bracketleft" unicode="[" horiz-adv-x="372" 
d="M336 -389h-264v1778h264v-105h-154v-1569h154v-104z" />
    <glyph glyph-name="backslash" unicode="\" horiz-adv-x="409" 
d="M303 -41l-301 1448h109l301 -1448h-109z" />
    <glyph glyph-name="bracketright" unicode="]" horiz-adv-x="372" 
d="M301 -389h-266v104h155v1569h-155v105h266v-1778z" />
    <glyph glyph-name="asciicircum" unicode="^" horiz-adv-x="675" 
d="M637 682h-113l-186 563l-186 -563h-113l246 684h106z" />
    <glyph glyph-name="underscore" unicode="_" horiz-adv-x="571" 
d="M578 -186h-584v104h584v-104z" />
    <glyph glyph-name="grave" unicode="`" horiz-adv-x="299" 
d="M299 1139h-94l-205 295h139z" />
    <glyph glyph-name="grave" unicode="&#x2cb;" horiz-adv-x="299" 
d="M299 1139h-94l-205 295h139z" />
    <glyph glyph-name="a" unicode="a" horiz-adv-x="768" 
d="M653 0h-139v104q-32 -65 -84 -97t-108 -32q-115 0 -184.5 91t-69.5 239q0 147 69.5 236.5t184.5 89.5q56 0 108 -30t84 -93v170q0 107 -35.5 161t-118.5 54q-103 0 -194 -105l-60 101q58 64 131 94.5t146 30.5q137 0 203.5 -76t66.5 -233v-705zM360 78q110 0 154 123v200
q-45 127 -154 127q-73 0 -111 -64t-38 -161t38 -161t111 -64z" />
    <glyph glyph-name="b" unicode="b" horiz-adv-x="786" 
d="M254 264q19 -67 62.5 -115.5t89.5 -48.5q157 0 157 394q0 395 -157 395q-46 0 -89.5 -50t-62.5 -118v-457zM254 0h-139v1366h139v-514q29 80 80 121t106 41q134 0 202.5 -142.5t68.5 -377.5q0 -155 -28.5 -269.5t-90.5 -182t-152 -67.5q-52 0 -103 42.5t-83 115.5v-133z
" />
    <glyph glyph-name="c" unicode="c" horiz-adv-x="649" 
d="M401 -25q-154 0 -238.5 146t-84.5 375t84.5 373.5t238.5 144.5q120 0 203 -90l-57 -107q-58 72 -127 72q-68 0 -114 -57.5t-64.5 -142.5t-18.5 -193q0 -79 11 -148t33.5 -125.5t61.5 -89.5t91 -33q71 0 127 72l57 -106q-75 -91 -203 -91z" />
    <glyph glyph-name="d" unicode="d" horiz-adv-x="786" 
d="M672 0h-140v133q-32 -73 -83 -115.5t-103 -42.5q-134 0 -201 140.5t-67 378.5q0 154 27.5 268t89 183t151.5 69q55 0 106 -41t80 -121v514h140v-1366zM381 100q46 0 89.5 49t61.5 115v459q-18 67 -61.5 116.5t-89.5 49.5q-158 0 -158 -395q0 -394 158 -394z" />
    <glyph glyph-name="e" unicode="e" horiz-adv-x="763" 
d="M420 -25q-168 0 -255 143t-87 378q0 148 32 262t104 185t177 71q65 0 117 -26.5t87 -73t58 -112.5t33 -141.5t10 -162.5v-49h-479q2 -164 56 -260.5t157 -96.5q45 0 88.5 31.5t75.5 89.5l82 -76q-47 -76 -113 -119t-143 -43zM557 553q0 64 -7.5 120.5t-25.5 109t-53 83.5
t-84 31t-84 -33t-52.5 -87.5t-25.5 -109.5t-8 -114h340z" />
    <glyph glyph-name="f" unicode="f" horiz-adv-x="458" 
d="M285 0h-142v866h-96v123h96v164q0 109 55 171t156 62q90 0 142 -55l-50 -110q-30 41 -71 41q-90 0 -90 -109v-164h133v-123h-133v-866z" />
    <glyph glyph-name="g" unicode="g" horiz-adv-x="786" 
d="M365 -401q-164 0 -263 102l58 115q38 -41 89 -66.5t103 -25.5q85 0 132.5 58.5t47.5 178.5v189q-32 -74 -83 -118t-103 -44q-91 0 -152 66t-88.5 178.5t-27.5 267.5q0 235 67 374.5t201 139.5q55 0 106 -41t80 -121v137h140v-1028q0 -189 -84 -275.5t-223 -86.5zM381 113
q46 0 89.5 50t61.5 118v442q-18 67 -61.5 116.5t-89.5 49.5q-158 0 -158 -389q0 -387 158 -387z" />
    <glyph glyph-name="h" unicode="h" 
d="M659 0h-139v762q0 127 -94 127q-54 0 -100.5 -47.5t-71.5 -114.5v-727h-139v1366h139v-516q34 69 95 116.5t126 47.5q97 0 140.5 -52.5t43.5 -162.5v-799z" />
    <glyph glyph-name="i" unicode="i" horiz-adv-x="368" 
d="M184 1135q-39 0 -67.5 28.5t-28.5 67.5t28.5 67.5t67.5 28.5q40 0 69.5 -28.5t29.5 -67.5t-29.5 -67.5t-69.5 -28.5zM254 0h-139v989h139v-989z" />
    <glyph glyph-name="j" unicode="j" horiz-adv-x="368" 
d="M184 1135q-39 0 -67.5 28.5t-28.5 67.5t28.5 67.5t67.5 28.5q40 0 69.5 -28.5t29.5 -67.5t-29.5 -67.5t-69.5 -28.5zM55 -401q-81 0 -121 63l56 100q18 -38 57 -38q33 0 50.5 29.5t17.5 101.5v1134h139v-1134q0 -135 -49 -195.5t-150 -60.5z" />
    <glyph glyph-name="k" unicode="k" horiz-adv-x="739" 
d="M709 0h-154l-186 449l-115 -197v-252h-139v1366h139v-924l303 547h152l-250 -442z" />
    <glyph glyph-name="l" unicode="l" horiz-adv-x="368" 
d="M254 0h-139v1366h139v-1366z" />
    <glyph glyph-name="m" unicode="m" horiz-adv-x="1179" 
d="M1063 0h-139v760q0 129 -95 129q-52 0 -98 -48t-72 -114v-727h-139v760q0 129 -94 129q-53 0 -99.5 -48t-72.5 -114v-727h-139v989h139v-139q33 67 94.5 115.5t126.5 48.5q79 0 126.5 -43.5t53.5 -124.5q32 69 95 118.5t131 49.5q182 0 182 -215v-799z" />
    <glyph glyph-name="n" unicode="n" 
d="M659 0h-139v760q0 129 -94 129q-54 0 -100.5 -47.5t-71.5 -114.5v-727h-139v989h139v-139q34 69 95 116.5t126 47.5q96 0 140 -54t44 -161v-799z" />
    <glyph glyph-name="o" unicode="o" horiz-adv-x="782" 
d="M391 -25q-82 0 -144 42.5t-98 116.5t-53.5 165t-17.5 197t17.5 196.5t53.5 164t98 115.5t144 42t144 -42t98.5 -115.5t54 -164t17.5 -196.5q0 -84 -10.5 -159t-34.5 -142t-60 -115t-89.5 -76.5t-119.5 -28.5zM391 100q168 0 168 396q0 393 -168 393q-48 0 -82 -32.5
t-52 -91t-26 -124t-8 -145.5t8 -146.5t26 -125t52 -91.5t82 -33z" />
    <glyph glyph-name="p" unicode="p" horiz-adv-x="786" 
d="M440 -25q-55 0 -106 41t-80 121v-514h-139v1366h139v-133q32 73 83 115.5t103 42.5q91 0 152.5 -67.5t90 -181.5t28.5 -269q0 -235 -68.5 -378t-202.5 -143zM406 100q157 0 157 396q0 393 -157 393q-46 0 -89.5 -48t-62.5 -116v-459q20 -67 63 -116.5t89 -49.5z" />
    <glyph glyph-name="q" unicode="q" horiz-adv-x="786" 
d="M381 100q46 0 89.5 49.5t61.5 116.5v459q-18 67 -61.5 115.5t-89.5 48.5q-158 0 -158 -393q0 -396 158 -396zM346 -25q-90 0 -151.5 69t-89 183.5t-27.5 268.5q0 238 67 378t201 140q52 0 103 -42.5t83 -115.5v133h140v-1366h-140v514q-29 -80 -80 -121t-106 -41z" />
    <glyph glyph-name="r" unicode="r" horiz-adv-x="516" 
d="M254 0h-139v989h139v-158q37 83 95.5 131t135.5 48v-144q-24 4 -39 4q-59 0 -109.5 -47t-82.5 -118v-705z" />
    <glyph glyph-name="s" unicode="s" horiz-adv-x="632" 
d="M311 -25q-174 0 -268 125l68 97q79 -107 190 -107q62 0 103.5 40.5t41.5 107.5q0 45 -20.5 82t-53.5 64.5t-72.5 54t-79 56.5t-72.5 65.5t-53.5 89t-20.5 118.5q0 106 72.5 176t189.5 70q141 0 235 -111l-65 -94q-63 90 -168 90q-59 0 -95 -36.5t-36 -90.5
q0 -42 20.5 -77.5t53.5 -62.5t72.5 -53.5t79.5 -57.5t73 -68t53.5 -91.5t20.5 -121.5q0 -118 -77 -191.5t-192 -73.5z" />
    <glyph glyph-name="t" unicode="t" horiz-adv-x="477" 
d="M319 -25q-92 0 -134 52t-42 161v678h-100v123h100v271h142v-271h133v-123h-133v-657q0 -58 13.5 -83.5t47.5 -25.5q42 0 66 35l45 -104q-56 -56 -138 -56z" />
    <glyph glyph-name="u" unicode="u" 
d="M659 0h-139v135q-34 -70 -93 -115t-128 -45q-97 0 -140.5 52.5t-43.5 162.5v799h139v-762q0 -127 94 -127q54 0 100.5 46t71.5 112v731h139v-989z" />
    <glyph glyph-name="v" unicode="v" horiz-adv-x="667" 
d="M410 0h-154l-238 989h150l164 -817l168 817h149z" />
    <glyph glyph-name="w" unicode="w" horiz-adv-x="1107" 
d="M866 0h-145l-166 797l-168 -797h-145l-215 989h147l148 -792l157 792h144l161 -792l150 792h147z" />
    <glyph glyph-name="x" unicode="x" horiz-adv-x="667" 
d="M641 0h-149l-158 389l-160 -389h-149l223 500l-211 489h149l148 -379l147 379h148l-211 -489z" />
    <glyph glyph-name="y" unicode="y" horiz-adv-x="667" 
d="M68 -387l22 123q21 -12 47 -12q36 0 55 20t33 70l37 155l-244 1020h150l164 -809l168 809h149l-295 -1204q-28 -105 -75 -145.5t-125 -40.5q-54 0 -86 14z" />
    <glyph glyph-name="z" unicode="z" horiz-adv-x="620" 
d="M549 0h-479v111l309 755h-309v123h471v-106l-308 -760h316v-123z" />
    <glyph glyph-name="braceleft" unicode="{" horiz-adv-x="413" 
d="M379 -389h-62q-79 0 -138.5 60t-59.5 153v485q0 61 -28 102.5t-79 41.5v94q51 0 79 41t28 102v484q0 95 59.5 155t138.5 60h62v-105h-62q-37 0 -62.5 -30.5t-25.5 -79.5v-494q0 -141 -92 -180q92 -39 92 -181v-495q0 -47 25.5 -78t62.5 -31h62v-104z" />
    <glyph glyph-name="bar" unicode="|" horiz-adv-x="362" 
d="M233 -41h-104v1448h104v-1448z" />
    <glyph glyph-name="braceright" unicode="}" horiz-adv-x="413" 
d="M35 -389v104h61q37 0 62.5 31t25.5 78v495q0 142 92 181q-92 39 -92 180v494q0 49 -25.5 79.5t-62.5 30.5h-61v105h61q79 0 139 -60.5t60 -154.5v-484q0 -61 27.5 -102t78.5 -41v-94q-51 0 -78.5 -41.5t-27.5 -102.5v-485q0 -93 -60 -153t-139 -60h-61z" />
    <glyph glyph-name="asciitilde" unicode="~" horiz-adv-x="806" 
d="M645 1366l107 -10q-4 -61 -8.5 -107t-14 -107.5t-25 -105t-38.5 -84t-57.5 -61.5t-78.5 -21q-48 0 -81.5 29t-49 73t-28.5 95t-21.5 95t-26.5 73t-44 29q-53 0 -74.5 -85.5t-40.5 -312.5l-109 13q3 51 6.5 91t11.5 92.5t18 92.5t27 81t39 67.5t53 43.5t69 17
q48 0 81.5 -29.5t49 -73t28.5 -95t21.5 -95t26.5 -73t44 -29.5q53 0 74.5 84t40.5 313z" />
    <glyph glyph-name="nbspace" unicode="&#xa0;" horiz-adv-x="350" 
 />
    <glyph glyph-name="exclamdown" unicode="&#xa1;" horiz-adv-x="464" 
d="M145 -377l29 991h117l31 -991h-177zM127 903q0 43 31 75t75 32q43 0 75 -32t32 -75q0 -42 -32 -73t-75 -31q-44 0 -75 30.5t-31 73.5z" />
    <glyph glyph-name="cent" unicode="&#xa2;" horiz-adv-x="649" 
d="M356 -205v185q-90 14 -153.5 86t-94 182t-30.5 248q0 210 72 350.5t206 163.5v147h111v-151q74 -16 137 -82l-57 -107q-40 49 -80 64v-775q41 15 80 66l57 -106q-55 -67 -137 -84v-187h-111zM223 496q0 -139 32.5 -243.5t100.5 -137.5v759q-68 -35 -100.5 -137.5
t-32.5 -240.5z" />
    <glyph glyph-name="sterling" unicode="&#xa3;" horiz-adv-x="778" 
d="M61 555v102h138q-26 50 -36.5 72.5t-29 69.5t-26 95t-7.5 103q0 160 90.5 274.5t229.5 114.5q107 0 181.5 -61t100.5 -170l-122 -59q-23 76 -58 117.5t-96 41.5q-64 0 -113 -71t-49 -191q0 -57 11.5 -110t22.5 -80t36 -78t33 -68h155v-102h-121q11 -57 11 -100
q0 -78 -38 -162.5t-95 -134.5q41 20 77 20q47 0 107.5 -31.5t95.5 -31.5q41 0 78 20t57 49l56 -121q-27 -36 -85 -62t-118 -26q-44 0 -80 13t-56 29t-47.5 29t-56.5 13q-67 0 -162 -73l-55 112q82 55 131 144.5t49 181.5q0 61 -24 131h-185z" />
    <glyph glyph-name="currency" unicode="&#xa4;" horiz-adv-x="1069" 
d="M995 281l-59 -60l-115 117q-124 -105 -286 -105q-163 0 -287 105l-117 -117l-57 60l114 114q-102 127 -102 287q0 163 102 287l-114 116l57 58l117 -115q120 102 287 102q162 0 286 -102l115 115l59 -58l-114 -116q102 -124 102 -287q0 -160 -102 -287zM885 682
q0 146 -102.5 248t-247.5 102t-248 -102t-103 -248q0 -145 103 -247.5t248 -102.5t247.5 102.5t102.5 247.5z" />
    <glyph glyph-name="yen" unicode="&#xa5;" horiz-adv-x="761" 
d="M459 0h-156v252h-258v102h258v226h-258v100h219l-266 686h166l217 -629l219 629h164l-266 -686h217v-100h-256v-226h256v-102h-256v-252z" />
    <glyph glyph-name="brokenbar" unicode="&#xa6;" horiz-adv-x="362" 
d="M233 -41h-104v647h104v-647zM233 760h-104v647h104v-647z" />
    <glyph glyph-name="section" unicode="&#xa7;" horiz-adv-x="634" 
d="M580 612q0 -73 -37.5 -136.5t-110.5 -98.5q78 -61 113 -127.5t35 -151.5q0 -109 -76.5 -186.5t-192.5 -77.5q-88 0 -151 30.5t-117 94.5l68 94q32 -42 81.5 -75t108.5 -33q63 0 104 44.5t41 106.5q0 47 -20.5 86t-53.5 67.5t-72.5 56t-79 58t-72.5 65.5t-53.5 87.5
t-20.5 116.5q0 77 45 141t127 82q-95 69 -133.5 138.5t-38.5 152.5q0 106 73 172.5t175 66.5q83 0 141 -27.5t108 -84.5l-67 -86q-42 52 -82 72t-88 20q-56 0 -91.5 -37.5t-35.5 -95.5q0 -44 20.5 -81t53.5 -64.5t72.5 -55t79.5 -59t73 -67.5t53.5 -89.5t20.5 -118.5z
M453 590q0 41 -10.5 76t-31 61.5t-36 41.5t-37.5 32q-137 -24 -137 -150q0 -64 33 -115.5t112 -107.5q107 55 107 162z" />
    <glyph glyph-name="dieresis" unicode="&#xa8;" horiz-adv-x="540" 
d="M504 1235q0 -37 -26.5 -62.5t-63.5 -25.5q-36 0 -62 26t-26 62q0 37 26.5 63.5t61.5 26.5q37 0 63.5 -26.5t26.5 -63.5zM215 1235q0 -37 -26.5 -62.5t-63.5 -25.5q-36 0 -62 26t-26 62q0 37 26.5 63.5t61.5 26.5q37 0 63.5 -26.5t26.5 -63.5z" />
    <glyph glyph-name="copyright" unicode="&#xa9;" horiz-adv-x="1593" 
d="M1503 684q0 -143 -56 -274t-150.5 -226t-225.5 -151t-274 -56q-191 0 -354 95t-258 258t-95 354t95 354t258 258t354 95q143 0 274 -56t225.5 -151t150.5 -226t56 -274zM1442 684q0 174 -87 322.5t-235.5 235.5t-322.5 87t-322.5 -87t-235.5 -235.5t-87 -322.5t87 -322.5
t235.5 -235.5t322.5 -87t322.5 87t235.5 235.5t87 322.5zM1049 432l51 -49q-116 -135 -297 -135q-179 0 -303.5 126t-124.5 310q0 189 124 313.5t304 124.5q183 0 297 -133l-51 -49q-40 54 -107 85.5t-139 31.5q-146 0 -250 -104t-104 -269q0 -158 105 -264.5t249 -106.5
q73 0 139.5 32.5t106.5 86.5z" />
    <glyph glyph-name="ordfeminine" unicode="&#xaa;" horiz-adv-x="571" 
d="M479 668h-108v67q-47 -84 -140 -84q-79 0 -127.5 58t-48.5 155t48.5 154t127.5 57q93 0 140 -78v107q0 133 -109 133q-76 0 -137 -74l-45 76q82 88 203 88q100 0 148 -56.5t48 -174.5v-428zM264 727q76 0 107 78v123q-31 78 -107 78q-47 0 -73.5 -40t-26.5 -100
q0 -61 26 -100t74 -39z" />
    <glyph glyph-name="guillemotleft" unicode="&#xab;" horiz-adv-x="665" 
d="M604 129h-119l-184 369l184 362h119l-184 -362zM365 129h-119l-185 369l185 362h119l-185 -362z" />
    <glyph glyph-name="logicalnot" unicode="&#xac;" 
d="M715 934v-500h-105v400h-551v100h656z" />
    <glyph glyph-name="registered" unicode="&#xae;" horiz-adv-x="1011" 
d="M940 952q0 -180 -126.5 -307t-307.5 -127q-180 0 -307 127t-127 307q0 181 127 307.5t307 126.5q119 0 219 -57.5t157.5 -157.5t57.5 -219zM883 952q0 158 -110 267.5t-267 109.5t-267 -109.5t-110 -267.5q0 -156 110.5 -266.5t266.5 -110.5t266.5 110.5t110.5 266.5z
M707 702h-82l-129 197h-90v-197h-66v498h203q65 0 111 -42t46 -109q0 -72 -46 -110t-81 -38zM633 1049q0 40 -28 67t-62 27h-137v-185h137q34 0 62 27t28 64z" />
    <glyph glyph-name="macron" unicode="&#xaf;" horiz-adv-x="507" 
d="M508 1210h-508v93h508v-93z" />
    <glyph glyph-name="macron" unicode="&#x203e;" horiz-adv-x="507" 
d="M508 1210h-508v93h508v-93z" />
    <glyph glyph-name="degree" unicode="&#xb0;" horiz-adv-x="589" 
d="M541 1139q0 -101 -72.5 -172.5t-175.5 -71.5q-101 0 -172.5 71.5t-71.5 172.5q0 103 71.5 175t172.5 72q103 0 175.5 -72t72.5 -175zM449 1139q0 63 -46.5 109t-109.5 46t-107.5 -46t-44.5 -109t44.5 -107.5t107.5 -44.5t109.5 44.5t46.5 107.5z" />
    <glyph glyph-name="plusminus" unicode="&#xb1;" 
d="M715 641h-273v-317h-110v317h-273v100h273v303h110v-303h273v-100zM715 92h-656v101h656v-101z" />
    <glyph glyph-name="twosuperior" unicode="&#xb2;" horiz-adv-x="540" 
d="M494 862h-431v86q201 265 257.5 358.5t56.5 170.5q0 55 -31 88.5t-78 33.5q-91 0 -145 -104l-74 66q81 133 223 133q98 0 159 -58t61 -157q0 -86 -56.5 -184t-232.5 -339h291v-94z" />
    <glyph glyph-name="threesuperior" unicode="&#xb3;" horiz-adv-x="540" 
d="M498 1085q0 -107 -61 -172t-169 -65q-78 0 -136 37t-91 98l78 66q56 -107 145 -107q119 0 119 150q0 78 -37 111.5t-90 33.5q-43 0 -53 -2v94q10 -2 49 -2q56 0 89.5 34.5t33.5 100.5q0 68 -30 102.5t-81 34.5q-88 0 -137 -96l-78 60q35 62 93 96.5t126 34.5
q98 0 157.5 -55.5t59.5 -163.5q0 -68 -37 -122t-94 -67q58 -11 101 -67.5t43 -133.5z" />
    <glyph glyph-name="acute" unicode="&#xb4;" horiz-adv-x="299" 
d="M299 1434l-205 -295h-94l162 295h137z" />
    <glyph glyph-name="mu" unicode="&#xb5;" 
d="M254 -377h-139v1366h139v-762q0 -131 94 -131q54 0 100.5 47.5t71.5 114.5v731h139v-989h-139v135q-34 -70 -93 -115t-128 -45q-10 0 -45 5v-357z" />
    <glyph glyph-name="mu" unicode="&#x3bc;" 
d="M254 -377h-139v1366h139v-762q0 -131 94 -131q54 0 100.5 47.5t71.5 114.5v731h139v-989h-139v135q-34 -70 -93 -115t-128 -45q-10 0 -45 5v-357z" />
    <glyph glyph-name="paragraph" unicode="&#xb6;" horiz-adv-x="919" 
d="M768 -205h-88v1483h-184v-1483h-88v867q-146 0 -249.5 103t-103.5 249t103.5 249t249.5 103h360v-1571z" />
    <glyph glyph-name="periodcentered" unicode="&#xb7;" horiz-adv-x="464" 
d="M338 502q0 -43 -31.5 -75t-75.5 -32q-43 0 -74.5 32t-31.5 75q0 41 31.5 72.5t74.5 31.5q44 0 75.5 -31t31.5 -73z" />
    <glyph glyph-name="periodcentered" unicode="&#x2219;" horiz-adv-x="464" 
d="M338 502q0 -43 -31.5 -75t-75.5 -32q-43 0 -74.5 32t-31.5 75q0 41 31.5 72.5t74.5 31.5q44 0 75.5 -31t31.5 -73z" />
    <glyph glyph-name="cedilla" unicode="&#xb8;" horiz-adv-x="337" 
d="M158 -389q-85 0 -158 59l35 72q61 -55 121 -55q39 0 67.5 24.5t28.5 63.5q0 32 -15.5 50.5t-43.5 18.5q-30 0 -58 -28l-63 34l63 173h88l-55 -138q27 21 59 21q47 0 79 -37t32 -96q0 -71 -51.5 -116.5t-128.5 -45.5z" />
    <glyph glyph-name="onesuperior" unicode="&#xb9;" horiz-adv-x="440" 
d="M334 862h-115v672l-123 -129l-65 68l202 208h101v-819z" />
    <glyph glyph-name="ordmasculine" unicode="&#xba;" horiz-adv-x="591" 
d="M295 651q-112 0 -172 97.5t-60 240.5t60 240.5t172 97.5q78 0 131.5 -48.5t76.5 -122.5t23 -167t-23 -167t-76.5 -122.5t-131.5 -48.5zM295 743q119 0 119 246q0 244 -119 244q-117 0 -117 -244q0 -246 117 -246z" />
    <glyph glyph-name="guillemotright" unicode="&#xbb;" horiz-adv-x="665" 
d="M365 498l-185 -369h-119l185 369l-185 362h119zM604 498l-184 -369h-119l184 369l-184 362h119z" />
    <glyph glyph-name="onequarter" unicode="&#xbc;" horiz-adv-x="1179" 
d="M907 1366l-561 -1366h-84l561 1366h84zM1147 209h-74v-209h-112v209h-289v94l262 516h139v-516h74v-94zM961 303v385l-191 -385h191zM334 547h-115v672l-123 -129l-65 67l202 209h101v-819z" />
    <glyph glyph-name="onehalf" unicode="&#xbd;" horiz-adv-x="1245" 
d="M907 1366l-561 -1366h-84l561 1366h84zM1198 0h-430v86q201 264 257 357.5t56 170.5q0 55 -31 89t-77 34q-92 0 -146 -104l-73 65q81 133 223 133q98 0 158.5 -58t60.5 -157q0 -86 -56 -183t-233 -339h291v-94zM334 547h-115v672l-123 -129l-65 67l202 209h101v-819z" />
    <glyph glyph-name="threequarters" unicode="&#xbe;" horiz-adv-x="1253" 
d="M981 1366l-561 -1366h-84l561 1366h84zM1221 209h-74v-209h-113v209h-289v94l263 516h139v-516h74v-94zM1034 303v385l-190 -385h190zM498 770q0 -107 -61 -172.5t-169 -65.5q-78 0 -136 37.5t-91 98.5l78 65q56 -106 145 -106q119 0 119 149q0 79 -37 112.5t-90 33.5
q-43 0 -53 -2v94q10 -2 49 -2q56 0 89.5 34.5t33.5 100.5q0 68 -30 102.5t-81 34.5q-88 0 -137 -96l-78 59q35 62 93 96.5t126 34.5q98 0 157.5 -55.5t59.5 -163.5q0 -68 -37 -121.5t-94 -66.5q58 -11 101 -67.5t43 -133.5z" />
    <glyph glyph-name="questiondown" unicode="&#xbf;" horiz-adv-x="555" 
d="M365 610q55 -70 55 -172q0 -67 -22.5 -125t-54 -101.5t-63.5 -86t-54.5 -97.5t-22.5 -118q0 -69 42.5 -123.5t110.5 -54.5q77 0 138 69l69 -102q-92 -102 -235 -102q-121 0 -200 83t-79 205q0 75 24.5 141t59 114t69 93t59 99t24.5 112q0 62 -39 111zM313 1010
q43 0 75 -32t32 -75q0 -42 -32 -73t-75 -31t-74.5 30.5t-31.5 73.5t31.5 75t74.5 32z" />
    <glyph glyph-name="Agrave" unicode="&#xc0;" horiz-adv-x="745" 
d="M477 1491h-94l-205 295h139zM731 0h-160l-53 313h-293l-53 -313h-158l269 1366h178zM500 451l-127 731l-127 -731h254z" />
    <glyph glyph-name="Aacute" unicode="&#xc1;" horiz-adv-x="745" 
d="M569 1786l-204 -295h-95l162 295h137zM731 0h-160l-53 313h-293l-53 -313h-158l269 1366h178zM500 451l-127 731l-127 -731h254z" />
    <glyph glyph-name="Acircumflex" unicode="&#xc2;" horiz-adv-x="745" 
d="M580 1491h-86l-123 215l-119 -215h-84l133 295h137zM731 0h-160l-53 313h-293l-53 -313h-158l269 1366h178zM500 451l-127 731l-127 -731h254z" />
    <glyph glyph-name="Atilde" unicode="&#xc3;" horiz-adv-x="745" 
d="M455 1487q-38 0 -63 30.5t-35 66.5t-26.5 66.5t-39.5 30.5q-32 0 -51 -45t-19 -137h-80q0 123 37.5 199t112.5 76q38 0 63.5 -30.5t35.5 -67t26.5 -67t38.5 -30.5q69 0 69 182h82q0 -121 -38 -197.5t-113 -76.5zM731 0h-160l-53 313h-293l-53 -313h-158l269 1366h178z
M500 451l-127 731l-127 -731h254z" />
    <glyph glyph-name="Adieresis" unicode="&#xc4;" horiz-adv-x="745" 
d="M606 1581q0 -37 -26.5 -62.5t-63.5 -25.5q-36 0 -62 26t-26 62q0 37 26.5 63.5t61.5 26.5q37 0 63.5 -26.5t26.5 -63.5zM317 1581q0 -37 -26.5 -62.5t-63.5 -25.5q-36 0 -62 26t-26 62q0 37 26.5 63.5t61.5 26.5q37 0 63.5 -26.5t26.5 -63.5zM731 0h-160l-53 313h-293
l-53 -313h-158l269 1366h178zM500 451l-127 731l-127 -731h254z" />
    <glyph glyph-name="Aring" unicode="&#xc5;" horiz-adv-x="745" 
d="M375 1417q-71 0 -120.5 49.5t-49.5 120.5t49.5 120.5t120.5 49.5q70 0 119 -49.5t49 -120.5t-49 -120.5t-119 -49.5zM375 1491q40 0 68 28t28 68t-28 68t-68 28t-68 -28t-28 -68t28 -68t68 -28zM731 0h-160l-53 313h-293l-53 -313h-158l269 1366h178zM500 451l-127 731
l-127 -731h254z" />
    <glyph glyph-name="AE" unicode="&#xc6;" horiz-adv-x="1134" 
d="M1047 0h-506v313h-258l-97 -313h-157l444 1366h574v-137h-353v-461h338v-137h-338v-494h353v-137zM541 451v731l-222 -731h222z" />
    <glyph glyph-name="Ccedilla" unicode="&#xc7;" horiz-adv-x="798" 
d="M434 -381q-85 0 -158 59l35 72q61 -55 121 -55q39 0 67.5 24.5t28.5 63.5q0 32 -15.5 51t-43.5 19t-57 -29l-64 35l45 121q-80 14 -139.5 73t-95.5 154t-53 213.5t-17 261.5q0 153 20 278.5t61.5 223t111.5 151.5t163 54q62 0 111 -22t82 -63t53 -82.5t37 -95.5l-127 -49
q-27 88 -61.5 130t-94.5 42q-52 0 -90.5 -42.5t-61 -121t-33.5 -178.5t-11 -225t11 -225t33.5 -178.5t61 -121t90.5 -42.5q67 0 103 54t57 153l129 -48q-65 -275 -256 -297l-33 -83q26 20 60 20q47 0 78.5 -37t31.5 -96q0 -71 -51.5 -116.5t-128.5 -45.5z" />
    <glyph glyph-name="Egrave" unicode="&#xc8;" horiz-adv-x="720" 
d="M494 1491h-95l-204 295h139zM637 0h-508v1366h508v-137h-354v-461h340v-137h-340v-494h354v-137z" />
    <glyph glyph-name="Eacute" unicode="&#xc9;" horiz-adv-x="720" 
d="M584 1786l-205 -295h-94l161 295h138zM637 0h-508v1366h508v-137h-354v-461h340v-137h-340v-494h354v-137z" />
    <glyph glyph-name="Ecircumflex" unicode="&#xca;" horiz-adv-x="720" 
d="M594 1491h-86l-123 215l-119 -215h-84l133 295h138zM637 0h-508v1366h508v-137h-354v-461h340v-137h-340v-494h354v-137z" />
    <glyph glyph-name="Edieresis" unicode="&#xcb;" horiz-adv-x="720" 
d="M618 1581q0 -37 -26.5 -62.5t-63.5 -25.5q-36 0 -62 26t-26 62q0 37 26.5 63.5t61.5 26.5q37 0 63.5 -26.5t26.5 -63.5zM330 1581q0 -37 -26.5 -62.5t-63.5 -25.5q-36 0 -62 26t-26 62q0 37 26.5 63.5t61.5 26.5q37 0 63.5 -26.5t26.5 -63.5zM637 0h-508v1366h508v-137
h-354v-461h340v-137h-340v-494h354v-137z" />
    <glyph glyph-name="Igrave" unicode="&#xcc;" horiz-adv-x="411" 
d="M311 1491h-94l-205 295h140zM283 0h-154v1366h154v-1366z" />
    <glyph glyph-name="Iacute" unicode="&#xcd;" horiz-adv-x="411" 
d="M406 1786l-205 -295h-95l162 295h138zM283 0h-154v1366h154v-1366z" />
    <glyph glyph-name="Icircumflex" unicode="&#xce;" horiz-adv-x="411" 
d="M414 1491h-86l-123 215l-119 -215h-84l133 295h137zM283 0h-154v1366h154v-1366z" />
    <glyph glyph-name="Idieresis" unicode="&#xcf;" horiz-adv-x="411" 
d="M444 1581q0 -37 -26.5 -62.5t-63.5 -25.5q-36 0 -62 26t-26 62q0 37 26.5 63.5t61.5 26.5q37 0 63.5 -26.5t26.5 -63.5zM156 1581q0 -37 -26.5 -62.5t-63.5 -25.5q-36 0 -62.5 26t-26.5 62q0 37 26.5 63.5t62.5 26.5q37 0 63.5 -26.5t26.5 -63.5zM283 0h-154v1366h154
v-1366z" />
    <glyph glyph-name="Eth" unicode="&#xd0;" horiz-adv-x="913" 
d="M428 0h-260v618h-125v115h125v633h258q104 0 182.5 -51t125.5 -144.5t70 -215.5t23 -273q0 -153 -22.5 -275t-69.5 -214.5t-125 -142.5t-182 -50zM492 618h-170v-481h106q123 0 180.5 144.5t57.5 400.5q0 257 -57.5 402t-180.5 145h-106v-496h170v-115z" />
    <glyph glyph-name="Ntilde" unicode="&#xd1;" horiz-adv-x="892" 
d="M522 1487q-38 0 -63 30.5t-35 66.5t-26.5 66.5t-39.5 30.5q-69 0 -69 -182h-80q0 123 37.5 199t111.5 76q38 0 63.5 -30.5t35.5 -67t26.5 -67t38.5 -30.5q70 0 70 182h82q0 -121 -38.5 -197.5t-113.5 -76.5zM764 0h-148l-333 995v-995h-154v1366h154l327 -975v975h154
v-1366z" />
    <glyph glyph-name="Ograve" unicode="&#xd2;" horiz-adv-x="888" 
d="M547 1491h-94l-205 295h139zM444 -25q-95 0 -165 55t-111 153.5t-60.5 223t-19.5 275.5t19.5 275.5t60.5 223t111 153.5t165 55t165 -55t111.5 -153.5t61 -223t19.5 -275.5t-19.5 -275.5t-61 -223t-111.5 -153.5t-165 -55zM444 115q53 0 92 45t61.5 125t33 179t10.5 218
q0 121 -10.5 220t-33 178.5t-61.5 124t-92 44.5t-92 -44t-61 -124.5t-32.5 -179t-10.5 -219.5q0 -120 10.5 -218.5t32.5 -178.5t61 -125t92 -45z" />
    <glyph glyph-name="Oacute" unicode="&#xd3;" horiz-adv-x="888" 
d="M641 1786l-205 -295h-94l162 295h137zM444 -25q-95 0 -165 55t-111 153.5t-60.5 223t-19.5 275.5t19.5 275.5t60.5 223t111 153.5t165 55t165 -55t111.5 -153.5t61 -223t19.5 -275.5t-19.5 -275.5t-61 -223t-111.5 -153.5t-165 -55zM444 115q53 0 92 45t61.5 125t33 179
t10.5 218q0 121 -10.5 220t-33 178.5t-61.5 124t-92 44.5t-92 -44t-61 -124.5t-32.5 -179t-10.5 -219.5q0 -120 10.5 -218.5t32.5 -178.5t61 -125t92 -45z" />
    <glyph glyph-name="Ocircumflex" unicode="&#xd4;" horiz-adv-x="888" 
d="M651 1491h-86l-123 215l-118 -215h-84l133 295h137zM444 -25q-95 0 -165 55t-111 153.5t-60.5 223t-19.5 275.5t19.5 275.5t60.5 223t111 153.5t165 55t165 -55t111.5 -153.5t61 -223t19.5 -275.5t-19.5 -275.5t-61 -223t-111.5 -153.5t-165 -55zM444 115q53 0 92 45
t61.5 125t33 179t10.5 218q0 121 -10.5 220t-33 178.5t-61.5 124t-92 44.5t-92 -44t-61 -124.5t-32.5 -179t-10.5 -219.5q0 -120 10.5 -218.5t32.5 -178.5t61 -125t92 -45z" />
    <glyph glyph-name="Otilde" unicode="&#xd5;" horiz-adv-x="888" 
d="M526 1487q-38 0 -63 30.5t-35 66.5t-26.5 66.5t-39.5 30.5q-69 0 -69 -182h-80q0 123 37.5 199t111.5 76q38 0 63.5 -30.5t35.5 -67t26.5 -67t38.5 -30.5q70 0 70 182h82q0 -121 -38.5 -197.5t-113.5 -76.5zM444 -25q-95 0 -165 55t-111 153.5t-60.5 223t-19.5 275.5
t19.5 275.5t60.5 223t111 153.5t165 55t165 -55t111.5 -153.5t61 -223t19.5 -275.5t-19.5 -275.5t-61 -223t-111.5 -153.5t-165 -55zM444 115q53 0 92 45t61.5 125t33 179t10.5 218q0 121 -10.5 220t-33 178.5t-61.5 124t-92 44.5t-92 -44t-61 -124.5t-32.5 -179
t-10.5 -219.5q0 -120 10.5 -218.5t32.5 -178.5t61 -125t92 -45z" />
    <glyph glyph-name="Odieresis" unicode="&#xd6;" horiz-adv-x="888" 
d="M678 1581q0 -37 -26.5 -62.5t-63.5 -25.5q-36 0 -62 26t-26 62q0 37 26.5 63.5t61.5 26.5q37 0 63.5 -26.5t26.5 -63.5zM389 1581q0 -37 -26.5 -62.5t-63.5 -25.5q-36 0 -62 26t-26 62q0 37 26.5 63.5t61.5 26.5q37 0 63.5 -26.5t26.5 -63.5zM444 -25q-95 0 -165 55
t-111 153.5t-60.5 223t-19.5 275.5t19.5 275.5t60.5 223t111 153.5t165 55t165 -55t111.5 -153.5t61 -223t19.5 -275.5t-19.5 -275.5t-61 -223t-111.5 -153.5t-165 -55zM444 115q53 0 92 45t61.5 125t33 179t10.5 218q0 121 -10.5 220t-33 178.5t-61.5 124t-92 44.5t-92 -44
t-61 -124.5t-32.5 -179t-10.5 -219.5q0 -120 10.5 -218.5t32.5 -178.5t61 -125t92 -45z" />
    <glyph glyph-name="multiply" unicode="&#xd7;" 
d="M606 393l-219 219l-219 -219l-72 72l221 219l-221 219l72 72l219 -219l219 219l72 -72l-219 -219l219 -219z" />
    <glyph glyph-name="Oslash" unicode="&#xd8;" horiz-adv-x="888" 
d="M444 -25q-117 0 -202 91l-27 -66h-106l67 164q-88 186 -88 518q0 151 19.5 275.5t60.5 223t111 153.5t165 55q119 0 203 -93l29 70h104l-69 -166q90 -184 90 -518q0 -151 -19.5 -275.5t-61 -223t-111.5 -153.5t-165 -55zM248 682q0 -174 20 -297l310 748
q-50 116 -134 116q-53 0 -92 -44t-61 -124.5t-32.5 -179t-10.5 -219.5zM444 115q53 0 92 45t61.5 125t33 179t10.5 218q0 174 -20 297l-312 -750q49 -114 135 -114z" />
    <glyph glyph-name="Ugrave" unicode="&#xd9;" horiz-adv-x="894" 
d="M551 1491h-94l-205 295h139zM446 -25q-143 0 -230 94t-87 283v1014h154v-1020q0 -233 163 -233q166 0 166 233v1020h154v-1014q0 -189 -87.5 -283t-232.5 -94z" />
    <glyph glyph-name="Uacute" unicode="&#xda;" horiz-adv-x="894" 
d="M643 1786l-205 -295h-94l162 295h137zM446 -25q-143 0 -230 94t-87 283v1014h154v-1020q0 -233 163 -233q166 0 166 233v1020h154v-1014q0 -189 -87.5 -283t-232.5 -94z" />
    <glyph glyph-name="Ucircumflex" unicode="&#xdb;" horiz-adv-x="894" 
d="M653 1491h-86l-123 215l-118 -215h-84l133 295h137zM446 -25q-143 0 -230 94t-87 283v1014h154v-1020q0 -233 163 -233q166 0 166 233v1020h154v-1014q0 -189 -87.5 -283t-232.5 -94z" />
    <glyph glyph-name="Udieresis" unicode="&#xdc;" horiz-adv-x="894" 
d="M680 1581q0 -37 -26.5 -62.5t-63.5 -25.5q-36 0 -62 26t-26 62q0 37 26.5 63.5t61.5 26.5q37 0 63.5 -26.5t26.5 -63.5zM391 1581q0 -37 -26.5 -62.5t-63.5 -25.5q-36 0 -62 26t-26 62q0 37 26.5 63.5t61.5 26.5q37 0 63.5 -26.5t26.5 -63.5zM446 -25q-143 0 -230 94
t-87 283v1014h154v-1020q0 -233 163 -233q166 0 166 233v1020h154v-1014q0 -189 -87.5 -283t-232.5 -94z" />
    <glyph glyph-name="Yacute" unicode="&#xdd;" horiz-adv-x="761" 
d="M584 1786l-205 -295h-94l161 295h138zM459 0h-156v580l-305 786h166l217 -629l219 629h164l-305 -786v-580z" />
    <glyph glyph-name="Thorn" unicode="&#xde;" horiz-adv-x="792" 
d="M283 0h-154v1366h154v-248h127q108 0 183 -57.5t108.5 -147.5t33.5 -204q0 -83 -19.5 -155t-58 -129t-102 -89.5t-145.5 -32.5h-127v-303zM395 442q88 0 134 72t46 195q0 124 -46 198t-134 74h-112v-539h112z" />
    <glyph glyph-name="germandbls" unicode="&#xdf;" horiz-adv-x="925" 
d="M893 240q0 -110 -74.5 -187.5t-187.5 -77.5q-84 0 -145 31t-115 94l63 101q24 -31 41.5 -50t55.5 -40t79 -21q54 0 96 41.5t42 106.5q0 45 -19.5 82.5t-50.5 65t-68.5 54t-74.5 56t-68 64t-50.5 85t-19.5 111.5q0 43 15 80t37 62.5t48.5 52.5t48.5 49.5t37 54t15 65.5
q0 60 -44.5 101t-113.5 41q-74 0 -120 -50t-46 -149v-1063h-139v1063q0 141 84 232t221 91q127 0 212 -72.5t85 -180.5q0 -58 -21 -105t-50.5 -78t-59 -58t-50.5 -59.5t-21 -68.5q0 -42 19.5 -77t51.5 -61.5t70 -52t76 -56t70 -66.5t51.5 -90t19.5 -121z" />
    <glyph glyph-name="agrave" unicode="&#xe0;" horiz-adv-x="768" 
d="M653 0h-139v104q-32 -65 -84 -97t-108 -32q-115 0 -184.5 91t-69.5 239q0 147 69.5 236.5t184.5 89.5q56 0 108 -30t84 -93v170q0 107 -35.5 161t-118.5 54q-103 0 -194 -105l-60 101q58 64 131 94.5t146 30.5q137 0 203.5 -76t66.5 -233v-705zM360 78q110 0 154 123v200
q-45 127 -154 127q-73 0 -111 -64t-38 -161t38 -161t111 -64zM489 1139h-94l-205 295h140z" />
    <glyph glyph-name="aacute" unicode="&#xe1;" horiz-adv-x="768" 
d="M653 0h-139v104q-32 -65 -84 -97t-108 -32q-115 0 -184.5 91t-69.5 239q0 147 69.5 236.5t184.5 89.5q56 0 108 -30t84 -93v170q0 107 -35.5 161t-118.5 54q-103 0 -194 -105l-60 101q58 64 131 94.5t146 30.5q137 0 203.5 -76t66.5 -233v-705zM360 78q110 0 154 123v200
q-45 127 -154 127q-73 0 -111 -64t-38 -161t38 -161t111 -64zM584 1434l-205 -295h-94l161 295h138z" />
    <glyph glyph-name="acircumflex" unicode="&#xe2;" horiz-adv-x="768" 
d="M653 0h-139v104q-32 -65 -84 -97t-108 -32q-115 0 -184.5 91t-69.5 239q0 147 69.5 236.5t184.5 89.5q56 0 108 -30t84 -93v170q0 107 -35.5 161t-118.5 54q-103 0 -194 -105l-60 101q58 64 131 94.5t146 30.5q137 0 203.5 -76t66.5 -233v-705zM360 78q110 0 154 123v200
q-45 127 -154 127q-73 0 -111 -64t-38 -161t38 -161t111 -64zM596 1139h-86l-123 215l-119 -215h-84l133 295h138z" />
    <glyph glyph-name="atilde" unicode="&#xe3;" horiz-adv-x="768" 
d="M653 0h-139v104q-32 -65 -84 -97t-108 -32q-115 0 -184.5 91t-69.5 239q0 147 69.5 236.5t184.5 89.5q56 0 108 -30t84 -93v170q0 107 -35.5 161t-118.5 54q-103 0 -194 -105l-60 101q58 64 131 94.5t146 30.5q137 0 203.5 -76t66.5 -233v-705zM360 78q110 0 154 123v200
q-45 127 -154 127q-73 0 -111 -64t-38 -161t38 -161t111 -64zM469 1135q-38 0 -63 30.5t-35 66.5t-26.5 66.5t-39.5 30.5q-69 0 -69 -182h-80q0 123 37.5 198.5t111.5 75.5q38 0 63.5 -30.5t35.5 -66.5t26.5 -66.5t38.5 -30.5q70 0 70 182h82q0 -121 -38.5 -197.5
t-113.5 -76.5z" />
    <glyph glyph-name="adieresis" unicode="&#xe4;" horiz-adv-x="768" 
d="M653 0h-139v104q-32 -65 -84 -97t-108 -32q-115 0 -184.5 91t-69.5 239q0 147 69.5 236.5t184.5 89.5q56 0 108 -30t84 -93v170q0 107 -35.5 161t-118.5 54q-103 0 -194 -105l-60 101q58 64 131 94.5t146 30.5q137 0 203.5 -76t66.5 -233v-705zM360 78q110 0 154 123v200
q-45 127 -154 127q-73 0 -111 -64t-38 -161t38 -161t111 -64zM618 1235q0 -37 -26.5 -62.5t-63.5 -25.5q-36 0 -62 26t-26 62q0 37 26.5 63.5t61.5 26.5q37 0 63.5 -26.5t26.5 -63.5zM330 1235q0 -37 -26.5 -62.5t-63.5 -25.5q-36 0 -62 26t-26 62q0 37 26.5 63.5t61.5 26.5
q37 0 63.5 -26.5t26.5 -63.5z" />
    <glyph glyph-name="aring" unicode="&#xe5;" horiz-adv-x="768" 
d="M653 0h-139v104q-32 -65 -84 -97t-108 -32q-115 0 -184.5 91t-69.5 239q0 147 69.5 236.5t184.5 89.5q56 0 108 -30t84 -93v170q0 107 -35.5 161t-118.5 54q-103 0 -194 -105l-60 101q58 64 131 94.5t146 30.5q137 0 203.5 -76t66.5 -233v-705zM360 78q110 0 154 123v200
q-45 127 -154 127q-73 0 -111 -64t-38 -161t38 -161t111 -64zM385 1122q-71 0 -120.5 50t-49.5 120t49.5 120t120.5 50q70 0 119 -49.5t49 -120.5t-49 -120.5t-119 -49.5zM385 1196q40 0 68 28t28 68t-28 68.5t-68 28.5t-68 -28.5t-28 -68.5t28 -68t68 -28z" />
    <glyph glyph-name="ae" unicode="&#xe6;" horiz-adv-x="1196" 
d="M1128 449h-479q2 -163 57 -260t158 -97q44 0 87 32t75 89l84 -76q-46 -76 -113.5 -119t-144.5 -43q-177 0 -274 181q-93 -181 -256 -181q-115 0 -184.5 89t-69.5 237t69.5 239t184.5 91q56 0 108 -30t84 -93v170q0 107 -35.5 161t-118.5 54q-103 0 -194 -105l-60 101
q58 64 131 94.5t146 30.5q97 0 148 -40.5t75 -115.5q28 71 83.5 113.5t137.5 42.5q80 0 139 -40.5t94 -113t51.5 -163.5t16.5 -201v-47zM649 553h342q0 63 -8 119.5t-26 109.5t-53 84t-83 31q-49 0 -85 -33t-53.5 -88t-25.5 -110t-8 -113zM537 231q-23 82 -23 170
q-45 127 -154 127q-69 0 -109 -59t-40 -166q0 -108 39.5 -166.5t109.5 -58.5q60 0 106 40.5t71 112.5z" />
    <glyph glyph-name="ccedilla" unicode="&#xe7;" horiz-adv-x="649" 
d="M395 -385q-84 0 -157 59l34 72q61 -55 121 -55q39 0 67.5 24.5t28.5 63.5q0 32 -15.5 50.5t-43.5 18.5q-29 0 -57 -28l-64 35l45 125q-133 23 -204.5 164t-71.5 352q0 229 84.5 373.5t238.5 144.5q120 0 203 -90l-57 -107q-58 72 -127 72q-68 0 -114 -57.5t-64.5 -142.5
t-18.5 -193q0 -79 11 -148t33.5 -125.5t61.5 -89.5t91 -33q71 0 127 72l57 -106q-66 -78 -164 -89l-34 -88q27 21 59 21q47 0 78.5 -37t31.5 -96q0 -71 -51.5 -116.5t-128.5 -45.5z" />
    <glyph glyph-name="egrave" unicode="&#xe8;" horiz-adv-x="763" 
d="M420 -25q-168 0 -255 143t-87 378q0 148 32 262t104 185t177 71q65 0 117 -26.5t87 -73t58 -112.5t33 -141.5t10 -162.5v-49h-479q2 -164 56 -260.5t157 -96.5q45 0 88.5 31.5t75.5 89.5l82 -76q-47 -76 -113 -119t-143 -43zM557 553q0 64 -7.5 120.5t-25.5 109t-53 83.5
t-84 31t-84 -33t-52.5 -87.5t-25.5 -109.5t-8 -114h340zM498 1139h-95l-204 295h139z" />
    <glyph glyph-name="eacute" unicode="&#xe9;" horiz-adv-x="763" 
d="M420 -25q-168 0 -255 143t-87 378q0 148 32 262t104 185t177 71q65 0 117 -26.5t87 -73t58 -112.5t33 -141.5t10 -162.5v-49h-479q2 -164 56 -260.5t157 -96.5q45 0 88.5 31.5t75.5 89.5l82 -76q-47 -76 -113 -119t-143 -43zM557 553q0 64 -7.5 120.5t-25.5 109t-53 83.5
t-84 31t-84 -33t-52.5 -87.5t-25.5 -109.5t-8 -114h340zM590 1434l-205 -295h-94l162 295h137z" />
    <glyph glyph-name="ecircumflex" unicode="&#xea;" horiz-adv-x="763" 
d="M420 -25q-168 0 -255 143t-87 378q0 148 32 262t104 185t177 71q65 0 117 -26.5t87 -73t58 -112.5t33 -141.5t10 -162.5v-49h-479q2 -164 56 -260.5t157 -96.5q45 0 88.5 31.5t75.5 89.5l82 -76q-47 -76 -113 -119t-143 -43zM557 553q0 64 -7.5 120.5t-25.5 109t-53 83.5
t-84 31t-84 -33t-52.5 -87.5t-25.5 -109.5t-8 -114h340zM598 1139h-86l-123 215l-119 -215h-84l133 295h138z" />
    <glyph glyph-name="edieresis" unicode="&#xeb;" horiz-adv-x="763" 
d="M420 -25q-168 0 -255 143t-87 378q0 148 32 262t104 185t177 71q65 0 117 -26.5t87 -73t58 -112.5t33 -141.5t10 -162.5v-49h-479q2 -164 56 -260.5t157 -96.5q45 0 88.5 31.5t75.5 89.5l82 -76q-47 -76 -113 -119t-143 -43zM557 553q0 64 -7.5 120.5t-25.5 109t-53 83.5
t-84 31t-84 -33t-52.5 -87.5t-25.5 -109.5t-8 -114h340zM621 1235q0 -36 -27 -62t-64 -26q-36 0 -62 26t-26 62q0 37 26.5 63.5t61.5 26.5q37 0 64 -26.5t27 -63.5zM332 1235q0 -37 -26.5 -62.5t-63.5 -25.5q-36 0 -62 26t-26 62q0 37 26.5 63.5t61.5 26.5q37 0 63.5 -26.5
t26.5 -63.5z" />
    <glyph glyph-name="igrave" unicode="&#xec;" horiz-adv-x="368" 
d="M289 1139h-94l-205 295h139zM254 0h-139v989h139v-989z" />
    <glyph glyph-name="iacute" unicode="&#xed;" horiz-adv-x="368" 
d="M381 1434l-205 -295h-94l162 295h137zM254 0h-139v989h139v-989z" />
    <glyph glyph-name="icircumflex" unicode="&#xee;" horiz-adv-x="368" 
d="M393 1139h-86l-123 215l-118 -215h-84l133 295h137zM254 0h-139v989h139v-989z" />
    <glyph glyph-name="idieresis" unicode="&#xef;" horiz-adv-x="368" 
d="M418 1235q0 -37 -26.5 -62.5t-63.5 -25.5q-36 0 -62 26t-26 62q0 37 26.5 63.5t61.5 26.5q37 0 63.5 -26.5t26.5 -63.5zM129 1235q0 -37 -26.5 -62.5t-63.5 -25.5q-36 0 -62 26t-26 62q0 37 26.5 63.5t61.5 26.5q37 0 63.5 -26.5t26.5 -63.5zM254 0h-139v989h139v-989z
" />
    <glyph glyph-name="eth" unicode="&#xf0;" horiz-adv-x="782" 
d="M242 1051l-37 77l201 89q-52 101 -72 133l127 61q21 -36 71 -137l142 63l35 -75l-142 -64q138 -334 138 -676q0 -118 -17.5 -214.5t-54 -172.5t-98 -118t-144.5 -42q-82 0 -144 41.5t-98 113.5t-53.5 160t-17.5 191q0 140 27.5 250t93 182t161.5 72q116 0 170 -125
q-27 126 -90 281zM391 100q48 0 82 32t52 89t26 120.5t8 139.5q0 75 -8 138.5t-26 120.5t-52 89.5t-82 32.5q-47 0 -81 -32.5t-52.5 -89t-26.5 -120.5t-8 -139q0 -76 8 -140t26.5 -120.5t52.5 -88.5t81 -32z" />
    <glyph glyph-name="ntilde" unicode="&#xf1;" 
d="M659 0h-139v760q0 129 -94 129q-54 0 -100.5 -47.5t-71.5 -114.5v-727h-139v989h139v-139q34 69 95 116.5t126 47.5q96 0 140 -54t44 -161v-799zM473 1135q-38 0 -63 30.5t-35 66.5t-26.5 66.5t-39.5 30.5q-69 0 -69 -182h-80q0 123 37.5 198.5t111.5 75.5
q38 0 63.5 -30.5t35.5 -66.5t26.5 -66.5t38.5 -30.5q70 0 70 182h82q0 -121 -38.5 -197.5t-113.5 -76.5z" />
    <glyph glyph-name="ograve" unicode="&#xf2;" horiz-adv-x="782" 
d="M391 -25q-82 0 -144 42.5t-98 116.5t-53.5 165t-17.5 197t17.5 196.5t53.5 164t98 115.5t144 42t144 -42t98.5 -115.5t54 -164t17.5 -196.5q0 -84 -10.5 -159t-34.5 -142t-60 -115t-89.5 -76.5t-119.5 -28.5zM391 100q168 0 168 396q0 393 -168 393q-48 0 -82 -32.5
t-52 -91t-26 -124t-8 -145.5t8 -146.5t26 -125t52 -91.5t82 -33zM496 1139h-95l-204 295h139z" />
    <glyph glyph-name="oacute" unicode="&#xf3;" horiz-adv-x="782" 
d="M391 -25q-82 0 -144 42.5t-98 116.5t-53.5 165t-17.5 197t17.5 196.5t53.5 164t98 115.5t144 42t144 -42t98.5 -115.5t54 -164t17.5 -196.5q0 -84 -10.5 -159t-34.5 -142t-60 -115t-89.5 -76.5t-119.5 -28.5zM391 100q168 0 168 396q0 393 -168 393q-48 0 -82 -32.5
t-52 -91t-26 -124t-8 -145.5t8 -146.5t26 -125t52 -91.5t82 -33zM588 1434l-205 -295h-94l162 295h137z" />
    <glyph glyph-name="ocircumflex" unicode="&#xf4;" horiz-adv-x="782" 
d="M391 -25q-82 0 -144 42.5t-98 116.5t-53.5 165t-17.5 197t17.5 196.5t53.5 164t98 115.5t144 42t144 -42t98.5 -115.5t54 -164t17.5 -196.5q0 -84 -10.5 -159t-34.5 -142t-60 -115t-89.5 -76.5t-119.5 -28.5zM391 100q168 0 168 396q0 393 -168 393q-48 0 -82 -32.5
t-52 -91t-26 -124t-8 -145.5t8 -146.5t26 -125t52 -91.5t82 -33zM598 1139h-86l-123 215l-119 -215h-84l133 295h138z" />
    <glyph glyph-name="otilde" unicode="&#xf5;" horiz-adv-x="782" 
d="M391 -25q-82 0 -144 42.5t-98 116.5t-53.5 165t-17.5 197t17.5 196.5t53.5 164t98 115.5t144 42t144 -42t98.5 -115.5t54 -164t17.5 -196.5q0 -84 -10.5 -159t-34.5 -142t-60 -115t-89.5 -76.5t-119.5 -28.5zM391 100q168 0 168 396q0 393 -168 393q-48 0 -82 -32.5
t-52 -91t-26 -124t-8 -145.5t8 -146.5t26 -125t52 -91.5t82 -33zM473 1135q-38 0 -63 30.5t-35 66.5t-26.5 66.5t-39.5 30.5q-69 0 -69 -182h-80q0 123 37.5 198.5t111.5 75.5q38 0 63.5 -30.5t35.5 -66.5t26.5 -66.5t38.5 -30.5q70 0 70 182h82q0 -121 -38.5 -197.5
t-113.5 -76.5z" />
    <glyph glyph-name="odieresis" unicode="&#xf6;" horiz-adv-x="782" 
d="M391 -25q-82 0 -144 42.5t-98 116.5t-53.5 165t-17.5 197t17.5 196.5t53.5 164t98 115.5t144 42t144 -42t98.5 -115.5t54 -164t17.5 -196.5q0 -84 -10.5 -159t-34.5 -142t-60 -115t-89.5 -76.5t-119.5 -28.5zM391 100q168 0 168 396q0 393 -168 393q-48 0 -82 -32.5
t-52 -91t-26 -124t-8 -145.5t8 -146.5t26 -125t52 -91.5t82 -33zM627 1235q0 -37 -26.5 -62.5t-63.5 -25.5q-36 0 -62 26t-26 62q0 37 26.5 63.5t61.5 26.5q37 0 63.5 -26.5t26.5 -63.5zM338 1235q0 -37 -26.5 -62.5t-63.5 -25.5q-36 0 -62 26t-26 62q0 37 26.5 63.5
t61.5 26.5q37 0 63.5 -26.5t26.5 -63.5z" />
    <glyph glyph-name="divide" unicode="&#xf7;" horiz-adv-x="765" 
d="M475 979q0 -37 -26 -63.5t-64 -26.5q-37 0 -62.5 26.5t-25.5 63.5t25.5 63.5t62.5 26.5q38 0 64 -26.5t26 -63.5zM707 641h-648v100h648v-100zM475 393q0 -37 -26 -63.5t-64 -26.5q-37 0 -62.5 26.5t-25.5 63.5t25.5 63.5t62.5 26.5q38 0 64 -26.5t26 -63.5z" />
    <glyph glyph-name="oslash" unicode="&#xf8;" horiz-adv-x="782" 
d="M186 0h-92l62 121q-78 136 -78 375q0 106 17.5 196.5t53.5 164t98 115.5t144 42q105 0 180 -72l25 47h92l-61 -121q78 -141 78 -372q0 -84 -10.5 -159t-34.5 -142t-60 -115t-89.5 -76.5t-119.5 -28.5q-108 0 -180 72zM391 100q168 0 168 396q0 122 -16 206l-267 -524
q40 -78 115 -78zM223 496q0 -120 17 -209l266 524q-45 78 -115 78q-48 0 -82 -32.5t-52 -91t-26 -124t-8 -145.5z" />
    <glyph glyph-name="ugrave" unicode="&#xf9;" 
d="M659 0h-139v135q-34 -70 -93 -115t-128 -45q-97 0 -140.5 52.5t-43.5 162.5v799h139v-762q0 -127 94 -127q54 0 100.5 46t71.5 112v731h139v-989zM494 1139h-95l-204 295h139z" />
    <glyph glyph-name="uacute" unicode="&#xfa;" 
d="M659 0h-139v135q-34 -70 -93 -115t-128 -45q-97 0 -140.5 52.5t-43.5 162.5v799h139v-762q0 -127 94 -127q54 0 100.5 46t71.5 112v731h139v-989zM584 1434l-205 -295h-94l161 295h138z" />
    <glyph glyph-name="ucircumflex" unicode="&#xfb;" 
d="M659 0h-139v135q-34 -70 -93 -115t-128 -45q-97 0 -140.5 52.5t-43.5 162.5v799h139v-762q0 -127 94 -127q54 0 100.5 46t71.5 112v731h139v-989zM596 1139h-86l-123 215l-119 -215h-84l133 295h138z" />
    <glyph glyph-name="udieresis" unicode="&#xfc;" 
d="M659 0h-139v135q-34 -70 -93 -115t-128 -45q-97 0 -140.5 52.5t-43.5 162.5v799h139v-762q0 -127 94 -127q54 0 100.5 46t71.5 112v731h139v-989zM625 1235q0 -37 -26.5 -62.5t-63.5 -25.5q-36 0 -62.5 26t-26.5 62q0 37 27 63.5t62 26.5q37 0 63.5 -26.5t26.5 -63.5z
M336 1235q0 -37 -26.5 -62.5t-63.5 -25.5q-36 0 -62 26t-26 62q0 37 26.5 63.5t61.5 26.5q37 0 63.5 -26.5t26.5 -63.5z" />
    <glyph glyph-name="yacute" unicode="&#xfd;" horiz-adv-x="667" 
d="M68 -387l22 123q21 -12 47 -12q36 0 55 20t33 70l37 155l-244 1020h150l164 -809l168 809h149l-295 -1204q-28 -105 -75 -145.5t-125 -40.5q-54 0 -86 14zM528 1434l-204 -295h-95l162 295h137z" />
    <glyph glyph-name="thorn" unicode="&#xfe;" horiz-adv-x="786" 
d="M440 -25q-57 0 -107 37.5t-79 116.5v-506h-139v1743h139v-502q32 74 80 112t106 38q91 0 152.5 -67.5t90 -181.5t28.5 -269q0 -235 -68.5 -378t-202.5 -143zM406 100q157 0 157 396q0 393 -157 393q-46 0 -89.5 -48t-62.5 -116v-459q20 -67 63 -116.5t89 -49.5z" />
    <glyph glyph-name="ydieresis" unicode="&#xff;" horiz-adv-x="667" 
d="M68 -387l22 123q21 -12 47 -12q36 0 55 20t33 70l37 155l-244 1020h150l164 -809l168 809h149l-295 -1204q-28 -105 -75 -145.5t-125 -40.5q-54 0 -86 14zM567 1235q0 -37 -26.5 -62.5t-63.5 -25.5q-36 0 -62 26t-26 62q0 37 26.5 63.5t61.5 26.5q37 0 63.5 -26.5
t26.5 -63.5zM279 1235q0 -36 -27 -62t-64 -26q-36 0 -62 26t-26 62q0 37 26.5 63.5t61.5 26.5q37 0 64 -26.5t27 -63.5z" />
    <glyph glyph-name="Amacron" unicode="&#x100;" horiz-adv-x="745" 
d="M731 0h-160l-53 313h-293l-53 -313h-158l269 1366h178zM500 451l-127 731l-127 -731h254zM625 1534h-508v92h508v-92z" />
    <glyph glyph-name="amacron" unicode="&#x101;" horiz-adv-x="768" 
d="M653 0h-139v104q-32 -65 -84 -97t-108 -32q-115 0 -184.5 91t-69.5 239q0 147 69.5 236.5t184.5 89.5q56 0 108 -30t84 -93v170q0 107 -35.5 161t-118.5 54q-103 0 -194 -105l-60 101q58 64 131 94.5t146 30.5q137 0 203.5 -76t66.5 -233v-705zM360 78q110 0 154 123v200
q-45 127 -154 127q-73 0 -111 -64t-38 -161t38 -161t111 -64zM637 1184h-508v92h508v-92z" />
    <glyph glyph-name="Abreve" unicode="&#x102;" horiz-adv-x="745" 
d="M731 0h-160l-53 313h-293l-53 -313h-158l269 1366h178zM500 451l-127 731l-127 -731h254zM614 1604q-42 -58 -105.5 -90.5t-137.5 -32.5q-73 0 -138 33t-106 90l76 57q26 -40 72.5 -64t95.5 -24q50 0 97 23.5t73 64.5z" />
    <glyph glyph-name="abreve" unicode="&#x103;" horiz-adv-x="768" 
d="M653 0h-139v104q-32 -65 -84 -97t-108 -32q-115 0 -184.5 91t-69.5 239q0 147 69.5 236.5t184.5 89.5q56 0 108 -30t84 -93v170q0 107 -35.5 161t-118.5 54q-103 0 -194 -105l-60 101q58 64 131 94.5t146 30.5q137 0 203.5 -76t66.5 -233v-705zM360 78q110 0 154 123v200
q-45 127 -154 127q-73 0 -111 -64t-38 -161t38 -161t111 -64zM627 1278q-42 -58 -106 -90.5t-138 -32.5q-73 0 -138 33t-106 90l76 57q26 -40 72.5 -64t95.5 -24q50 0 97 23.5t73 64.5z" />
    <glyph glyph-name="Aogonek" unicode="&#x104;" horiz-adv-x="745" 
d="M723 -238l74 -34q-37 -109 -142 -109q-65 0 -104 40t-39 116q0 120 102 225h-43l-53 313h-293l-53 -313h-158l269 1366h178l270 -1366q-133 -90 -133 -221q0 -84 57 -84q55 0 68 67zM500 451l-127 731l-127 -731h254z" />
    <glyph glyph-name="aogonek" unicode="&#x105;" horiz-adv-x="768" 
d="M645 -238l74 -34q-37 -109 -141 -109q-65 0 -104.5 40t-39.5 116q0 119 103 225h-23v104q-32 -65 -84 -97t-108 -32q-115 0 -184.5 91t-69.5 239q0 147 69.5 236.5t184.5 89.5q56 0 108 -30t84 -93v170q0 107 -35.5 161t-118.5 54q-103 0 -194 -105l-60 101
q58 64 131 94.5t146 30.5q137 0 203.5 -76t66.5 -233v-705q-133 -90 -133 -221q0 -42 16 -63t42 -21q54 0 67 67zM360 78q110 0 154 123v200q-45 127 -154 127q-73 0 -111 -64t-38 -161t38 -161t111 -64z" />
    <glyph glyph-name="Cacute" unicode="&#x106;" horiz-adv-x="798" 
d="M444 -25q-93 0 -163 54t-111.5 151.5t-61.5 223t-20 278.5t20 278.5t61.5 223t111.5 151.5t163 54q62 0 111 -22t82 -63t53 -82.5t37 -95.5l-127 -49q-27 88 -61.5 130t-94.5 42q-52 0 -90.5 -42.5t-61 -121t-33.5 -178.5t-11 -225t11 -225t33.5 -178.5t61 -121
t90.5 -42.5q67 0 103 54t57 153l129 -48q-71 -299 -289 -299zM641 1786l-205 -295h-94l162 295h137z" />
    <glyph glyph-name="cacute" unicode="&#x107;" horiz-adv-x="649" 
d="M401 -25q-154 0 -238.5 146t-84.5 375t84.5 373.5t238.5 144.5q120 0 203 -90l-57 -107q-58 72 -127 72q-68 0 -114 -57.5t-64.5 -142.5t-18.5 -193q0 -79 11 -148t33.5 -125.5t61.5 -89.5t91 -33q71 0 127 72l57 -106q-75 -91 -203 -91zM598 1434l-205 -295h-94l162 295
h137z" />
    <glyph glyph-name="Ccircumflex" unicode="&#x108;" horiz-adv-x="798" 
d="M444 -25q-93 0 -163 54t-111.5 151.5t-61.5 223t-20 278.5t20 278.5t61.5 223t111.5 151.5t163 54q62 0 111 -22t82 -63t53 -82.5t37 -95.5l-127 -49q-27 88 -61.5 130t-94.5 42q-52 0 -90.5 -42.5t-61 -121t-33.5 -178.5t-11 -225t11 -225t33.5 -178.5t61 -121
t90.5 -42.5q67 0 103 54t57 153l129 -48q-71 -299 -289 -299zM653 1491h-86l-123 215l-118 -215h-84l133 295h137z" />
    <glyph glyph-name="ccircumflex" unicode="&#x109;" horiz-adv-x="649" 
d="M401 -25q-154 0 -238.5 146t-84.5 375t84.5 373.5t238.5 144.5q120 0 203 -90l-57 -107q-58 72 -127 72q-68 0 -114 -57.5t-64.5 -142.5t-18.5 -193q0 -79 11 -148t33.5 -125.5t61.5 -89.5t91 -33q71 0 127 72l57 -106q-75 -91 -203 -91zM610 1139h-86l-123 215
l-118 -215h-84l133 295h137z" />
    <glyph glyph-name="Cdotaccent" unicode="&#x10a;" horiz-adv-x="798" 
d="M444 -25q-93 0 -163 54t-111.5 151.5t-61.5 223t-20 278.5t20 278.5t61.5 223t111.5 151.5t163 54q62 0 111 -22t82 -63t53 -82.5t37 -95.5l-127 -49q-27 88 -61.5 130t-94.5 42q-52 0 -90.5 -42.5t-61 -121t-33.5 -178.5t-11 -225t11 -225t33.5 -178.5t61 -121
t90.5 -42.5q67 0 103 54t57 153l129 -48q-71 -299 -289 -299zM444 1493q-37 0 -63.5 26t-26.5 64q0 37 26.5 63.5t63.5 26.5t64 -26.5t27 -63.5q0 -38 -27 -64t-64 -26z" />
    <glyph glyph-name="cdotaccent" unicode="&#x10b;" horiz-adv-x="649" 
d="M401 -25q-154 0 -238.5 146t-84.5 375t84.5 373.5t238.5 144.5q120 0 203 -90l-57 -107q-58 72 -127 72q-68 0 -114 -57.5t-64.5 -142.5t-18.5 -193q0 -79 11 -148t33.5 -125.5t61.5 -89.5t91 -33q71 0 127 72l57 -106q-75 -91 -203 -91zM406 1180q-37 0 -64 26t-27 64
q0 37 27 63.5t64 26.5t63.5 -26.5t26.5 -63.5q0 -38 -26.5 -64t-63.5 -26z" />
    <glyph glyph-name="Ccaron" unicode="&#x10c;" horiz-adv-x="798" 
d="M444 -25q-93 0 -163 54t-111.5 151.5t-61.5 223t-20 278.5t20 278.5t61.5 223t111.5 151.5t163 54q62 0 111 -22t82 -63t53 -82.5t37 -95.5l-127 -49q-27 88 -61.5 130t-94.5 42q-52 0 -90.5 -42.5t-61 -121t-33.5 -178.5t-11 -225t11 -225t33.5 -178.5t61 -121
t90.5 -42.5q67 0 103 54t57 153l129 -48q-71 -299 -289 -299zM518 1491h-137l-139 295h84l125 -215l116 215h86z" />
    <glyph glyph-name="ccaron" unicode="&#x10d;" horiz-adv-x="649" 
d="M401 -25q-154 0 -238.5 146t-84.5 375t84.5 373.5t238.5 144.5q120 0 203 -90l-57 -107q-58 72 -127 72q-68 0 -114 -57.5t-64.5 -142.5t-18.5 -193q0 -79 11 -148t33.5 -125.5t61.5 -89.5t91 -33q71 0 127 72l57 -106q-75 -91 -203 -91zM475 1139h-137l-139 295h84
l125 -215l116 215h86z" />
    <glyph glyph-name="Dcaron" unicode="&#x10e;" horiz-adv-x="874" 
d="M389 0h-260v1366h258q104 0 182.5 -51t125.5 -144.5t70 -215.5t23 -273q0 -153 -22.5 -275t-69.5 -214.5t-125 -142.5t-182 -50zM389 137q123 0 180.5 144.5t57.5 400.5q0 257 -57.5 402t-180.5 145h-106v-1092h106zM500 1491h-138l-139 295h84l125 -215l117 215h86z" />
    <glyph glyph-name="dcaron" unicode="&#x10f;" horiz-adv-x="954" 
d="M672 0h-140v133q-32 -73 -83 -115.5t-103 -42.5q-134 0 -201 140.5t-67 378.5q0 154 27.5 268t89 183t151.5 69q55 0 106 -41t80 -121v514h140v-1366zM381 100q46 0 89.5 49t61.5 115v459q-18 67 -61.5 116.5t-89.5 49.5q-158 0 -158 -395q0 -394 158 -394zM965 1257
q0 -80 -41 -152.5t-103 -117.5l-63 51q47 33 80 83.5t36 95.5l-8 -1q-8 -2 -12 -2q-35 0 -59.5 24.5t-24.5 61.5t26 64t64 27q43 0 74 -36.5t31 -97.5z" />
    <glyph glyph-name="Dcroat" unicode="&#x110;" horiz-adv-x="913" 
d="M428 0h-260v618h-125v115h125v633h258q104 0 182.5 -51t125.5 -144.5t70 -215.5t23 -273q0 -153 -22.5 -275t-69.5 -214.5t-125 -142.5t-182 -50zM492 618h-170v-481h106q123 0 180.5 144.5t57.5 400.5q0 257 -57.5 402t-180.5 145h-106v-496h170v-115z" />
    <glyph glyph-name="dcroat" unicode="&#x111;" horiz-adv-x="813" 
d="M672 0h-140v133q-32 -73 -83 -115.5t-103 -42.5q-134 0 -201 140.5t-67 378.5q0 154 27.5 268t89 183t151.5 69q55 0 106 -41t80 -121v246h-245v92h245v176h140v-176h92v-92h-92v-1098zM381 100q46 0 89.5 49t61.5 115v459q-18 67 -61.5 116.5t-89.5 49.5
q-158 0 -158 -395q0 -394 158 -394z" />
    <glyph glyph-name="Emacron" unicode="&#x112;" horiz-adv-x="720" 
d="M637 0h-508v1366h508v-137h-354v-461h340v-137h-340v-494h354v-137zM639 1534h-508v92h508v-92z" />
    <glyph glyph-name="emacron" unicode="&#x113;" horiz-adv-x="763" 
d="M420 -25q-168 0 -255 143t-87 378q0 148 32 262t104 185t177 71q65 0 117 -26.5t87 -73t58 -112.5t33 -141.5t10 -162.5v-49h-479q2 -164 56 -260.5t157 -96.5q45 0 88.5 31.5t75.5 89.5l82 -76q-47 -76 -113 -119t-143 -43zM557 553q0 64 -7.5 120.5t-25.5 109t-53 83.5
t-84 31t-84 -33t-52.5 -87.5t-25.5 -109.5t-8 -114h340zM635 1184h-508v92h508v-92z" />
    <glyph glyph-name="Ebreve" unicode="&#x114;" horiz-adv-x="720" 
d="M637 0h-508v1366h508v-137h-354v-461h340v-137h-340v-494h354v-137zM629 1604q-42 -58 -106 -90.5t-138 -32.5q-73 0 -138 33t-106 90l76 57q26 -40 72.5 -64t95.5 -24q50 0 97 23.5t73 64.5z" />
    <glyph glyph-name="ebreve" unicode="&#x115;" horiz-adv-x="763" 
d="M420 -25q-168 0 -255 143t-87 378q0 148 32 262t104 185t177 71q65 0 117 -26.5t87 -73t58 -112.5t33 -141.5t10 -162.5v-49h-479q2 -164 56 -260.5t157 -96.5q45 0 88.5 31.5t75.5 89.5l82 -76q-47 -76 -113 -119t-143 -43zM557 553q0 64 -7.5 120.5t-25.5 109t-53 83.5
t-84 31t-84 -33t-52.5 -87.5t-25.5 -109.5t-8 -114h340zM635 1278q-42 -58 -106 -90.5t-138 -32.5q-73 0 -138 33t-106 90l76 57q26 -40 72.5 -64t95.5 -24q50 0 97 23.5t73 64.5z" />
    <glyph glyph-name="Edotaccent" unicode="&#x116;" horiz-adv-x="720" 
d="M637 0h-508v1366h508v-137h-354v-461h340v-137h-340v-494h354v-137zM397 1493q-37 0 -63.5 26t-26.5 64q0 37 26.5 63.5t63.5 26.5t63.5 -26.5t26.5 -63.5q0 -38 -26.5 -64t-63.5 -26z" />
    <glyph glyph-name="edotaccent" unicode="&#x117;" horiz-adv-x="763" 
d="M420 -25q-168 0 -255 143t-87 378q0 148 32 262t104 185t177 71q65 0 117 -26.5t87 -73t58 -112.5t33 -141.5t10 -162.5v-49h-479q2 -164 56 -260.5t157 -96.5q45 0 88.5 31.5t75.5 89.5l82 -76q-47 -76 -113 -119t-143 -43zM557 553q0 64 -7.5 120.5t-25.5 109t-53 83.5
t-84 31t-84 -33t-52.5 -87.5t-25.5 -109.5t-8 -114h340zM391 1180q-37 0 -63.5 26t-26.5 64q0 37 26.5 63.5t63.5 26.5t63.5 -26.5t26.5 -63.5q0 -38 -26.5 -64t-63.5 -26z" />
    <glyph glyph-name="Eogonek" unicode="&#x118;" horiz-adv-x="720" 
d="M629 -238l73 -34q-37 -109 -141 -109q-65 0 -104 40t-39 116q0 120 102 225h-391v1366h508v-137h-354v-461h340v-137h-340v-494h354v-137q-133 -90 -133 -221q0 -84 57 -84q55 0 68 67z" />
    <glyph glyph-name="eogonek" unicode="&#x119;" horiz-adv-x="763" 
d="M522 -238l74 -34q-37 -109 -141 -109q-65 0 -104.5 40t-39.5 116q0 106 80 202q-154 12 -233.5 153t-79.5 366q0 148 32 262t104 185t177 71q65 0 117 -26.5t87 -73t58 -112.5t33 -141.5t10 -162.5v-49h-479q2 -164 56 -260.5t157 -96.5q45 0 88.5 31.5t75.5 89.5l82 -76
q-59 -96 -146 -137q-133 -90 -133 -221q0 -42 16 -63t42 -21q54 0 67 67zM557 553q0 64 -7.5 120.5t-25.5 109t-53 83.5t-84 31t-84 -33t-52.5 -87.5t-25.5 -109.5t-8 -114h340z" />
    <glyph glyph-name="Ecaron" unicode="&#x11a;" horiz-adv-x="720" 
d="M637 0h-508v1366h508v-137h-354v-461h340v-137h-340v-494h354v-137zM451 1491h-138l-139 295h84l125 -215l117 215h86z" />
    <glyph glyph-name="ecaron" unicode="&#x11b;" horiz-adv-x="763" 
d="M420 -25q-168 0 -255 143t-87 378q0 148 32 262t104 185t177 71q65 0 117 -26.5t87 -73t58 -112.5t33 -141.5t10 -162.5v-49h-479q2 -164 56 -260.5t157 -96.5q45 0 88.5 31.5t75.5 89.5l82 -76q-47 -76 -113 -119t-143 -43zM557 553q0 64 -7.5 120.5t-25.5 109t-53 83.5
t-84 31t-84 -33t-52.5 -87.5t-25.5 -109.5t-8 -114h340zM461 1139h-137l-140 295h84l125 -215l117 215h86z" />
    <glyph glyph-name="Gcircumflex" unicode="&#x11c;" horiz-adv-x="841" 
d="M444 -25q-121 0 -202 91t-117.5 246.5t-36.5 369.5q0 215 36.5 370.5t117.5 246t202 90.5q112 0 181 -72.5t102 -190.5l-127 -49q-26 86 -60.5 129t-95.5 43q-99 0 -147.5 -150t-48.5 -417q0 -266 48.5 -416.5t147.5 -150.5t148 84v358h-182v137h321v-555
q-105 -164 -287 -164zM653 1491h-86l-123 215l-118 -215h-84l133 295h137z" />
    <glyph glyph-name="gcircumflex" unicode="&#x11d;" horiz-adv-x="786" 
d="M365 -401q-164 0 -263 102l58 115q38 -41 89 -66.5t103 -25.5q85 0 132.5 58.5t47.5 178.5v189q-32 -74 -83 -118t-103 -44q-91 0 -152 66t-88.5 178.5t-27.5 267.5q0 235 67 374.5t201 139.5q55 0 106 -41t80 -121v137h140v-1028q0 -189 -84 -275.5t-223 -86.5zM381 113
q46 0 89.5 50t61.5 118v442q-18 67 -61.5 116.5t-89.5 49.5q-158 0 -158 -389q0 -387 158 -387zM600 1126h-86l-123 215l-119 -215h-84l134 295h137z" />
    <glyph glyph-name="Gbreve" unicode="&#x11e;" horiz-adv-x="841" 
d="M444 -25q-121 0 -202 91t-117.5 246.5t-36.5 369.5q0 215 36.5 370.5t117.5 246t202 90.5q112 0 181 -72.5t102 -190.5l-127 -49q-26 86 -60.5 129t-95.5 43q-99 0 -147.5 -150t-48.5 -417q0 -266 48.5 -416.5t147.5 -150.5t148 84v358h-182v137h321v-555
q-105 -164 -287 -164zM692 1604q-42 -58 -105.5 -90.5t-137.5 -32.5q-73 0 -138 33t-106 90l76 57q26 -40 72.5 -64t95.5 -24q50 0 96.5 23.5t72.5 64.5z" />
    <glyph glyph-name="gbreve" unicode="&#x11f;" horiz-adv-x="786" 
d="M365 -401q-164 0 -263 102l58 115q38 -41 89 -66.5t103 -25.5q85 0 132.5 58.5t47.5 178.5v189q-32 -74 -83 -118t-103 -44q-91 0 -152 66t-88.5 178.5t-27.5 267.5q0 235 67 374.5t201 139.5q55 0 106 -41t80 -121v137h140v-1028q0 -189 -84 -275.5t-223 -86.5zM381 113
q46 0 89.5 50t61.5 118v442q-18 67 -61.5 116.5t-89.5 49.5q-158 0 -158 -389q0 -387 158 -387zM635 1278q-42 -58 -106 -90.5t-138 -32.5q-73 0 -138 33t-106 90l76 57q26 -40 72.5 -64t95.5 -24q50 0 97 23.5t73 64.5z" />
    <glyph glyph-name="Gdotaccent" unicode="&#x120;" horiz-adv-x="841" 
d="M444 -25q-121 0 -202 91t-117.5 246.5t-36.5 369.5q0 215 36.5 370.5t117.5 246t202 90.5q112 0 181 -72.5t102 -190.5l-127 -49q-26 86 -60.5 129t-95.5 43q-99 0 -147.5 -150t-48.5 -417q0 -266 48.5 -416.5t147.5 -150.5t148 84v358h-182v137h321v-555
q-105 -164 -287 -164zM446 1493q-37 0 -63.5 26t-26.5 64q0 37 26.5 63.5t63.5 26.5t64 -26.5t27 -63.5q0 -38 -27 -64t-64 -26z" />
    <glyph glyph-name="gdotaccent" unicode="&#x121;" horiz-adv-x="786" 
d="M365 -401q-164 0 -263 102l58 115q38 -41 89 -66.5t103 -25.5q85 0 132.5 58.5t47.5 178.5v189q-32 -74 -83 -118t-103 -44q-91 0 -152 66t-88.5 178.5t-27.5 267.5q0 235 67 374.5t201 139.5q55 0 106 -41t80 -121v137h140v-1028q0 -189 -84 -275.5t-223 -86.5zM381 113
q46 0 89.5 50t61.5 118v442q-18 67 -61.5 116.5t-89.5 49.5q-158 0 -158 -389q0 -387 158 -387zM391 1180q-37 0 -63.5 26t-26.5 64q0 37 26.5 63.5t63.5 26.5t63.5 -26.5t26.5 -63.5q0 -38 -26.5 -64t-63.5 -26z" />
    <glyph glyph-name="Gcommaaccent" unicode="&#x122;" horiz-adv-x="841" 
d="M444 -25q-121 0 -202 91t-117.5 246.5t-36.5 369.5q0 215 36.5 370.5t117.5 246t202 90.5q112 0 181 -72.5t102 -190.5l-127 -49q-26 86 -60.5 129t-95.5 43q-99 0 -147.5 -150t-48.5 -417q0 -266 48.5 -416.5t147.5 -150.5t148 84v358h-182v137h321v-555
q-105 -164 -287 -164zM541 -283q0 -80 -41 -152.5t-103 -117.5l-63 51q47 33 80.5 83t36.5 95q-1 0 -9 -1t-12 -1q-35 0 -59.5 24.5t-24.5 61.5t26 63.5t64 26.5q43 0 74 -36t31 -97z" />
    <glyph glyph-name="gcommaaccent" unicode="&#x123;" horiz-adv-x="786" 
d="M285 1266q0 88 40 166t99 120l65 -53q-45 -30 -79 -80t-37 -94q4 2 10 2q33 0 61.5 -26t28.5 -62q0 -37 -27 -64.5t-65 -27.5q-39 0 -67.5 31.5t-28.5 87.5zM365 -401q-164 0 -263 102l58 115q38 -41 89 -66.5t103 -25.5q85 0 132.5 58.5t47.5 178.5v189
q-32 -74 -83 -118t-103 -44q-91 0 -152 66t-88.5 178.5t-27.5 267.5q0 235 67 374.5t201 139.5q55 0 106 -41t80 -121v137h140v-1028q0 -189 -84 -275.5t-223 -86.5zM381 113q46 0 89.5 50t61.5 118v442q-18 67 -61.5 116.5t-89.5 49.5q-158 0 -158 -389q0 -387 158 -387z
" />
    <glyph glyph-name="Hcircumflex" unicode="&#x124;" horiz-adv-x="892" 
d="M764 0h-154v633h-327v-633h-154v1366h154v-594h327v594h154v-1366zM653 1491h-86l-123 215l-118 -215h-84l133 295h137z" />
    <glyph glyph-name="hcircumflex" unicode="&#x125;" 
d="M659 0h-139v762q0 127 -94 127q-54 0 -100.5 -47.5t-71.5 -114.5v-727h-139v1366h139v-516q34 69 95 116.5t126 47.5q97 0 140.5 -52.5t43.5 -162.5v-799zM395 1491h-86l-123 215l-118 -215h-84l133 295h137z" />
    <glyph glyph-name="Hbar" unicode="&#x126;" horiz-adv-x="978" 
d="M807 0h-154v633h-327v-633h-154v1026h-129v92h129v248h154v-248h327v248h154v-248h119v-92h-119v-1026zM326 772h327v254h-327v-254z" />
    <glyph glyph-name="hbar" unicode="&#x127;" horiz-adv-x="802" 
d="M520 1098h-237v-248q34 69 95 116.5t126 47.5q97 0 140.5 -52.5t43.5 -162.5v-799h-139v762q0 127 -94 127q-54 0 -100.5 -47.5t-71.5 -114.5v-727h-140v1098h-100v92h100v176h140v-176h237v-92z" />
    <glyph glyph-name="Itilde" unicode="&#x128;" horiz-adv-x="411" 
d="M283 0h-154v1366h154v-1366zM291 1487q-38 0 -63 30.5t-35 66.5t-26.5 66.5t-39.5 30.5q-32 0 -51 -45t-19 -137h-80q0 123 37.5 199t112.5 76q38 0 63.5 -30.5t35.5 -67t26.5 -67t38.5 -30.5q69 0 69 182h82q0 -121 -38 -197.5t-113 -76.5z" />
    <glyph glyph-name="itilde" unicode="&#x129;" horiz-adv-x="368" 
d="M254 0h-139v989h139v-989zM268 1108q-38 0 -63 30.5t-35 67t-26.5 67t-39.5 30.5q-69 0 -69 -183h-80q0 123 37.5 199t111.5 76q38 0 63.5 -30.5t35.5 -67t26.5 -67t38.5 -30.5q70 0 70 182h82q0 -121 -38.5 -197.5t-113.5 -76.5z" />
    <glyph glyph-name="Imacron" unicode="&#x12a;" horiz-adv-x="411" 
d="M283 0h-154v1366h154v-1366zM459 1534h-508v92h508v-92z" />
    <glyph glyph-name="imacron" unicode="&#x12b;" horiz-adv-x="368" 
d="M254 0h-139v989h139v-989zM438 1184h-508v92h508v-92z" />
    <glyph glyph-name="Ibreve" unicode="&#x12c;" horiz-adv-x="411" 
d="M283 0h-154v1366h154v-1366zM451 1604q-42 -58 -106 -90.5t-138 -32.5q-73 0 -138 33t-106 90l76 57q26 -40 72.5 -64t95.5 -24q50 0 97 23.5t73 64.5z" />
    <glyph glyph-name="ibreve" unicode="&#x12d;" horiz-adv-x="368" 
d="M254 0h-139v989h139v-989zM428 1278q-42 -58 -106 -90.5t-138 -32.5q-73 0 -137 33t-106 90l75 57q26 -40 72.5 -64t95.5 -24q50 0 97 23.5t73 64.5z" />
    <glyph glyph-name="Iogonek" unicode="&#x12e;" horiz-adv-x="411" 
d="M274 -238l74 -34q-37 -109 -141 -109q-65 0 -104.5 40t-39.5 116q0 119 103 225h-37v1366h154v-1366q-133 -90 -133 -221q0 -84 57 -84q54 0 67 67z" />
    <glyph glyph-name="iogonek" unicode="&#x12f;" horiz-adv-x="368" 
d="M246 -238l73 -34q-37 -109 -141 -109q-65 0 -104 40t-39 116q0 120 102 225h-22v989h139v-989q-133 -90 -133 -221q0 -84 57 -84q55 0 68 67zM184 1135q-39 0 -67.5 28.5t-28.5 67.5t28.5 67.5t67.5 28.5q40 0 69.5 -28.5t29.5 -67.5t-29.5 -67.5t-69.5 -28.5z" />
    <glyph glyph-name="Idotaccent" unicode="&#x130;" horiz-adv-x="411" 
d="M283 0h-154v1366h154v-1366zM207 1493q-37 0 -63.5 26t-26.5 64q0 37 26.5 63.5t63.5 26.5t63.5 -26.5t26.5 -63.5q0 -38 -26.5 -64t-63.5 -26z" />
    <glyph glyph-name="dotlessi" unicode="&#x131;" horiz-adv-x="368" 
d="M254 0h-139v989h139v-989z" />
    <glyph glyph-name="IJ" unicode="&#x132;" horiz-adv-x="1069" 
d="M283 0h-154v1366h154v-1366zM643 -25q-131 0 -217 95l59 123q56 -78 144 -78q159 0 159 182v1069h154v-1075q0 -160 -80 -238t-219 -78z" />
    <glyph glyph-name="ij" unicode="&#x133;" horiz-adv-x="739" 
d="M184 1135q-39 0 -67.5 28.5t-28.5 67.5t28.5 67.5t67.5 28.5q40 0 69.5 -28.5t29.5 -67.5t-29.5 -67.5t-69.5 -28.5zM254 0h-139v989h139v-989zM553 1135q-39 0 -67.5 28.5t-28.5 67.5t28.5 67.5t67.5 28.5q40 0 69 -28t29 -68t-29 -68t-69 -28zM424 -401q-81 0 -121 63
l55 100q18 -38 58 -38q33 0 50 29t17 102v1134h140v-1134q0 -135 -49 -195.5t-150 -60.5z" />
    <glyph glyph-name="Jcircumflex" unicode="&#x134;" horiz-adv-x="657" 
d="M231 -25q-131 0 -217 95l60 123q56 -78 143 -78q160 0 160 182v1069h153v-1075q0 -160 -80 -238t-219 -78zM659 1491h-86l-122 215l-119 -215h-84l133 295h137z" />
    <glyph glyph-name="jcircumflex" unicode="&#x135;" horiz-adv-x="368" 
d="M55 -401q-81 0 -121 63l56 100q18 -38 57 -38q33 0 50.5 29.5t17.5 101.5v1134h139v-1134q0 -135 -49 -195.5t-150 -60.5zM395 1139h-86l-123 215l-118 -215h-84l133 295h137z" />
    <glyph glyph-name="Kcommaaccent" unicode="&#x136;" horiz-adv-x="856" 
d="M834 0h-179l-280 592l-92 -176v-416h-154v1366h154v-711l350 711h174l-346 -649zM541 -283q0 -80 -41 -152.5t-103 -117.5l-63 51q47 33 80.5 83t36.5 95q-1 0 -9 -1t-12 -1q-35 0 -59.5 24.5t-24.5 61.5t26 63.5t64 26.5q43 0 74 -36t31 -97z" />
    <glyph glyph-name="kcommaaccent" unicode="&#x137;" horiz-adv-x="739" 
d="M709 0h-154l-186 449l-115 -197v-252h-139v1366h139v-924l303 547h152l-250 -442zM481 -283q0 -80 -40.5 -152.5t-102.5 -117.5l-64 51q47 33 80.5 83t36.5 95q-1 0 -9 -1t-11 -1q-35 0 -59.5 24.5t-24.5 61.5t26 63.5t64 26.5q43 0 73.5 -36t30.5 -97z" />
    <glyph glyph-name="kgreenlandic" unicode="&#x138;" horiz-adv-x="739" 
d="M709 0h-154l-186 449l-115 -197v-252h-139v989h139v-547l303 547h152l-250 -442z" />
    <glyph glyph-name="Lacute" unicode="&#x139;" horiz-adv-x="681" 
d="M637 0h-508v1366h154v-1229h354v-137zM539 1786l-205 -295h-94l161 295h138z" />
    <glyph glyph-name="lacute" unicode="&#x13a;" horiz-adv-x="368" 
d="M254 0h-139v1366h139v-1366zM379 1786l-205 -295h-94l162 295h137z" />
    <glyph glyph-name="Lcommaaccent" unicode="&#x13b;" horiz-adv-x="681" 
d="M637 0h-508v1366h154v-1229h354v-137zM453 -283q0 -80 -41 -152.5t-103 -117.5l-63 51q47 33 80 83t36 95l-8 -1q-8 -1 -12 -1q-35 0 -59.5 24.5t-24.5 61.5t26 63.5t64 26.5q43 0 74 -36t31 -97z" />
    <glyph glyph-name="lcommaaccent" unicode="&#x13c;" horiz-adv-x="368" 
d="M254 0h-139v1366h139v-1366zM297 -283q0 -80 -40.5 -152.5t-102.5 -117.5l-64 51q47 33 80.5 83t36.5 95q-1 0 -9 -1t-12 -1q-35 0 -59.5 24.5t-24.5 61.5t26.5 63.5t64.5 26.5q43 0 73.5 -36t30.5 -97z" />
    <glyph glyph-name="Lcaron" unicode="&#x13d;" horiz-adv-x="681" 
d="M637 0h-508v1366h154v-1229h354v-137zM590 1262q0 -80 -41 -153t-103 -118l-63 51q47 33 80.5 83.5t36.5 95.5l-9 -1q-9 -1 -12 -1q-35 0 -59.5 24.5t-24.5 61.5t26 63.5t64 26.5q43 0 74 -36t31 -97z" />
    <glyph glyph-name="lcaron" unicode="&#x13e;" horiz-adv-x="534" 
d="M254 0h-139v1366h139v-1366zM578 1260q0 -80 -41 -153t-103 -118l-63 51q47 33 80 83.5t36 95.5q-1 0 -9 -1t-11 -1q-35 0 -59.5 24.5t-24.5 61.5t26 63.5t64 26.5q43 0 74 -36t31 -97z" />
    <glyph glyph-name="Ldot" unicode="&#x13f;" horiz-adv-x="743" 
d="M637 0h-508v1366h154v-1229h354v-137zM682 700q0 -43 -31.5 -74.5t-75.5 -31.5q-43 0 -74.5 31.5t-31.5 74.5q0 42 31.5 73.5t74.5 31.5q44 0 75.5 -31.5t31.5 -73.5z" />
    <glyph glyph-name="ldot" unicode="&#x140;" horiz-adv-x="587" 
d="M254 0h-139v1366h139v-1366zM586 502q0 -43 -31.5 -75t-75.5 -32q-43 0 -74.5 32t-31.5 75q0 41 31.5 72.5t74.5 31.5q44 0 75.5 -31t31.5 -73z" />
    <glyph glyph-name="Lslash" unicode="&#x141;" horiz-adv-x="708" 
d="M43 508v135l113 64v659h153v-569l125 71v-135l-125 -71v-525h355v-137h-508v571z" />
    <glyph glyph-name="lslash" unicode="&#x142;" horiz-adv-x="454" 
d="M43 537v114l115 64v651h139v-571l115 65v-115l-115 -65v-680h-139v600z" />
    <glyph glyph-name="Nacute" unicode="&#x143;" horiz-adv-x="892" 
d="M764 0h-148l-333 995v-995h-154v1366h154l327 -975v975h154v-1366zM641 1786l-205 -295h-94l162 295h137z" />
    <glyph glyph-name="nacute" unicode="&#x144;" 
d="M659 0h-139v760q0 129 -94 129q-54 0 -100.5 -47.5t-71.5 -114.5v-727h-139v989h139v-139q34 69 95 116.5t126 47.5q96 0 140 -54t44 -161v-799zM582 1434l-205 -295h-94l161 295h138z" />
    <glyph glyph-name="Ncommaaccent" unicode="&#x145;" horiz-adv-x="892" 
d="M764 0h-148l-333 995v-995h-154v1366h154l327 -975v975h154v-1366zM557 -283q0 -80 -40.5 -152.5t-102.5 -117.5l-64 51q47 33 80.5 83t36.5 95q-1 0 -9 -1t-12 -1q-35 0 -59.5 24.5t-24.5 61.5t26.5 63.5t64.5 26.5q43 0 73.5 -36t30.5 -97z" />
    <glyph glyph-name="ncommaaccent" unicode="&#x146;" 
d="M659 0h-139v760q0 129 -94 129q-54 0 -100.5 -47.5t-71.5 -114.5v-727h-139v989h139v-139q34 69 95 116.5t126 47.5q96 0 140 -54t44 -161v-799zM500 -283q0 -80 -41 -152.5t-103 -117.5l-63 51q47 33 80.5 83t36.5 95q-1 0 -9.5 -1t-11.5 -1q-35 0 -59.5 24.5
t-24.5 61.5t26 63.5t64 26.5q43 0 74 -36t31 -97z" />
    <glyph glyph-name="Ncaron" unicode="&#x147;" horiz-adv-x="892" 
d="M764 0h-148l-333 995v-995h-154v1366h154l327 -975v975h154v-1366zM518 1491h-137l-139 295h84l125 -215l116 215h86z" />
    <glyph glyph-name="ncaron" unicode="&#x148;" 
d="M659 0h-139v760q0 129 -94 129q-54 0 -100.5 -47.5t-71.5 -114.5v-727h-139v989h139v-139q34 69 95 116.5t126 47.5q96 0 140 -54t44 -161v-799zM457 1139h-138l-139 295h84l125 -215l117 215h86z" />
    <glyph glyph-name="napostrophe" unicode="&#x149;" 
d="M659 0h-139v760q0 129 -94 129q-54 0 -100.5 -47.5t-71.5 -114.5v-727h-139v989h139v-139q34 69 95 116.5t126 47.5q96 0 140 -54t44 -161v-799zM283 1384q0 -80 -41 -152.5t-103 -117.5l-63 51q47 33 80.5 83t36.5 95q-1 0 -9 -1t-12 -1q-35 0 -59.5 24.5t-24.5 61.5
t26 64t64 27q43 0 74 -36.5t31 -97.5z" />
    <glyph glyph-name="Eng" unicode="&#x14a;" horiz-adv-x="892" 
d="M465 -401q-132 0 -217 94l59 121q56 -78 144 -78q159 0 159 182v100l-327 977v-995h-154v1366h154l327 -975v975h154v-1452q0 -160 -79 -237.5t-220 -77.5z" />
    <glyph glyph-name="eng" unicode="&#x14b;" 
d="M459 -401q-82 0 -119 63l53 100q18 -38 58 -38q33 0 51 29.5t18 101.5v905q0 129 -94 129q-54 0 -100.5 -47.5t-71.5 -114.5v-727h-139v989h139v-139q34 69 95 116.5t126 47.5q96 0 140 -54t44 -161v-944q0 -135 -49 -195.5t-151 -60.5z" />
    <glyph glyph-name="Omacron" unicode="&#x14c;" horiz-adv-x="888" 
d="M444 -25q-95 0 -165 55t-111 153.5t-60.5 223t-19.5 275.5t19.5 275.5t60.5 223t111 153.5t165 55t165 -55t111.5 -153.5t61 -223t19.5 -275.5t-19.5 -275.5t-61 -223t-111.5 -153.5t-165 -55zM444 115q53 0 92 45t61.5 125t33 179t10.5 218q0 121 -10.5 220t-33 178.5
t-61.5 124t-92 44.5t-92 -44t-61 -124.5t-32.5 -179t-10.5 -219.5q0 -120 10.5 -218.5t32.5 -178.5t61 -125t92 -45zM698 1534h-508v92h508v-92z" />
    <glyph glyph-name="omacron" unicode="&#x14d;" horiz-adv-x="782" 
d="M391 -25q-82 0 -144 42.5t-98 116.5t-53.5 165t-17.5 197t17.5 196.5t53.5 164t98 115.5t144 42t144 -42t98.5 -115.5t54 -164t17.5 -196.5q0 -84 -10.5 -159t-34.5 -142t-60 -115t-89.5 -76.5t-119.5 -28.5zM391 100q168 0 168 396q0 393 -168 393q-48 0 -82 -32.5
t-52 -91t-26 -124t-8 -145.5t8 -146.5t26 -125t52 -91.5t82 -33zM645 1184h-508v92h508v-92z" />
    <glyph glyph-name="Obreve" unicode="&#x14e;" horiz-adv-x="888" 
d="M444 -25q-95 0 -165 55t-111 153.5t-60.5 223t-19.5 275.5t19.5 275.5t60.5 223t111 153.5t165 55t165 -55t111.5 -153.5t61 -223t19.5 -275.5t-19.5 -275.5t-61 -223t-111.5 -153.5t-165 -55zM444 115q53 0 92 45t61.5 125t33 179t10.5 218q0 121 -10.5 220t-33 178.5
t-61.5 124t-92 44.5t-92 -44t-61 -124.5t-32.5 -179t-10.5 -219.5q0 -120 10.5 -218.5t32.5 -178.5t61 -125t92 -45zM688 1604q-42 -58 -106 -90.5t-138 -32.5q-73 0 -137 33t-106 90l75 57q26 -40 72.5 -64t95.5 -24q50 0 97 23.5t73 64.5z" />
    <glyph glyph-name="obreve" unicode="&#x14f;" horiz-adv-x="782" 
d="M391 -25q-82 0 -144 42.5t-98 116.5t-53.5 165t-17.5 197t17.5 196.5t53.5 164t98 115.5t144 42t144 -42t98.5 -115.5t54 -164t17.5 -196.5q0 -84 -10.5 -159t-34.5 -142t-60 -115t-89.5 -76.5t-119.5 -28.5zM391 100q168 0 168 396q0 393 -168 393q-48 0 -82 -32.5
t-52 -91t-26 -124t-8 -145.5t8 -146.5t26 -125t52 -91.5t82 -33zM635 1278q-42 -58 -106 -90.5t-138 -32.5q-73 0 -138 33t-106 90l76 57q26 -40 72.5 -64t95.5 -24q50 0 97 23.5t73 64.5z" />
    <glyph glyph-name="Ohungarumlaut" unicode="&#x150;" horiz-adv-x="888" 
d="M444 -25q-95 0 -165 55t-111 153.5t-60.5 223t-19.5 275.5t19.5 275.5t60.5 223t111 153.5t165 55t165 -55t111.5 -153.5t61 -223t19.5 -275.5t-19.5 -275.5t-61 -223t-111.5 -153.5t-165 -55zM444 115q53 0 92 45t61.5 125t33 179t10.5 218q0 121 -10.5 220t-33 178.5
t-61.5 124t-92 44.5t-92 -44t-61 -124.5t-32.5 -179t-10.5 -219.5q0 -120 10.5 -218.5t32.5 -178.5t61 -125t92 -45zM504 1786l-158 -295h-78l115 295h121zM743 1786l-159 -295h-78l115 295h122z" />
    <glyph glyph-name="ohungarumlaut" unicode="&#x151;" horiz-adv-x="782" 
d="M391 -25q-82 0 -144 42.5t-98 116.5t-53.5 165t-17.5 197t17.5 196.5t53.5 164t98 115.5t144 42t144 -42t98.5 -115.5t54 -164t17.5 -196.5q0 -84 -10.5 -159t-34.5 -142t-60 -115t-89.5 -76.5t-119.5 -28.5zM391 100q168 0 168 396q0 393 -168 393q-48 0 -82 -32.5
t-52 -91t-26 -124t-8 -145.5t8 -146.5t26 -125t52 -91.5t82 -33zM451 1434l-158 -295h-78l115 295h121zM690 1434l-160 -295h-77l114 295h123z" />
    <glyph glyph-name="OE" unicode="&#x152;" horiz-adv-x="1216" 
d="M1128 0h-505v135q-36 -87 -92 -123.5t-111 -36.5q-89 0 -155 55t-103.5 154.5t-55.5 223t-18 274.5q0 152 18 275t55.5 221.5t103.5 153t155 54.5q34 0 67.5 -11t72 -48t63.5 -96v135h505v-137h-352v-461h338v-137h-338v-494h352v-137zM623 365v636q-23 118 -69.5 182
t-109.5 64q-196 0 -196 -565q0 -567 196 -567q62 0 109 66t70 184z" />
    <glyph glyph-name="oe" unicode="&#x153;" horiz-adv-x="1245" 
d="M1178 449h-480q0 -163 55 -260t158 -97q45 0 88.5 31.5t75.5 89.5l82 -76q-47 -76 -113 -119t-143 -43q-102 0 -165.5 57.5t-100.5 168.5q-73 -226 -244 -226q-82 0 -144 42.5t-98 116.5t-53.5 165t-17.5 197t17.5 196.5t53.5 164t98 115.5t144 42q171 0 242 -219
q66 219 239 219q81 0 141.5 -40.5t95.5 -113t52 -163.5t17 -201v-47zM698 553h340q0 64 -7.5 120t-25.5 109t-53 84t-84 31t-84 -33t-52.5 -87.5t-25.5 -110t-8 -113.5zM559 496q0 393 -168 393q-48 0 -82 -32.5t-52 -91t-26 -124t-8 -145.5t8 -146.5t26 -125.5t52 -92.5
t82 -33.5q168 0 168 398z" />
    <glyph glyph-name="Racute" unicode="&#x154;" horiz-adv-x="837" 
d="M748 0h-168l-177 551h-120v-551h-154v1366h285q143 0 232 -109t89 -294q0 -86 -17 -155.5t-46 -113t-60 -70t-65 -40.5zM395 688q88 0 134 73.5t46 196.5t-46 197t-134 74h-112v-541h112zM610 1786l-204 -295h-95l162 295h137z" />
    <glyph glyph-name="racute" unicode="&#x155;" horiz-adv-x="516" 
d="M254 0h-139v989h139v-158q37 83 95.5 131t135.5 48v-144q-24 4 -39 4q-59 0 -109.5 -47t-82.5 -118v-705zM492 1434l-205 -295h-94l161 295h138z" />
    <glyph glyph-name="Rcommaaccent" unicode="&#x156;" horiz-adv-x="837" 
d="M748 0h-168l-177 551h-120v-551h-154v1366h285q143 0 232 -109t89 -294q0 -86 -17 -155.5t-46 -113t-60 -70t-65 -40.5zM395 688q88 0 134 73.5t46 196.5t-46 197t-134 74h-112v-541h112zM526 -283q0 -80 -40.5 -152.5t-102.5 -117.5l-64 51q47 33 80.5 83t36.5 95l-8 -1
q-8 -1 -12 -1q-35 0 -59.5 24.5t-24.5 61.5t26 63.5t64 26.5q43 0 73.5 -36t30.5 -97z" />
    <glyph glyph-name="rcommaaccent" unicode="&#x157;" horiz-adv-x="516" 
d="M254 0h-139v989h139v-158q37 83 95.5 131t135.5 48v-144q-24 4 -39 4q-59 0 -109.5 -47t-82.5 -118v-705zM369 -283q0 -80 -41 -152.5t-103 -117.5l-63 51q47 33 80.5 83t36.5 95q-1 0 -9 -1t-12 -1q-35 0 -59.5 24.5t-24.5 61.5t26 63.5t64 26.5q43 0 74 -36t31 -97z
" />
    <glyph glyph-name="Rcaron" unicode="&#x158;" horiz-adv-x="837" 
d="M748 0h-168l-177 551h-120v-551h-154v1366h285q143 0 232 -109t89 -294q0 -86 -17 -155.5t-46 -113t-60 -70t-65 -40.5zM395 688q88 0 134 73.5t46 196.5t-46 197t-134 74h-112v-541h112zM485 1491h-137l-139 295h84l125 -215l117 215h86z" />
    <glyph glyph-name="rcaron" unicode="&#x159;" horiz-adv-x="516" 
d="M254 0h-139v989h139v-158q37 83 95.5 131t135.5 48v-144q-24 4 -39 4q-59 0 -109.5 -47t-82.5 -118v-705zM365 1139h-138l-139 295h84l125 -215l117 215h86z" />
    <glyph glyph-name="Sacute" unicode="&#x15a;" horiz-adv-x="724" 
d="M334 -25q-177 0 -293 125l78 123q36 -50 93 -79t116 -29q75 0 125.5 58.5t50.5 152.5q0 63 -23.5 117t-61 95t-83 80.5t-91 82t-83 90.5t-61 115t-23.5 147q0 145 88.5 240.5t224.5 95.5q149 0 246 -97l-68 -118q-69 75 -174 75q-67 0 -113 -52.5t-46 -137.5
q0 -54 23.5 -102.5t60.5 -88t82 -79t90.5 -84.5t82.5 -96t60.5 -122t23.5 -153q0 -157 -89.5 -258t-235.5 -101zM549 1786l-205 -295h-94l162 295h137z" />
    <glyph glyph-name="sacute" unicode="&#x15b;" horiz-adv-x="632" 
d="M311 -25q-174 0 -268 125l68 97q79 -107 190 -107q62 0 103.5 40.5t41.5 107.5q0 45 -20.5 82t-53.5 64.5t-72.5 54t-79 56.5t-72.5 65.5t-53.5 89t-20.5 118.5q0 106 72.5 176t189.5 70q141 0 235 -111l-65 -94q-63 90 -168 90q-59 0 -95 -36.5t-36 -90.5
q0 -42 20.5 -77.5t53.5 -62.5t72.5 -53.5t79.5 -57.5t73 -68t53.5 -91.5t20.5 -121.5q0 -118 -77 -191.5t-192 -73.5zM512 1434l-205 -295h-94l162 295h137z" />
    <glyph glyph-name="Scircumflex" unicode="&#x15c;" horiz-adv-x="702" 
d="M598 1491h-86l-123 215l-119 -215h-84l133 295h138zM334 -25q-177 0 -293 125l78 123q36 -50 93 -79t116 -29q75 0 125.5 58.5t50.5 152.5q0 63 -23.5 117t-61 95t-83 80.5t-91 82t-83 90.5t-61 115t-23.5 147q0 145 88.5 240.5t224.5 95.5q149 0 246 -97l-68 -118
q-69 75 -174 75q-67 0 -113 -52.5t-46 -137.5q0 -54 23.5 -102.5t60.5 -88t82 -79t90.5 -84.5t82.5 -96t60.5 -122t23.5 -153q0 -157 -89.5 -258t-235.5 -101z" />
    <glyph glyph-name="scircumflex" unicode="&#x15d;" horiz-adv-x="632" 
d="M311 -25q-174 0 -268 125l68 97q79 -107 190 -107q62 0 103.5 40.5t41.5 107.5q0 45 -20.5 82t-53.5 64.5t-72.5 54t-79 56.5t-72.5 65.5t-53.5 89t-20.5 118.5q0 106 72.5 176t189.5 70q141 0 235 -111l-65 -94q-63 90 -168 90q-59 0 -95 -36.5t-36 -90.5
q0 -42 20.5 -77.5t53.5 -62.5t72.5 -53.5t79.5 -57.5t73 -68t53.5 -91.5t20.5 -121.5q0 -118 -77 -191.5t-192 -73.5zM535 1139h-86l-123 215l-119 -215h-84l133 295h137z" />
    <glyph glyph-name="Scedilla" unicode="&#x15e;" horiz-adv-x="724" 
d="M324 -389q-85 0 -158 59l35 72q61 -55 121 -55q39 0 67.5 24.5t28.5 63.5q0 32 -16 50.5t-44 18.5q-29 0 -57 -28l-63 34l47 130q-150 15 -244 120l78 123q36 -50 93 -79t116 -29q75 0 125.5 58.5t50.5 152.5q0 63 -23.5 117t-61 95t-83 80.5t-91 82t-83 90.5t-61 115
t-23.5 147q0 145 88.5 240.5t224.5 95.5q149 0 246 -97l-68 -118q-69 75 -174 75q-67 0 -113 -52.5t-46 -137.5q0 -54 23.5 -102.5t60.5 -88t82 -79t90.5 -84.5t82.5 -96t60.5 -122t23.5 -153q0 -147 -79 -245.5t-209 -111.5l-37 -92q27 21 59 21q47 0 79 -37t32 -96
q0 -71 -51.5 -116.5t-128.5 -45.5z" />
    <glyph glyph-name="scedilla" unicode="&#x15f;" horiz-adv-x="632" 
d="M297 -389q-85 0 -158 59l35 72q61 -55 121 -55q39 0 67.5 24.5t28.5 63.5q0 32 -15.5 50.5t-43.5 18.5q-30 0 -58 -28l-63 34l47 130q-138 15 -215 120l68 97q79 -107 190 -107q62 0 103.5 40.5t41.5 107.5q0 45 -20.5 82t-53.5 64.5t-72.5 54t-79 56.5t-72.5 65.5
t-53.5 89t-20.5 118.5q0 106 72.5 176t189.5 70q141 0 235 -111l-65 -94q-63 90 -168 90q-59 0 -95 -36.5t-36 -90.5q0 -42 20.5 -77.5t53.5 -62.5t72.5 -53.5t79.5 -57.5t73 -68t53.5 -91.5t20.5 -121.5q0 -108 -67 -180t-169 -83l-37 -92q27 21 60 21q47 0 78.5 -37
t31.5 -96q0 -71 -51.5 -116.5t-128.5 -45.5z" />
    <glyph glyph-name="Scaron" unicode="&#x160;" horiz-adv-x="702" 
d="M463 1491h-137l-140 295h84l125 -215l117 215h86zM334 -25q-177 0 -293 125l78 123q36 -50 93 -79t116 -29q75 0 125.5 58.5t50.5 152.5q0 63 -23.5 117t-61 95t-83 80.5t-91 82t-83 90.5t-61 115t-23.5 147q0 145 88.5 240.5t224.5 95.5q149 0 246 -97l-68 -118
q-69 75 -174 75q-67 0 -113 -52.5t-46 -137.5q0 -54 23.5 -102.5t60.5 -88t82 -79t90.5 -84.5t82.5 -96t60.5 -122t23.5 -153q0 -157 -89.5 -258t-235.5 -101z" />
    <glyph glyph-name="scaron" unicode="&#x161;" horiz-adv-x="632" 
d="M311 -25q-174 0 -268 125l68 97q79 -107 190 -107q62 0 103.5 40.5t41.5 107.5q0 45 -20.5 82t-53.5 64.5t-72.5 54t-79 56.5t-72.5 65.5t-53.5 89t-20.5 118.5q0 106 72.5 176t189.5 70q141 0 235 -111l-65 -94q-63 90 -168 90q-59 0 -95 -36.5t-36 -90.5
q0 -42 20.5 -77.5t53.5 -62.5t72.5 -53.5t79.5 -57.5t73 -68t53.5 -91.5t20.5 -121.5q0 -118 -77 -191.5t-192 -73.5zM399 1139h-137l-139 295h84l125 -215l117 215h86z" />
    <glyph glyph-name="Tcommaaccent" unicode="&#x162;" horiz-adv-x="661" 
d="M408 0h-156v1229h-215v137h588v-137h-217v-1229zM442 -283q0 -80 -40.5 -152.5t-102.5 -117.5l-63 51q47 33 80 83t36 95l-8 -1q-8 -1 -12 -1q-35 0 -59.5 24.5t-24.5 61.5t26 63.5t64 26.5q43 0 73.5 -36t30.5 -97z" />
    <glyph glyph-name="Tcommaaccent" unicode="&#x21a;" horiz-adv-x="661" 
d="M408 0h-156v1229h-215v137h588v-137h-217v-1229zM442 -283q0 -80 -40.5 -152.5t-102.5 -117.5l-63 51q47 33 80 83t36 95l-8 -1q-8 -1 -12 -1q-35 0 -59.5 24.5t-24.5 61.5t26 63.5t64 26.5q43 0 73.5 -36t30.5 -97z" />
    <glyph glyph-name="tcommaaccent" unicode="&#x163;" horiz-adv-x="477" 
d="M319 -25q-92 0 -134 52t-42 161v678h-100v123h100v271h142v-271h133v-123h-133v-657q0 -58 13.5 -83.5t47.5 -25.5q42 0 66 35l45 -104q-56 -56 -138 -56zM350 -283q0 -80 -40.5 -152.5t-102.5 -117.5l-64 51q47 33 80.5 83t36.5 95l-8 -1q-8 -1 -12 -1q-35 0 -59.5 24.5
t-24.5 61.5t26 63.5t64 26.5q43 0 73.5 -36t30.5 -97z" />
    <glyph glyph-name="tcommaaccent" unicode="&#x21b;" horiz-adv-x="477" 
d="M319 -25q-92 0 -134 52t-42 161v678h-100v123h100v271h142v-271h133v-123h-133v-657q0 -58 13.5 -83.5t47.5 -25.5q42 0 66 35l45 -104q-56 -56 -138 -56zM350 -283q0 -80 -40.5 -152.5t-102.5 -117.5l-64 51q47 33 80.5 83t36.5 95l-8 -1q-8 -1 -12 -1q-35 0 -59.5 24.5
t-24.5 61.5t26 63.5t64 26.5q43 0 73.5 -36t30.5 -97z" />
    <glyph glyph-name="Tcaron" unicode="&#x164;" horiz-adv-x="661" 
d="M408 0h-156v1229h-215v137h588v-137h-217v-1229zM401 1491h-137l-139 295h84l125 -215l117 215h86z" />
    <glyph glyph-name="tcaron" unicode="&#x165;" horiz-adv-x="477" 
d="M319 -25q-92 0 -134 52t-42 161v678h-100v123h100v271h142v-271h133v-123h-133v-657q0 -58 13.5 -83.5t47.5 -25.5q42 0 66 35l45 -104q-56 -56 -138 -56zM584 1384q0 -80 -41 -152.5t-103 -117.5l-63 51q47 33 80.5 83t36.5 95l-9 -1q-9 -1 -12 -1q-35 0 -59.5 24.5
t-24.5 61.5t26 64t64 27q43 0 74 -36.5t31 -97.5z" />
    <glyph glyph-name="Tbar" unicode="&#x166;" horiz-adv-x="661" 
d="M408 0h-156v610h-154v92h154v527h-215v137h588v-137h-217v-527h149v-92h-149v-610z" />
    <glyph glyph-name="tbar" unicode="&#x167;" horiz-adv-x="477" 
d="M352 469h-67v-260q0 -58 13.5 -83.5t47.5 -25.5q42 0 66 35l45 -104q-56 -56 -138 -56q-92 0 -134 52t-42 161v281h-100v92h100v305h-100v123h100v271h142v-271h133v-123h-133v-305h67v-92z" />
    <glyph glyph-name="Utilde" unicode="&#x168;" horiz-adv-x="894" 
d="M446 -25q-143 0 -230 94t-87 283v1014h154v-1020q0 -233 163 -233q166 0 166 233v1020h154v-1014q0 -189 -87.5 -283t-232.5 -94zM530 1487q-38 0 -63 30.5t-34.5 66.5t-26 66.5t-39.5 30.5q-32 0 -51 -45t-19 -137h-80q0 123 37.5 199t112.5 76q38 0 63.5 -30.5t35 -67
t26 -67t38.5 -30.5q70 0 70 182h82q0 -121 -38.5 -197.5t-113.5 -76.5z" />
    <glyph glyph-name="utilde" unicode="&#x169;" 
d="M659 0h-139v135q-34 -70 -93 -115t-128 -45q-97 0 -140.5 52.5t-43.5 162.5v799h139v-762q0 -127 94 -127q54 0 100.5 46t71.5 112v731h139v-989zM467 1135q-38 0 -63 30.5t-35 66.5t-26.5 66.5t-39.5 30.5q-32 0 -51 -45t-19 -137h-79q0 123 37.5 198.5t111.5 75.5
q38 0 63.5 -30.5t35.5 -66.5t26.5 -66.5t38.5 -30.5q70 0 70 182h81q0 -121 -38 -197.5t-113 -76.5z" />
    <glyph glyph-name="Umacron" unicode="&#x16a;" horiz-adv-x="894" 
d="M446 -25q-143 0 -230 94t-87 283v1014h154v-1020q0 -233 163 -233q166 0 166 233v1020h154v-1014q0 -189 -87.5 -283t-232.5 -94zM700 1534h-507v92h507v-92z" />
    <glyph glyph-name="umacron" unicode="&#x16b;" 
d="M659 0h-139v135q-34 -70 -93 -115t-128 -45q-97 0 -140.5 52.5t-43.5 162.5v799h139v-762q0 -127 94 -127q54 0 100.5 46t71.5 112v731h139v-989zM641 1184h-508v92h508v-92z" />
    <glyph glyph-name="Ubreve" unicode="&#x16c;" horiz-adv-x="894" 
d="M446 -25q-143 0 -230 94t-87 283v1014h154v-1020q0 -233 163 -233q166 0 166 233v1020h154v-1014q0 -189 -87.5 -283t-232.5 -94zM692 1604q-42 -58 -105.5 -90.5t-137.5 -32.5q-73 0 -138 33t-106 90l76 57q26 -40 72.5 -64t95.5 -24q50 0 96.5 23.5t72.5 64.5z" />
    <glyph glyph-name="ubreve" unicode="&#x16d;" 
d="M659 0h-139v135q-34 -70 -93 -115t-128 -45q-97 0 -140.5 52.5t-43.5 162.5v799h139v-762q0 -127 94 -127q54 0 100.5 46t71.5 112v731h139v-989zM631 1278q-42 -58 -106 -90.5t-138 -32.5q-73 0 -138 33t-106 90l76 57q26 -40 72.5 -64t95.5 -24q50 0 97 23.5t73 64.5z
" />
    <glyph glyph-name="Uring" unicode="&#x16e;" horiz-adv-x="894" 
d="M446 -25q-143 0 -230 94t-87 283v1014h154v-1020q0 -233 163 -233q166 0 166 233v1020h154v-1014q0 -189 -87.5 -283t-232.5 -94zM449 1417q-71 0 -120.5 49.5t-49.5 120.5t49.5 120.5t120.5 49.5q70 0 118.5 -49.5t48.5 -120.5t-48.5 -120.5t-118.5 -49.5zM449 1491
q40 0 68 28t28 68t-28 68t-68 28t-68.5 -28t-28.5 -68t28.5 -68t68.5 -28z" />
    <glyph glyph-name="uring" unicode="&#x16f;" 
d="M659 0h-139v135q-34 -70 -93 -115t-128 -45q-97 0 -140.5 52.5t-43.5 162.5v799h139v-762q0 -127 94 -127q54 0 100.5 46t71.5 112v731h139v-989zM387 1122q-71 0 -120.5 50t-49.5 120t49.5 120t120.5 50q70 0 119 -49.5t49 -120.5t-49 -120.5t-119 -49.5zM387 1196
q40 0 68 28t28 68t-28 68.5t-68 28.5t-68 -28.5t-28 -68.5t28 -68t68 -28z" />
    <glyph glyph-name="Uhungarumlaut" unicode="&#x170;" horiz-adv-x="894" 
d="M446 -25q-143 0 -230 94t-87 283v1014h154v-1020q0 -233 163 -233q166 0 166 233v1020h154v-1014q0 -189 -87.5 -283t-232.5 -94zM506 1786l-158 -295h-78l115 295h121zM745 1786l-159 -295h-78l115 295h122z" />
    <glyph glyph-name="uhungarumlaut" unicode="&#x171;" 
d="M659 0h-139v135q-34 -70 -93 -115t-128 -45q-97 0 -140.5 52.5t-43.5 162.5v799h139v-762q0 -127 94 -127q54 0 100.5 46t71.5 112v731h139v-989zM446 1434l-157 -295h-78l115 295h120zM686 1434l-160 -295h-77l114 295h123z" />
    <glyph glyph-name="Uogonek" unicode="&#x172;" horiz-adv-x="894" 
d="M571 -238l74 -34q-37 -109 -141 -109q-65 0 -104.5 40t-39.5 116q0 111 80 200q-142 3 -226.5 96t-84.5 281v1014h154v-1020q0 -233 163 -233q166 0 166 233v1020h154v-1014q0 -141 -49.5 -229t-136.5 -123q-134 -91 -134 -221q0 -42 16 -63t42 -21q54 0 67 67z" />
    <glyph glyph-name="uogonek" unicode="&#x173;" 
d="M651 -238l74 -34q-37 -109 -141 -109q-65 0 -104.5 40t-39.5 116q0 119 103 225h-23v135q-34 -70 -93 -115t-128 -45q-97 0 -140.5 52.5t-43.5 162.5v799h139v-762q0 -127 94 -127q54 0 100.5 46t71.5 112v731h139v-989q-133 -90 -133 -221q0 -42 16 -63t42 -21
q54 0 67 67z" />
    <glyph glyph-name="Wcircumflex" unicode="&#x174;" horiz-adv-x="1122" 
d="M868 0h-163l-144 1055l-143 -1055h-162l-219 1366h160l145 -1087l154 1087h131l155 -1087l144 1087h159zM768 1491h-86l-123 215l-119 -215h-84l133 295h138z" />
    <glyph glyph-name="wcircumflex" unicode="&#x175;" horiz-adv-x="1107" 
d="M866 0h-145l-166 797l-168 -797h-145l-215 989h147l148 -792l157 792h144l161 -792l150 792h147zM760 1139h-86l-123 215l-119 -215h-84l133 295h137z" />
    <glyph glyph-name="Ycircumflex" unicode="&#x176;" horiz-adv-x="761" 
d="M588 1491h-86l-123 215l-119 -215h-84l133 295h137zM459 0h-156v580l-305 786h166l217 -629l219 629h164l-305 -786v-580z" />
    <glyph glyph-name="ycircumflex" unicode="&#x177;" horiz-adv-x="667" 
d="M68 -387l22 123q21 -12 47 -12q36 0 55 20t33 70l37 155l-244 1020h150l164 -809l168 809h149l-295 -1204q-28 -105 -75 -145.5t-125 -40.5q-54 0 -86 14zM541 1139h-86l-123 215l-119 -215h-84l133 295h137z" />
    <glyph glyph-name="Ydieresis" unicode="&#x178;" horiz-adv-x="761" 
d="M621 1581q0 -36 -27 -62t-64 -26q-36 0 -62 26t-26 62q0 37 26.5 63.5t61.5 26.5q37 0 64 -26.5t27 -63.5zM332 1581q0 -37 -26.5 -62.5t-63.5 -25.5q-36 0 -62 26t-26 62q0 37 26.5 63.5t61.5 26.5q37 0 63.5 -26.5t26.5 -63.5zM459 0h-156v580l-305 786h166l217 -629
l219 629h164l-305 -786v-580z" />
    <glyph glyph-name="Zacute" unicode="&#x179;" horiz-adv-x="696" 
d="M629 0h-561v135l376 1094h-376v137h546v-129l-381 -1100h396v-137zM543 1786l-205 -295h-94l162 295h137z" />
    <glyph glyph-name="zacute" unicode="&#x17a;" horiz-adv-x="620" 
d="M549 0h-479v111l309 755h-309v123h471v-106l-308 -760h316v-123zM506 1434l-205 -295h-94l162 295h137z" />
    <glyph glyph-name="Zdotaccent" unicode="&#x17b;" horiz-adv-x="696" 
d="M629 0h-561v135l376 1094h-376v137h546v-129l-381 -1100h396v-137zM346 1493q-37 0 -63.5 26t-26.5 64q0 37 26.5 63.5t63.5 26.5t63.5 -26.5t26.5 -63.5q0 -38 -26.5 -64t-63.5 -26z" />
    <glyph glyph-name="zdotaccent" unicode="&#x17c;" horiz-adv-x="620" 
d="M549 0h-479v111l309 755h-309v123h471v-106l-308 -760h316v-123zM309 1180q-37 0 -63.5 26t-26.5 64q0 37 26.5 63.5t63.5 26.5t63.5 -26.5t26.5 -63.5q0 -38 -26.5 -64t-63.5 -26z" />
    <glyph glyph-name="Zcaron" unicode="&#x17d;" horiz-adv-x="696" 
d="M420 1491h-137l-140 295h84l125 -215l117 215h86zM629 0h-561v135l376 1094h-376v137h546v-129l-381 -1100h396v-137z" />
    <glyph glyph-name="zcaron" unicode="&#x17e;" horiz-adv-x="620" 
d="M549 0h-479v111l309 755h-309v123h471v-106l-308 -760h316v-123zM377 1139h-137l-140 295h84l125 -215l117 215h86z" />
    <glyph glyph-name="longs" unicode="&#x17f;" horiz-adv-x="458" 
d="M285 0h-142v866h-96v123h96v164q0 109 55 171t156 62q90 0 142 -55l-50 -110q-30 41 -71 41q-90 0 -90 -109v-1153z" />
    <glyph glyph-name="florin" unicode="&#x192;" horiz-adv-x="745" 
d="M203 -330h-158l188 854h-94v127h123l115 516q22 98 93 158.5t163 60.5q87 0 133 -51l-61 -114q-20 28 -62 28q-45 0 -75 -30t-42 -84l-106 -484h184v-127h-213z" />
    <glyph glyph-name="AEacute" unicode="&#x1fc;" horiz-adv-x="1134" 
d="M1047 0h-506v313h-258l-97 -313h-157l444 1366h574v-137h-353v-461h338v-137h-338v-494h353v-137zM541 451v731l-222 -731h222zM786 1786l-204 -295h-95l162 295h137z" />
    <glyph glyph-name="aeacute" unicode="&#x1fd;" horiz-adv-x="1196" 
d="M1128 449h-479q2 -163 57 -260t158 -97q44 0 87 32t75 89l84 -76q-46 -76 -113.5 -119t-144.5 -43q-177 0 -274 181q-93 -181 -256 -181q-115 0 -184.5 89t-69.5 237t69.5 239t184.5 91q56 0 108 -30t84 -93v170q0 107 -35.5 161t-118.5 54q-103 0 -194 -105l-60 101
q58 64 131 94.5t146 30.5q97 0 148 -40.5t75 -115.5q28 71 83.5 113.5t137.5 42.5q80 0 139 -40.5t94 -113t51.5 -163.5t16.5 -201v-47zM649 553h342q0 63 -8 119.5t-26 109.5t-53 84t-83 31q-49 0 -85 -33t-53.5 -88t-25.5 -110t-8 -113zM537 231q-23 82 -23 170
q-45 127 -154 127q-69 0 -109 -59t-40 -166q0 -108 39.5 -166.5t109.5 -58.5q60 0 106 40.5t71 112.5zM797 1434l-205 -295h-94l161 295h138z" />
    <glyph glyph-name="Oslashacute" unicode="&#x1fe;" horiz-adv-x="888" 
d="M641 1786l-205 -295h-94l162 295h137zM444 -25q-117 0 -202 91l-27 -66h-106l67 164q-88 186 -88 518q0 151 19.5 275.5t60.5 223t111 153.5t165 55q119 0 203 -93l29 70h104l-69 -166q90 -184 90 -518q0 -151 -19.5 -275.5t-61 -223t-111.5 -153.5t-165 -55zM248 682
q0 -174 20 -297l310 748q-50 116 -134 116q-53 0 -92 -44t-61 -124.5t-32.5 -179t-10.5 -219.5zM444 115q53 0 92 45t61.5 125t33 179t10.5 218q0 174 -20 297l-312 -750q49 -114 135 -114z" />
    <glyph glyph-name="oslashacute" unicode="&#x1ff;" horiz-adv-x="782" 
d="M588 1434l-205 -295h-94l162 295h137zM186 0h-92l62 121q-78 136 -78 375q0 106 17.5 196.5t53.5 164t98 115.5t144 42q105 0 180 -72l25 47h92l-61 -121q78 -141 78 -372q0 -84 -10.5 -159t-34.5 -142t-60 -115t-89.5 -76.5t-119.5 -28.5q-108 0 -180 72zM391 100
q168 0 168 396q0 122 -16 206l-267 -524q40 -78 115 -78zM223 496q0 -120 17 -209l266 524q-45 78 -115 78q-48 0 -82 -32.5t-52 -91t-26 -124t-8 -145.5z" />
    <glyph glyph-name="Scommaaccent" unicode="&#x218;" horiz-adv-x="702" 
d="M334 -25q-177 0 -293 125l78 123q36 -50 93 -79t116 -29q75 0 125.5 58.5t50.5 152.5q0 63 -23.5 117t-61 95t-83 80.5t-91 82t-83 90.5t-61 115t-23.5 147q0 145 88.5 240.5t224.5 95.5q149 0 246 -97l-68 -118q-69 75 -174 75q-67 0 -113 -52.5t-46 -137.5
q0 -54 23.5 -102.5t60.5 -88t82 -79t90.5 -84.5t82.5 -96t60.5 -122t23.5 -153q0 -157 -89.5 -258t-235.5 -101zM463 -283q0 -80 -41 -152.5t-103 -117.5l-63 51q47 33 80.5 83t36.5 95q-1 0 -9 -1t-12 -1q-35 0 -59.5 24.5t-24.5 61.5t26 63.5t64 26.5q43 0 74 -36t31 -97z
" />
    <glyph glyph-name="scommaaccent" unicode="&#x219;" horiz-adv-x="634" 
d="M311 -25q-174 0 -268 125l68 97q79 -107 190 -107q62 0 103.5 40.5t41.5 107.5q0 45 -20.5 82t-53.5 64.5t-72.5 54t-79 56.5t-72.5 65.5t-53.5 89t-20.5 118.5q0 106 72.5 176t189.5 70q141 0 235 -111l-65 -94q-63 90 -168 90q-59 0 -95 -36.5t-36 -90.5
q0 -42 20.5 -77.5t53.5 -62.5t72.5 -53.5t79.5 -57.5t73 -68t53.5 -91.5t20.5 -121.5q0 -118 -77 -191.5t-192 -73.5zM428 -283q0 -80 -40.5 -152.5t-102.5 -117.5l-64 51q47 33 80.5 83t36.5 95l-9 -1q-9 -1 -12 -1q-35 0 -59.5 24.5t-24.5 61.5t26.5 63.5t64.5 26.5
q43 0 73.5 -36t30.5 -97z" />
    <glyph glyph-name="hsuperior" unicode="&#x2b0;" horiz-adv-x="587" 
d="M496 668h-109v477q0 90 -70 90q-35 0 -65.5 -29.5t-50.5 -70.5v-467h-109v888h109v-333q25 43 68.5 73.5t88.5 30.5q68 0 103 -36t35 -115v-508z" />
    <glyph glyph-name="hsuperior" unicode="&#xf637;" horiz-adv-x="587" 
d="M496 668h-109v477q0 90 -70 90q-35 0 -65.5 -29.5t-50.5 -70.5v-467h-109v888h109v-333q25 43 68.5 73.5t88.5 30.5q68 0 103 -36t35 -115v-508z" />
    <glyph glyph-name="circumflex" unicode="&#x2c6;" horiz-adv-x="411" 
d="M412 1139h-86l-123 215l-119 -215h-84l133 295h137z" />
    <glyph glyph-name="caron" unicode="&#x2c7;" horiz-adv-x="411" 
d="M276 1139h-137l-139 295h84l125 -215l117 215h86z" />
    <glyph glyph-name="breve" unicode="&#x2d8;" horiz-adv-x="487" 
d="M487 1278q-42 -58 -105.5 -90.5t-137.5 -32.5q-73 0 -138 33t-106 90l76 57q26 -40 72.5 -64t95.5 -24q50 0 97 23.5t73 64.5z" />
    <glyph glyph-name="dotaccent" unicode="&#x2d9;" horiz-adv-x="212" 
d="M106 1180q-37 0 -63.5 26t-26.5 64q0 37 26.5 63.5t63.5 26.5t64 -26.5t27 -63.5q0 -38 -27 -64t-64 -26z" />
    <glyph glyph-name="ring" unicode="&#x2da;" horiz-adv-x="337" 
d="M170 1137q-70 0 -120 49.5t-50 120.5t50 120.5t120 49.5t119 -49.5t49 -120.5t-49 -120.5t-119 -49.5zM170 1210q40 0 68 28.5t28 68.5t-28 68t-68 28t-68 -28t-28 -68t28 -68.5t68 -28.5z" />
    <glyph glyph-name="ogonek" unicode="&#x2db;" horiz-adv-x="284" 
d="M211 -238l74 -34q-37 -109 -142 -109q-65 0 -104 40t-39 116q0 151 156 270l63 -45q-133 -90 -133 -221q0 -84 57 -84q55 0 68 67z" />
    <glyph glyph-name="tilde" unicode="&#x2dc;" horiz-adv-x="464" 
d="M313 1135q-38 0 -63 30.5t-34.5 66.5t-26 66.5t-39.5 30.5q-32 0 -51 -45t-19 -137h-80q0 122 37.5 198t112.5 76q38 0 63.5 -30.5t35 -66.5t26 -66.5t38.5 -30.5q70 0 70 182h82q0 -121 -38.5 -197.5t-113.5 -76.5z" />
    <glyph glyph-name="hungarumlaut" unicode="&#x2dd;" horiz-adv-x="475" 
d="M236 1434l-158 -295h-78l115 295h121zM475 1434l-160 -295h-77l114 295h123z" />
    <glyph glyph-name="Delta" unicode="&#x394;" horiz-adv-x="804" 
d="M793 0h-779l299 1366h179zM610 137l-207 1045l-208 -1045h415z" />
    <glyph glyph-name="Delta" unicode="&#x2206;" horiz-adv-x="804" 
d="M793 0h-779l299 1366h179zM610 137l-207 1045l-208 -1045h415z" />
    <glyph glyph-name="Omega" unicode="&#x3a9;" horiz-adv-x="858" 
d="M92 0v137h162q-82 87 -132 234t-50 338q0 319 89 499.5t267 180.5q179 0 268.5 -179.5t89.5 -500.5q0 -190 -50 -337.5t-132 -234.5h162v-137h-270v137q49 38 89 182t40 363q0 565 -197 565q-98 0 -147.5 -146t-49.5 -419q0 -218 41 -363.5t90 -181.5v-137h-270z" />
    <glyph glyph-name="Omega" unicode="&#x2126;" horiz-adv-x="858" 
d="M92 0v137h162q-82 87 -132 234t-50 338q0 319 89 499.5t267 180.5q179 0 268.5 -179.5t89.5 -500.5q0 -190 -50 -337.5t-132 -234.5h162v-137h-270v137q49 38 89 182t40 363q0 565 -197 565q-98 0 -147.5 -146t-49.5 -419q0 -218 41 -363.5t90 -181.5v-137h-270z" />
    <glyph glyph-name="pi" unicode="&#x3c0;" horiz-adv-x="712" 
d="M596 0h-143v897h-195v-897h-143v897h-78v127h639v-127h-80v-897z" />
    <glyph glyph-name="endash" unicode="&#x2013;" horiz-adv-x="942" 
d="M881 434h-820v123h820v-123z" />
    <glyph glyph-name="emdash" unicode="&#x2014;" horiz-adv-x="1310" 
d="M1249 434h-1188v123h1188v-123z" />
    <glyph glyph-name="quoteleft" unicode="&#x2018;" horiz-adv-x="466" 
d="M119 1087q0 89 45 169t115 130l71 -57q-50 -34 -86.5 -87.5t-40.5 -102.5l9 2q10 2 16 2q40 0 67 -29t27 -72q0 -42 -30 -72t-74 -30q-50 0 -84.5 39.5t-34.5 107.5z" />
    <glyph glyph-name="quoteright" unicode="&#x2019;" horiz-adv-x="466" 
d="M348 1237q0 -87 -45 -167t-115 -132l-71 59q50 32 86.5 87t40.5 104q-4 -4 -23 -4q-41 0 -67.5 28t-26.5 70q0 43 29 73.5t73 30.5q50 0 84.5 -40t34.5 -109z" />
    <glyph glyph-name="quotesinglbase" unicode="&#x201a;" horiz-adv-x="466" 
d="M348 43q0 -89 -45 -169t-115 -130l-71 57q50 34 86.5 88t40.5 103l-9 -2q-9 -2 -14 -2q-41 0 -67.5 28.5t-26.5 71.5q0 42 29 72t73 30q50 0 84.5 -39.5t34.5 -107.5z" />
    <glyph glyph-name="quotedblleft" unicode="&#x201c;" horiz-adv-x="782" 
d="M119 1087q0 89 45 169.5t115 129.5l71 -57q-50 -34 -86.5 -87.5t-42.5 -102.5l10 2q10 2 15 2q40 0 67 -29t27 -72q0 -42 -30 -72t-72 -30q-50 0 -84.5 39.5t-34.5 107.5zM434 1087q0 89 45.5 169t116.5 130l72 -57q-51 -35 -88 -88t-41 -102l9 2q9 2 15 2q40 0 67 -29
t27 -72q0 -42 -30 -72t-74 -30q-50 0 -84.5 39.5t-34.5 107.5z" />
    <glyph glyph-name="quotedblright" unicode="&#x201d;" horiz-adv-x="782" 
d="M664 1237q0 -87 -44.5 -167t-115.5 -132l-72 59q50 33 87.5 87.5t41.5 103.5q-4 -4 -24 -4q-40 0 -67.5 28.5t-27.5 69.5q0 43 30.5 73.5t74.5 30.5q50 0 83.5 -40t33.5 -109zM348 1237q0 -87 -45 -167t-115 -132l-71 59q50 32 86.5 87t40.5 104q-4 -4 -23 -4
q-41 0 -67.5 28t-26.5 70q0 43 29 73.5t73 30.5q50 0 84.5 -40t34.5 -109z" />
    <glyph glyph-name="quotedblbase" unicode="&#x201e;" horiz-adv-x="782" 
d="M348 43q0 -89 -45 -169t-115 -130l-71 57q50 34 86.5 88t40.5 103l-9 -2q-9 -2 -14 -2q-41 0 -67.5 28.5t-26.5 71.5q0 42 29 72t73 30q50 0 84.5 -39.5t34.5 -107.5zM664 43q0 -89 -45 -169.5t-115 -129.5l-72 57q50 34 87.5 88t41.5 103l-9 -2q-9 -2 -15 -2
q-40 0 -67.5 28.5t-27.5 71.5q0 42 30.5 72t74.5 30q49 0 83 -39.5t34 -107.5z" />
    <glyph glyph-name="dagger" unicode="&#x2020;" horiz-adv-x="534" 
d="M487 1090l-182 8l8 -428h-92l8 428l-182 -8v84l182 -7l-8 219h92l-8 -219l182 7v-84z" />
    <glyph glyph-name="daggerdbl" unicode="&#x2021;" horiz-adv-x="534" 
d="M487 1174v-84l-182 8v-441l182 9v-84l-182 6l8 -219h-92l8 219l-182 -6v84l182 -9v441l-182 -8v84l182 -7l-8 219h92l-8 -219z" />
    <glyph glyph-name="bullet" unicode="&#x2022;" horiz-adv-x="733" 
d="M586 496q0 -89 -63 -152t-154 -63t-154 63t-63 152q0 91 63 154t154 63t154 -63t63 -154z" />
    <glyph glyph-name="ellipsis" unicode="&#x2026;" horiz-adv-x="1392" 
d="M338 86q0 -43 -31.5 -74.5t-75.5 -31.5q-43 0 -74.5 31.5t-31.5 74.5t31.5 73.5t74.5 30.5q44 0 75.5 -30.5t31.5 -73.5zM803 86q0 -43 -32 -74.5t-75 -31.5t-74.5 31.5t-31.5 74.5t31.5 73.5t74.5 30.5t75 -31t32 -73zM1268 86q0 -43 -32.5 -74.5t-76.5 -31.5
q-43 0 -73.5 31.5t-30.5 74.5t30.5 73.5t73.5 30.5q44 0 76.5 -30.5t32.5 -73.5z" />
    <glyph glyph-name="perthousand" unicode="&#x2030;" horiz-adv-x="1720" 
d="M553 1049q0 -146 -67 -241t-179 -95t-180 95.5t-68 240.5q0 147 68 242t180 95t179 -94.5t67 -242.5zM907 1366l-563 -1366h-82l559 1366h86zM1108 309q0 -145 -68 -239.5t-180 -94.5t-179 94.5t-67 239.5q0 148 67 244t179 96t180 -96t68 -244zM446 1049
q0 104 -37.5 172.5t-101.5 68.5t-102.5 -68.5t-38.5 -172.5q0 -103 38.5 -170.5t102.5 -67.5t101.5 67.5t37.5 170.5zM999 309q0 106 -36.5 174t-102.5 68q-64 0 -101.5 -68t-37.5 -174q0 -102 37.5 -169.5t101.5 -67.5q65 0 102 67.5t37 169.5zM1661 309q0 -145 -68 -239.5
t-180 -94.5q-111 0 -178.5 94.5t-67.5 239.5q0 147 67.5 243.5t178.5 96.5q112 0 180 -96t68 -244zM1552 309q0 106 -36.5 174t-102.5 68q-64 0 -101.5 -68t-37.5 -174q0 -102 37.5 -169.5t101.5 -67.5q65 0 102 67.5t37 169.5z" />
    <glyph glyph-name="guilsinglleft" unicode="&#x2039;" horiz-adv-x="425" 
d="M365 129h-119l-185 369l185 362h119l-185 -362z" />
    <glyph glyph-name="guilsinglright" unicode="&#x203a;" horiz-adv-x="425" 
d="M365 498l-185 -369h-119l185 369l-185 362h119z" />
    <glyph glyph-name="fraction" unicode="&#x2044;" horiz-adv-x="235" 
d="M440 1366l-561 -1366h-84l561 1366h84z" />
    <glyph glyph-name="fraction" unicode="&#x2215;" horiz-adv-x="235" 
d="M440 1366l-561 -1366h-84l561 1366h84z" />
    <glyph glyph-name="zerosuperior" unicode="&#x2070;" horiz-adv-x="540" 
d="M508 1272q0 -79 -12.5 -151t-39 -135t-74 -100.5t-110.5 -37.5q-64 0 -111.5 37.5t-74 100.5t-39 135t-12.5 151q0 80 12.5 151.5t39 134t74 99.5t111.5 37q63 0 110.5 -37t74 -99.5t39 -134t12.5 -151.5zM389 1272q0 67 -4 118.5t-15.5 102.5t-36.5 78.5t-61 27.5
t-61 -28t-36.5 -78.5t-16 -102t-4.5 -118.5q0 -68 4 -119t15.5 -103t36.5 -80t62 -28q36 0 61 28t36.5 80t15.5 103.5t4 118.5z" />
    <glyph glyph-name="foursuperior" unicode="&#x2074;" horiz-adv-x="540" 
d="M510 1071h-74v-209h-112v209h-289v94l262 516h139v-516h74v-94zM324 1165v385l-191 -385h191z" />
    <glyph glyph-name="fivesuperior" unicode="&#x2075;" horiz-adv-x="540" 
d="M494 1118q0 -116 -63 -193t-167 -77q-80 0 -133 34t-90 101l78 66q52 -107 141 -107q54 0 86.5 51.5t32.5 124.5q0 85 -29.5 129.5t-81.5 44.5q-67 0 -118 -82l-87 31v440h394v-94h-281v-276q50 67 131 67t134 -68t53 -192z" />
    <glyph glyph-name="sixsuperior" unicode="&#x2076;" horiz-adv-x="540" 
d="M498 1116q0 -113 -58.5 -190.5t-158.5 -77.5q-66 0 -113.5 34.5t-74 96t-38.5 134t-12 159.5q0 118 25.5 210t85.5 152t147 60q114 0 176 -99l-61 -75q-21 40 -47 59.5t-66 19.5q-39 0 -68.5 -27.5t-45.5 -73.5t-23.5 -98t-7.5 -110v-24q22 50 61.5 83t91.5 33
q82 0 134.5 -69.5t52.5 -196.5zM381 1114q0 93 -29.5 134.5t-75.5 41.5q-72 0 -118 -119q10 -229 116 -229q54 0 80.5 50.5t26.5 121.5z" />
    <glyph glyph-name="sevensuperior" unicode="&#x2077;" horiz-adv-x="489" 
d="M455 1604l-222 -742h-112l223 725h-309v94h420v-77z" />
    <glyph glyph-name="eightsuperior" unicode="&#x2078;" horiz-adv-x="540" 
d="M496 1063q0 -100 -61 -157.5t-165 -57.5q-106 0 -165.5 57t-59.5 158q0 74 43.5 136t101.5 85q-55 22 -95 76.5t-40 126.5q0 100 62 153.5t153 53.5t153 -53.5t62 -153.5q0 -71 -41 -125.5t-94 -77.5q57 -24 101.5 -85.5t44.5 -135.5zM373 1473q0 61 -27.5 95t-75.5 34
q-49 0 -75.5 -33.5t-26.5 -95.5q0 -34 13 -63.5t32 -47t33.5 -27t23.5 -12.5q10 3 24.5 12.5t33.5 27t32 47t13 63.5zM381 1073q0 71 -42 118.5t-69 49.5q-27 -2 -68.5 -49.5t-41.5 -118.5q0 -65 31 -100t79 -35q47 0 79 35.5t32 99.5z" />
    <glyph glyph-name="ninesuperior" unicode="&#x2079;" horiz-adv-x="540" 
d="M47 1425q0 112 58 190.5t157 78.5q66 0 114.5 -34.5t75 -96t38.5 -134t12 -159.5q0 -118 -25 -210t-85 -152t-148 -60q-115 0 -176 98l61 76q21 -41 47.5 -60.5t65.5 -19.5q37 0 66 27t45.5 72.5t25 99t8.5 112.5v23q-22 -51 -62.5 -84t-93.5 -33q-80 0 -132 69.5
t-52 196.5zM162 1427q0 -93 29.5 -134.5t76.5 -41.5q39 0 69.5 35t47.5 86q-1 39 -6.5 74.5t-17.5 72t-36 58.5t-57 22q-53 0 -79.5 -50.5t-26.5 -121.5z" />
    <glyph glyph-name="parenleftsuperior" unicode="&#x207d;" horiz-adv-x="272" 
d="M248 754l-60 -25q-131 250 -131 543t131 543l60 -25q-50 -127 -74 -247.5t-24 -270.5q0 -149 24 -270.5t74 -247.5z" />
    <glyph glyph-name="parenrightsuperior" unicode="&#x207e;" horiz-adv-x="272" 
d="M215 1272q0 -289 -133 -543l-57 25q49 125 72.5 246.5t23.5 271.5q0 151 -23.5 272t-72.5 246l57 25q133 -254 133 -543z" />
    <glyph glyph-name="nsuperior" unicode="&#x207f;" horiz-adv-x="587" 
d="M496 668h-109v477q0 92 -70 92q-35 0 -65.5 -30t-50.5 -72v-467h-109v643h109v-88q25 43 68.5 73.5t88.5 30.5q79 0 108.5 -41t29.5 -117v-501z" />
    <glyph glyph-name="zeroinferior" unicode="&#x2080;" horiz-adv-x="540" 
d="M508 111q0 -79 -12.5 -151t-39 -135t-74 -100.5t-110.5 -37.5q-64 0 -111.5 37.5t-74 100.5t-39 135t-12.5 151q0 80 12.5 151.5t39 134t74 99t111.5 36.5q63 0 110.5 -37t74 -99t39 -133.5t12.5 -151.5zM389 111q0 67 -4 118.5t-15.5 102.5t-36.5 78.5t-61 27.5t-61 -28
t-36.5 -78.5t-16 -102t-4.5 -118.5q0 -68 4 -119t15.5 -103t36.5 -80t62 -28q36 0 61 28t36.5 80t15.5 103.5t4 118.5z" />
    <glyph glyph-name="oneinferior" unicode="&#x2081;" horiz-adv-x="440" 
d="M334 -299h-115v672l-123 -129l-65 67l202 209h101v-819z" />
    <glyph glyph-name="twoinferior" unicode="&#x2082;" horiz-adv-x="540" 
d="M494 -299h-431v86q202 265 258 358t56 170q0 55 -31 89t-78 34q-91 0 -145 -104l-74 65q81 133 223 133q98 0 159 -58t61 -157q0 -86 -56 -183t-233 -339h291v-94z" />
    <glyph glyph-name="threeinferior" unicode="&#x2083;" horiz-adv-x="540" 
d="M498 -76q0 -107 -61 -172t-169 -65q-78 0 -136 37t-91 98l78 65q56 -106 145 -106q119 0 119 149q0 79 -37 112.5t-90 33.5q-43 0 -53 -2v94q10 -2 49 -2q56 0 89.5 34.5t33.5 100.5q0 68 -30 102.5t-81 34.5q-88 0 -137 -96l-78 59q35 62 93 96.5t126 34.5
q98 0 157.5 -55.5t59.5 -163.5q0 -68 -37 -121.5t-94 -66.5q58 -11 101 -67.5t43 -133.5z" />
    <glyph glyph-name="fourinferior" unicode="&#x2084;" horiz-adv-x="540" 
d="M510 -90h-74v-209h-112v209h-289v94l262 516h139v-516h74v-94zM324 4v385l-191 -385h191z" />
    <glyph glyph-name="fiveinferior" unicode="&#x2085;" horiz-adv-x="540" 
d="M494 -43q0 -116 -63 -193t-167 -77q-80 0 -133 34t-90 101l78 65q51 -106 141 -106q54 0 86.5 51.5t32.5 124.5q0 85 -29.5 129.5t-81.5 44.5q-67 0 -118 -82l-87 31v440h394v-94h-281v-276q50 67 131 67t134 -68t53 -192z" />
    <glyph glyph-name="sixinferior" unicode="&#x2086;" horiz-adv-x="540" 
d="M498 -45q0 -113 -58.5 -190.5t-158.5 -77.5q-66 0 -113.5 34.5t-74 96t-38.5 134t-12 159.5q0 118 25.5 210t85.5 151.5t147 59.5q115 0 176 -98l-61 -76q-21 41 -47.5 60.5t-65.5 19.5t-68.5 -27.5t-45.5 -73.5t-23.5 -98t-7.5 -110v-25q22 51 61.5 84t91.5 33
q82 0 134.5 -69.5t52.5 -196.5zM381 -47q0 93 -29.5 134.5t-75.5 41.5q-72 0 -118 -119q10 -229 116 -229q54 0 80.5 50.5t26.5 121.5z" />
    <glyph glyph-name="seveninferior" unicode="&#x2087;" horiz-adv-x="489" 
d="M455 442l-222 -741h-112l223 725h-309v94h420v-78z" />
    <glyph glyph-name="eightinferior" unicode="&#x2088;" horiz-adv-x="540" 
d="M496 -98q0 -100 -61 -157.5t-165 -57.5q-106 0 -165.5 57t-59.5 158q0 74 43.5 136t101.5 85q-55 22 -95 76.5t-40 126.5q0 100 62 153t153 53t153 -53t62 -153q0 -71 -41 -125.5t-94 -77.5q57 -24 101.5 -85.5t44.5 -135.5zM373 311q0 61 -27.5 95t-75.5 34
q-49 0 -75.5 -33.5t-26.5 -95.5q0 -34 13 -63t32 -46.5t33 -27t24 -12.5q10 3 24.5 12.5t33.5 27t32 46.5t13 63zM381 -88q0 71 -42 118.5t-69 49.5q-27 -2 -68.5 -49.5t-41.5 -118.5q0 -65 31 -100t79 -35q47 0 79 35.5t32 99.5z" />
    <glyph glyph-name="nineinferior" unicode="&#x2089;" horiz-adv-x="540" 
d="M47 264q0 112 58 190t157 78q66 0 114.5 -34.5t75 -95.5t38.5 -133.5t12 -159.5q0 -118 -25 -210t-85 -152t-148 -60q-115 0 -176 98l61 76q21 -41 47.5 -60.5t65.5 -19.5q37 0 66 27t45.5 72.5t25 99t8.5 112.5v23q-22 -51 -62.5 -84t-93.5 -33q-80 0 -132 69.5
t-52 196.5zM162 266q0 -93 29.5 -134.5t76.5 -41.5q39 0 69.5 35t47.5 86q-1 39 -6.5 74.5t-17.5 72t-36 58.5t-57 22q-53 0 -79.5 -50.5t-26.5 -121.5z" />
    <glyph glyph-name="parenleftinferior" unicode="&#x208d;" horiz-adv-x="272" 
d="M248 -408l-60 -24q-131 250 -131 543q0 292 131 542l60 -24q-50 -127 -74 -247.5t-24 -270.5q0 -149 24 -271t74 -248z" />
    <glyph glyph-name="parenrightinferior" unicode="&#x208e;" horiz-adv-x="272" 
d="M215 111q0 -289 -133 -543l-57 24q96 244 96 519q0 151 -23.5 272t-72.5 246l57 24q133 -254 133 -542z" />
    <glyph glyph-name="colonmonetary" unicode="&#x20a1;" horiz-adv-x="745" 
d="M430 -25q-27 0 -55 7l-39 -187h-92l43 219q-43 28 -72 68l-59 -287h-93l82 408q-71 174 -71 479q0 144 18 264.5t55 216t98.5 154t143.5 69.5l41 187h94l-43 -191q52 -9 84 -30l45 221h95l-62 -295q41 -59 70 -152l-127 -49q-27 88 -61.5 130t-94.5 42q-52 0 -91 -42.5
t-61.5 -120.5t-33.5 -178.5t-11 -225.5t11 -225.5t33.5 -178.5t61.5 -120.5t91 -42.5q67 0 103 54t57 153l129 -48q-71 -299 -289 -299z" />
    <glyph glyph-name="frenchfranc" unicode="&#x20a3;" horiz-adv-x="753" 
d="M317 0h-153v289h-121v92h121v985h508v-137h-355v-461h340v-137h-340v-250h209v-92h-209v-289z" />
    <glyph glyph-name="lira" unicode="&#x20a4;" horiz-adv-x="778" 
d="M61 670v90h89q-50 109 -50 237q0 160 90.5 274.5t229.5 114.5q107 0 181.5 -61t100.5 -170l-122 -59q-23 76 -58 117.5t-96 41.5q-64 0 -113 -71t-49 -191q0 -122 53 -233h205v-90h-162q39 -84 48 -148h114v-90h-112q-4 -75 -41 -152.5t-90 -121.5q41 20 77 20
q47 0 107.5 -31.5t95.5 -31.5q41 0 78 20t57 49l56 -121q-27 -36 -85 -62t-118 -26q-44 0 -80 13t-56 29t-47.5 29t-56.5 13q-67 0 -162 -73l-55 112q82 55 131 144.5t49 181.5v8h-209v90h195q-15 53 -63 148h-132z" />
    <glyph glyph-name="uni20A6" unicode="&#x20a6;" horiz-adv-x="962" 
d="M799 0h-148l-168 498h-166v-498h-153v498h-121v92h121v201h-121v92h121v483h153l162 -483h166v483h154v-483h110v-92h-110v-201h110v-92h-110v-498zM317 995v-405h136zM510 791l135 -400v400h-135z" />
    <glyph glyph-name="peseta" unicode="&#x20a7;" horiz-adv-x="903" 
d="M877 909h-109q-11 -159 -93 -258.5t-231 -99.5h-127v-551h-153v909h-121v101h121v356h280q148 0 230.5 -100t93.5 -256h109v-101zM430 688q77 0 123 59.5t55 161.5h-291v-221h113zM317 1229v-219h291q-9 100 -55 159.5t-123 59.5h-113z" />
    <glyph glyph-name="rupee" unicode="&#x20a8;" horiz-adv-x="1394" 
d="M748 0h-168l-177 551h-120v-551h-154v1366h285q143 0 232 -109t89 -294q0 -86 -17 -155.5t-46 -113t-60 -70t-65 -40.5zM395 688q88 0 134 73.5t46 196.5t-46 197t-134 74h-112v-541h112zM1073 -25q-174 0 -268 125l67 97q79 -107 191 -107q62 0 103.5 40.5t41.5 107.5
q0 45 -20.5 82t-53.5 64.5t-72.5 54t-79 56.5t-72.5 65.5t-53.5 89t-20.5 118.5q0 106 72.5 176t189.5 70q141 0 235 -111l-65 -94q-63 90 -168 90q-59 0 -95 -36.5t-36 -90.5q0 -42 20.5 -77.5t53.5 -62.5t72.5 -53.5t79 -57.5t72.5 -68t53.5 -91.5t20.5 -121.5
q0 -118 -76.5 -191.5t-191.5 -73.5z" />
    <glyph glyph-name="uni20A9" unicode="&#x20a9;" horiz-adv-x="1183" 
d="M899 0h-164l-67 498h-152l-67 -498h-162l-80 498h-150v92h133l-30 201h-103v92h88l-77 483h159l64 -483h168l67 483h131l68 -483h168l63 483h160l-78 -483h76v-92h-90l-33 -201h123v-92h-137zM739 791l74 -512l68 512h-142zM303 791l70 -512l71 512h-141zM592 1055
l-64 -465h127z" />
    <glyph glyph-name="afii57636" unicode="&#x20aa;" horiz-adv-x="1019" 
d="M399 1126q151 0 217 -94.5t66 -324.5v-394h-117v496q0 113 -40.5 161t-125.5 48h-170v-1018h-114v1126h284zM621 0h-283v811h115v-702h168q87 0 127 47.5t40 160.5v809h115v-706q0 -231 -65 -325.5t-217 -94.5z" />
    <glyph glyph-name="Euro" unicode="&#x20ac;" horiz-adv-x="825" 
d="M471 -25q-103 0 -177.5 67t-114.5 178.5t-56 266.5h-90v101h84q-2 31 -2 94q0 65 2 98h-84v101h90q25 236 111 372t237 136q62 0 111 -22t82 -63t53 -82.5t37 -95.5l-127 -49q-27 88 -61.5 130t-94.5 42q-158 0 -188 -368h243v-101h-250q-2 -33 -2 -98q0 -63 2 -94h250
v-101h-245q34 -372 190 -372q67 0 103 54t57 153l129 -48q-71 -299 -289 -299z" />
    <glyph glyph-name="afii61289" unicode="&#x2113;" horiz-adv-x="768" 
d="M135 1071v-883q0 -114 43 -163.5t131 -49.5q87 0 140 56l-46 90q-31 -35 -67 -35q-31 0 -46.5 24.5t-15.5 86.5v360l291 277q96 92 131 158t35 141q0 80 -44 139t-109 86.5t-138 27.5q-138 0 -221.5 -87t-83.5 -228zM465 903l-191 -182v350q0 97 45 151t121 54
q68 0 113 -41t45 -102q0 -57 -29.5 -106.5t-103.5 -123.5z" />
    <glyph glyph-name="afii61352" unicode="&#x2116;" horiz-adv-x="1484" 
d="M764 0h-148l-333 995v-995h-154v1366h154l327 -975v975h154v-1366zM1190 717q-112 0 -172 97.5t-60 240.5t60 240.5t172 97.5q78 0 131.5 -48.5t76.5 -122.5t23 -167t-23 -167t-76.5 -122.5t-131.5 -48.5zM1190 809q119 0 119 246q0 243 -119 243q-117 0 -117 -243
q0 -246 117 -246z" />
    <glyph glyph-name="published" unicode="&#x2117;" horiz-adv-x="1593" 
d="M1503 684q0 -143 -56 -274t-150.5 -226t-225.5 -151t-274 -56q-191 0 -354 95t-258 258t-95 354t95 354t258 258t354 95q143 0 274 -56t225.5 -151t150.5 -226t56 -274zM1442 684q0 130 -51.5 249.5t-138.5 206t-206 138t-249 51.5t-249 -51.5t-205.5 -138t-137.5 -206
t-51 -249.5t51 -249.5t137.5 -206t205.5 -138t249 -51.5q174 0 322.5 87t235.5 235.5t87 322.5zM1124 860q0 -106 -75 -170.5t-183 -64.5h-229v-357h-72v830h301q109 0 183.5 -64t74.5 -174zM1051 860q0 77 -52 122.5t-133 45.5h-229v-334h229q81 0 133 45.5t52 120.5z" />
    <glyph glyph-name="servicemark" unicode="&#x2120;" horiz-adv-x="765" 
d="M690 915h-57v373l-113 -373h-16l-113 373v-373h-57v451h88l90 -322l90 322h88v-451zM250 1026q0 -53 -32 -88t-83 -35q-64 0 -104 43l28 51q31 -39 70 -39q25 0 43 19t18 49q0 28 -15 50.5t-37 39.5t-43.5 35t-36.5 46.5t-15 64.5q0 50 30.5 83t80.5 33q51 0 88 -32
l-25 -50q-24 27 -59 27q-23 0 -38.5 -16.5t-15.5 -44.5q0 -24 15 -44.5t36.5 -37.5t43 -36.5t36.5 -49.5t15 -68z" />
    <glyph glyph-name="trademark" unicode="&#x2122;" horiz-adv-x="765" 
d="M694 915h-57v373l-113 -373h-16l-113 373v-373h-57v451h88l90 -322l90 322h88v-451zM264 1313h-86v-398h-57v398h-86v53h229v-53z" />
    <glyph glyph-name="estimated" unicode="&#x212e;" horiz-adv-x="1724" 
d="M1661 664h-1294q-11 0 -11 -11v-389q0 -28 19 -47q94 -99 221.5 -155t269.5 -56q152 0 284 62.5t228 173.5h117q-111 -130 -277 -204.5t-356 -74.5q-162 0 -310 57t-255 153t-170.5 229.5t-63.5 279.5t63.5 279.5t170.5 229.5t255 153t310 57t310 -57t255 -153
t170.5 -229.5t63.5 -279.5v-18zM1368 715v391q0 29 -20 49q-94 96 -219 149.5t-263 53.5q-141 0 -267.5 -55.5t-221.5 -153.5q-21 -21 -21 -49v-385q0 -13 11 -13h993q8 0 8 13z" />
    <glyph glyph-name="onethird" unicode="&#x2153;" horiz-adv-x="1245" 
d="M907 1366l-561 -1366h-84l561 1366h84zM1202 223q0 -107 -60.5 -172t-168.5 -65q-78 0 -136.5 37t-91.5 98l78 65q56 -106 146 -106q118 0 118 149q0 79 -36.5 112.5t-89.5 33.5q-44 0 -54 -2v94q10 -2 49 -2q56 0 89.5 34.5t33.5 100.5q0 68 -29.5 102.5t-80.5 34.5
q-89 0 -138 -96l-77 59q35 62 93 96.5t126 34.5q98 0 157.5 -55.5t59.5 -163.5q0 -68 -37 -121.5t-94 -66.5q58 -11 100.5 -67.5t42.5 -133.5zM334 547h-115v672l-123 -129l-65 67l202 209h101v-819z" />
    <glyph glyph-name="twothirds" unicode="&#x2154;" horiz-adv-x="1318" 
d="M981 1366l-561 -1366h-84l561 1366h84zM1276 223q0 -107 -60.5 -172t-168.5 -65q-78 0 -136.5 37t-91.5 98l78 65q56 -106 145 -106q119 0 119 149q0 79 -37 112.5t-90 33.5q-43 0 -53 -2v94q10 -2 49 -2q56 0 89.5 34.5t33.5 100.5q0 68 -30 102.5t-81 34.5
q-88 0 -137 -96l-78 59q35 62 93.5 96.5t126.5 34.5q98 0 157.5 -55.5t59.5 -163.5q0 -68 -37 -121.5t-94 -66.5q58 -11 100.5 -67.5t42.5 -133.5zM494 547h-431v86q202 266 258 358.5t56 169.5q0 55 -31 89t-78 34q-91 0 -145 -104l-74 65q81 133 223 133q98 0 159 -58
t61 -157q0 -86 -56 -183t-233 -339h291v-94z" />
    <glyph glyph-name="oneeighth" unicode="&#x215b;" horiz-adv-x="1245" 
d="M907 1366l-561 -1366h-84l561 1366h84zM1200 201q0 -100 -60.5 -157.5t-164.5 -57.5q-106 0 -165.5 57t-59.5 158q0 74 43.5 136t101.5 85q-55 22 -95 76.5t-40 126.5q0 100 62 153t153 53t153 -53t62 -153q0 -71 -41 -125.5t-94 -77.5q57 -24 101 -85.5t44 -135.5z
M1077 610q0 61 -27 95t-75 34q-49 0 -76 -33.5t-27 -95.5q0 -34 13 -63t32 -46.5t33.5 -27t24.5 -12.5q10 3 24 12.5t33 27t32 46.5t13 63zM1085 211q0 71 -41.5 118.5t-68.5 49.5q-27 -2 -69 -49.5t-42 -118.5q0 -65 31.5 -100t79.5 -35q47 0 78.5 35.5t31.5 99.5zM334 547
h-115v672l-123 -129l-65 67l202 209h101v-819z" />
    <glyph glyph-name="threeeighths" unicode="&#x215c;" horiz-adv-x="1318" 
d="M981 1366l-561 -1366h-84l561 1366h84zM1274 201q0 -100 -60.5 -157.5t-164.5 -57.5q-106 0 -166 57t-60 158q0 74 44 136t102 85q-55 22 -95 76.5t-40 126.5q0 100 62 153t153 53t153 -53t62 -153q0 -71 -41 -125.5t-95 -77.5q57 -24 101.5 -85.5t44.5 -135.5zM1151 610
q0 61 -27 95t-75 34q-49 0 -76 -33.5t-27 -95.5q0 -34 13 -63t32 -46.5t33.5 -27t24.5 -12.5q10 3 24 12.5t33 27t32 46.5t13 63zM1159 211q0 71 -41.5 118.5t-68.5 49.5q-27 -2 -69 -49.5t-42 -118.5q0 -65 31.5 -100t79.5 -35q47 0 78.5 35.5t31.5 99.5zM498 770
q0 -107 -61 -172.5t-169 -65.5q-78 0 -136 37.5t-91 98.5l78 65q56 -106 145 -106q119 0 119 149q0 79 -37 112.5t-90 33.5q-43 0 -53 -2v94q10 -2 49 -2q56 0 89.5 34.5t33.5 100.5q0 68 -30 102.5t-81 34.5q-88 0 -137 -96l-78 59q35 62 93 96.5t126 34.5
q98 0 157.5 -55.5t59.5 -163.5q0 -68 -37 -121.5t-94 -66.5q58 -11 101 -67.5t43 -133.5z" />
    <glyph glyph-name="fiveeighths" unicode="&#x215d;" horiz-adv-x="1314" 
d="M977 1366l-561 -1366h-84l561 1366h84zM1268 201q0 -100 -61 -157.5t-165 -57.5q-106 0 -165.5 57t-59.5 158q0 74 44 136t102 85q-55 22 -95.5 77t-40.5 126q0 100 62 153t153 53t153 -53t62 -153q0 -71 -41 -125.5t-94 -77.5q57 -24 101.5 -85.5t44.5 -135.5zM1145 610
q0 61 -27.5 95t-75.5 34q-49 0 -75.5 -33.5t-26.5 -95.5q0 -34 13 -63t32 -46.5t33 -27t24 -12.5q10 3 24.5 12.5t33.5 27t32 46.5t13 63zM1153 211q0 71 -42 118.5t-69 49.5q-27 -2 -68.5 -49.5t-41.5 -118.5q0 -65 31 -100t79 -35q47 0 79 35.5t32 99.5zM494 803
q0 -117 -63 -194t-167 -77q-80 0 -133 34t-90 102l78 65q51 -106 141 -106q54 0 86.5 51.5t32.5 124.5q0 85 -29.5 129.5t-81.5 44.5q-67 0 -118 -82l-87 31v440h394v-94h-281v-277q51 68 131 68q81 0 134 -68t53 -192z" />
    <glyph glyph-name="seveneighths" unicode="&#x215e;" horiz-adv-x="1206" 
d="M868 1366l-561 -1366h-84l561 1366h84zM1159 201q0 -100 -60.5 -157.5t-164.5 -57.5q-106 0 -165.5 57t-59.5 158q0 74 43.5 136t101.5 85q-55 22 -95 76.5t-40 126.5q0 100 62 153t153 53t153 -53t62 -153q0 -71 -41 -125.5t-94 -77.5q57 -24 101 -85.5t44 -135.5z
M1036 610q0 61 -27 95t-75 34q-49 0 -76 -33.5t-27 -95.5q0 -34 13 -63t32 -46.5t33.5 -27t24.5 -12.5q10 3 24 12.5t33 27t32 46.5t13 63zM1044 211q0 71 -41.5 118.5t-68.5 49.5q-27 -2 -69 -49.5t-42 -118.5q0 -65 31.5 -100t79.5 -35q47 0 78.5 35.5t31.5 99.5z
M455 1288l-222 -741h-112l223 725h-309v94h420v-78z" />
    <glyph glyph-name="arrowleft" unicode="&#x2190;" horiz-adv-x="1191" 
d="M1102 432h-551l24 -266l-575 420l575 418l-24 -265h551v-307z" />
    <glyph glyph-name="arrowup" unicode="&#x2191;" horiz-adv-x="1191" 
d="M442 35v551l-266 -25l420 576l418 -576l-264 25v-551h-308z" />
    <glyph glyph-name="arrowright" unicode="&#x2192;" horiz-adv-x="1191" 
d="M1196 586l-575 -420l24 266h-549v307h549l-24 265z" />
    <glyph glyph-name="arrowdown" unicode="&#x2193;" horiz-adv-x="1191" 
d="M750 1137v-551l266 24l-420 -575l-418 575l264 -24v551h308z" />
    <glyph glyph-name="partialdiff" unicode="&#x2202;" horiz-adv-x="782" 
d="M391 -25q-82 0 -144 41.5t-98 113.5t-53.5 160t-17.5 191q0 140 27.5 250t93 182t161.5 72q116 0 170 -125q-26 120 -78.5 251t-115.5 222l123 60q246 -395 246 -897q0 -108 -17.5 -199.5t-54 -165t-98.5 -115t-144 -41.5zM391 100q48 0 82 32t52 89t26 120.5t8 139.5
q0 75 -8 138.5t-26 120.5t-52 89.5t-82 32.5q-47 0 -81 -32.5t-52.5 -89t-26.5 -120.5t-8 -139q0 -76 8 -140t26.5 -120.5t52.5 -88.5t81 -32z" />
    <glyph glyph-name="product" unicode="&#x220f;" horiz-adv-x="872" 
d="M725 -184h-156v1413h-270v-1413h-154v1413h-108v137h799v-137h-111v-1413z" />
    <glyph glyph-name="summation" unicode="&#x2211;" horiz-adv-x="667" 
d="M481 612l-235 617h354v137h-514v-137l236 -617l-236 -653v-143h514v137h-358z" />
    <glyph glyph-name="minus" unicode="&#x2212;" 
d="M715 635h-656v100h656v-100z" />
    <glyph glyph-name="radical" unicode="&#x221a;" horiz-adv-x="952" 
d="M592 0h-113l-145 651l-230 -49l-18 98l320 68l133 -623l276 1221h100z" />
    <glyph glyph-name="infinity" unicode="&#x221e;" horiz-adv-x="980" 
d="M281 352q-73 0 -125 50.5t-74.5 124t-22.5 159.5t22.5 160t74.5 125t125 51q137 0 208 -221q33 98 87.5 159.5t123.5 61.5q74 0 126 -51t74 -124.5t22 -160.5t-22 -160t-74 -123.5t-126 -50.5q-69 0 -123.5 61t-87.5 158q-72 -219 -208 -219zM684 453q66 0 101.5 64
t35.5 169t-36 170.5t-101 65.5q-92 0 -147 -236q56 -233 147 -233zM297 453q89 0 149 233q-60 236 -149 236q-64 0 -100.5 -66t-36.5 -170t36.5 -168.5t100.5 -64.5z" />
    <glyph glyph-name="integral" unicode="&#x222b;" horiz-adv-x="479" 
d="M96 -205h-61v105h61q37 0 62.5 30.5t25.5 77.5v1350q0 94 60 154.5t139 60.5h61v-105h-61q-36 0 -62 -31t-26 -79v-1350q0 -93 -60 -153t-139 -60z" />
    <glyph glyph-name="approxequal" unicode="&#x2248;" 
d="M59 434v109q71 -39 164 -39q68 0 157 33.5t171 33.5q89 0 164 -30v-107q-73 37 -164 37q-69 0 -157.5 -34t-170.5 -34q-83 0 -164 31zM59 827v107q73 -37 164 -37q68 0 157 34t171 34q87 0 164 -31v-109q-71 39 -164 39q-69 0 -157.5 -33.5t-170.5 -33.5q-86 0 -164 30z
" />
    <glyph glyph-name="notequal" unicode="&#x2260;" 
d="M225 190h-84l101 244h-183v101h224l123 299h-347v100h387l101 242h86l-101 -242h183v-100h-223l-125 -299h348v-101h-389z" />
    <glyph glyph-name="lessequal" unicode="&#x2264;" 
d="M715 330l-656 305v100l656 305v-120l-531 -236l531 -233v-121zM715 92h-656v101h656v-101z" />
    <glyph glyph-name="greaterequal" unicode="&#x2265;" 
d="M715 635l-656 -305v121l531 233l-531 236v120l656 -305v-100zM715 92h-656v101h656v-101z" />
    <glyph glyph-name="triangleright" unicode="&#x22b2;" horiz-adv-x="1202" 
d="M1206 586l-1095 -633v1266z" />
    <glyph glyph-name="triangleleft" unicode="&#x22b3;" horiz-adv-x="1202" 
d="M1096 1219v-1266l-1096 633z" />
    <glyph glyph-name="uni2318" unicode="&#x2318;" horiz-adv-x="1366" 
d="M465 315v154h-152q-64 0 -107.5 -45t-43.5 -109q0 -65 43.5 -110t107.5 -45t108 45t44 110zM465 897v156q0 64 -43.5 108.5t-106.5 44.5q-65 0 -109 -44t-44 -109t44.5 -110.5t108.5 -45.5h150zM543 543h280v280h-280v-280zM1204 315q0 64 -43.5 109t-107.5 45h-152v-154
q0 -65 44 -110t108 -45t107.5 45t43.5 110zM1204 1053q0 64 -44 108.5t-107 44.5q-64 0 -108 -44t-44 -109v-156h152q63 0 107 45.5t44 110.5zM1280 315q0 -94 -66.5 -161.5t-160.5 -67.5t-162 67.5t-68 161.5v154h-280v-154q0 -94 -68 -161.5t-162 -67.5t-160.5 67.5
t-66.5 161.5t66.5 161t160.5 67h152v280h-150q-94 0 -161.5 68t-67.5 162t67.5 160.5t161.5 66.5t161 -66.5t67 -160.5v-156h280v156q0 93 68 160t162 67t160.5 -66.5t66.5 -160.5t-67 -162t-160 -68h-152v-280h152q94 0 160.5 -67t66.5 -161z" />
    <glyph glyph-name="uni2318" unicode="&#xf8ff;" horiz-adv-x="1366" 
d="M465 315v154h-152q-64 0 -107.5 -45t-43.5 -109q0 -65 43.5 -110t107.5 -45t108 45t44 110zM465 897v156q0 64 -43.5 108.5t-106.5 44.5q-65 0 -109 -44t-44 -109t44.5 -110.5t108.5 -45.5h150zM543 543h280v280h-280v-280zM1204 315q0 64 -43.5 109t-107.5 45h-152v-154
q0 -65 44 -110t108 -45t107.5 45t43.5 110zM1204 1053q0 64 -44 108.5t-107 44.5q-64 0 -108 -44t-44 -109v-156h152q63 0 107 45.5t44 110.5zM1280 315q0 -94 -66.5 -161.5t-160.5 -67.5t-162 67.5t-68 161.5v154h-280v-154q0 -94 -68 -161.5t-162 -67.5t-160.5 67.5
t-66.5 161.5t66.5 161t160.5 67h152v280h-150q-94 0 -161.5 68t-67.5 162t67.5 160.5t161.5 66.5t161 -66.5t67 -160.5v-156h280v156q0 93 68 160t162 67t160.5 -66.5t66.5 -160.5t-67 -162t-160 -68h-152v-280h152q94 0 160.5 -67t66.5 -161z" />
    <glyph glyph-name="blacksquare" unicode="&#x25a0;" horiz-adv-x="1353" 
d="M1266 0h-1170v1171h1170v-1171z" />
    <glyph glyph-name="triagup" unicode="&#x25b2;" horiz-adv-x="1261" 
d="M1264 59l-1268 2l633 1096z" />
    <glyph glyph-name="triagdn" unicode="&#x25bc;" horiz-adv-x="1261" 
d="M1264 1044l-635 -1095l-633 1095h1268z" />
    <glyph glyph-name="lozenge" unicode="&#x25ca;" horiz-adv-x="768" 
d="M406 0h-44l-323 684l323 682h44l323 -682zM385 84l270 600l-272 598l-270 -598z" />
    <glyph glyph-name="circlesolid" unicode="&#x25cf;" horiz-adv-x="1423" 
d="M1319 584q0 -165 -81.5 -305.5t-221.5 -222t-305 -81.5q-124 0 -236.5 48.5t-194 130t-130 194t-48.5 236.5q0 165 81.5 305t222 221.5t305.5 81.5t305 -81.5t221.5 -221.5t81.5 -305z" />
    <glyph glyph-name="blackstar" unicode="&#x2605;" horiz-adv-x="1554" 
d="M1554 862l-481 -350l184 -563l-481 348l-479 -348l182 563l-479 350h594l182 565l185 -565h593z" />
    <glyph glyph-name="ballotbox" unicode="&#x2610;" horiz-adv-x="1353" 
d="M1262 0h-1170v1171h1170v-1171zM1153 100v971h-952v-971h952z" />
    <glyph glyph-name="boxchecked" unicode="&#x2611;" horiz-adv-x="1353" 
d="M1382 1430l-141 -259h21v-1171h-1170v1171h1032l170 316zM1153 100v906l-444 -820l-414 504l80 76l319 -395l377 700h-870v-971h952z" />
    <glyph glyph-name="diamond" unicode="&#x2666;" horiz-adv-x="1026" 
d="M1026 584l-514 -512l-512 512l512 514z" />
    <glyph glyph-name="checkmark" unicode="&#x2713;" horiz-adv-x="1087" 
d="M1087 1430l-673 -1244l-414 504l80 76l319 -395l600 1116z" />
    <glyph glyph-name="perthousand.onum" unicode="&#xf628;" horiz-adv-x="1415" 
d="M463 870q0 -121 -58 -199.5t-153 -78.5q-94 0 -150.5 78.5t-56.5 199.5t57 201t150 80q95 0 153 -80t58 -201zM905 256q0 -121 -57.5 -200t-151.5 -79t-151.5 79t-57.5 200q0 122 57.5 201.5t151.5 79.5t151.5 -79.5t57.5 -201.5zM772 1124l-502 -1124h-82l500 1124h84z
M360 870q0 86 -28.5 141.5t-79.5 55.5t-80 -55.5t-29 -141.5t29 -140t80 -54t79.5 54t28.5 140zM807 256q0 85 -30.5 140t-80.5 55q-51 0 -80.5 -54.5t-29.5 -140.5q0 -85 29.5 -140t80.5 -55q50 0 80.5 55.5t30.5 139.5zM1370 256q0 -121 -57.5 -200t-151.5 -79t-151.5 79
t-57.5 200q0 122 57.5 201.5t151.5 79.5t151.5 -79.5t57.5 -201.5zM1272 256q0 85 -30.5 140t-80.5 55t-80 -55t-30 -140q0 -84 30 -139.5t80 -55.5t80.5 55.5t30.5 139.5z" />
    <glyph glyph-name="zero.tzero" unicode="&#xf638;" horiz-adv-x="800" 
d="M401 -25q-118 0 -198 103l-33 -78h-107l78 188q-75 183 -75 494q0 104 9 198t32.5 189t60 163t96.5 111t137 43q116 0 195 -98l33 78h106l-78 -188q78 -187 78 -496q0 -85 -6.5 -164.5t-21 -161.5t-40 -149t-61.5 -120t-88.5 -82.5t-116.5 -29.5zM401 115q46 0 79.5 35
t51 86.5t28 133.5t13 150.5t2.5 161.5q0 164 -10 272l-297 -716q40 -123 133 -123zM225 682q0 -184 8 -268l297 714q-45 119 -129 119q-39 0 -68.5 -22.5t-48.5 -66t-31 -93.5t-18 -119.5t-8 -128.5t-2 -135z" />
    <glyph glyph-name="zero.tnum" unicode="&#xf639;" horiz-adv-x="800" 
d="M401 -25q-77 0 -137 43.5t-96.5 112t-60 164t-32.5 189.5t-9 198t9 198t32.5 189t60 163t96.5 111t137 43q76 0 135.5 -42.5t96 -111t60.5 -163t33 -189t9 -198.5q0 -85 -6.5 -164.5t-21 -161.5t-40 -149t-61.5 -120t-88.5 -82.5t-116.5 -29.5zM401 115q46 0 79.5 35
t51 86.5t28 133.5t13 150.5t2.5 161.5q0 77 -2 135t-7.5 128.5t-17.5 120t-30.5 93t-48 66t-68.5 22.5t-68.5 -22.5t-48.5 -66t-31 -93.5t-18 -119.5t-8 -128.5t-2 -135q0 -57 1 -100.5t3.5 -98.5t8 -96.5t14 -86t22 -76t31 -57.5t42 -39t54.5 -13z" />
    <glyph glyph-name="two.tnum" unicode="&#xf63a;" horiz-adv-x="800" 
d="M713 0h-607v129q206 329 296.5 491t119.5 246.5t29 173.5q0 90 -43.5 148.5t-112.5 58.5q-131 0 -205 -170l-110 86q61 113 134.5 168t186.5 55q141 0 225.5 -95t84.5 -249q0 -93 -31.5 -191.5t-117 -261.5t-259.5 -452h410v-137z" />
    <glyph glyph-name="three.tnum" unicode="&#xf63b;" horiz-adv-x="800" 
d="M385 -25q-110 0 -195 65t-129 165l115 84q76 -174 205 -174q176 0 176 264q0 72 -17 124.5t-45.5 79t-58.5 38.5t-63 12q-60 0 -76 -2v141q16 -2 72 -2q79 0 126.5 60t47.5 174q0 243 -162 243q-125 0 -193 -160l-112 78q46 106 129.5 163.5t181.5 57.5
q142 0 226.5 -89.5t84.5 -272.5q0 -110 -52 -200t-140 -117q88 -21 147.5 -115.5t59.5 -222.5q0 -178 -84 -286t-244 -108z" />
    <glyph glyph-name="four.tnum" unicode="&#xf63c;" horiz-adv-x="800" 
d="M639 0h-154v354h-430v142l400 870h184v-874h109v-138h-109v-354zM485 492v679l-299 -679h299z" />
    <glyph glyph-name="five.tnum" unicode="&#xf63d;" horiz-adv-x="800" 
d="M393 -25q-119 0 -192 58t-127 172l112 82q34 -87 81 -129.5t120 -42.5q54 0 94.5 44t60 112t19.5 147q0 153 -41 229t-117 76q-55 0 -94.5 -28.5t-83.5 -100.5l-119 41v731h560v-137h-404v-484q30 52 79 83.5t108 31.5q125 0 198.5 -114.5t73.5 -325.5
q0 -120 -38.5 -220.5t-114.5 -162.5t-175 -62z" />
    <glyph glyph-name="six.tnum" unicode="&#xf63e;" horiz-adv-x="800" 
d="M422 -25q-96 0 -164.5 59t-104.5 163.5t-51.5 222.5t-15.5 262q0 94 8 178.5t25.5 164.5t46.5 145t69 114t95.5 75.5t122.5 26.5q84 0 152.5 -47t105.5 -129l-93 -102q-28 69 -65.5 104t-95.5 35q-61 0 -104.5 -50.5t-66 -135.5t-32.5 -176t-10 -193v-28q30 83 86 136.5
t131 53.5q118 0 193 -113t75 -323q0 -118 -32.5 -216t-104 -162.5t-170.5 -64.5zM416 115q42 0 73 25t48 69t24.5 94.5t7.5 110.5q0 305 -151 305q-109 0 -172 -213q6 -391 170 -391z" />
    <glyph glyph-name="seven.tnum" unicode="&#xf63f;" horiz-adv-x="800" 
d="M381 0h-164l309 1229h-422v137h590v-106z" />
    <glyph glyph-name="eight.tnum" unicode="&#xf640;" horiz-adv-x="800" 
d="M399 -25q-154 0 -236.5 94t-82.5 259q0 123 66.5 227.5t148.5 149.5q-78 42 -139.5 133t-61.5 209q0 164 86.5 251.5t218.5 87.5q134 0 221 -87.5t87 -251.5q0 -117 -62 -208.5t-139 -133.5q81 -46 148 -149.5t67 -225.5q0 -166 -83.5 -260.5t-238.5 -94.5zM399 760
q13 5 34.5 22.5t49 48.5t47 82.5t19.5 110.5q0 105 -38 164t-112 59q-72 0 -110.5 -59t-38.5 -164q0 -59 19.5 -110.5t47 -82.5t48.5 -48t34 -23zM399 115q73 0 118.5 60.5t45.5 172.5q0 63 -21 121.5t-50 94t-54 57t-39 24.5q-14 -3 -39 -24.5t-53 -57.5t-48.5 -94.5
t-20.5 -122.5q0 -111 44 -171t117 -60z" />
    <glyph glyph-name="nine.tnum" unicode="&#xf641;" horiz-adv-x="800" 
d="M348 -23q-84 0 -152.5 47.5t-105.5 129.5l94 102q26 -69 64.5 -104t97.5 -35t102 49.5t65.5 133.5t33 176t10.5 194v30q-28 -83 -84 -136.5t-131 -53.5q-119 0 -194.5 113t-75.5 323q0 118 32.5 216t104 162.5t170.5 64.5q78 0 138 -40t97 -106t61 -160t33 -191t9 -210
q0 -143 -19.5 -264t-61 -223t-115 -160t-173.5 -58zM383 645q109 0 172 213q-6 391 -168 391q-43 0 -74.5 -25t-48.5 -69t-25 -94.5t-8 -110.5q0 -305 152 -305z" />
    <glyph glyph-name="percent.onum" unicode="&#xf642;" horiz-adv-x="948" 
d="M463 870q0 -121 -58 -199.5t-153 -78.5q-94 0 -150.5 78.5t-56.5 199.5t57 201t150 80q95 0 153 -80t58 -201zM905 256q0 -121 -57.5 -200t-151.5 -79t-151.5 79t-57.5 200q0 122 57.5 201.5t151.5 79.5t151.5 -79.5t57.5 -201.5zM768 1126l-504 -1126h-82l502 1126h84z
M360 870q0 86 -28.5 141.5t-79.5 55.5t-80 -55.5t-29 -141.5t29 -140t80 -54t79.5 54t28.5 140zM807 256q0 85 -30.5 140t-80.5 55q-51 0 -80.5 -54.5t-29.5 -140.5q0 -85 29.5 -140t80.5 -55q50 0 80.5 55.5t30.5 139.5z" />
    <glyph glyph-name="zero.tonum" unicode="&#xf643;" horiz-adv-x="800" 
d="M735 563q0 -106 -15.5 -201.5t-51 -186.5t-104 -145.5t-163.5 -54.5q-77 0 -137 37t-96.5 95.5t-60 138.5t-32.5 157t-9 160t9 160.5t32.5 157.5t60 138t96.5 95t137 37q76 0 136 -37t96 -95.5t60 -138t33 -157t9 -160.5zM575 563q0 53 -2 97t-8 99.5t-18 97t-30.5 78.5
t-48 57t-67.5 20q-176 0 -176 -449q0 -53 2 -96.5t7.5 -99t18 -97t31 -78.5t48.5 -57t69 -20q174 0 174 448z" />
    <glyph glyph-name="one.tonum" unicode="&#xf644;" horiz-adv-x="800" 
d="M596 0h-154v922l-204 -217l-93 96l314 325h137v-1126z" />
    <glyph glyph-name="two.tonum" unicode="&#xf645;" horiz-adv-x="800" 
d="M682 0h-576v131q248 242 341.5 397t93.5 271q0 93 -43 153t-111 60q-122 0 -197 -164l-110 80q56 112 131 167.5t186 55.5q137 0 220 -93t83 -239q0 -293 -387 -682h369v-137z" />
    <glyph glyph-name="three.tonum" unicode="&#xf646;" horiz-adv-x="800" 
d="M385 -260q-110 0 -195 64.5t-129 164.5l115 84q76 -174 205 -174q176 0 176 264q0 72 -17 124.5t-45.5 79t-58.5 38.5t-63 12q-60 0 -76 -2v142q16 -2 72 -2q79 0 126.5 59.5t47.5 173.5q0 244 -162 244q-125 0 -193 -160l-112 78q46 106 129.5 163.5t181.5 57.5
q142 0 226.5 -90t84.5 -273q0 -110 -52 -200t-140 -117q88 -21 147.5 -115.5t59.5 -222.5q0 -177 -84 -285t-244 -108z" />
    <glyph glyph-name="four.tonum" unicode="&#xf647;" horiz-adv-x="800" 
d="M748 119h-109v-359h-154v359h-430v143l400 864h184v-870h109v-137zM485 256v676l-299 -676h299z" />
    <glyph glyph-name="five.tonum" unicode="&#xf648;" horiz-adv-x="800" 
d="M393 -264q-119 0 -192 58t-127 171l112 82q34 -87 81 -129.5t120 -42.5q54 0 94.5 44t60 112t19.5 147q0 153 -41 229t-117 76q-55 0 -94.5 -28.5t-83.5 -100.5l-119 41v731h560v-137h-404v-483q30 52 79 83.5t108 31.5q125 0 198.5 -115t73.5 -326q0 -120 -38.5 -220.5
t-114.5 -162t-175 -61.5z" />
    <glyph glyph-name="six.tonum" unicode="&#xf649;" horiz-adv-x="800" 
d="M422 -25q-96 0 -164.5 59t-104.5 163.5t-51.5 222.5t-15.5 262q0 94 8 178.5t25.5 164.5t46.5 145t69 114t95.5 75.5t122.5 26.5q84 0 152.5 -47t105.5 -129l-93 -102q-28 69 -65.5 104t-95.5 35q-61 0 -104.5 -50.5t-66 -135.5t-32.5 -176t-10 -193v-28q30 83 86 136.5
t131 53.5q118 0 193 -113t75 -323q0 -118 -32.5 -216t-104 -162.5t-170.5 -64.5zM416 115q42 0 73 25t48 69t24.5 94.5t7.5 110.5q0 305 -151 305q-109 0 -172 -213q6 -391 170 -391z" />
    <glyph glyph-name="seven.tonum" unicode="&#xf64a;" horiz-adv-x="800" 
d="M381 -240h-164l309 1229h-422v137h590v-106z" />
    <glyph glyph-name="eight.tonum" unicode="&#xf64b;" horiz-adv-x="800" 
d="M399 -25q-154 0 -236.5 94t-82.5 259q0 123 66.5 227.5t148.5 149.5q-78 42 -139.5 133t-61.5 209q0 164 86.5 251.5t218.5 87.5q134 0 221 -87.5t87 -251.5q0 -117 -62 -208.5t-139 -133.5q81 -46 148 -149.5t67 -225.5q0 -166 -83.5 -260.5t-238.5 -94.5zM399 760
q13 5 34.5 22.5t49 48.5t47 82.5t19.5 110.5q0 105 -38 164t-112 59q-72 0 -110.5 -59t-38.5 -164q0 -59 19.5 -110.5t47 -82.5t48.5 -48t34 -23zM399 115q73 0 118.5 60.5t45.5 172.5q0 63 -21 121.5t-50 94t-54 57t-39 24.5q-14 -3 -39 -24.5t-53 -57.5t-48.5 -94.5
t-20.5 -122.5q0 -111 44 -171t117 -60z" />
    <glyph glyph-name="nine.tonum" unicode="&#xf64c;" horiz-adv-x="800" 
d="M348 -260q-84 0 -152.5 47t-105.5 129l94 102q26 -69 64.5 -104t97.5 -35t102 49.5t65.5 133.5t33 176t10.5 194v31q-28 -83 -84 -137t-131 -54q-119 0 -194.5 113.5t-75.5 323.5q0 118 32.5 216t104 162t170.5 64q78 0 138 -40t97 -106t61 -160t33 -191t9 -210
q0 -143 -19.5 -264t-61 -222.5t-115 -159.5t-173.5 -58zM383 408q109 0 172 213q-6 391 -168 391q-43 0 -74.5 -25t-48.5 -69t-25 -94.5t-8 -110.5q0 -305 152 -305z" />
    <glyph glyph-name="colonmonetary.onum" unicode="&#xf64d;" horiz-adv-x="718" 
d="M119 -109l47 230q-86 149 -86 442q0 123 17 225t52 183.5t94.5 128.5t139.5 51l16 76h76l-18 -82q30 -6 57 -21l21 103h75l-32 -152q46 -51 81 -151l-120 -41q-24 70 -56.5 104.5t-81.5 34.5q-172 0 -172 -459t172 -459q98 0 138 150l123 -39q-35 -111 -95.5 -175.5
t-165.5 -64.5q-25 0 -53 7l-18 -91h-74l23 115q-34 19 -52 37l-32 -152h-76z" />
    <glyph glyph-name="Euro.onum" unicode="&#xf64e;" horiz-adv-x="737" 
d="M455 645h-207v-82q0 -57 2 -84h205v-86h-201q27 -289 166 -289q52 0 84.5 38t52.5 112l123 -39q-17 -53 -37 -93t-50.5 -75t-74 -53.5t-98.5 -18.5q-136 0 -213.5 112.5t-100.5 305.5h-73v86h67q0 13 -1 41t-1 43q0 55 2 82h-67v86h73q21 194 99.5 307t214.5 113
q102 0 162.5 -61t95.5 -166l-121 -41q-24 71 -56 105t-81 34q-72 0 -112.5 -78t-53.5 -213h201v-86z" />
    <glyph glyph-name="florin.onum" unicode="&#xf64f;" horiz-adv-x="659" 
d="M213 -244h-158l152 684h-78v111h102l78 348q31 134 91 192t153 58q82 0 127 -55l-68 -109q-15 27 -51 27q-37 0 -59 -30t-39 -103l-74 -328h143v-111h-167z" />
    <glyph glyph-name="numbersign.onum" unicode="&#xf650;" horiz-adv-x="751" 
d="M717 805l-17 -90h-116l-66 -295h115l-23 -92h-116l-74 -328h-111l80 328h-137l-74 -328h-110l77 328h-110l20 92h113l70 295h-113l18 90h115l74 321h110l-77 -321h137l73 321h107l-76 -321h111zM479 715h-137l-68 -295h136z" />
    <glyph glyph-name="sterling.onum" unicode="&#xf651;" horiz-adv-x="643" 
d="M47 463v92h103q-72 163 -72 291q0 136 77.5 219.5t188.5 83.5q88 0 152.5 -49.5t87.5 -138.5l-113 -43q-38 122 -121 122q-55 0 -92 -55t-37 -141q0 -23 2 -45t7 -45.5t8.5 -40t12.5 -42.5t13 -37.5t15 -40.5t14 -38h143v-92h-112q16 -59 16 -111q0 -102 -88 -217
q21 15 45 15q38 0 84.5 -24t73.5 -24q33 0 62.5 17t45.5 41l58 -101q-26 -35 -74 -56t-103 -21q-45 0 -77.5 15t-58.5 30.5t-54 15.5q-55 0 -133 -57l-49 96q64 43 103.5 108t39.5 138q0 53 -29 135h-139z" />
    <glyph glyph-name="yen.onum" unicode="&#xf652;" horiz-adv-x="671" 
d="M410 0h-148v233h-225v93h225v149h-225v92h188l-227 559h156l182 -497l182 497h156l-228 -559h189v-92h-225v-149h225v-93h-225v-233z" />
    <glyph glyph-name="cent.onum" unicode="&#xf654;" horiz-adv-x="718" 
d="M348 -190v172q-70 14 -123 63.5t-84 128.5t-46 176t-15 213t15 213t46 176t84 129t123 64v121h109v-121q77 -16 123.5 -73t78.5 -148l-120 -41q-38 100 -82 125v-889q54 27 82 135l123 -39q-32 -96 -79.5 -156.5t-125.5 -76.5v-172h-109zM229 563q0 -381 119 -446v891
q-119 -65 -119 -445z" />
    <glyph glyph-name="zero.dnom" unicode="&#xf655;" horiz-adv-x="540" 
d="M508 410q0 -79 -12.5 -151t-39 -135t-74 -100.5t-110.5 -37.5q-64 0 -111.5 37.5t-74 100.5t-39 135t-12.5 151q0 80 12.5 151.5t39 134t74 99t111.5 36.5q63 0 110.5 -37t74 -99t39 -133.5t12.5 -151.5zM389 410q0 67 -4 118.5t-15.5 102.5t-36.5 78.5t-61 27.5t-61 -28
t-36.5 -78.5t-16 -102t-4.5 -118.5q0 -68 4 -119t15.5 -103t36.5 -80t62 -28q36 0 61 28t36.5 80t15.5 103.5t4 118.5z" />
    <glyph glyph-name="one.dnom" unicode="&#xf656;" horiz-adv-x="440" 
d="M334 0h-115v672l-123 -129l-65 67l202 209h101v-819z" />
    <glyph glyph-name="two.dnom" unicode="&#xf657;" horiz-adv-x="540" 
d="M494 0h-431v86q202 266 258 358.5t56 169.5q0 55 -31 89t-78 34q-91 0 -145 -104l-74 65q81 133 223 133q98 0 159 -58t61 -157q0 -86 -56 -183t-233 -339h291v-94z" />
    <glyph glyph-name="three.dnom" unicode="&#xf658;" horiz-adv-x="540" 
d="M498 223q0 -107 -61 -172t-169 -65q-78 0 -136 37t-91 98l78 65q56 -106 145 -106q119 0 119 149q0 79 -37 112.5t-90 33.5q-43 0 -53 -2v94q10 -2 49 -2q56 0 89.5 34.5t33.5 100.5q0 68 -30 102.5t-81 34.5q-88 0 -137 -96l-78 59q35 62 93 96.5t126 34.5
q98 0 157.5 -55.5t59.5 -163.5q0 -68 -37 -121.5t-94 -66.5q58 -11 101 -67.5t43 -133.5z" />
    <glyph glyph-name="four.dnom" unicode="&#xf659;" horiz-adv-x="540" 
d="M510 209h-74v-209h-112v209h-289v94l262 516h139v-516h74v-94zM324 303v385l-191 -385h191z" />
    <glyph glyph-name="five.dnom" unicode="&#xf65a;" horiz-adv-x="540" 
d="M494 256q0 -116 -63 -193t-167 -77q-80 0 -133 34t-90 101l78 65q51 -106 141 -106q54 0 86.5 51.5t32.5 124.5q0 85 -29.5 129.5t-81.5 44.5q-67 0 -118 -82l-87 31v440h394v-94h-281v-276q50 67 131 67t134 -68t53 -192z" />
    <glyph glyph-name="six.dnom" unicode="&#xf65b;" horiz-adv-x="540" 
d="M498 254q0 -113 -58.5 -190.5t-158.5 -77.5q-66 0 -113.5 34.5t-74 96t-38.5 134t-12 159.5q0 118 25.5 210t85.5 151.5t147 59.5q115 0 176 -98l-61 -76q-21 41 -47.5 60.5t-65.5 19.5t-68.5 -27.5t-45.5 -73.5t-23.5 -98t-7.5 -110v-25q22 51 61.5 84t91.5 33
q82 0 134.5 -69.5t52.5 -196.5zM381 252q0 93 -29.5 134.5t-75.5 41.5q-72 0 -118 -119q10 -229 116 -229q54 0 80.5 50.5t26.5 121.5z" />
    <glyph glyph-name="seven.dnom" unicode="&#xf65c;" horiz-adv-x="489" 
d="M455 741l-222 -741h-112l223 725h-309v94h420v-78z" />
    <glyph glyph-name="eight.dnom" unicode="&#xf65d;" horiz-adv-x="540" 
d="M496 201q0 -100 -61 -157.5t-165 -57.5q-106 0 -165.5 57t-59.5 158q0 74 43.5 136t101.5 85q-55 22 -95 76.5t-40 126.5q0 100 62 153t153 53t153 -53t62 -153q0 -71 -41 -125.5t-94 -77.5q57 -24 101.5 -85.5t44.5 -135.5zM373 610q0 61 -27.5 95t-75.5 34
q-49 0 -75.5 -33.5t-26.5 -95.5q0 -34 13 -63t32 -46.5t33 -27t24 -12.5q10 3 24.5 12.5t33.5 27t32 46.5t13 63zM381 211q0 71 -42 118.5t-69 49.5q-27 -2 -68.5 -49.5t-41.5 -118.5q0 -65 31 -100t79 -35q47 0 79 35.5t32 99.5z" />
    <glyph glyph-name="nine.dnom" unicode="&#xf65e;" horiz-adv-x="540" 
d="M47 563q0 112 58 190t157 78q66 0 114.5 -34.5t75 -95.5t38.5 -133.5t12 -159.5q0 -118 -25 -210t-85 -152t-148 -60q-115 0 -176 98l61 76q21 -41 47.5 -60.5t65.5 -19.5q37 0 66 27t45.5 72.5t25 99t8.5 112.5v23q-22 -51 -62.5 -84t-93.5 -33q-80 0 -132 69.5
t-52 196.5zM162 565q0 -93 29.5 -134.5t76.5 -41.5q39 0 69.5 35t47.5 86q-1 39 -6.5 74.5t-17.5 72t-36 58.5t-57 22q-53 0 -79.5 -50.5t-26.5 -121.5z" />
    <glyph glyph-name="zero.numr" unicode="&#xf661;" horiz-adv-x="540" 
d="M508 956q0 -79 -12.5 -151t-39 -135t-74 -100.5t-110.5 -37.5q-64 0 -111.5 37.5t-74 100.5t-39 135t-12.5 151q0 80 12.5 151.5t39 134t74 99.5t111.5 37q63 0 110.5 -37t74 -99.5t39 -134t12.5 -151.5zM389 956q0 67 -4 118.5t-15.5 102.5t-36.5 79t-61 28t-61 -28
t-36.5 -79t-16 -102.5t-4.5 -118.5q0 -68 4 -119t15.5 -102.5t36.5 -79.5t62 -28q36 0 61 28t36.5 79.5t15.5 103t4 118.5z" />
    <glyph glyph-name="one.numr" unicode="&#xf662;" horiz-adv-x="440" 
d="M334 547h-115v672l-123 -129l-65 67l202 209h101v-819z" />
    <glyph glyph-name="two.numr" unicode="&#xf663;" horiz-adv-x="540" 
d="M494 547h-431v86q202 266 258 358.5t56 169.5q0 55 -31 89t-78 34q-91 0 -145 -104l-74 65q81 133 223 133q98 0 159 -58t61 -157q0 -86 -56 -183t-233 -339h291v-94z" />
    <glyph glyph-name="three.numr" unicode="&#xf664;" horiz-adv-x="540" 
d="M498 770q0 -107 -61 -172.5t-169 -65.5q-78 0 -136 37.5t-91 98.5l78 65q56 -106 145 -106q119 0 119 149q0 79 -37 112.5t-90 33.5q-43 0 -53 -2v94q10 -2 49 -2q56 0 89.5 34.5t33.5 100.5q0 68 -30 102.5t-81 34.5q-88 0 -137 -96l-78 59q35 62 93 96.5t126 34.5
q98 0 157.5 -55.5t59.5 -163.5q0 -68 -37 -121.5t-94 -66.5q58 -11 101 -67.5t43 -133.5z" />
    <glyph glyph-name="four.numr" unicode="&#xf665;" horiz-adv-x="540" 
d="M510 756h-74v-209h-112v209h-289v94l262 516h139v-516h74v-94zM324 850v385l-191 -385h191z" />
    <glyph glyph-name="five.numr" unicode="&#xf666;" horiz-adv-x="540" 
d="M494 803q0 -117 -63 -194t-167 -77q-80 0 -133 34t-90 102l78 65q51 -106 141 -106q54 0 86.5 51.5t32.5 124.5q0 85 -29.5 129.5t-81.5 44.5q-67 0 -118 -82l-87 31v440h394v-94h-281v-277q51 68 131 68q81 0 134 -68t53 -192z" />
    <glyph glyph-name="six.numr" unicode="&#xf667;" horiz-adv-x="540" 
d="M498 801q0 -113 -58.5 -191t-158.5 -78q-66 0 -113.5 34.5t-74 96t-38.5 134t-12 159.5q0 118 25.5 210t85.5 152t147 60q115 0 176 -98l-61 -76q-21 41 -47.5 60.5t-65.5 19.5t-68.5 -27.5t-45.5 -73.5t-23.5 -98t-7.5 -110v-25q22 51 61.5 84t91.5 33q82 0 134.5 -69.5
t52.5 -196.5zM381 799q0 93 -29.5 134.5t-75.5 41.5q-72 0 -118 -119q10 -229 116 -229q54 0 80.5 50.5t26.5 121.5z" />
    <glyph glyph-name="seven.numr" unicode="&#xf668;" horiz-adv-x="489" 
d="M455 1288l-222 -741h-112l223 725h-309v94h420v-78z" />
    <glyph glyph-name="eight.numr" unicode="&#xf669;" horiz-adv-x="540" 
d="M496 748q0 -100 -61 -158t-165 -58q-106 0 -165.5 57.5t-59.5 158.5q0 74 43.5 136t101.5 85q-55 22 -95 76.5t-40 125.5q0 100 62 153.5t153 53.5t153 -53.5t62 -153.5q0 -71 -40.5 -125t-94.5 -77q57 -24 101.5 -85.5t44.5 -135.5zM373 1157q0 61 -27.5 95t-75.5 34
q-49 0 -75.5 -33.5t-26.5 -95.5q0 -34 13 -63t32 -46.5t33 -27t24 -12.5q10 3 24.5 12.5t33.5 27t32 46.5t13 63zM381 758q0 71 -42 118.5t-69 49.5q-27 -2 -68.5 -49.5t-41.5 -118.5q0 -65 31 -100t79 -35q47 0 79 35.5t32 99.5z" />
    <glyph glyph-name="nine.numr" unicode="&#xf66a;" horiz-adv-x="540" 
d="M47 1110q0 112 58 190t157 78q66 0 114.5 -34.5t75 -96t38.5 -134t12 -159.5q0 -118 -25 -210t-85 -152t-148 -60q-114 0 -176 99l61 76q21 -41 47.5 -60.5t65.5 -19.5q37 0 66 27t45.5 72.5t25 99t8.5 112.5v23q-22 -51 -62.5 -84t-93.5 -33q-80 0 -132 69.5t-52 196.5z
M162 1112q0 -93 29.5 -134.5t76.5 -41.5q39 0 69.5 35t47.5 86q-1 39 -6.5 74.5t-17.5 72t-36 58.5t-57 22q-53 0 -79.5 -50.5t-26.5 -121.5z" />
    <glyph glyph-name="Abreve.smcp" unicode="&#xf66d;" horiz-adv-x="643" 
d="M240 1126h166l227 -1126h-152l-43 254h-233l-43 -254h-152zM420 383l-98 563l-99 -563h197zM563 1360q-42 -58 -106 -90.5t-138 -32.5q-73 0 -137 33t-106 90l76 57q26 -40 72.5 -64t94.5 -24q50 0 97 23.5t73 64.5z" />
    <glyph glyph-name="Amacron.smcp" unicode="&#xf66e;" horiz-adv-x="643" 
d="M240 1126h166l227 -1126h-152l-43 254h-233l-43 -254h-152zM420 383l-98 563l-99 -563h197zM575 1286h-507v92h507v-92z" />
    <glyph glyph-name="Aogonek.smcp" unicode="&#xf66f;" horiz-adv-x="643" 
d="M240 1126h166l227 -1126q-133 -90 -133 -221q0 -84 57 -84q55 0 68 67l73 -34q-37 -109 -141 -109q-65 0 -104 40t-39 116q0 120 102 225h-35l-43 254h-233l-43 -254h-152zM420 383l-98 563l-99 -563h197z" />
    <glyph glyph-name="AEacute.smcp" unicode="&#xf670;" horiz-adv-x="964" 
d="M688 1536l-205 -295h-94l162 295h137zM889 0h-449v254h-213l-77 -254h-152l379 1126h512v-129h-303v-356h291v-127h-291v-385h303v-129zM440 383v565l-178 -565h178z" />
    <glyph glyph-name="Cacute.smcp" unicode="&#xf671;" horiz-adv-x="718" 
d="M401 -25q-84 0 -147 45.5t-100.5 127t-55.5 185.5t-18 230q0 127 18 231t55.5 185.5t100.5 126.5t147 45q102 0 162.5 -61t95.5 -166l-120 -41q-24 70 -56.5 104.5t-81.5 34.5q-172 0 -172 -459t172 -459q98 0 138 150l123 -39q-35 -111 -95.5 -175.5t-165.5 -64.5z
M594 1536l-205 -295h-94l162 295h137z" />
    <glyph glyph-name="Ccaron.smcp" unicode="&#xf672;" horiz-adv-x="718" 
d="M401 -25q-84 0 -147 45.5t-100.5 127t-55.5 185.5t-18 230q0 127 18 231t55.5 185.5t100.5 126.5t147 45q102 0 162.5 -61t95.5 -166l-120 -41q-24 70 -56.5 104.5t-81.5 34.5q-172 0 -172 -459t172 -459q98 0 138 150l123 -39q-35 -111 -95.5 -175.5t-165.5 -64.5z
M473 1241h-137l-139 295h84l125 -215l116 215h86z" />
    <glyph glyph-name="Ccircumflex.smcp" unicode="&#xf673;" horiz-adv-x="718" 
d="M401 -25q-84 0 -147 45.5t-100.5 127t-55.5 185.5t-18 230q0 127 18 231t55.5 185.5t100.5 126.5t147 45q102 0 162.5 -61t95.5 -166l-120 -41q-24 70 -56.5 104.5t-81.5 34.5q-172 0 -172 -459t172 -459q98 0 138 150l123 -39q-35 -111 -95.5 -175.5t-165.5 -64.5z
M608 1241h-86l-123 215l-118 -215h-84l133 295h137z" />
    <glyph glyph-name="Cdotaccent.smcp" unicode="&#xf674;" horiz-adv-x="718" 
d="M401 -25q-84 0 -147 45.5t-100.5 127t-55.5 185.5t-18 230q0 127 18 231t55.5 185.5t100.5 126.5t147 45q102 0 162.5 -61t95.5 -166l-120 -41q-24 70 -56.5 104.5t-81.5 34.5q-172 0 -172 -459t172 -459q98 0 138 150l123 -39q-35 -111 -95.5 -175.5t-165.5 -64.5z
M403 1292q-37 0 -63.5 26t-26.5 64q0 37 26.5 64t63.5 27t64 -27t27 -64q0 -38 -27 -64t-64 -26z" />
    <glyph glyph-name="Dcaron.smcp" unicode="&#xf675;" horiz-adv-x="790" 
d="M344 0h-240v1126h240q91 0 160.5 -42t112 -118.5t64 -178.5t21.5 -226t-21.5 -225.5t-64 -177t-112 -117t-160.5 -41.5zM344 129q103 0 155 116.5t52 315.5q0 132 -21.5 228t-68.5 152t-117 56h-94v-868h94zM455 1241h-138l-139 295h84l125 -215l117 215h86z" />
    <glyph glyph-name="Dcroat.smcp" unicode="&#xf676;" horiz-adv-x="849" 
d="M401 0h-239v520h-119v98h119v508h239q120 0 202.5 -74.5t119.5 -199t37 -291.5t-37 -290.5t-119.5 -197t-202.5 -73.5zM444 520h-137v-391h94q103 0 155 116.5t52 315.5q0 132 -21.5 228t-68.5 152t-117 56h-94v-379h137v-98z" />
    <glyph glyph-name="Ebreve.smcp" unicode="&#xf677;" horiz-adv-x="641" 
d="M565 0h-450v1126h450v-129h-305v-356h293v-127h-293v-385h305v-129zM586 1360q-42 -58 -106 -90.5t-138 -32.5q-73 0 -138 33t-106 90l76 57q26 -40 72.5 -64t95.5 -24q50 0 97 23.5t73 64.5z" />
    <glyph glyph-name="Ecaron.smcp" unicode="&#xf678;" horiz-adv-x="641" 
d="M565 0h-450v1126h450v-129h-305v-356h293v-127h-293v-385h305v-129zM410 1241h-138l-139 295h84l125 -215l117 215h86z" />
    <glyph glyph-name="Edotaccent.smcp" unicode="&#xf679;" horiz-adv-x="641" 
d="M565 0h-450v1126h450v-129h-305v-356h293v-127h-293v-385h305v-129zM344 1292q-37 0 -63.5 26t-26.5 64q0 37 26.5 64t63.5 27t63.5 -27t26.5 -64q0 -38 -26.5 -64t-63.5 -26z" />
    <glyph glyph-name="Emacron.smcp" unicode="&#xf67a;" horiz-adv-x="641" 
d="M565 0h-450v1126h450v-129h-305v-356h293v-127h-293v-385h305v-129zM598 1286h-508v92h508v-92z" />
    <glyph glyph-name="Eng.smcp" unicode="&#xf67b;" horiz-adv-x="788" 
d="M414 -401q-120 0 -195 84l53 112q50 -67 127 -67q129 0 129 147v117l-268 827v-819h-145v1126h155l258 -798v798h146v-1265q1 -131 -69 -196.5t-191 -65.5z" />
    <glyph glyph-name="Eogonek.smcp" unicode="&#xf67c;" horiz-adv-x="641" 
d="M557 -238l74 -34q-37 -109 -142 -109q-65 0 -104 40t-39 116q0 119 103 225h-334v1126h450v-129h-305v-356h293v-127h-293v-385h305v-129q-133 -90 -133 -221q0 -84 57 -84q55 0 68 67z" />
    <glyph glyph-name="Gbreve.smcp" unicode="&#xf67d;" horiz-adv-x="759" 
d="M401 -25q-110 0 -183.5 76.5t-105.5 205.5t-32 306q0 273 79 430.5t242 157.5q182 0 256 -227l-118 -41q-25 69 -55 104t-83 35q-172 0 -172 -459t174 -459q82 0 127 68v285h-143v123h277v-467q-56 -72 -118.5 -105t-144.5 -33zM645 1360q-42 -58 -106 -90.5t-138 -32.5
q-73 0 -137 33t-106 90l75 57q26 -40 72.5 -64t95.5 -24q50 0 97 23.5t73 64.5z" />
    <glyph glyph-name="Gcircumflex.smcp" unicode="&#xf67e;" horiz-adv-x="759" 
d="M401 -25q-110 0 -183.5 76.5t-105.5 205.5t-32 306q0 273 79 430.5t242 157.5q182 0 256 -227l-118 -41q-25 69 -55 104t-83 35q-172 0 -172 -459t174 -459q82 0 127 68v285h-143v123h277v-467q-56 -72 -118.5 -105t-144.5 -33zM612 1241h-86l-123 215l-118 -215h-84
l133 295h137z" />
    <glyph glyph-name="Gcommaaccent.smcp" unicode="&#xf67f;" horiz-adv-x="759" 
d="M401 -25q-110 0 -183.5 76.5t-105.5 205.5t-32 306q0 273 79 430.5t242 157.5q182 0 256 -227l-118 -41q-25 69 -55 104t-83 35q-172 0 -172 -459t174 -459q82 0 127 68v285h-143v123h277v-467q-56 -72 -118.5 -105t-144.5 -33zM516 -283q0 -80 -40.5 -152.5
t-102.5 -117.5l-64 51q47 33 80.5 83t36.5 95l-8 -1q-8 -1 -12 -1q-35 0 -59.5 24.5t-24.5 61.5t26 63.5t64 26.5q43 0 73.5 -36t30.5 -97z" />
    <glyph glyph-name="Gdotaccent.smcp" unicode="&#xf680;" horiz-adv-x="759" 
d="M401 -25q-110 0 -183.5 76.5t-105.5 205.5t-32 306q0 273 79 430.5t242 157.5q182 0 256 -227l-118 -41q-25 69 -55 104t-83 35q-172 0 -172 -459t174 -459q82 0 127 68v285h-143v123h277v-467q-56 -72 -118.5 -105t-144.5 -33zM403 1292q-37 0 -63.5 26t-26.5 64
q0 37 26.5 64t63.5 27t64 -27t27 -64q0 -38 -27 -64t-64 -26z" />
    <glyph glyph-name="Hcircumflex.smcp" unicode="&#xf681;" horiz-adv-x="796" 
d="M682 0h-147v514h-275v-514h-145v1126h145v-483h275v483h147v-1126zM604 1241h-86l-123 215l-119 -215h-83l133 295h137z" />
    <glyph glyph-name="Hbar.smcp" unicode="&#xf682;" horiz-adv-x="884" 
d="M725 0h-147v514h-275v-514h-145v842h-115v92h115v192h145v-192h275v192h147v-192h109v-92h-109v-842zM303 643h275v199h-275v-199z" />
    <glyph glyph-name="Ibreve.smcp" unicode="&#xf683;" horiz-adv-x="372" 
d="M258 0h-145v1126h145v-1126zM430 1360q-42 -58 -106 -90.5t-138 -32.5q-73 0 -137 33t-106 90l75 57q26 -40 72.5 -64t95.5 -24q50 0 97 23.5t73 64.5z" />
    <glyph glyph-name="IJ.smcp" unicode="&#xf684;" horiz-adv-x="954" 
d="M260 0h-145v1126h145v-1126zM578 -25q-118 0 -193 84l51 113q51 -68 127 -68q129 0 129 148v874h148v-888q0 -132 -70 -197.5t-192 -65.5z" />
    <glyph glyph-name="Imacron.smcp" unicode="&#xf685;" horiz-adv-x="372" 
d="M258 0h-145v1126h145v-1126zM442 1286h-508v92h508v-92z" />
    <glyph glyph-name="Iogonek.smcp" unicode="&#xf686;" horiz-adv-x="372" 
d="M250 -238l74 -34q-37 -109 -142 -109q-65 0 -104 40t-39 116q0 120 102 225h-28v1126h145v-1126q-133 -90 -133 -221q0 -84 57 -84q55 0 68 67z" />
    <glyph glyph-name="Itilde.smcp" unicode="&#xf687;" horiz-adv-x="372" 
d="M258 0h-145v1126h145v-1126zM272 1210q-38 0 -63 30.5t-34.5 67t-26 67t-39.5 30.5q-32 0 -51 -45t-19 -137h-80q0 122 37.5 198t112.5 76q38 0 63.5 -30.5t35 -66.5t26 -66.5t38.5 -30.5q70 0 70 182h82q0 -121 -38.5 -198t-113.5 -77z" />
    <glyph glyph-name="Jcircumflex.smcp" unicode="&#xf688;" horiz-adv-x="579" 
d="M203 -25q-118 0 -193 84l51 113q51 -68 127 -68q129 0 129 148v874h148v-888q0 -132 -70 -197.5t-192 -65.5zM600 1241h-86l-123 215l-119 -215h-84l134 295h137z" />
    <glyph glyph-name="Kcommaaccent.smcp" unicode="&#xf689;" horiz-adv-x="757" 
d="M737 0h-168l-237 475l-72 -133v-342h-145v1126h145v-557l291 557h164l-299 -534zM504 -283q0 -80 -41 -152.5t-103 -117.5l-63 51q47 33 80.5 83t36.5 95l-9 -1q-9 -1 -12 -1q-35 0 -59.5 24.5t-24.5 61.5t26 63.5t64 26.5q43 0 74 -36t31 -97z" />
    <glyph glyph-name="Lacute.smcp" unicode="&#xf68a;" horiz-adv-x="606" 
d="M565 0h-450v1126h145v-997h305v-129zM541 1536l-205 -295h-94l161 295h138z" />
    <glyph glyph-name="Lcaron.smcp" unicode="&#xf68b;" horiz-adv-x="620" 
d="M565 0h-450v1126h145v-997h305v-129zM547 1014q0 -80 -41 -153t-103 -118l-63 52q47 33 80.5 83t36.5 95q-1 0 -9 -1t-12 -1q-35 0 -59.5 24.5t-24.5 61.5t26 63.5t64 26.5q43 0 74 -36t31 -97z" />
    <glyph glyph-name="Lcommaaccent.smcp" unicode="&#xf68c;" horiz-adv-x="606" 
d="M565 0h-450v1126h145v-997h305v-129zM446 -283q0 -80 -40.5 -152.5t-102.5 -117.5l-63 51q47 33 80 83t36 95l-8 -1q-8 -1 -12 -1q-35 0 -59.5 24.5t-24.5 61.5t26 63.5t64 26.5q43 0 73.5 -36t30.5 -97z" />
    <glyph glyph-name="Ldot.smcp" unicode="&#xf68d;" horiz-adv-x="712" 
d="M565 0h-450v1126h145v-997h305v-129zM653 600q0 -43 -31 -74.5t-75 -31.5q-43 0 -75 31.5t-32 74.5q0 41 32 73t75 32q44 0 75 -31.5t31 -73.5z" />
    <glyph glyph-name="Nacute.smcp" unicode="&#xf68e;" horiz-adv-x="788" 
d="M674 0h-148l-266 819v-819h-145v1126h155l258 -798v798h146v-1126zM590 1536l-205 -295h-94l162 295h137z" />
    <glyph glyph-name="Ncaron.smcp" unicode="&#xf68f;" horiz-adv-x="788" 
d="M674 0h-148l-266 819v-819h-145v1126h155l258 -798v798h146v-1126zM465 1241h-137l-140 295h84l125 -215l117 215h86z" />
    <glyph glyph-name="Ncommaaccent.smcp" unicode="&#xf690;" horiz-adv-x="788" 
d="M674 0h-148l-266 819v-819h-145v1126h155l258 -798v798h146v-1126zM510 -283q0 -80 -40.5 -152.5t-102.5 -117.5l-64 51q47 33 80.5 83t36.5 95l-9 -1q-9 -1 -12 -1q-35 0 -59.5 24.5t-24.5 61.5t26.5 63.5t64.5 26.5q43 0 73.5 -36t30.5 -97z" />
    <glyph glyph-name="Obreve.smcp" unicode="&#xf691;" horiz-adv-x="804" 
d="M401 -25q-70 0 -125 30.5t-91 83.5t-60 128.5t-34.5 160.5t-10.5 185t10.5 185t34.5 160.5t60 128.5t91 83.5t125 30.5q86 0 150.5 -46t101.5 -128t54.5 -185.5t17.5 -228.5t-17.5 -228.5t-54.5 -185.5t-101.5 -128t-150.5 -46zM401 104q172 0 172 459t-172 459
t-172 -459t172 -459zM645 1360q-42 -58 -106 -90.5t-138 -32.5q-73 0 -137 33t-106 90l75 57q26 -40 72.5 -64t95.5 -24q50 0 97 23.5t73 64.5z" />
    <glyph glyph-name="Ohungarumlaut.smcp" unicode="&#xf692;" horiz-adv-x="804" 
d="M401 -25q-70 0 -125 30.5t-91 83.5t-60 128.5t-34.5 160.5t-10.5 185t10.5 185t34.5 160.5t60 128.5t91 83.5t125 30.5q86 0 150.5 -46t101.5 -128t54.5 -185.5t17.5 -228.5t-17.5 -228.5t-54.5 -185.5t-101.5 -128t-150.5 -46zM401 104q172 0 172 459t-172 459
t-172 -459t172 -459zM465 1536l-158 -295h-78l115 295h121zM705 1536l-160 -295h-78l115 295h123z" />
    <glyph glyph-name="Omacron.smcp" unicode="&#xf693;" horiz-adv-x="804" 
d="M401 -25q-70 0 -125 30.5t-91 83.5t-60 128.5t-34.5 160.5t-10.5 185t10.5 185t34.5 160.5t60 128.5t91 83.5t125 30.5q86 0 150.5 -46t101.5 -128t54.5 -185.5t17.5 -228.5t-17.5 -228.5t-54.5 -185.5t-101.5 -128t-150.5 -46zM401 104q172 0 172 459t-172 459
t-172 -459t172 -459zM655 1286h-508v92h508v-92z" />
    <glyph glyph-name="Oslashacute.smcp" unicode="&#xf694;" horiz-adv-x="804" 
d="M401 -25q-113 0 -188 78l-25 -53h-94l64 135q-78 155 -78 428q0 100 10.5 185t34.5 160.5t60 128.5t91 83.5t125 30.5q117 0 191 -84l29 59h94l-68 -141q78 -155 78 -422q0 -125 -17.5 -228.5t-54.5 -185.5t-101.5 -128t-150.5 -46zM229 563q0 -137 17 -239l278 598
q-44 100 -123 100q-172 0 -172 -459zM401 104q172 0 172 459q0 132 -14 230l-278 -594q43 -95 120 -95zM598 1536l-205 -295h-94l162 295h137z" />
    <glyph glyph-name="Racute.smcp" unicode="&#xf695;" horiz-adv-x="716" 
d="M649 0h-160l-145 444h-84v-444h-145v1126h239q133 0 207 -95t74 -245q0 -126 -46.5 -206.5t-113.5 -104.5zM338 573q72 0 109.5 58.5t37.5 154.5q0 95 -37.5 153t-109.5 58h-78v-424h78zM553 1536l-205 -295h-94l162 295h137z" />
    <glyph glyph-name="Rcaron.smcp" unicode="&#xf696;" horiz-adv-x="716" 
d="M649 0h-160l-145 444h-84v-444h-145v1126h239q133 0 207 -95t74 -245q0 -126 -46.5 -206.5t-113.5 -104.5zM338 573q72 0 109.5 58.5t37.5 154.5q0 95 -37.5 153t-109.5 58h-78v-424h78zM428 1241h-137l-139 295h84l124 -215l117 215h86z" />
    <glyph glyph-name="Rcommaaccent.smcp" unicode="&#xf697;" horiz-adv-x="716" 
d="M649 0h-160l-145 444h-84v-444h-145v1126h239q133 0 207 -95t74 -245q0 -126 -46.5 -206.5t-113.5 -104.5zM338 573q72 0 109.5 58.5t37.5 154.5q0 95 -37.5 153t-109.5 58h-78v-424h78zM469 -283q0 -80 -40.5 -152.5t-102.5 -117.5l-64 51q47 33 80.5 83t36.5 95
q-1 0 -9 -1t-12 -1q-35 0 -59.5 24.5t-24.5 61.5t26.5 63.5t64.5 26.5q43 0 73.5 -36t30.5 -97z" />
    <glyph glyph-name="Sacute.smcp" unicode="&#xf698;" horiz-adv-x="632" 
d="M301 -25q-82 0 -143 26.5t-121 88.5l72 109q79 -97 184 -97q57 0 97 46t40 122q0 50 -19.5 94t-50.5 77.5t-69 66.5t-76 69t-69 76t-50.5 96.5t-19.5 122.5q0 123 75 201t193 78q69 0 120 -20t101 -66l-63 -111q-67 70 -150 70q-53 0 -89 -41.5t-36 -110.5
q0 -44 19.5 -83.5t51 -71.5t69 -65t75.5 -70.5t69.5 -80t51 -101.5t19.5 -128q0 -130 -78 -213.5t-203 -83.5zM518 1536l-205 -295h-94l162 295h137z" />
    <glyph glyph-name="Scedilla.smcp" unicode="&#xf699;" horiz-adv-x="632" 
d="M303 -389q-85 0 -158 59l35 72q61 -55 121 -55q39 0 67.5 24.5t28.5 63.5q0 32 -15.5 50.5t-43.5 18.5q-29 0 -57 -28l-64 34l47 127q-68 5 -121.5 31.5t-105.5 81.5l72 109q79 -97 184 -97q57 0 97 46t40 122q0 50 -19.5 94t-50.5 77.5t-69 66.5t-76 69t-69 76
t-50.5 96.5t-19.5 122.5q0 123 75 201t193 78q69 0 120 -20t101 -66l-63 -111q-67 70 -150 70q-53 0 -89 -41.5t-36 -110.5q0 -44 19.5 -83.5t51 -71.5t69 -65t75.5 -70.5t69.5 -80t51 -101.5t19.5 -128q0 -117 -63 -196t-169 -96l-37 -95q27 21 60 21q47 0 78.5 -37
t31.5 -96q0 -71 -51.5 -116.5t-128.5 -45.5z" />
    <glyph glyph-name="Scircumflex.smcp" unicode="&#xf69a;" horiz-adv-x="632" 
d="M301 -25q-82 0 -143 26.5t-121 88.5l72 109q79 -97 184 -97q57 0 97 46t40 122q0 50 -19.5 94t-50.5 77.5t-69 66.5t-76 69t-69 76t-50.5 96.5t-19.5 122.5q0 123 75 201t193 78q69 0 120 -20t101 -66l-63 -111q-67 70 -150 70q-53 0 -89 -41.5t-36 -110.5
q0 -44 19.5 -83.5t51 -71.5t69 -65t75.5 -70.5t69.5 -80t51 -101.5t19.5 -128q0 -130 -78 -213.5t-203 -83.5zM532 1241h-86l-122 215l-119 -215h-84l133 295h137z" />
    <glyph glyph-name="Scommaaccent.smcp" unicode="&#xf69b;" horiz-adv-x="632" 
d="M301 -25q-82 0 -143 26.5t-121 88.5l72 109q79 -97 184 -97q57 0 97 46t40 122q0 50 -19.5 94t-50.5 77.5t-69 66.5t-76 69t-69 76t-50.5 96.5t-19.5 122.5q0 123 75 201t193 78q69 0 120 -20t101 -66l-63 -111q-67 70 -150 70q-53 0 -89 -41.5t-36 -110.5
q0 -44 19.5 -83.5t51 -71.5t69 -65t75.5 -70.5t69.5 -80t51 -101.5t19.5 -128q0 -130 -78 -213.5t-203 -83.5zM422 -283q0 -80 -40.5 -152.5t-102.5 -117.5l-64 51q47 33 80.5 83t36.5 95l-9 -1q-9 -1 -12 -1q-35 0 -59.5 24.5t-24.5 61.5t26 63.5t64 26.5q43 0 74 -36
t31 -97z" />
    <glyph glyph-name="Tbar.smcp" unicode="&#xf69c;" horiz-adv-x="557" 
d="M350 0h-145v502h-111v92h111v403h-174v129h495v-129h-176v-403h101v-92h-101v-502z" />
    <glyph glyph-name="Tcaron.smcp" unicode="&#xf69d;" horiz-adv-x="557" 
d="M350 0h-145v997h-174v129h495v-129h-176v-997zM352 1241h-137l-139 295h84l125 -215l116 215h86z" />
    <glyph glyph-name="Tcommaaccent.smcp" unicode="&#xf69e;" horiz-adv-x="557" 
d="M350 0h-145v997h-174v129h495v-129h-176v-997zM383 -283q0 -80 -40.5 -152.5t-102.5 -117.5l-64 51q47 33 80.5 83t36.5 95q-1 0 -9 -1t-12 -1q-35 0 -59.5 24.5t-24.5 61.5t26.5 63.5t64.5 26.5q43 0 73.5 -36t30.5 -97z" />
    <glyph glyph-name="Ubreve.smcp" unicode="&#xf69f;" horiz-adv-x="796" 
d="M399 -25q-151 0 -217.5 105.5t-66.5 339.5v706h145v-809q0 -213 139 -213q136 0 136 213v809h147v-706q0 -234 -67 -339.5t-216 -105.5zM645 1360q-42 -58 -106 -90.5t-138 -32.5q-73 0 -137 33t-106 90l75 57q26 -40 72.5 -64t95.5 -24q50 0 97 23.5t73 64.5z" />
    <glyph glyph-name="Uhungarumlaut.smcp" unicode="&#xf6a0;" horiz-adv-x="796" 
d="M399 -25q-151 0 -217.5 105.5t-66.5 339.5v706h145v-809q0 -213 139 -213q136 0 136 213v809h147v-706q0 -234 -67 -339.5t-216 -105.5zM457 1536l-158 -295h-78l115 295h121zM696 1536l-159 -295h-78l114 295h123z" />
    <glyph glyph-name="Umacron.smcp" unicode="&#xf6a1;" horiz-adv-x="796" 
d="M399 -25q-151 0 -217.5 105.5t-66.5 339.5v706h145v-809q0 -213 139 -213q136 0 136 213v809h147v-706q0 -234 -67 -339.5t-216 -105.5zM651 1286h-508v92h508v-92z" />
    <glyph glyph-name="Uogonek.smcp" unicode="&#xf6a2;" horiz-adv-x="796" 
d="M516 -238l74 -34q-37 -109 -141 -109q-65 0 -104.5 40t-39.5 116q0 111 80 200q-144 4 -207 110t-63 335v706h145v-809q0 -213 139 -213q136 0 136 213v809h147v-706q0 -178 -38 -280t-120 -140q-133 -90 -133 -221q0 -42 16 -63t42 -21q54 0 67 67z" />
    <glyph glyph-name="Uring.smcp" unicode="&#xf6a3;" horiz-adv-x="796" 
d="M399 -25q-151 0 -217.5 105.5t-66.5 339.5v706h145v-809q0 -213 139 -213q136 0 136 213v809h147v-706q0 -234 -67 -339.5t-216 -105.5zM401 1239q-71 0 -120.5 49.5t-49.5 120.5t49.5 120.5t120.5 49.5q70 0 119 -49.5t49 -120.5t-49 -120.5t-119 -49.5zM401 1313
q40 0 68.5 28t28.5 68t-28.5 68t-68.5 28t-68 -28t-28 -68t28 -68t68 -28z" />
    <glyph glyph-name="Utilde.smcp" unicode="&#xf6a4;" horiz-adv-x="796" 
d="M399 -25q-151 0 -217.5 105.5t-66.5 339.5v706h145v-809q0 -213 139 -213q136 0 136 213v809h147v-706q0 -234 -67 -339.5t-216 -105.5zM479 1237q-38 0 -63 30.5t-35 67t-26.5 67t-39.5 30.5q-69 0 -69 -183h-80q0 123 37.5 199t111.5 76q38 0 63.5 -30.5t35.5 -67
t26.5 -67t38.5 -30.5q70 0 70 182h82q0 -121 -38.5 -197.5t-113.5 -76.5z" />
    <glyph glyph-name="Wcircumflex.smcp" unicode="&#xf6a6;" horiz-adv-x="983" 
d="M696 1241h-86l-123 215l-118 -215h-84l133 295h137zM770 0h-152l-126 827l-127 -827h-152l-199 1126h152l127 -847l137 847h123l137 -850l127 850h150z" />
    <glyph glyph-name="Ycircumflex.smcp" unicode="&#xf6a9;" horiz-adv-x="671" 
d="M410 0h-148v477l-264 649h156l182 -497l182 497h156l-264 -649v-477zM543 1241h-86l-123 215l-119 -215h-84l133 295h137z" />
    <glyph glyph-name="Zacute.smcp" unicode="&#xf6ab;" horiz-adv-x="598" 
d="M543 0h-488v115l314 882h-314v129h475v-112l-313 -885h326v-129zM485 1536l-204 -295h-95l162 295h137z" />
    <glyph glyph-name="Zdotaccent.smcp" unicode="&#xf6ac;" horiz-adv-x="598" 
d="M543 0h-488v115l314 882h-314v129h475v-112l-313 -885h326v-129zM301 1292q-37 0 -63.5 26t-26.5 64q0 37 26.5 64t63.5 27t63.5 -27t26.5 -64q0 -38 -26.5 -64t-63.5 -26z" />
    <glyph glyph-name="Idotaccent.smcp" unicode="&#xf6ad;" horiz-adv-x="350" 
d="M250 0h-146v1126h146v-1126zM178 1292q-37 0 -63.5 26t-26.5 64q0 37 26.5 64t63.5 27t63.5 -27t26.5 -64q0 -38 -26.5 -64t-63.5 -26z" />
    <glyph glyph-name="parenleft.case" unicode="&#xf6ae;" horiz-adv-x="428" 
d="M389 -180l-98 -43q-195 428 -195 905t195 905l98 -41q-68 -210 -102.5 -414t-34.5 -450q0 -245 34.5 -449.5t102.5 -412.5z" />
    <glyph glyph-name="parenright.case" unicode="&#xf6af;" horiz-adv-x="428" 
d="M39 -180l96 -43q197 426 197 905t-197 905l-96 -41q68 -210 102.5 -414t34.5 -450q0 -245 -34.5 -449.5t-102.5 -412.5z" />
    <glyph glyph-name="bracketleft.case" unicode="&#xf6b0;" horiz-adv-x="372" 
d="M336 -205h-264v1778h264v-105h-154v-1568h154v-105z" />
    <glyph glyph-name="bracketright.case" unicode="&#xf6b1;" horiz-adv-x="372" 
d="M301 -205h-266v105h155v1568h-155v105h266v-1778z" />
    <glyph glyph-name="braceleft.case" unicode="&#xf6b2;" horiz-adv-x="413" 
d="M379 -205h-62q-79 0 -138.5 60t-59.5 153v486q0 61 -28 102t-79 41v94q51 0 79 41t28 102v484q0 95 59.5 155t138.5 60h62v-105h-62q-37 0 -62.5 -30.5t-25.5 -79.5v-494q0 -141 -92 -180q92 -39 92 -180v-496q0 -47 25.5 -77.5t62.5 -30.5h62v-105z" />
    <glyph glyph-name="braceright.case" unicode="&#xf6b3;" horiz-adv-x="413" 
d="M35 -205v105h61q37 0 62.5 30.5t25.5 77.5v496q0 141 92 180q-92 39 -92 180v494q0 49 -25.5 79.5t-62.5 30.5h-61v105h61q79 0 139 -60.5t60 -154.5v-484q0 -61 27.5 -102t78.5 -41v-94q-51 0 -78.5 -41t-27.5 -102v-486q0 -93 -60 -153t-139 -60h-61z" />
    <glyph glyph-name="exclamdown.case" unicode="&#xf6b4;" horiz-adv-x="464" 
d="M145 0l29 991h117l31 -991h-177zM127 1280q0 43 31 74.5t75 31.5q43 0 75 -31.5t32 -74.5q0 -42 -32 -73t-75 -31q-44 0 -75 30.5t-31 73.5z" />
    <glyph glyph-name="questiondown.case" unicode="&#xf6b5;" horiz-adv-x="641" 
d="M365 987q55 -70 55 -172q0 -67 -22.5 -125t-54 -101.5t-63.5 -86t-54.5 -97.5t-22.5 -118q0 -69 42.5 -123.5t110.5 -54.5q77 0 138 69l69 -102q-93 -103 -235 -103q-121 0 -200 83.5t-79 205.5q0 75 24.5 141t59 114t69 93t59 99t24.5 112q0 62 -39 111zM313 1386
q43 0 75 -31.5t32 -74.5q0 -42 -32 -73t-75 -31t-74.5 30.5t-31.5 73.5t31.5 74.5t74.5 31.5z" />
    <glyph glyph-name="guillemotleft.case" unicode="&#xf6b6;" horiz-adv-x="665" 
d="M604 332h-119l-184 368l184 363h119l-184 -363zM365 332h-119l-185 368l185 363h119l-185 -363z" />
    <glyph glyph-name="guillemotright.case" unicode="&#xf6b7;" horiz-adv-x="665" 
d="M365 700l-185 -368h-119l185 368l-185 363h119zM604 700l-184 -368h-119l184 368l-184 363h119z" />
    <glyph glyph-name="guilsinglleft.case" unicode="&#xf6b8;" horiz-adv-x="425" 
d="M365 332h-119l-185 368l185 363h119l-185 -363z" />
    <glyph glyph-name="guilsinglright.case" unicode="&#xf6b9;" horiz-adv-x="425" 
d="M365 700l-185 -368h-119l185 368l-185 363h119z" />
    <glyph glyph-name="hyphen.case" unicode="&#xf6ba;" horiz-adv-x="481" 
d="M420 637h-359v123h359v-123z" />
    <glyph glyph-name="endash.case" unicode="&#xf6bb;" horiz-adv-x="942" 
d="M881 637h-820v123h820v-123z" />
    <glyph glyph-name="emdash.case" unicode="&#xf6bc;" horiz-adv-x="1310" 
d="M1249 637h-1188v123h1188v-123z" />
    <glyph glyph-name="periodcentered.case" unicode="&#xf6bd;" horiz-adv-x="464" 
d="M338 700q0 -43 -31.5 -74.5t-75.5 -31.5q-43 0 -74.5 31.5t-31.5 74.5q0 42 31.5 73.5t74.5 31.5q44 0 75.5 -31.5t31.5 -73.5z" />
    <glyph glyph-name="bullet.case" unicode="&#xf6be;" horiz-adv-x="733" 
d="M586 698q0 -89 -63 -152t-154 -63t-154 63t-63 152q0 91 63 154t154 63t154 -63t63 -154z" />
    <glyph glyph-name="cent.case" unicode="&#xf6bf;" horiz-adv-x="649" 
d="M317 -18v192q-115 39 -177 176t-62 332q0 128 26.5 231.5t81 175.5t131.5 97v157h111v-145q99 -7 176 -88l-57 -106q-57 68 -119 71v-788q67 3 119 71l57 -106q-66 -82 -176 -90v-180h-111zM223 682q0 -255 94 -352v700q-94 -94 -94 -348z" />
    <glyph glyph-name="commaaccent" unicode="&#xf6c3;" horiz-adv-x="466" 
d="M334 -283q0 -80 -41 -152.5t-103 -117.5l-63 51q47 33 80.5 83t36.5 95l-9 -1q-9 -1 -12 -1q-35 0 -59.5 24.5t-24.5 61.5t26 63.5t64 26.5q43 0 74 -36t31 -97z" />
    <glyph glyph-name="one.tnum" unicode="&#xf6dc;" horiz-adv-x="800" 
d="M596 0h-154v1161l-204 -217l-93 96l314 326h137v-1366z" />
    <glyph glyph-name="rupiah" unicode="&#xf6dd;" horiz-adv-x="1558" 
d="M748 0h-168l-177 551h-120v-551h-154v1366h285q143 0 232 -109t89 -294q0 -86 -17 -155.5t-46 -113t-60 -70t-65 -40.5zM395 688q88 0 134 73.5t46 196.5t-46 197t-134 74h-112v-541h112zM1202 -25q-55 0 -106 41t-80 121v-514h-139v1366h139v-133q32 73 83 115.5
t103 42.5q91 0 152.5 -67.5t90 -181.5t28.5 -269q0 -235 -68.5 -378t-202.5 -143zM1167 100q158 0 158 396q0 393 -158 393q-46 0 -89 -48t-62 -116v-459q20 -67 62.5 -116.5t88.5 -49.5z" />
    <glyph glyph-name="centinferior" unicode="&#xf6df;" horiz-adv-x="444" 
d="M233 -309v112q-87 15 -136.5 100t-49.5 208t49.5 207.5t136.5 99.5v90h80v-90q62 -13 105 -60l-45 -71q-23 32 -60 47v-447q33 10 60 47l45 -71q-43 -49 -105 -60v-112h-80zM152 111q0 -171 81 -215v430q-81 -44 -81 -215z" />
    <glyph glyph-name="centsuperior" unicode="&#xf6e0;" horiz-adv-x="444" 
d="M233 852v111q-88 17 -137 101t-49 208q0 123 49.5 207.5t136.5 99.5v90h80v-90q63 -13 105 -59l-45 -72q-23 32 -60 47v-446q36 11 60 47l45 -72q-42 -48 -105 -59v-113h-80zM152 1272q0 -171 81 -215v430q-81 -44 -81 -215z" />
    <glyph glyph-name="commainferior" unicode="&#xf6e1;" horiz-adv-x="288" 
d="M219 -254q0 -61 -28 -115t-74 -86q-8 7 -24.5 20.5t-24.5 20.5q29 18 53.5 50.5t25.5 60.5q-4 -2 -6 -2q-27 0 -49 20.5t-22 48.5q0 30 21 51t52 21q33 0 54.5 -25.5t21.5 -64.5z" />
    <glyph glyph-name="commasuperior" unicode="&#xf6e2;" horiz-adv-x="288" 
d="M219 907q0 -61 -28 -114.5t-74 -85.5q-8 7 -24.5 20.5t-24.5 20.5q30 18 54 50t25 60q-4 -2 -6 -2q-27 0 -49 20.5t-22 49.5t21 50t52 21q33 0 54.5 -25.5t21.5 -64.5z" />
    <glyph glyph-name="dollarinferior" unicode="&#xf6e3;" horiz-adv-x="493" 
d="M217 -422v109q-116 6 -192 88l53 86q62 -72 139 -78v297q-34 22 -50.5 33.5t-43.5 36t-40.5 46.5t-24.5 55.5t-11 72.5q0 75 47 132t123 72v117h84v-115q90 -12 150 -69l-48 -84q-48 48 -102 57v-276q37 -24 60.5 -43.5t50.5 -50t40 -70t13 -86.5q0 -80 -44 -137
t-120 -76v-117h-84zM162 326q0 -59 55 -107v203q-55 -30 -55 -96zM350 -94q0 64 -49 110v-211q49 32 49 101z" />
    <glyph glyph-name="dollarsuperior" unicode="&#xf6e4;" horiz-adv-x="493" 
d="M217 739v109q-116 6 -192 88l53 86q59 -72 139 -78v297q-34 22 -50.5 33.5t-43.5 36t-40.5 46.5t-24.5 55.5t-11 72.5q0 76 47 133t123 72v116h84v-114q88 -12 150 -70l-48 -84q-48 48 -102 57v-276q37 -24 60.5 -43.5t50.5 -50t40 -70t13 -86.5q0 -80 -44 -138t-120 -77
v-115h-84zM162 1487q0 -59 55 -107v203q-55 -30 -55 -96zM350 1067q0 62 -49 111v-213q49 36 49 102z" />
    <glyph glyph-name="hypheninferior" unicode="&#xf6e5;" horiz-adv-x="307" 
d="M270 66h-233v88h233v-88z" />
    <glyph glyph-name="hyphensuperior" unicode="&#xf6e6;" horiz-adv-x="307" 
d="M270 1229h-233v88h233v-88z" />
    <glyph glyph-name="periodinferior" unicode="&#xf6e7;" horiz-adv-x="286" 
d="M217 -236q0 -30 -21.5 -51.5t-52.5 -21.5q-29 0 -51 22t-22 51t22 50.5t51 21.5q31 0 52.5 -21.5t21.5 -50.5z" />
    <glyph glyph-name="periodsuperior" unicode="&#xf6e8;" horiz-adv-x="286" 
d="M217 926q0 -30 -22 -52t-52 -22q-29 0 -51 22.5t-22 51.5t22 50t51 21q31 0 52.5 -21t21.5 -50z" />
    <glyph glyph-name="asuperior" unicode="&#xf6e9;" horiz-adv-x="571" 
d="M479 668h-108v67q-47 -84 -140 -84q-79 0 -127.5 58t-48.5 155t48.5 154t127.5 57q93 0 140 -78v107q0 133 -109 133q-76 0 -137 -74l-45 76q82 88 203 88q100 0 148 -56.5t48 -174.5v-428zM264 727q76 0 107 78v123q-31 78 -107 78q-47 0 -73.5 -40t-26.5 -100
q0 -61 26 -100t74 -39z" />
    <glyph glyph-name="bsuperior" unicode="&#xf6ea;" horiz-adv-x="598" 
d="M307 739q59 0 86 69.5t27 180.5t-27 180.5t-86 69.5q-33 0 -62.5 -29.5t-43.5 -72.5v-297q14 -43 43.5 -72t62.5 -29zM201 668h-109v888h109v-333q22 51 59 77.5t78 26.5q94 0 144 -92.5t50 -245.5q0 -156 -49.5 -247t-144.5 -91q-39 0 -76 27t-61 76v-86z" />
    <glyph glyph-name="dsuperior" unicode="&#xf6eb;" horiz-adv-x="595" 
d="M504 668h-107v86q-24 -49 -61 -76t-76 -27q-95 0 -146 91t-51 247q0 152 51.5 245t145.5 93q40 0 77.5 -26.5t59.5 -77.5v333h107v-888zM291 739q33 0 62.5 29t43.5 72v297q-14 43 -43.5 72.5t-62.5 29.5q-59 0 -87 -69.5t-28 -180.5t28 -180.5t87 -69.5z" />
    <glyph glyph-name="esuperior" unicode="&#xf6ec;" horiz-adv-x="575" 
d="M311 651q-118 0 -183 93.5t-65 244.5q0 146 61 242t171 96q111 0 167 -94.5t56 -245.5v-35h-346q2 -99 40.5 -158t109.5 -59q67 0 120 76l56 -57q-33 -48 -82 -75.5t-105 -27.5zM412 1030q0 40 -6 75.5t-19 68t-37.5 52t-58.5 19.5q-32 0 -56.5 -20.5t-37.5 -53.5
t-19 -69t-6 -72h240z" />
    <glyph glyph-name="isuperior" unicode="&#xf6ed;" horiz-adv-x="292" 
d="M147 1405q-29 0 -50 21.5t-21 50.5t21 51t50 22t50.5 -22t21.5 -51t-21.5 -50.5t-50.5 -21.5zM201 668h-109v643h109v-643z" />
    <glyph glyph-name="lsuperior" unicode="&#xf6ee;" horiz-adv-x="292" 
d="M201 668h-109v888h109v-888z" />
    <glyph glyph-name="msuperior" unicode="&#xf6ef;" horiz-adv-x="868" 
d="M776 668h-106v481q0 88 -68 88q-35 0 -66 -30t-47 -72v-467h-108v481q0 88 -66 88q-36 0 -66.5 -30.5t-47.5 -71.5v-467h-109v643h109v-88q20 40 64 72t91 32q116 0 129 -110q23 46 67 78t93 32q67 0 99 -36t32 -113v-510z" />
    <glyph glyph-name="osuperior" unicode="&#xf6f0;" horiz-adv-x="591" 
d="M295 651q-112 0 -172 97.5t-60 240.5t60 240.5t172 97.5q78 0 131.5 -48.5t76.5 -122.5t23 -167t-23 -167t-76.5 -122.5t-131.5 -48.5zM295 743q119 0 119 246q0 244 -119 244q-117 0 -117 -244q0 -246 117 -246z" />
    <glyph glyph-name="rsuperior" unicode="&#xf6f1;" horiz-adv-x="389" 
d="M201 668h-109v643h109v-101q26 53 66.5 84t90.5 31v-108l-26 2q-39 0 -74 -29t-57 -72v-450z" />
    <glyph glyph-name="ssuperior" unicode="&#xf6f2;" horiz-adv-x="468" 
d="M229 651q-122 0 -196 86l51 74q63 -78 139 -78q41 0 70 26.5t29 69.5q0 29 -15 53t-38.5 40.5t-52 32.5t-57.5 34.5t-52.5 41t-38.5 56.5t-15 76q0 69 51 116.5t132 47.5q111 0 182 -78l-47 -69q-53 67 -127 67q-38 0 -63 -24t-25 -60q0 -37 27.5 -64.5t67 -48.5
t79 -45.5t67 -67.5t27.5 -103q0 -79 -54.5 -131t-140.5 -52z" />
    <glyph glyph-name="tsuperior" unicode="&#xf6f3;" horiz-adv-x="350" 
d="M231 651q-75 0 -100 39.5t-25 110.5v428h-71v82h71v176h107v-176h92v-82h-92v-422q0 -70 43 -70q29 0 45 23q1 -4 12.5 -31t16.5 -41q-32 -37 -99 -37z" />
    <glyph glyph-name="Lslash.smcp" unicode="&#xf6f9;" horiz-adv-x="643" 
d="M43 395v135l109 62v534h145v-450l129 76v-138l-129 -73v-412h305v-129h-450v457z" />
    <glyph glyph-name="OE.smcp" unicode="&#xf6fa;" horiz-adv-x="1079" 
d="M1004 0h-449v111q-55 -136 -180 -136q-64 0 -114.5 30.5t-84 83.5t-55.5 128.5t-31.5 160.5t-9.5 185t9.5 185t31.5 160.5t55.5 128.5t84 83.5t114.5 30.5q124 0 180 -135v110h449v-129h-304v-354h291v-129h-291v-385h304v-129zM555 317v494q-41 211 -154 211
q-172 0 -172 -459t172 -459q113 0 154 213z" />
    <glyph glyph-name="Scaron.smcp" unicode="&#xf6fd;" horiz-adv-x="632" 
d="M301 -25q-82 0 -143 26.5t-121 88.5l72 109q79 -97 184 -97q57 0 97 46t40 122q0 50 -19.5 94t-50.5 77.5t-69 66.5t-76 69t-69 76t-50.5 96.5t-19.5 122.5q0 123 75 201t193 78q69 0 120 -20t101 -66l-63 -111q-67 70 -150 70q-53 0 -89 -41.5t-36 -110.5
q0 -44 19.5 -83.5t51 -71.5t69 -65t75.5 -70.5t69.5 -80t51 -101.5t19.5 -128q0 -130 -78 -213.5t-203 -83.5zM397 1241h-137l-139 295h84l125 -215l116 215h86z" />
    <glyph glyph-name="Zcaron.smcp" unicode="&#xf6ff;" horiz-adv-x="598" 
d="M543 0h-488v115l314 882h-314v129h475v-112l-313 -885h326v-129zM365 1241h-138l-139 295h84l125 -215l117 215h86z" />
    <glyph glyph-name="exclam.smcp" unicode="&#xf721;" horiz-adv-x="372" 
d="M268 1126l-28 -796h-107l-29 796h164zM293 86q0 -43 -32 -74.5t-75 -31.5q-44 0 -75 31.5t-31 74.5t31 73.5t75 30.5q43 0 75 -31t32 -73z" />
    <glyph glyph-name="dollar.onum" unicode="&#xf724;" horiz-adv-x="632" 
d="M270 -152v129q-69 5 -124 31.5t-109 81.5l72 109q69 -88 161 -97v424q-39 35 -57.5 52.5t-50 54.5t-46.5 67.5t-27.5 76t-12.5 95.5q0 102 53 174.5t141 94.5v145h109v-137q105 -8 186 -84l-63 -111q-59 59 -123 68v-381q47 -42 74 -70t61.5 -75.5t51 -102.5t16.5 -121
q0 -107 -55 -184t-148 -102v-138h-109zM430 270q0 85 -63 162v-307q63 49 63 145zM227 872q0 -69 56 -139v266q-56 -40 -56 -127z" />
    <glyph glyph-name="ampersand.smcp" unicode="&#xf726;" horiz-adv-x="698" 
d="M702 0h-145q-28 43 -59 96q-92 -119 -211 -119q-103 0 -167.5 82.5t-64.5 221.5q0 113 42.5 191.5t117.5 148.5q-59 145 -59 249q0 131 54 206t142 75q73 0 126.5 -63.5t53.5 -161.5q0 -47 -11.5 -89.5t-25 -70.5t-44 -64t-46.5 -52t-55 -52q31 -71 70 -135
q38 -75 76 -137q36 109 59 231l107 -43q-41 -187 -97 -305q38 -62 137 -209zM305 82q72 0 133 113q-60 104 -98 172q-46 77 -74 141q-80 -97 -80 -223q0 -93 36.5 -148t82.5 -55zM276 870q0 -72 31 -163q52 52 80.5 102.5t28.5 114.5q0 58 -19.5 92.5t-44.5 34.5
q-34 0 -55 -43.5t-21 -137.5z" />
    <glyph glyph-name="zero.onum" unicode="&#xf730;" horiz-adv-x="843" 
d="M758 563q0 -106 -15.5 -201.5t-51 -186.5t-104 -145.5t-163.5 -54.5q-77 0 -137 37t-96.5 95.5t-60.5 138.5t-33 157t-9 160t9 160.5t33 157t60.5 138t96.5 95.5t137 37q76 0 136 -37t96 -95.5t60 -138t33 -157t9 -160.5zM598 563q0 53 -2 97t-8 99.5t-18 97t-30.5 78.5
t-48 57t-67.5 20q-176 0 -176 -449q0 -53 2 -96.5t7.5 -99t18 -97t31 -78.5t48.5 -57t69 -20q174 0 174 448z" />
    <glyph glyph-name="one.onum" unicode="&#xf731;" horiz-adv-x="598" 
d="M469 0h-154v922l-204 -217l-93 96l314 325h137v-1126z" />
    <glyph glyph-name="two.onum" unicode="&#xf732;" horiz-adv-x="786" 
d="M680 0h-576v131q248 242 341.5 397t93.5 271q0 93 -43 153t-111 60q-122 0 -197 -164l-110 80q56 112 131 167.5t186 55.5q137 0 220 -93t83 -239q0 -293 -387 -682h369v-137z" />
    <glyph glyph-name="three.onum" unicode="&#xf733;" horiz-adv-x="798" 
d="M383 -264q-110 0 -195 64.5t-129 164.5l115 84q76 -174 205 -174q176 0 176 264q0 72 -17 124.5t-45.5 79t-58.5 38.5t-63 12q-60 0 -76 -2v141q16 -2 72 -2q79 0 126.5 60t47.5 174q0 244 -162 244q-125 0 -193 -160l-112 78q46 106 129.5 163.5t181.5 57.5
q142 0 226.5 -90t84.5 -273q0 -110 -52 -200t-140 -117q88 -21 147.5 -115.5t59.5 -222.5q0 -177 -84 -285t-244 -108z" />
    <glyph glyph-name="four.onum" unicode="&#xf734;" horiz-adv-x="749" 
d="M721 119h-109v-359h-153v359h-430v143l399 864h184v-870h109v-137zM459 256v676l-299 -676h299z" />
    <glyph glyph-name="five.onum" unicode="&#xf735;" horiz-adv-x="804" 
d="M397 -264q-119 0 -192 58t-127 171l112 82q34 -87 81 -129.5t120 -42.5q54 0 94.5 44t60 112t19.5 147q0 305 -157 305q-55 0 -95 -28.5t-84 -100.5l-118 41v731h559v-137h-404v-483q30 52 79 83.5t108 31.5q125 0 198.5 -115t73.5 -326q0 -120 -38.5 -220.5t-114.5 -162
t-175 -61.5z" />
    <glyph glyph-name="six.onum" unicode="&#xf736;" horiz-adv-x="802" 
d="M424 -25q-96 0 -164.5 59t-104.5 163.5t-51.5 222.5t-15.5 262q0 94 8 178.5t25.5 164.5t46.5 145t69 114t95.5 75.5t122.5 26.5q84 0 152.5 -47t105.5 -129l-92 -102q-28 69 -66 104t-96 35q-61 0 -104.5 -50.5t-66 -135.5t-32.5 -176t-10 -193v-28q30 83 86 136.5
t131 53.5q118 0 193 -113t75 -323q0 -118 -32.5 -216t-104 -162.5t-170.5 -64.5zM418 115q42 0 73 25t48 69t24.5 94.5t7.5 110.5q0 305 -151 305q-109 0 -172 -213q6 -391 170 -391z" />
    <glyph glyph-name="seven.onum" unicode="&#xf737;" horiz-adv-x="675" 
d="M319 -240h-163l309 1229h-422v137h590v-106z" />
    <glyph glyph-name="eight.onum" unicode="&#xf738;" horiz-adv-x="800" 
d="M399 -25q-154 0 -236.5 94t-82.5 259q0 123 66.5 227.5t148.5 149.5q-78 42 -139.5 133t-61.5 209q0 164 86.5 251.5t218.5 87.5q134 0 221 -87.5t87 -251.5q0 -117 -62 -208.5t-139 -133.5q81 -46 148 -149.5t67 -225.5q0 -166 -83.5 -260.5t-238.5 -94.5zM399 760
q13 5 34.5 22.5t49 48.5t47 82.5t19.5 110.5q0 105 -38 164t-112 59q-72 0 -110.5 -59t-38.5 -164q0 -59 19.5 -110.5t47 -82.5t48.5 -48t34 -23zM399 115q73 0 118.5 60.5t45.5 172.5q0 63 -21 121.5t-50 94t-54 57t-39 24.5q-14 -3 -39 -24.5t-53 -57.5t-48.5 -94.5
t-20.5 -122.5q0 -111 44 -171t117 -60z" />
    <glyph glyph-name="nine.onum" unicode="&#xf739;" horiz-adv-x="802" 
d="M348 -262q-84 0 -152.5 47t-105.5 129l94 102q26 -69 64.5 -104t97.5 -35t102 49.5t65.5 133.5t33 176t10.5 194v31q-28 -83 -84 -137t-131 -54q-119 0 -194.5 113.5t-75.5 323.5q0 118 32.5 216t104 162t170.5 64q78 0 138 -40t97 -106t61 -160t33 -191t9 -210
q0 -143 -19.5 -264t-61 -222.5t-115 -159.5t-173.5 -58zM383 406q109 0 172 212q-6 392 -168 392q-43 0 -74.5 -25t-48.5 -69t-25 -94.5t-8 -110.5q0 -305 152 -305z" />
    <glyph glyph-name="question.smcp" unicode="&#xf73f;" horiz-adv-x="559" 
d="M524 905q0 -63 -22 -116t-53 -90t-62.5 -71.5t-53.5 -76.5t-22 -88q0 -49 37 -86l-108 -53q-50 59 -50 139q0 54 19.5 100t47 80t54.5 67t46.5 76.5t19.5 92.5q0 59 -30 104t-87 45q-66 0 -115 -59l-73 88q82 94 217 94q105 0 170 -70t65 -176zM391 86q0 -43 -31.5 -74.5
t-74.5 -31.5t-75 31.5t-32 74.5q0 42 32 73t75 31t74.5 -30.5t31.5 -73.5z" />
    <glyph glyph-name="A.smcp" unicode="&#xf761;" horiz-adv-x="643" 
d="M240 1126h166l227 -1126h-152l-43 254h-233l-43 -254h-152zM420 383l-98 563l-99 -563h197z" />
    <glyph glyph-name="B.smcp" unicode="&#xf762;" horiz-adv-x="698" 
d="M369 0h-254v1126h243q125 0 192.5 -78t67.5 -210q0 -197 -143 -254q71 -21 114.5 -100.5t43.5 -178.5q0 -142 -65.5 -223.5t-198.5 -81.5zM344 129q139 0 139 190q0 83 -34.5 139t-104.5 56h-84v-385h84zM338 643q129 0 129 176q0 178 -129 178h-78v-354h78z" />
    <glyph glyph-name="C.smcp" unicode="&#xf763;" horiz-adv-x="718" 
d="M401 -25q-84 0 -147 45.5t-100.5 127t-55.5 185.5t-18 230q0 127 18 231t55.5 185.5t100.5 126.5t147 45q102 0 162.5 -61t95.5 -166l-120 -41q-24 70 -56.5 104.5t-81.5 34.5q-172 0 -172 -459t172 -459q98 0 138 150l123 -39q-35 -111 -95.5 -175.5t-165.5 -64.5z" />
    <glyph glyph-name="D.smcp" unicode="&#xf764;" horiz-adv-x="790" 
d="M354 0h-239v1126h239q120 0 202.5 -74.5t119.5 -199t37 -291.5t-37 -290.5t-119.5 -197t-202.5 -73.5zM354 129q103 0 155 116.5t52 315.5q0 132 -21.5 228t-68.5 152t-117 56h-94v-868h94z" />
    <glyph glyph-name="E.smcp" unicode="&#xf765;" horiz-adv-x="641" 
d="M565 0h-450v1126h450v-129h-305v-356h293v-127h-293v-385h305v-129z" />
    <glyph glyph-name="F.smcp" unicode="&#xf766;" horiz-adv-x="636" 
d="M260 0h-145v1126h450v-129h-305v-356h293v-127h-293v-514z" />
    <glyph glyph-name="G.smcp" unicode="&#xf767;" horiz-adv-x="759" 
d="M401 -25q-110 0 -183.5 76.5t-105.5 205.5t-32 306q0 273 79 430.5t242 157.5q182 0 256 -227l-118 -41q-25 69 -55 104t-83 35q-172 0 -172 -459t174 -459q82 0 127 68v285h-143v123h277v-467q-56 -72 -118.5 -105t-144.5 -33z" />
    <glyph glyph-name="H.smcp" unicode="&#xf768;" horiz-adv-x="796" 
d="M682 0h-147v514h-275v-514h-145v1126h145v-483h275v483h147v-1126z" />
    <glyph glyph-name="I.smcp" unicode="&#xf769;" horiz-adv-x="374" 
d="M260 0h-145v1126h145v-1126z" />
    <glyph glyph-name="J.smcp" unicode="&#xf76a;" horiz-adv-x="579" 
d="M203 -25q-118 0 -193 84l51 113q51 -68 127 -68q129 0 129 148v874h148v-888q0 -132 -70 -197.5t-192 -65.5z" />
    <glyph glyph-name="K.smcp" unicode="&#xf76b;" horiz-adv-x="757" 
d="M737 0h-168l-237 475l-72 -133v-342h-145v1126h145v-557l291 557h164l-299 -534z" />
    <glyph glyph-name="L.smcp" unicode="&#xf76c;" horiz-adv-x="606" 
d="M565 0h-450v1126h145v-997h305v-129z" />
    <glyph glyph-name="M.smcp" unicode="&#xf76d;" horiz-adv-x="1003" 
d="M889 0h-144v850l-210 -850h-64l-211 850v-850h-145v1126h190l197 -792l198 792h189v-1126z" />
    <glyph glyph-name="N.smcp" unicode="&#xf76e;" horiz-adv-x="788" 
d="M674 0h-148l-266 819v-819h-145v1126h155l258 -798v798h146v-1126z" />
    <glyph glyph-name="O.smcp" unicode="&#xf76f;" horiz-adv-x="804" 
d="M401 -25q-70 0 -125 30.5t-91 83.5t-60 128.5t-34.5 160.5t-10.5 185t10.5 185t34.5 160.5t60 128.5t91 83.5t125 30.5q86 0 150.5 -46t101.5 -128t54.5 -185.5t17.5 -228.5t-17.5 -228.5t-54.5 -185.5t-101.5 -128t-150.5 -46zM401 104q172 0 172 459t-172 459
t-172 -459t172 -459z" />
    <glyph glyph-name="P.smcp" unicode="&#xf770;" horiz-adv-x="681" 
d="M260 0h-145v1126h237q139 0 211 -97t72 -243q0 -95 -29 -170.5t-94.5 -123.5t-159.5 -48h-92v-444zM338 573q73 0 110 58t37 155q0 95 -37.5 153t-109.5 58h-78v-424h78z" />
    <glyph glyph-name="Q.smcp" unicode="&#xf771;" horiz-adv-x="804" 
d="M401 -25q-70 0 -125 30.5t-91 83.5t-60 128.5t-34.5 160.5t-10.5 185t10.5 185t34.5 160.5t60 128.5t91 83.5t125 30.5q86 0 150.5 -46t101.5 -128t54.5 -185.5t17.5 -228.5q0 -376 -143 -516l28 -74l-110 -41l-21 56q-41 -13 -78 -13zM401 104q19 0 31 5l-86 231l109 41
l67 -180q51 112 51 362q0 459 -172 459t-172 -459t172 -459z" />
    <glyph glyph-name="R.smcp" unicode="&#xf772;" horiz-adv-x="716" 
d="M649 0h-160l-145 444h-84v-444h-145v1126h239q133 0 207 -95t74 -245q0 -126 -46.5 -206.5t-113.5 -104.5zM338 573q72 0 109.5 58.5t37.5 154.5q0 95 -37.5 153t-109.5 58h-78v-424h78z" />
    <glyph glyph-name="S.smcp" unicode="&#xf773;" horiz-adv-x="632" 
d="M301 -25q-82 0 -143 26.5t-121 88.5l72 109q79 -97 184 -97q57 0 97 46t40 122q0 50 -19.5 94t-50.5 77.5t-69 66.5t-76 69t-69 76t-50.5 96.5t-19.5 122.5q0 123 75 201t193 78q69 0 120 -20t101 -66l-63 -111q-67 70 -150 70q-53 0 -89 -41.5t-36 -110.5
q0 -44 19.5 -83.5t51 -71.5t69 -65t75.5 -70.5t69.5 -80t51 -101.5t19.5 -128q0 -130 -78 -213.5t-203 -83.5z" />
    <glyph glyph-name="T.smcp" unicode="&#xf774;" horiz-adv-x="557" 
d="M350 0h-145v997h-174v129h495v-129h-176v-997z" />
    <glyph glyph-name="U.smcp" unicode="&#xf775;" horiz-adv-x="796" 
d="M399 -25q-151 0 -217.5 105.5t-66.5 339.5v706h145v-809q0 -213 139 -213q136 0 136 213v809h147v-706q0 -234 -67 -339.5t-216 -105.5z" />
    <glyph glyph-name="V.smcp" unicode="&#xf776;" horiz-adv-x="643" 
d="M406 0h-166l-230 1126h152l160 -915l159 915h152z" />
    <glyph glyph-name="W.smcp" unicode="&#xf777;" horiz-adv-x="983" 
d="M770 0h-152l-126 827l-127 -827h-152l-199 1126h152l127 -847l137 847h123l137 -850l127 850h150z" />
    <glyph glyph-name="X.smcp" unicode="&#xf778;" horiz-adv-x="663" 
d="M657 0h-159l-166 442l-166 -442h-162l240 573l-226 553h160l154 -421l151 421h162l-225 -551z" />
    <glyph glyph-name="Y.smcp" unicode="&#xf779;" horiz-adv-x="671" 
d="M410 0h-148v477l-264 649h156l182 -497l182 497h156l-264 -649v-477z" />
    <glyph glyph-name="Z.smcp" unicode="&#xf77a;" horiz-adv-x="598" 
d="M543 0h-488v115l314 882h-314v129h475v-112l-313 -885h326v-129z" />
    <glyph glyph-name="exclamdown.smcp" unicode="&#xf7a1;" horiz-adv-x="372" 
d="M104 0l29 797h107l28 -797h-164zM80 1040q0 43 31.5 75t74.5 32q44 0 75.5 -32t31.5 -75t-31.5 -73.5t-75.5 -30.5q-43 0 -74.5 30.5t-31.5 73.5z" />
    <glyph glyph-name="questiondown.smcp" unicode="&#xf7b8;" horiz-adv-x="559" 
d="M35 221q0 63 22 116t53.5 90t62.5 72t53 77t22 88q0 49 -37 86l108 53q50 -59 50 -139q0 -54 -19.5 -100t-46.5 -80t-54.5 -67t-47 -76.5t-19.5 -92.5q0 -59 30 -104.5t87 -45.5q65 0 115 60l73 -88q-83 -95 -217 -95q-105 0 -170 70t-65 176zM168 1040q0 43 31.5 75
t74.5 32t75 -32t32 -75q0 -42 -32 -73t-75 -31t-74.5 30.5t-31.5 73.5z" />
    <glyph glyph-name="Agrave.smcp" unicode="&#xf7e0;" horiz-adv-x="643" 
d="M240 1126h166l227 -1126h-152l-43 254h-233l-43 -254h-152zM420 383l-98 563l-99 -563h197zM426 1241h-94l-205 295h139z" />
    <glyph glyph-name="Aacute.smcp" unicode="&#xf7e1;" horiz-adv-x="643" 
d="M240 1126h166l227 -1126h-152l-43 254h-233l-43 -254h-152zM420 383l-98 563l-99 -563h197zM518 1536l-205 -295h-94l162 295h137z" />
    <glyph glyph-name="Acircumflex.smcp" unicode="&#xf7e2;" horiz-adv-x="643" 
d="M240 1126h166l227 -1126h-152l-43 254h-233l-43 -254h-152zM420 383l-98 563l-99 -563h197zM528 1241h-86l-123 215l-118 -215h-84l133 295h137z" />
    <glyph glyph-name="Atilde.smcp" unicode="&#xf7e3;" horiz-adv-x="643" 
d="M240 1126h166l227 -1126h-152l-43 254h-233l-43 -254h-152zM420 383l-98 563l-99 -563h197zM403 1237q-38 0 -63 30.5t-34.5 67t-26 67t-39.5 30.5q-32 0 -51 -45.5t-19 -137.5h-80q0 123 37.5 199t112.5 76q38 0 63.5 -30.5t35 -67t26 -67t38.5 -30.5q70 0 70 182h82
q0 -121 -38.5 -197.5t-113.5 -76.5z" />
    <glyph glyph-name="Adieresis.smcp" unicode="&#xf7e4;" horiz-adv-x="643" 
d="M240 1126h166l227 -1126h-152l-43 254h-233l-43 -254h-152zM420 383l-98 563l-99 -563h197zM555 1348q0 -37 -26.5 -62.5t-63.5 -25.5q-36 0 -62 26t-26 62q0 37 26.5 63.5t61.5 26.5q37 0 63.5 -26.5t26.5 -63.5zM266 1348q0 -37 -26.5 -62.5t-63.5 -25.5q-36 0 -62 26
t-26 62q0 37 26.5 63.5t61.5 26.5q37 0 63.5 -26.5t26.5 -63.5z" />
    <glyph glyph-name="Aring.smcp" unicode="&#xf7e5;" horiz-adv-x="643" 
d="M240 1126h166l227 -1126h-152l-43 254h-233l-43 -254h-152zM420 383l-98 563l-99 -563h197zM322 1239q-70 0 -120 49.5t-50 120.5t50 120.5t120 49.5t118.5 -49.5t48.5 -120.5t-48.5 -120.5t-118.5 -49.5zM322 1313q40 0 68 28t28 68t-28 68t-68 28t-68.5 -28t-28.5 -68
t28.5 -68t68.5 -28z" />
    <glyph glyph-name="AE.smcp" unicode="&#xf7e6;" horiz-adv-x="964" 
d="M889 0h-449v254h-213l-77 -254h-152l379 1126h512v-129h-303v-356h291v-127h-291v-385h303v-129zM440 383v565l-178 -565h178z" />
    <glyph glyph-name="Ccedilla.smcp" unicode="&#xf7e7;" horiz-adv-x="718" 
d="M381 -389q-85 0 -158 59l35 72q61 -55 121 -55q39 0 67.5 24.5t28.5 63.5q0 32 -15.5 50.5t-43.5 18.5q-30 0 -58 -28l-63 34l47 132q-91 20 -151 103.5t-85.5 203t-25.5 274.5q0 127 18 231t55.5 185.5t100.5 126.5t147 45q102 0 162.5 -61t95.5 -166l-120 -41
q-24 70 -56.5 104.5t-81.5 34.5q-172 0 -172 -459t172 -459q98 0 138 150l123 -39q-34 -104 -88 -167t-146 -71l-37 -92q27 21 60 21q47 0 78.5 -37t31.5 -96q0 -71 -51.5 -116.5t-128.5 -45.5z" />
    <glyph glyph-name="Egrave.smcp" unicode="&#xf7e8;" horiz-adv-x="641" 
d="M565 0h-450v1126h450v-129h-305v-356h293v-127h-293v-385h305v-129zM446 1241h-94l-205 295h140z" />
    <glyph glyph-name="Eacute.smcp" unicode="&#xf7e9;" horiz-adv-x="641" 
d="M565 0h-450v1126h450v-129h-305v-356h293v-127h-293v-385h305v-129zM539 1536l-205 -295h-94l161 295h138z" />
    <glyph glyph-name="Ecircumflex.smcp" unicode="&#xf7ea;" horiz-adv-x="641" 
d="M565 0h-450v1126h450v-129h-305v-356h293v-127h-293v-385h305v-129zM545 1241h-86l-123 215l-119 -215h-84l133 295h137z" />
    <glyph glyph-name="Edieresis.smcp" unicode="&#xf7eb;" horiz-adv-x="641" 
d="M565 0h-450v1126h450v-129h-305v-356h293v-127h-293v-385h305v-129zM578 1348q0 -36 -27 -62t-64 -26q-36 0 -62 26t-26 62q0 37 26.5 63.5t61.5 26.5q37 0 64 -26.5t27 -63.5zM289 1348q0 -37 -26.5 -62.5t-63.5 -25.5q-36 0 -62 26t-26 62q0 37 26.5 63.5t61.5 26.5
q37 0 63.5 -26.5t26.5 -63.5z" />
    <glyph glyph-name="Igrave.smcp" unicode="&#xf7ec;" horiz-adv-x="372" 
d="M260 0h-145v1126h145v-1126zM291 1241h-94l-205 295h139z" />
    <glyph glyph-name="Iacute.smcp" unicode="&#xf7ed;" horiz-adv-x="372" 
d="M260 0h-145v1126h145v-1126zM383 1536l-205 -295h-94l162 295h137z" />
    <glyph glyph-name="Icircumflex.smcp" unicode="&#xf7ee;" horiz-adv-x="372" 
d="M260 0h-145v1126h145v-1126zM393 1241h-86l-123 215l-118 -215h-84l133 295h137z" />
    <glyph glyph-name="Idieresis.smcp" unicode="&#xf7ef;" horiz-adv-x="372" 
d="M260 0h-145v1126h145v-1126zM422 1348q0 -37 -26.5 -62.5t-63.5 -25.5q-36 0 -62 26t-26 62q0 37 26.5 63.5t61.5 26.5q37 0 63.5 -26.5t26.5 -63.5zM133 1348q0 -37 -26.5 -62.5t-63.5 -25.5q-36 0 -62 26t-26 62q0 37 26.5 63.5t61.5 26.5q37 0 63.5 -26.5t26.5 -63.5z
" />
    <glyph glyph-name="Eth.smcp" unicode="&#xf7f0;" horiz-adv-x="849" 
d="M401 0h-239v520h-119v98h119v508h239q120 0 202.5 -74.5t119.5 -199t37 -291.5t-37 -290.5t-119.5 -197t-202.5 -73.5zM444 520h-137v-391h94q103 0 155 116.5t52 315.5q0 132 -21.5 228t-68.5 152t-117 56h-94v-379h137v-98z" />
    <glyph glyph-name="Ntilde.smcp" unicode="&#xf7f1;" horiz-adv-x="788" 
d="M674 0h-148l-266 819v-819h-145v1126h155l258 -798v798h146v-1126zM471 1237q-38 0 -63 30.5t-35 67t-26.5 67t-39.5 30.5q-69 0 -69 -183h-80q0 123 37.5 199t111.5 76q38 0 63.5 -30.5t35.5 -67t26.5 -67t38.5 -30.5q70 0 70 182h82q0 -121 -38.5 -197.5t-113.5 -76.5z
" />
    <glyph glyph-name="Ograve.smcp" unicode="&#xf7f2;" horiz-adv-x="804" 
d="M401 -25q-70 0 -125 30.5t-91 83.5t-60 128.5t-34.5 160.5t-10.5 185t10.5 185t34.5 160.5t60 128.5t91 83.5t125 30.5q86 0 150.5 -46t101.5 -128t54.5 -185.5t17.5 -228.5t-17.5 -228.5t-54.5 -185.5t-101.5 -128t-150.5 -46zM401 104q172 0 172 459t-172 459
t-172 -459t172 -459zM506 1241h-94l-205 295h139z" />
    <glyph glyph-name="Oacute.smcp" unicode="&#xf7f3;" horiz-adv-x="804" 
d="M401 -25q-70 0 -125 30.5t-91 83.5t-60 128.5t-34.5 160.5t-10.5 185t10.5 185t34.5 160.5t60 128.5t91 83.5t125 30.5q86 0 150.5 -46t101.5 -128t54.5 -185.5t17.5 -228.5t-17.5 -228.5t-54.5 -185.5t-101.5 -128t-150.5 -46zM401 104q172 0 172 459t-172 459
t-172 -459t172 -459zM598 1536l-205 -295h-94l162 295h137z" />
    <glyph glyph-name="Ocircumflex.smcp" unicode="&#xf7f4;" horiz-adv-x="804" 
d="M401 -25q-70 0 -125 30.5t-91 83.5t-60 128.5t-34.5 160.5t-10.5 185t10.5 185t34.5 160.5t60 128.5t91 83.5t125 30.5q86 0 150.5 -46t101.5 -128t54.5 -185.5t17.5 -228.5t-17.5 -228.5t-54.5 -185.5t-101.5 -128t-150.5 -46zM401 104q172 0 172 459t-172 459
t-172 -459t172 -459zM608 1241h-86l-123 215l-118 -215h-84l133 295h137z" />
    </font>
</defs>
</svg>
